<?xml version="1.0" encoding="utf-8"?>
<!-- Generator: Adobe Illustrator 16.0.0, SVG Export Plug-In . SVG Version: 6.00 Build 0)  -->
<!DOCTYPE svg PUBLIC "-//W3C//DTD SVG 1.1//EN" "http://www.w3.org/Graphics/SVG/1.1/DTD/svg11.dtd">
<svg version="1.1" id="Layer_1" xmlns="http://www.w3.org/2000/svg" xmlns:xlink="http://www.w3.org/1999/xlink" x="0px" y="0px"
	 width="75px" height="75px" viewBox="12.5 12.5 75 75" enable-background="new 12.5 12.5 75 75" xml:space="preserve">
<g>
	<path d="M57.063,68.424H37.43c-0.702,0-1.271,0.568-1.271,1.27v16.064c0,0.701,0.57,1.279,1.271,1.279h19.633
		c0.702,0,1.27-0.578,1.27-1.279c0-0.703-0.567-1.27-1.27-1.27H38.708V70.963h17.085v8.543c0,0.703,0.569,1.271,1.271,1.271
		c0.702,0,1.27-0.568,1.27-1.271v-9.812C58.333,68.992,57.766,68.424,57.063,68.424z"/>
	<path d="M50.423,12.962c-10,0-18.542,3.459-25.377,10.294c-0.444,0.444-0.499,1.161-0.109,1.668l9.447,12.471
		c0.218,0.287,0.538,0.467,0.897,0.498c0.35,0.03,0.701-0.08,0.966-0.319c4.271-3.813,8.869-5.909,12.954-5.909
		c2.167,0,5.813,0.507,5.813,3.921v0.091c0,4.405-7.84,6.012-14.417,6.573c-0.655,0.062-1.162,0.606-1.162,1.27v9.813
		c0,0.701,0.569,1.271,1.271,1.271c0.701,0,1.278-0.57,1.278-1.271v-8.658c10.476-1.068,15.574-4.016,15.574-8.996v-0.091
		c0-3.993-3.203-6.47-8.357-6.47c-4.365,0-9.158,2.002-13.601,5.666l-7.958-10.5c6.205-5.828,13.867-8.782,22.783-8.782
		c13.584,0,22.359,7.294,22.359,18.572v0.196c0,9.734-5.385,15.386-17.457,18.323c-0.436,0.109-0.787,0.436-0.919,0.863
		l-1.559,5.146H40.704c-0.702,0-1.271,0.576-1.271,1.277c0,0.699,0.569,1.27,1.271,1.27H53.79c0.562,0,1.061-0.365,1.223-0.904
		l1.623-5.354c8.23-2.105,18.689-6.619,18.689-20.623v-0.196C75.325,21.44,65.318,12.962,50.423,12.962z"/>
</g>
</svg>
