<?xml version="1.0" encoding="utf-8"?>
<!-- Generator: Adobe Illustrator 16.0.0, SVG Export Plug-In . SVG Version: 6.00 Build 0)  -->
<!DOCTYPE svg PUBLIC "-//W3C//DTD SVG 1.1//EN" "http://www.w3.org/Graphics/SVG/1.1/DTD/svg11.dtd">
<svg version="1.1" id="Calque_1" xmlns="http://www.w3.org/2000/svg" xmlns:xlink="http://www.w3.org/1999/xlink" x="0px" y="0px"
	 width="320.23px" height="25px" viewBox="0 0 320.23 25" enable-background="new 0 0 320.23 25" xml:space="preserve">
<path fill="#3EFFEA" d="M130.276,10.557h-8.332V2.223c0-1.222-0.874-2.223-1.943-2.223s-1.945,1.001-1.945,2.223v8.334h-8.333
	c-1.224,0-2.222,0.874-2.222,1.943c0,1.07,0.998,1.944,2.222,1.944h8.333v8.334c0,1.224,0.876,2.222,1.945,2.222
	s1.943-0.998,1.943-2.222v-8.334h8.332c1.225,0,2.223-0.874,2.223-1.944C132.499,11.431,131.501,10.557,130.276,10.557z"/>
<g id="Your_Icon_24_">
	<path fill="#3EFFEA" d="M289.975,19.238c0,0-2.408,0.147-4.963,0.275c-0.951-0.957-0.818-3.359-0.697-4.489
		c0.992-0.983,1.871-2.235,2.393-3.652c0.053,0.078,0.113,0.147,0.195,0.187c0.891,0.441,0.67-1.362,0.711-2.125
		c0.045-0.758,0.67-1.759,0-1.759c-0.18,0-0.312,0.022-0.414,0.058C287.076,3.385,285.92,0,280.09,0
		c-6.207,0-7.041,3.432-7.119,7.818c-0.098-0.074-0.268-0.144-0.584-0.144c-0.67,0-0.047,1.001,0,1.759
		c0.045,0.763-0.18,2.566,0.713,2.125c0.131-0.068,0.219-0.196,0.281-0.358c0.477,1.447,1.318,2.73,2.295,3.741
		c0.123,1.085,0.285,3.583-0.686,4.565c-2.564-0.126-4.963-0.271-4.963-0.271c-2.363,0-4.277,1.72-4.277,3.842V25h28.5v-1.922
		C294.25,20.956,292.336,19.238,289.975,19.238z"/>
</g>
<path fill="#3EFFEA" d="M208.533,8.534c0-0.734-0.742-1.363-0.924-2.04c-0.184-0.701,0.137-1.614-0.219-2.228
	c-0.357-0.623-1.314-0.797-1.818-1.303c-0.508-0.506-0.682-1.461-1.303-1.821c-0.615-0.355-1.529-0.032-2.23-0.219
	c-0.676-0.182-1.305-0.923-2.039-0.923c-0.736,0-1.361,0.741-2.039,0.922c-0.699,0.187-1.615-0.136-2.229,0.219
	c-0.623,0.361-0.797,1.316-1.303,1.822c-0.506,0.505-1.461,0.68-1.82,1.303c-0.357,0.613-0.033,1.526-0.219,2.228
	c-0.184,0.677-0.924,1.306-0.924,2.04s0.74,1.361,0.924,2.038c0.186,0.702-0.139,1.615,0.219,2.229
	c0.359,0.622,1.314,0.797,1.82,1.301c0.488,0.49,1.113,1.555,1.113,1.555c0.074,0.125,0.178,0.116,0.227-0.021l0.318-0.869
	l0.316-0.874c0.035-0.095,0.025-0.222-0.018-0.327c-1.566-1.128-2.59-2.96-2.59-5.031c0-3.421,2.783-6.204,6.203-6.204
	s6.203,2.783,6.203,6.204c0,2.071-1.023,3.903-2.59,5.031c-0.041,0.105-0.053,0.23-0.018,0.327l0.316,0.874l0.318,0.869
	c0.049,0.139,0.15,0.146,0.227,0.021c0,0,0.625-1.064,1.115-1.555c0.504-0.504,1.461-0.68,1.818-1.301
	c0.355-0.614,0.035-1.527,0.219-2.229C207.791,9.896,208.533,9.269,208.533,8.534z"/>
<path fill="#3EFFEA" d="M203.371,15.024l-0.293-0.81c-0.043-0.121-0.166-0.181-0.285-0.152c-0.5,0.251-1.037,0.436-1.604,0.547
	c-0.123,0.051-0.248,0.168-0.289,0.289l-0.246,0.674l-0.246,0.675c-0.051,0.136-0.051,0.354-0.006,0.482
	c0.047,0.131,0.127,0.35,0.176,0.484l2.797,7.684c0.049,0.135,0.143,0.138,0.203,0.007l1.791-3.843
	c0.062-0.133,0.074-0.352,0.021-0.488l-1.541-4.24c-0.025-0.068-0.059-0.16-0.094-0.249l0,0L203.371,15.024z"/>
<path fill="#3EFFEA" d="M199.762,16.275c0.02-0.049,0.041-0.11,0.066-0.175l0.012-0.044l0.014-0.034
	c0.025-0.065,0.049-0.131,0.066-0.182c0.043-0.119,0.121-0.331,0.172-0.467l0.146-0.428c0.031-0.094,0.014-0.174-0.035-0.219
	c-0.068,0.005-0.135,0.009-0.203,0.009c-0.111,0-0.219-0.011-0.328-0.018c-0.109-0.006-0.217-0.007-0.324-0.019
	c-0.113-0.013-0.225-0.032-0.336-0.051c-0.643-0.105-1.25-0.307-1.812-0.592c-0.115-0.022-0.23,0.036-0.277,0.153l-0.678,1.873l0,0
	c-0.033,0.089-0.066,0.179-0.094,0.249l-1.541,4.239c-0.049,0.137-0.041,0.356,0.021,0.488l1.791,3.844
	c0.064,0.131,0.154,0.127,0.203-0.009l2.795-7.682c0.051-0.137,0.131-0.355,0.178-0.484l0.047-0.129
	C199.684,16.487,199.732,16.362,199.762,16.275z"/>
<path fill="#3EFFEA" d="M26.349,12.821c-0.035-0.108-0.07-0.252-0.07-0.356c0-0.248,0.106-0.496,0.354-0.744L39.522,0.213
	C39.7,0.07,39.877,0,40.018,0l0.495,0.213l12.855,11.508c0.248,0.213,0.354,0.459,0.354,0.744c0,0.104-0.035,0.248-0.07,0.356
	c-0.142,0.387-0.497,0.599-0.991,0.599h-2.055V25h-7.685v-6.977c0-0.388-0.318-0.672-0.672-0.672h-4.426
	c-0.389,0-0.674,0.32-0.674,0.672V25h-7.755V13.42h-2.053C26.845,13.42,26.526,13.208,26.349,12.821z"/>
</svg>
