<?xml version="1.0" encoding="utf-8"?>
<!-- Generator: Adobe Illustrator 16.0.0, SVG Export Plug-In . SVG Version: 6.00 Build 0)  -->
<!DOCTYPE svg PUBLIC "-//W3C//DTD SVG 1.1//EN" "http://www.w3.org/Graphics/SVG/1.1/DTD/svg11.dtd">
<svg version="1.1" id="Layer_1" xmlns="http://www.w3.org/2000/svg" xmlns:xlink="http://www.w3.org/1999/xlink" x="0px" y="0px"
	 width="200px" height="15px" viewBox="0 0 200 15" enable-background="new 0 0 200 15" xml:space="preserve">
<polygon fill="#2B374A" points="0.952,0 0.952,12.999 11.808,0 "/>
<polygon fill="#33FFFF" points="25.156,15 37.683,0 11.576,0 -0.952,15 "/>
<polygon fill="#2B374A" points="51.031,15 63.558,0 37.451,0 24.923,15 "/>
<polygon fill="#33FFFF" points="76.906,15 89.433,0 63.326,0 50.798,15 "/>
<polygon fill="#2B374A" points="102.781,15 115.308,0 89.201,0 76.673,15 "/>
<polygon fill="#33FFFF" points="128.656,15 141.183,0 115.076,0 102.55,15 "/>
<polygon fill="#2B374A" points="154.531,15 167.058,0 140.951,0 128.425,15 "/>
<polygon fill="#33FFFF" points="180.406,15 192.933,0 166.826,0 154.3,15 "/>
<polygon fill="#2B374A" points="200.952,15 200.952,0 192.701,0 180.175,15 "/>
</svg>
