<?xml version="1.0" encoding="utf-8"?>
<!-- Generator: Adobe Illustrator 16.0.0, SVG Export Plug-In . SVG Version: 6.00 Build 0)  -->
<!DOCTYPE svg PUBLIC "-//W3C//DTD SVG 1.1//EN" "http://www.w3.org/Graphics/SVG/1.1/DTD/svg11.dtd">
<svg version="1.1" id="Calque_1" xmlns="http://www.w3.org/2000/svg" xmlns:xlink="http://www.w3.org/1999/xlink" x="0px" y="0px"
	 width="40px" height="17px" viewBox="0 0 40 17" enable-background="new 0 0 40 17" xml:space="preserve">
<g>
	<path fill="#FA373A" d="M4.724,11.092C3.562,9.984,2.49,8.637,1.795,7.202c-0.358-0.76-0.559-1.521-0.425-2.368
		C1.505,3.964,1.952,3.14,2.6,2.509c1.453-1.392,3.8-1.565,5.455-0.413c0.381,0.26,0.805,0.65,1.23,0.217
		c0.426-0.414,0.09-0.869-0.268-1.151c-0.894-0.674-1.99-1.086-3.129-1.152C4.031-0.099,2.198,0.749,1.08,2.203
		c-1.072,1.436-1.386,3.26-0.76,4.913c0.782,2.107,2.349,3.825,3.935,5.368c0.872,0.848,1.767,1.695,2.639,2.563
		c0.379,0.369,0.736,0.717,1.118,1.087c0.268,0.26,0.537,0.586,0.96,0.478c0.493-0.13,0.672-0.738,0.314-1.085L4.724,11.092z"/>
	<path fill="#FA373A" d="M10.404,15.548c-0.223,0.978,0.895,1.801,1.811,1.303c0.269-0.151,0.425-0.391,0.604-0.607
		c0.693-0.869,1.386-1.717,2.08-2.586c0.446-0.565,0.872-1.153,1.364-1.696c0.782-0.847,1.542-1.671,2.191-2.604
		c0.916-1.307,1.699-2.828,1.52-4.458C19.796,3.27,18.856,1.77,17.448,0.88c-1.566-0.979-3.6-1.13-5.321-0.371
		c-0.471,0.196-0.917,0.479-1.297,0.806c-0.156,0.129-0.335,0.283-0.381,0.5c-0.044,0.217,0.022,0.413-0.044,0.63
		c-0.111,0.369-0.448,0.628-0.647,0.955c-0.226,0.348-0.36,0.74-0.382,1.151c-0.044,0.892,0.402,1.543,1.051,2.086
		c0.313,0.26,0.581,0.523,0.581,0.958c0,0.413-0.268,0.694-0.514,1.021c-0.538,0.717-0.737,1.586-0.379,2.434
		c0.155,0.348,0.402,0.632,0.692,0.892c0.268,0.239,0.604,0.435,0.716,0.782c0.177,0.498-0.113,0.805-0.336,1.216 M15.278,11.092
		l-3.398,4.216c0.134-0.457,0.582-0.805,0.805-1.239c0.268-0.498,0.291-1.087,0.157-1.65c-0.112-0.457-0.38-0.825-0.738-1.153
		c-0.336-0.302-0.738-0.541-0.805-1.02c-0.067-0.521,0.291-0.869,0.581-1.26c0.291-0.392,0.47-0.848,0.493-1.327
		c0-0.543-0.157-1.064-0.493-1.5c-0.268-0.348-0.671-0.564-0.938-0.89c-0.403-0.501-0.157-1.044,0.179-1.478
		c0.358-0.457,0.647-0.957,0.67-1.542c1.922-1.5,4.807-1.065,6.171,0.913c0.581,0.826,0.872,1.891,0.671,2.868
		c-0.202,1-0.76,1.913-1.364,2.738C16.687,9.593,16.016,10.397,15.278,11.092z"/>
</g>
<path fill="#FA373A" d="M25.612,1.182c0.612,0,1.718,0.277,3.512,1.942l0.89,0.827l0.876-0.839c1.245-1.192,2.57-1.934,3.456-1.934
	c1.2,0,2.143,0.387,3.062,1.252c0.866,0.815,1.345,1.9,1.345,3.055c0,1.155-0.479,2.24-1.354,3.065
	c-0.071,0.068-3.838,3.904-6.997,7.118c-0.149,0.135-0.319,0.153-0.408,0.153c-0.091,0-0.259-0.02-0.407-0.147
	c-0.77-0.81-6.344-6.655-6.994-7.269c-0.867-0.817-1.345-1.904-1.345-3.058c0-1.153,0.479-2.24,1.345-3.057
	C23.437,1.496,24.424,1.182,25.612,1.182 M25.612,0.005c-1.49,0-2.808,0.42-3.901,1.454c-2.281,2.146-2.281,5.63,0,7.778
	c0.653,0.614,6.978,7.252,6.978,7.252C29.048,16.83,29.521,17,29.993,17s0.943-0.17,1.303-0.511c0,0,6.92-7.043,6.993-7.113
	c2.281-2.149,2.281-5.632,0-7.779C37.157,0.53,35.892,0,34.349,0c-1.476,0-3.12,1.11-4.348,2.287
	C28.731,1.109,27.139,0.005,25.612,0.005L25.612,0.005z"/>
</svg>
