<?xml version="1.0" encoding="utf-8"?>
<!-- Generator: Adobe Illustrator 16.0.0, SVG Export Plug-In . SVG Version: 6.00 Build 0)  -->
<!DOCTYPE svg PUBLIC "-//W3C//DTD SVG 1.1//EN" "http://www.w3.org/Graphics/SVG/1.1/DTD/svg11.dtd">
<svg version="1.1" id="Calque_1" xmlns="http://www.w3.org/2000/svg" xmlns:xlink="http://www.w3.org/1999/xlink" x="0px" y="0px"
	 width="115px" height="104px" viewBox="0 0 115 104" enable-background="new 0 0 115 104" xml:space="preserve">
<g>
	<path fill="none" stroke="#FFFFFF" stroke-width="5" stroke-miterlimit="10" d="M98.725,28.125
		c-0.143-0.342-0.271-0.697-0.425-1.031c-0.395-0.898-0.826-1.834-1.33-2.771c-0.973-1.87-2.123-3.741-3.418-5.54
		c-1.296-1.763-2.663-3.454-4.174-4.857c-0.721-0.72-1.439-1.44-2.123-2.088c-0.685-0.646-1.404-1.259-2.016-1.799
		c-0.324-0.288-0.648-0.54-0.936-0.791c-0.324-0.216-0.612-0.468-0.863-0.685c-0.54-0.431-1.008-0.827-1.404-1.15
		c-0.18-0.181-0.359-0.325-0.502-0.468c-0.145-0.145-0.288-0.288-0.36-0.396c-0.181-0.251-0.288-0.396-0.288-0.396
		s-0.072,0.145-0.252,0.432c-0.072,0.181-0.144,0.36-0.216,0.577c-0.072,0.215-0.144,0.503-0.179,0.79
		c-0.108,0.611-0.181,1.367-0.145,2.159c0,0.216,0.036,0.468,0.036,0.684c-1.512-0.864-3.023-1.656-4.534-2.302
		c-0.936-0.396-1.871-0.792-2.771-1.116c-0.898-0.324-1.763-0.611-2.554-0.863c-0.396-0.145-0.792-0.252-1.151-0.36
		c-0.359-0.107-0.721-0.216-1.045-0.323c-0.682-0.216-1.294-0.396-1.762-0.54c-0.252-0.072-0.468-0.144-0.648-0.217
		c-0.215-0.07-0.396-0.143-0.502-0.215c-0.254-0.144-0.433-0.252-0.433-0.252s-0.036,0.18-0.072,0.504
		c-0.036,0.18-0.036,0.359,0,0.611s0.072,0.54,0.144,0.827c0.145,0.576,0.396,1.296,0.721,2.015c0.323,0.72,0.756,1.512,1.259,2.303
		c0.216,0.325,0.433,0.647,0.684,0.972c-0.288-0.18-0.575-0.324-0.864-0.468c-1.078-0.539-2.267-1.007-3.489-1.475
		c-1.224-0.468-6.62-1.547-8.024-1.691c-0.684-0.036-6.692-0.001-7.269,0.036c-1.115,0-12.16,1.499-12.521,1.464
		c-0.359,0-0.92-0.276,0.288,0.661c0.537,0.417,0.864,1.169,1.511,1.853c0.648,0.685,1.439,1.358,2.339,2.042
		c0.432,0.36,0.937,0.659,1.439,0.984c0.181,0.107,0.396,0.24,0.612,0.348c-0.108,0.073-0.18,0.139-0.253,0.211
		c-1.043-0.036-2.122-0.005-3.202,0.03c-0.684,0.037-1.402,0.073-2.086,0.144l-0.864,0.108c-0.324,0.036-0.647,0.072-0.972,0.107
		c-0.323,0.036-0.611,0.071-0.863,0.107c-0.288,0.037-0.576,0.073-0.828,0.108c-0.539,0.107-1.115,0.145-1.654,0.252
		c-1.115,0.18-2.195,0.36-3.203,0.539c-1.043,0.181-2.051,0.36-2.95,0.505c-0.936,0.144-1.798,0.287-2.59,0.432
		c-0.792,0.107-5.882-1.051-5.703-0.728c0.144,0.325,2.285,2.491,2.716,3.031c0.432,0.539,1.043,1.115,1.763,1.727
		c0.72,0.575,1.583,1.188,2.591,1.727c0.251,0.108,0.468,0.253,0.72,0.36c-0.36,0.144-0.756,0.287-1.115,0.432
		c-0.936,0.358-1.871,0.755-2.734,1.151c-0.864,0.396-1.655,0.827-2.412,1.187c-0.396,0.216-4.102,2.195-4.281,2.268
		s-0.971,0.288-0.971,0.288s0.071,0.145,0.287,0.396c0.107,0.145,0.252,0.288,0.432,0.433c0.217,0.144,0.432,0.323,0.684,0.468
		c0.54,0.324,1.188,0.647,1.943,0.936c0.756,0.287,1.619,0.503,2.555,0.72c0.684,0.144,1.404,0.251,2.123,0.324
		c-0.036,0-0.036,0.035-0.072,0.035c-1.691,1.26-3.347,2.698-4.93,4.246c-1.582,1.547-3.021,3.202-4.281,4.82
		c-0.648,0.828-1.223,1.619-1.763,2.41s-1.044,1.548-1.476,2.267c-0.217,0.36-0.396,0.72-0.611,1.045
		c-0.181,0.359-0.361,0.684-0.54,0.972c-0.36,0.612-0.647,1.151-0.937,1.583c-0.143,0.216-0.287,0.396-0.395,0.575
		c-0.108,0.181-0.217,0.324-0.324,0.433c-0.18,0.216-0.324,0.323-0.324,0.323s0.145,0.108,0.469,0.216
		c0.18,0.073,0.359,0.108,0.611,0.144c0.252,0.037,0.539,0.072,0.827,0.072c0.611,0,1.331-0.072,2.122-0.216
		c0.793-0.144,1.656-0.358,2.556-0.684c0.144-0.071,0.323-0.107,0.468-0.18c-0.359,0.467-0.684,0.937-1.008,1.439
		c-0.684,1.042-1.259,2.158-1.799,3.311c-0.469,1.151-0.936,2.338-1.296,3.524c-0.323,1.188-0.575,2.411-0.755,3.562
		c-0.145,1.187-0.216,2.34-0.216,3.42c0,1.114,0.108,2.158,0.251,3.093c0.145,0.937,0.288,1.799,0.541,2.591
		c0.251,0.792,0.503,1.476,0.719,2.015c0.432,1.115,0.828,1.728,0.828,1.728s0.576-0.503,1.332-1.404
		c0.395-0.432,0.826-0.971,1.294-1.582c0.433-0.611,0.937-1.295,1.476-2.015c0.504-0.72,1.008-1.511,1.512-2.339
		c0.089-0.131,0.172-0.274,0.259-0.409c-0.235,0.954-0.453,1.92-0.619,2.892c-0.288,1.225-0.468,2.482-0.612,3.706
		c-0.18,1.223-0.323,2.41-0.395,3.599c-0.072,1.187-0.181,2.302-0.181,3.382c-0.036,1.08,0.036,2.087,0.036,3.022
		c0.036,0.899,0.072,1.727,0.145,2.446c0.144,1.404,0.322,2.267,0.322,2.267s0.793-0.359,1.979-1.151
		c0.612-0.395,1.296-0.863,2.051-1.475c0.792-0.576,1.512-1.331,2.304-2.159c0.711-0.743,1.445-1.587,2.136-2.506
		c0.044,0.245,0.086,0.505,0.13,0.743c0.253,1.367,0.541,2.626,0.828,3.741c0.287,1.116,0.576,2.123,0.828,2.95
		c0.503,1.655,0.936,2.592,0.936,2.592s0.646-0.828,1.511-2.34c0.433-0.755,0.937-1.654,1.439-2.733
		c0.184-0.393,0.368-0.817,0.553-1.241c0.08,0.223,0.159,0.446,0.239,0.665c0.575,1.476,1.33,2.843,2.086,4.102
		c0.72,1.296,1.654,2.411,2.52,3.418c0.898,0.971,1.762,1.87,2.662,2.591c0.899,0.72,1.728,1.295,2.447,1.764
		c0.719,0.466,1.33,0.791,1.762,1.007c0.433,0.216,0.685,0.323,0.685,0.323s0.144-0.251,0.36-0.684
		c0.25-0.468,0.539-1.08,0.863-1.871c0.323-0.79,0.683-1.691,1.007-2.698c0.288-1.008,0.756-2.121,1.044-3.274
		c0.18-0.647,0.36-1.331,0.504-2.051c0.071,0.288,0.144,0.613,0.252,0.936c0.467,1.547,0.971,3.023,1.475,4.318
		s0.971,2.445,1.403,3.417s0.827,1.765,1.115,2.304c0.144,0.252,0.288,0.468,0.36,0.612s0.107,0.216,0.107,0.216
		s0.072-0.036,0.18-0.145c0.107-0.107,0.324-0.252,0.539-0.468c0.469-0.396,1.116-0.971,1.871-1.764
		c0.757-0.791,1.62-1.763,2.52-2.915c0.863-1.15,1.763-2.481,2.626-3.956c0.433-0.757,0.899-1.512,1.296-2.339
		c0.396-0.828,0.791-1.655,1.151-2.554c0.323-0.757,0.647-1.584,0.935-2.411c0.793,0.684,1.621,1.258,2.482,1.689
		c1.188,0.612,2.376,0.973,3.491,1.188c1.116,0.216,2.123,0.216,3.022,0.144c0.468-0.071,0.9-0.144,1.26-0.215
		c0.396-0.073,0.719-0.181,1.043-0.289c1.225-0.432,1.835-0.971,1.835-0.971s-0.54-0.576-1.259-1.476
		c-0.18-0.216-0.396-0.433-0.576-0.72c-0.215-0.252-0.396-0.539-0.611-0.827c-0.396-0.576-0.828-1.188-1.188-1.836
		c-0.756-1.295-2.72-2.627-3.259-3.958c-0.289-0.646-3.296-5.072-3.296-5.072v-0.037c0,0.253,1.388,0.108,1.388,0.108
		s0.137-1.619-0.007-2.086c-0.144-0.468,0.014-0.937-0.165-1.404c-0.146-0.467-0.154-0.899-0.335-1.367
		c-0.18-0.395-0.24-0.791-0.383-1.188c-0.072-0.719-0.138-1.476-0.282-2.23c-0.062-0.705-0.201-1.404-0.337-2.087
		c0.19,0.01,0.398,0.036,0.585,0.036c0.899,0,1.695-0.036,2.451-0.181c0.72-0.108,1.406-0.287,1.947-0.467
		c0.529-0.142,0.991-0.353,1.279-0.462c0.348,0.821,6.075,13.531,24.953,6.219c0,0-5.613-1.871-6.621-4.606
		c-1.008-2.733-0.539-1.907,0.145-5.721c0.78-4.313-0.164-6.738-1.881-8.002c0.021-0.03,0.041-0.061,0.062-0.092l0.238-0.238
		c3.765,6.762,8.695,4.027,11.403,8.979c2.734,5.002,2.339,11.946,1.547,17.415C126.856,48.53,101.306,29.707,98.725,28.125z"/>
	<g>
		<path fill="#2C374B" d="M5.922,52.333c0,0,0.143,0.107,0.462,0.213c0.178,0.072,0.355,0.107,0.604,0.142
			c0.249,0.037,0.534,0.071,0.818,0.071c0.604,0,1.316-0.071,2.099-0.213c0.784-0.142,1.637-0.354,2.526-0.676
			c0.143-0.071,0.32-0.106,0.462-0.178c-0.356,0.461-0.676,0.926-0.996,1.423c-0.676,1.03-1.245,2.134-1.779,3.273
			c-0.463,1.138-0.925,2.312-1.281,3.484c-0.32,1.175-0.569,2.384-0.747,3.522c-0.142,1.173-0.213,2.313-0.213,3.381
			c0,1.102,0.107,2.134,0.249,3.059c0.143,0.926,0.285,1.778,0.534,2.562c0.249,0.783,0.498,1.459,0.711,1.991
			c0.427,1.104,0.819,1.708,0.819,1.708s0.569-0.497,1.317-1.388c0.391-0.427,0.817-0.96,1.28-1.564
			c0.427-0.604,0.926-1.28,1.459-1.992c0.498-0.711,0.996-1.493,1.494-2.312c0.534-0.783,1.031-1.636,1.494-2.526
			c0.498-0.89,0.996-1.779,1.423-2.704c0.462-0.925,0.925-1.814,1.316-2.773c0.462-0.927,0.819-1.887,1.209-2.812
			c0.391-0.889,0.712-1.885,1.067-2.774c0.178-0.463,0.32-0.925,0.462-1.388c0.178-0.463,0.32-0.889,0.462-1.352
			c0.213-0.747,0.427-1.459,0.641-2.17c2.703,8.716,13.839,14.585,31.519,23.338c-0.427-14.729,8.503-11.812,9.036-13.271
			l1.85,0.142l7.472,1.104l25.365-25.329c0.889,0.319,1.458,0.462,1.458,0.462s-0.035-0.676-0.214-1.707l1.459-1.459l-3.06-4.27
			c-0.178-0.392-0.32-0.819-0.499-1.21c-0.391-0.888-0.817-1.813-1.315-2.739c-0.961-1.849-2.1-3.699-3.38-5.478
			c-1.28-1.743-2.632-3.416-4.126-4.803c-0.712-0.712-1.424-1.424-2.1-2.064c-0.676-0.639-1.389-1.245-1.993-1.778
			c-0.32-0.285-0.64-0.534-0.924-0.782c-0.32-0.213-0.605-0.462-0.854-0.677c-0.533-0.426-0.995-0.818-1.388-1.138
			c-0.178-0.179-0.355-0.321-0.497-0.462c-0.143-0.143-0.284-0.285-0.355-0.392c-0.18-0.248-0.285-0.391-0.285-0.391
			s-0.071,0.143-0.25,0.427c-0.071,0.179-0.141,0.356-0.212,0.571c-0.071,0.212-0.143,0.497-0.178,0.781
			c-0.106,0.604-0.178,1.352-0.143,2.135c0,0.213,0.036,0.462,0.036,0.676c-1.494-0.854-2.989-1.638-4.483-2.276
			c-0.926-0.392-1.851-0.783-2.739-1.104c-0.89-0.32-1.743-0.604-2.525-0.854c-0.392-0.143-0.784-0.249-1.14-0.356
			c-0.354-0.106-0.711-0.213-1.032-0.319c-0.675-0.213-1.279-0.392-1.742-0.534c-0.249-0.071-0.463-0.142-0.641-0.214
			c-0.213-0.069-0.391-0.141-0.497-0.212c-0.25-0.142-0.427-0.249-0.427-0.249s-0.036,0.178-0.071,0.498
			c-0.035,0.178-0.035,0.355,0,0.604c0.036,0.249,0.071,0.534,0.142,0.818c0.143,0.57,0.391,1.281,0.712,1.992
			c0.319,0.711,0.747,1.495,1.245,2.277c0.213,0.321,0.427,0.64,0.676,0.96c-0.284-0.178-0.569-0.321-0.854-0.462
			c-1.066-0.533-2.241-0.996-3.45-1.458s-2.526-0.749-3.843-1.068c-1.315-0.319-2.703-0.461-4.09-0.604
			c-0.676-0.036-1.387-0.106-2.063-0.142l-0.854-0.037c-0.32,0-0.64,0-0.96,0c-0.355,0-0.64,0-0.89,0c-0.284,0-0.534,0-0.818,0
			c-0.534,0.037-1.103,0-1.672,0.037c-1.103,0-2.17,0.036-3.202,0.072c-1.032,0.035-2.028,0.07-2.953,0.106
			c-0.924,0.035-1.779,0.035-2.596,0.071c-0.784,0-1.495,0-2.099,0c-0.605,0-1.103-0.037-1.459-0.071
			c-0.356,0-0.534-0.071-0.534-0.071c-0.036,0-0.036,0.214,0.107,0.569c0.143,0.355,0.356,0.854,0.712,1.422
			c0.356,0.57,0.854,1.246,1.494,1.921c0.641,0.677,1.423,1.389,2.312,2.064c0.427,0.356,0.925,0.675,1.423,0.997
			c0.178,0.106,0.391,0.248,0.605,0.354c-0.107,0.072-0.178,0.143-0.25,0.214c-1.031-0.036-2.099,0-3.166,0.035
			c-0.676,0.037-1.387,0.072-2.063,0.143l-0.854,0.107c-0.321,0.036-0.64,0.071-0.961,0.106c-0.319,0.036-0.604,0.071-0.854,0.106
			c-0.285,0.037-0.569,0.072-0.818,0.107c-0.533,0.106-1.103,0.143-1.636,0.249c-1.103,0.178-2.17,0.356-3.167,0.533
			c-1.031,0.179-2.027,0.356-2.917,0.5c-0.925,0.142-1.778,0.284-2.561,0.427c-0.784,0.106-1.495,0.213-2.099,0.284
			c-0.57,0.071-1.067,0.143-1.423,0.143c-0.355,0.036-0.534,0-0.534,0c0-0.037,0.036,0.213,0.214,0.533
			c0.142,0.322,0.462,0.783,0.889,1.317c0.427,0.533,1.031,1.103,1.743,1.708c0.712,0.568,1.565,1.174,2.562,1.707
			c0.249,0.107,0.462,0.25,0.711,0.356c-0.356,0.142-0.747,0.284-1.103,0.427c-0.925,0.354-1.85,0.747-2.704,1.139
			c-0.854,0.391-1.636,0.818-2.384,1.173c-0.392,0.214-0.748,0.392-1.068,0.57c-0.355,0.179-0.675,0.356-0.959,0.533
			c-0.605,0.321-1.139,0.641-1.601,0.854c-0.213,0.107-0.427,0.213-0.604,0.285c-0.178,0.071-0.355,0.142-0.499,0.178
			c-0.284,0.071-0.462,0.107-0.462,0.107s0.071,0.143,0.284,0.391c0.107,0.143,0.249,0.285,0.427,0.428
			c0.213,0.142,0.426,0.32,0.676,0.463c0.534,0.32,1.174,0.64,1.921,0.925c0.747,0.284,1.601,0.497,2.526,0.711
			c0.676,0.142,1.388,0.249,2.099,0.321c-0.036,0-0.036,0.035-0.071,0.035c-1.672,1.246-3.309,2.668-4.874,4.198
			c-1.564,1.529-2.988,3.166-4.233,4.766c-0.641,0.819-1.209,1.601-1.743,2.383c-0.535,0.782-1.033,1.53-1.459,2.241
			c-0.213,0.356-0.391,0.711-0.604,1.033c-0.179,0.355-0.357,0.676-0.534,0.96c-0.356,0.605-0.641,1.139-0.925,1.565
			c-0.142,0.213-0.284,0.391-0.391,0.568c-0.107,0.179-0.213,0.321-0.32,0.428C6.064,52.226,5.922,52.333,5.922,52.333z"/>
		<path fill="#77C8D9" d="M27.445,77.127c0.036,1.673,0.321,3.309,0.604,4.91c0.356,1.601,0.889,3.132,1.423,4.59
			c0.569,1.459,1.316,2.811,2.063,4.055c0.711,1.281,1.636,2.384,2.49,3.38c0.889,0.96,1.743,1.849,2.632,2.562
			c0.889,0.712,1.708,1.28,2.419,1.744c0.711,0.46,1.316,0.781,1.743,0.995c0.427,0.213,0.676,0.319,0.676,0.319
			s0.142-0.248,0.356-0.676c0.248-0.463,0.533-1.068,0.854-1.85c0.32-0.781,0.675-1.673,0.996-2.668
			c0.284-0.997,0.747-2.098,1.032-3.237c0.177-0.641,0.356-1.316,0.498-2.028c0.071,0.285,0.143,0.606,0.249,0.925
			c0.462,1.53,0.961,2.99,1.458,4.271c0.499,1.28,0.96,2.417,1.388,3.378s0.818,1.745,1.103,2.278
			c0.143,0.249,0.284,0.462,0.356,0.605c0.071,0.143,0.106,0.213,0.106,0.213s0.071-0.036,0.178-0.143
			c0.106-0.106,0.32-0.249,0.533-0.463c0.462-0.391,1.103-0.96,1.85-1.744c0.748-0.781,1.602-1.742,2.491-2.882
			c0.853-1.138,1.743-2.453,2.596-3.911c0.427-0.749,0.89-1.495,1.281-2.312c0.391-0.819,0.782-1.637,1.138-2.525
			c0.32-0.748,0.64-1.566,0.924-2.384c0.784,0.676,1.602,1.244,2.455,1.671c1.175,0.605,2.349,0.961,3.452,1.175
			c1.103,0.213,2.1,0.213,2.987,0.142c0.464-0.07,0.891-0.142,1.246-0.212c0.392-0.073,0.712-0.179,1.031-0.286
			c1.211-0.427,1.815-0.96,1.815-0.96s-0.534-0.569-1.246-1.459c-0.178-0.213-0.391-0.428-0.569-0.711
			c-0.213-0.25-0.391-0.533-0.604-0.818c-0.392-0.569-0.818-1.175-1.174-1.815c-0.748-1.28-1.353-2.597-1.885-3.913
			c-0.285-0.64-1.922-5.015-1.922-5.015V72.29c0.071,0.25,0.035,0.107,0.035,0.107s-0.533-1.602-0.676-2.062
			c-0.142-0.463-0.32-0.926-0.497-1.389c-0.144-0.462-0.321-0.89-0.499-1.352c-0.178-0.391-0.32-0.782-0.462-1.174
			c-0.071-0.711-0.178-1.459-0.319-2.206c-0.072-0.818-0.286-1.637-0.427-2.42c-0.071-0.427-0.178-0.818-0.25-1.208
			c-0.071-0.392-0.142-0.783-0.249-1.176c-0.106-0.781-0.32-1.529-0.427-2.24l-0.106-0.532c0-0.179-0.036-0.357-0.072-0.535
			c-0.035-0.355-0.142-0.711-0.177-1.066c-0.142-0.712-0.213-1.424-0.356-2.171c-0.071-0.747-0.213-1.493-0.285-2.241
			c-0.071-0.639-0.142-1.209-0.213-1.779c1.139-1.353,2.455-2.705,3.913-3.948c1.423-1.21,2.916-2.35,4.411-3.417
			c0.321,0.179,0.677,0.356,0.996,0.533c0.712,0.463,1.458,0.783,2.206,1.21c0.747,0.356,1.494,0.747,2.24,1.104
			c0.748,0.319,1.459,0.676,2.171,0.959c0.747,0.285,1.388,0.57,2.027,0.783c0.641,0.213,1.209,0.427,1.708,0.569
			c0.498,0.143,0.926,0.25,1.21,0.32c0.284,0.072,0.462,0.106,0.462,0.106s0-0.177,0-0.461c-0.035-0.285,0-0.713-0.071-1.246
			c-0.035-0.534-0.106-1.174-0.284-1.85s-0.356-1.458-0.676-2.241c-0.32-0.782-0.676-1.636-1.174-2.454
			c-0.462-0.819-1.031-1.672-1.707-2.49c-0.072-0.107-0.178-0.248-0.285-0.356c0.428-0.248,0.854-0.497,1.244-0.71
			c1.709-0.997,2.704-1.565,2.704-1.565s-0.284-0.143-0.782-0.356c-0.533-0.177-1.28-0.463-2.242-0.747
			c-0.994-0.249-2.168-0.57-3.557-0.783c-0.996-0.178-2.1-0.32-3.309-0.391c-0.711-0.321-1.423-0.641-2.134-0.891
			c-1.139-0.354-2.277-0.676-3.451-0.746c-1.104-0.179-2.277-0.072-3.309,0c-0.533,0.107-1.031,0.213-1.529,0.32
			c-0.249,0.071-0.498,0.106-0.711,0.177c-0.25,0.072-0.463,0.143-0.677,0.249c-0.427,0.179-0.854,0.356-1.209,0.535
			c-0.391,0.213-0.748,0.427-1.066,0.641c-0.676,0.427-1.174,0.818-1.495,1.209c-0.355,0.356-0.641,0.711-0.818,0.926
			c-0.178,0.213-0.285,0.355-0.285,0.355s-0.427,0.035-0.711,0.07c-0.711,0.036-1.494,0.142-2.312,0.32
			c-0.818,0.213-1.708,0.427-2.597,0.782c-0.889,0.356-1.814,0.748-2.704,1.316c-0.925,0.534-1.814,1.21-2.668,1.922
			c-0.427,0.356-0.854,0.746-1.246,1.174c-0.392,0.391-0.783,0.854-1.139,1.316c-0.747,0.924-1.352,1.957-1.921,2.989
			c-0.533,1.103-0.995,2.169-1.244,3.308c-0.321,1.068-0.392,2.242-0.463,3.274c0,0.569,0.037,1.066,0.072,1.565
			c0.035,0.25,0.035,0.462,0.071,0.712c0.036,0.213,0.107,0.427,0.143,0.641c-0.072,0.034-0.143,0.105-0.249,0.141
			c-0.428,0.25-1.032,0.605-1.744,1.103c-0.355,0.25-0.71,0.534-1.103,0.854c-0.427,0.32-0.783,0.676-1.21,1.066
			c-0.819,0.819-1.672,1.744-2.454,2.812c-0.818,1.066-1.565,2.275-2.242,3.593c-0.64,1.314-1.28,2.774-1.707,4.27
			c-0.213,0.746-0.427,1.528-0.604,2.312c-0.143,0.818-0.285,1.601-0.392,2.419C27.338,73.784,27.338,75.457,27.445,77.127z"/>
		<path fill="#77C8D9" d="M24.918,47.956c0.25,0.286,0.605,0.75,0.997,1.354c0.355,0.604,0.818,1.352,1.209,2.206
			c0.427,0.854,0.818,1.85,1.174,2.953c0.321,1.103,0.64,2.312,0.854,3.593c0.071,0.641,0.178,1.28,0.249,1.956
			c0.071,0.675,0.071,1.352,0.107,2.063c0.07,1.388-0.036,2.811-0.179,4.271c-0.142,1.423-0.427,2.881-0.747,4.304
			c-0.391,1.423-0.818,2.811-1.317,4.161c-0.534,1.353-1.138,2.634-1.778,3.843c-0.711,1.174-1.424,2.312-2.17,3.344
			c-0.747,1.032-1.565,1.958-2.348,2.775c-0.783,0.819-1.494,1.565-2.277,2.135c-0.747,0.604-1.423,1.068-2.028,1.458
			c-1.174,0.783-1.957,1.139-1.957,1.139s-0.177-0.853-0.32-2.241c-0.071-0.712-0.106-1.529-0.142-2.419
			c0-0.925-0.071-1.92-0.036-2.988c0-1.067,0.107-2.17,0.178-3.344c0.071-1.175,0.213-2.349,0.391-3.558
			c0.142-1.21,0.321-2.454,0.605-3.664c0.213-1.246,0.498-2.49,0.818-3.7c0.285-1.209,0.676-2.419,0.997-3.629
			c0.32-1.21,0.747-2.384,1.138-3.522c0.214-0.569,0.428-1.137,0.641-1.672c0.213-0.568,0.427-1.103,0.641-1.636
			c0.427-1.067,0.854-2.063,1.315-3.024c0.427-0.96,0.89-1.85,1.281-2.633c0.427-0.782,0.783-1.493,1.139-2.098
			c0.32-0.604,0.64-1.104,0.818-1.424c0.213-0.355,0.32-0.533,0.32-0.533S24.67,47.565,24.918,47.956z"/>
		<g>
			<path fill="#E43B3C" d="M33.563,37.249c-0.106,0.462-0.214,1.103-0.355,1.885c-0.107,0.783-0.249,1.708-0.321,2.775
				c-0.106,1.068-0.106,2.241-0.142,3.451c0.036,0.604,0.036,1.246,0.036,1.92c0.035,0.676,0.035,1.318,0.071,2.029
				c0.071,1.387,0.178,2.81,0.284,4.304c0.107,0.747,0.107,1.495,0.213,2.276c0.037,0.392,0.072,0.783,0.107,1.175l0.035,0.568
				l0.036,0.286l0.036,0.426c0.107,1.778,0.178,3.557,0.214,5.337c0,1.814-0.143,3.736-0.285,5.55
				c-0.071,0.463-0.106,0.925-0.143,1.387c-0.071,0.428-0.106,0.89-0.178,1.316c-0.142,0.89-0.285,1.744-0.426,2.598
				c-0.321,1.671-0.712,3.309-1.139,4.836c-0.391,1.53-0.889,2.954-1.387,4.271c-0.534,1.317-1.031,2.49-1.53,3.559
				c-0.498,1.066-0.996,1.956-1.423,2.702c-0.854,1.495-1.494,2.313-1.494,2.313s-0.427-0.926-0.925-2.562
				c-0.249-0.817-0.534-1.813-0.818-2.917c-0.285-1.103-0.569-2.347-0.819-3.699c-0.249-1.353-0.498-2.812-0.711-4.341
				c-0.213-1.53-0.356-3.13-0.499-4.767c-0.07-0.818-0.142-1.637-0.177-2.489c-0.037-0.819-0.072-1.673-0.107-2.526
				c-0.106-1.672-0.071-3.344-0.071-5.088c-0.035-1.778,0-3.593,0.106-5.336v-0.071V58.38c0-0.106,0,0.142,0,0.106v-0.035v-0.178
				l0.035-0.355l0.037-0.713c0.035-0.463,0.071-0.96,0.106-1.422c0.107-0.925,0.284-1.886,0.427-2.811
				c0.32-1.85,0.853-3.628,1.458-5.267c0.32-0.817,0.675-1.6,1.031-2.347c0.392-0.748,0.783-1.458,1.174-2.098
				c0.854-1.281,1.708-2.42,2.598-3.309c0.853-0.925,1.743-1.601,2.49-2.099c0.747-0.498,1.387-0.818,1.85-0.996
				c0.213-0.106,0.427-0.142,0.533-0.179c0.107-0.036,0.178-0.036,0.178-0.036S33.599,36.892,33.563,37.249z"/>
		</g>
		<path fill="#E43B3C" d="M61.811,38.601c0.071,0.32,0.214,0.783,0.284,1.316c0.143,0.533,0.25,1.138,0.392,1.778
			c0.107,0.605,0.249,1.281,0.391,2.028c0.179,0.676,0.321,1.352,0.498,1.957c0.142,0.604,0.391,1.138,0.57,1.565
			c0.178,0.427,0.392,0.747,0.569,0.996c0.142,0.25,0.285,0.464,0.427,0.748c0.142,0.286,0.285,0.64,0.499,1.068
			c0.212,0.426,0.462,0.96,0.746,1.528c0.32,0.641,0.641,1.281,0.961,1.85c0.32,0.641,0.676,1.317,0.997,1.992
			c0.354,0.676,0.639,1.315,0.924,1.956c0.284,0.641,0.533,1.211,0.711,1.744c0.178,0.497,0.321,0.96,0.428,1.245
			c0.036,0.142,0.071,0.284,0.107,0.355c0.035,0.107,0.035,0.143,0.035,0.143s-0.035,0.035-0.106,0.07
			c-0.106,0.035-0.214,0.073-0.356,0.143c-0.285,0.106-0.748,0.32-1.281,0.463c-0.533,0.178-1.209,0.354-1.92,0.462
			c-0.748,0.143-1.529,0.179-2.419,0.179c-0.89,0-1.814-0.107-2.81-0.356c-0.997-0.249-1.992-0.641-3.024-1.174
			c-1.031-0.534-2.063-1.28-3.024-2.241c-0.96-0.961-1.85-2.135-2.526-3.521c-0.676-1.389-1.103-2.952-1.245-4.482
			c-0.143-1.566,0.036-3.061,0.428-4.341c0.39-1.281,0.924-2.418,1.601-3.308c0.64-0.889,1.388-1.635,2.099-2.206
			c0.355-0.248,0.711-0.534,1.067-0.747c0.392-0.213,0.711-0.391,1.067-0.569c0.675-0.32,1.352-0.57,1.885-0.712
			c0.534-0.142,1.033-0.178,1.317-0.248c0.32-0.071,0.498-0.071,0.498-0.071S61.633,38.387,61.811,38.601z"/>
		<g>
			<path fill="#FFFFFF" d="M92.191,39.917c0,0-14.515,23.871-18.001,22.768c-2.348-0.746-5.798-2.811-9.783-5.264
				c-4.554-2.775-9.355-18.037-2.276-19.353c15.901-2.954,2.952-14.231,21.914-13.377c7.862,0.355,13.696,5.479,13.696,5.479
				L92.191,39.917z"/>
		</g>
		<path fill="#2C374B" d="M82.338,30.667c0,2.136-1.743,3.878-3.914,3.914c-2.17,0-3.913-1.743-3.913-3.914
			c0-2.171,1.743-3.914,3.913-3.914C80.595,26.753,82.338,28.496,82.338,30.667"/>
		<path fill="#2C374B" d="M80.487,35.47c0-0.036,0-0.071,0-0.036C80.487,35.434,80.487,35.434,80.487,35.47
			c0.036,0,0.071-0.036,0.036,0H80.487c0.036,0.07,0,0.143-0.071,0.319c-0.07,0.213-0.248,0.534-0.462,0.854
			c-0.462,0.676-1.316,1.352-2.277,1.708c-0.961,0.356-1.993,0.427-2.774,0.284c-0.392-0.071-0.712-0.178-0.926-0.284
			c-0.213-0.107-0.32-0.177-0.32-0.177s0.107-0.106,0.32-0.213c0.179-0.142,0.463-0.285,0.782-0.463
			c0.642-0.356,1.458-0.676,2.242-0.995c0.782-0.286,1.601-0.57,2.277-0.783c0.32-0.106,0.641-0.179,0.854-0.249
			c0.107-0.036,0.214-0.071,0.284-0.071h0.036c0,0,0.071-0.037,0.071,0c0,0.035,0,0.035,0,0.035
			C80.523,35.47,80.523,35.434,80.487,35.47C80.523,35.47,80.487,35.47,80.487,35.47L80.487,35.47z"/>
		<path fill="#2C374B" d="M88.136,57.028c-0.676,3.771-1.139,2.954-0.143,5.656c0.997,2.705,6.546,4.555,6.546,4.555
			c-19.282,7.47-24.688-6.19-24.688-6.19c-2.918-9.285,8.787-12.666,8.787-12.666C83.511,47.245,89.809,47.779,88.136,57.028z"/>
		<path fill="#2C374B" d="M99.378,74.887c0.783-5.407,1.174-12.273-1.53-17.219c-2.704-4.944-7.648-2.133-11.384-9.071
			c-5.479-10.14,5.265-23.337,12.061-19.497C100.41,30.169,126.842,48.953,99.378,74.887z"/>
	</g>
</g>
</svg>
