<?xml version="1.0" encoding="utf-8"?>
<!-- Generator: Adobe Illustrator 16.0.0, SVG Export Plug-In . SVG Version: 6.00 Build 0)  -->
<!DOCTYPE svg PUBLIC "-//W3C//DTD SVG 1.1//EN" "http://www.w3.org/Graphics/SVG/1.1/DTD/svg11.dtd">
<svg version="1.1" id="Layer_1" xmlns="http://www.w3.org/2000/svg" xmlns:xlink="http://www.w3.org/1999/xlink" x="0px" y="0px"
	 width="320px" height="297px" viewBox="0 0 320 297" enable-background="new 0 0 320 297" xml:space="preserve">
<g>
	<g>
		<path fill="#2B374A" d="M12.126,144.647c0,0,0.404,0.302,1.312,0.606c0.504,0.203,1.008,0.302,1.715,0.401
			c0.706,0.104,1.511,0.203,2.321,0.203c1.714,0,3.733-0.203,5.954-0.607c2.224-0.401,4.646-1.005,7.168-1.916
			c0.405-0.202,0.908-0.303,1.313-0.502c-1.01,1.307-1.918,2.624-2.828,4.037c-1.918,2.924-3.533,6.055-5.045,9.289
			c-1.315,3.23-2.628,6.562-3.639,9.884c-0.908,3.337-1.613,6.768-2.117,9.999c-0.403,3.327-0.607,6.567-0.607,9.597
			c0,3.124,0.302,6.05,0.705,8.678c0.405,2.628,0.809,5.044,1.517,7.263c0.704,2.225,1.41,4.142,2.017,5.656
			c1.209,3.133,2.321,4.845,2.321,4.845s1.619-1.411,3.739-3.934c1.107-1.217,2.318-2.734,3.631-4.435
			c1.211-1.722,2.626-3.639,4.141-5.659c1.413-2.02,2.823-4.238,4.238-6.565c1.514-2.219,2.927-4.644,4.238-7.166
			c1.414-2.524,2.827-5.052,4.04-7.669c1.312-2.631,2.626-5.15,3.735-7.873c1.312-2.631,2.324-5.354,3.432-7.981
			c1.11-2.522,2.02-5.348,3.027-7.87c0.505-1.314,0.912-2.624,1.312-3.939c0.505-1.313,0.912-2.52,1.314-3.833
			c0.604-2.123,1.21-4.141,1.818-6.157c7.67,24.734,39.269,41.384,89.438,66.219c-1.211-41.792,24.125-33.516,25.639-37.652
			l5.251,0.4l21.199,3.13l71.979-71.869c2.522,0.906,4.14,1.31,4.14,1.31s-0.107-1.915-0.609-4.842l4.143-4.143l-8.688-12.112
			c-0.502-1.114-0.905-2.326-1.412-3.433c-1.11-2.521-2.319-5.147-3.73-7.776c-2.726-5.248-5.958-10.495-9.596-15.54
			c-3.631-4.947-7.464-9.694-11.707-13.63c-2.018-2.021-4.042-4.042-5.957-5.86c-1.916-1.812-3.938-3.531-5.656-5.044
			c-0.905-0.81-1.813-1.517-2.622-2.223c-0.908-0.603-1.719-1.311-2.423-1.917c-1.512-1.208-2.825-2.322-3.937-3.229
			c-0.507-0.508-1.008-0.912-1.411-1.312c-0.404-0.407-0.805-0.806-1.008-1.113c-0.51-0.705-0.808-1.111-0.808-1.111
			s-0.203,0.406-0.71,1.209c-0.206,0.508-0.398,1.014-0.602,1.621c-0.2,0.604-0.406,1.41-0.504,2.217
			c-0.303,1.717-0.504,3.835-0.408,6.055c0,0.609,0.108,1.314,0.108,1.919c-4.243-2.424-8.486-4.646-12.726-6.458
			c-2.626-1.112-5.253-2.221-7.772-3.13c-2.527-0.911-4.944-1.718-7.166-2.422c-1.114-0.407-2.224-0.708-3.237-1.012
			c-1.003-0.301-2.017-0.605-2.923-0.906c-1.919-0.604-3.634-1.112-4.944-1.516c-0.711-0.201-1.317-0.4-1.82-0.607
			c-0.603-0.199-1.108-0.401-1.41-0.604c-0.712-0.401-1.213-0.706-1.213-0.706s-0.096,0.504-0.201,1.414
			c-0.1,0.503-0.1,1.009,0,1.714c0.105,0.707,0.201,1.516,0.404,2.322c0.403,1.617,1.108,3.637,2.021,5.654
			c0.902,2.017,2.122,4.24,3.53,6.458c0.606,0.912,1.214,1.817,1.918,2.726c-0.807-0.506-1.611-0.909-2.421-1.312
			c-3.027-1.512-6.361-2.827-9.789-4.139c-3.432-1.313-7.174-2.123-10.907-3.028c-3.73-0.905-7.669-1.312-11.607-1.716
			c-1.918-0.102-3.937-0.301-5.854-0.403l-2.424-0.105c-0.91,0-1.817,0-2.726,0c-1.011,0-1.817,0-2.524,0c-0.804,0-1.514,0-2.321,0
			c-1.515,0.105-3.128,0-4.744,0.105c-3.129,0-6.158,0.104-9.085,0.205c-2.932,0.096-5.757,0.198-8.379,0.299
			c-2.624,0.102-5.047,0.102-7.367,0.204c-2.224,0-4.243,0-5.955,0c-1.719,0-3.132-0.106-4.142-0.204
			c-1.009,0-1.516-0.203-1.516-0.203c-0.1,0-0.1,0.611,0.304,1.617c0.403,1.011,1.012,2.426,2.018,4.037
			c1.01,1.618,2.425,3.533,4.24,5.451c1.817,1.922,4.041,3.941,6.563,5.86c1.208,1.01,2.622,1.915,4.037,2.828
			c0.505,0.301,1.109,0.703,1.717,1.005c-0.303,0.205-0.505,0.403-0.707,0.608c-2.926-0.104-5.957,0-8.983,0.097
			c-1.92,0.104-3.937,0.207-5.856,0.406l-2.421,0.305c-0.912,0.102-1.818,0.202-2.727,0.299c-0.908,0.103-1.718,0.2-2.422,0.3
			c-0.809,0.107-1.616,0.207-2.323,0.307c-1.513,0.301-3.129,0.404-4.644,0.708c-3.128,0.502-6.157,1.009-8.984,1.51
			c-2.927,0.508-5.754,1.012-8.278,1.417c-2.626,0.402-5.046,0.804-7.266,1.212c-2.226,0.301-4.243,0.607-5.955,0.804
			c-1.619,0.203-3.03,0.406-4.04,0.406c-1.009,0.103-1.513,0-1.513,0c0-0.103,0.099,0.607,0.605,1.513
			c0.405,0.91,1.312,2.222,2.524,3.736c1.212,1.511,2.928,3.131,4.945,4.847c2.018,1.613,4.443,3.33,7.27,4.842
			c0.705,0.305,1.31,0.711,2.017,1.011c-1.011,0.404-2.119,0.806-3.129,1.211c-2.625,1.005-5.248,2.12-7.671,3.232
			c-2.425,1.108-4.645,2.319-6.763,3.327c-1.112,0.605-2.123,1.112-3.032,1.618c-1.008,0.508-1.917,1.01-2.723,1.513
			c-1.716,0.912-3.231,1.819-4.543,2.424c-0.604,0.304-1.212,0.608-1.715,0.81c-0.502,0.203-1.008,0.4-1.413,0.503
			c-0.808,0.203-1.312,0.307-1.312,0.307s0.199,0.404,0.806,1.107c0.302,0.407,0.707,0.812,1.212,1.214
			c0.605,0.402,1.209,0.909,1.916,1.315c1.514,0.908,3.332,1.816,5.452,2.624c2.12,0.803,4.542,1.41,7.169,2.018
			c1.917,0.404,3.935,0.706,5.954,0.912c-0.102,0-0.102,0.098-0.202,0.098c-4.745,3.536-9.39,7.569-13.832,11.912
			c-4.439,4.34-8.477,8.987-12.01,13.526c-1.816,2.324-3.434,4.542-4.944,6.761c-1.518,2.218-2.931,4.343-4.142,6.361
			c-0.605,1.008-1.109,2.017-1.715,2.93c-0.506,1.005-1.013,1.917-1.514,2.729c-1.012,1.715-1.818,3.229-2.625,4.436
			c-0.405,0.61-0.808,1.115-1.109,1.618c-0.304,0.505-0.608,0.906-0.911,1.211C12.532,144.345,12.126,144.647,12.126,144.647z"/>
		<path fill="#33FFFF" d="M175.87,171.495c-0.2-1.211-0.509-2.321-0.71-3.433c-0.2-1.107-0.4-2.218-0.706-3.337
			c-0.302-2.214-0.905-4.338-1.211-6.356l-0.302-1.503c0-0.512-0.103-1.014-0.206-1.518c-0.097-1.017-0.395-2.022-0.503-3.028
			c-0.403-2.025-0.603-4.041-1.011-6.161c-0.198-2.119-0.606-4.24-0.805-6.364c-0.198-1.814-0.404-3.425-0.607-5.047
			c3.234-3.836,6.966-7.674,11.105-11.2c4.036-3.434,8.274-6.667,12.517-9.695c0.912,0.507,1.918,1.011,2.822,1.513
			c2.019,1.315,4.14,2.222,6.264,3.433c2.119,1.008,4.238,2.12,6.355,3.13c2.122,0.908,4.14,1.916,6.161,2.725
			c2.121,0.809,3.939,1.617,5.755,2.22c1.814,0.606,3.427,1.211,4.847,1.616c1.411,0.405,2.627,0.708,3.432,0.906
			c0.808,0.205,1.312,0.303,1.312,0.303s0-0.501,0-1.307c-0.101-0.81,0-2.024-0.203-3.536c-0.1-1.516-0.301-3.331-0.805-5.249
			c-0.504-1.918-1.013-4.138-1.924-6.36c-0.904-2.219-1.914-4.643-3.327-6.964c-1.309-2.321-2.923-4.745-4.843-7.065
			c-0.206-0.304-0.505-0.705-0.813-1.01c1.22-0.705,2.428-1.41,3.533-2.017c4.849-2.828,7.675-4.442,7.675-4.442
			s-0.805-0.403-2.225-1.009c-1.509-0.5-3.627-1.312-6.358-2.117c-2.82-0.706-6.149-1.619-10.091-2.224
			c-2.826-0.502-5.961-0.909-9.391-1.112c-2.016-0.91-4.036-1.818-6.055-2.528c-3.232-1.007-6.462-1.915-9.788-2.118
			c-3.138-0.507-6.468-0.202-9.393,0c-1.518,0.305-2.929,0.605-4.343,0.91c-0.705,0.201-1.414,0.302-2.017,0.5
			c-0.703,0.207-1.313,0.406-1.92,0.708c-1.209,0.507-2.423,1.011-3.434,1.517c-1.108,0.607-2.123,1.211-3.025,1.82
			c-1.917,1.214-3.334,2.324-4.24,3.432c-1.01,1.011-1.817,2.017-2.323,2.627c-0.505,0.605-0.807,1.009-0.807,1.009
			s-1.211,0.099-2.02,0.198c-2.019,0.103-4.237,0.402-6.561,0.909c-2.32,0.605-4.847,1.212-7.369,2.22
			c-2.522,1.009-5.148,2.121-7.674,3.733c-2.623,1.514-5.146,3.433-7.571,5.454c-1.211,1.009-2.422,2.117-3.533,3.33
			c-1.112,1.111-2.22,2.421-3.233,3.735c-2.118,2.624-3.832,5.551-5.448,8.481c-1.515,3.126-2.826,6.154-3.533,9.384
			c-0.91,3.03-1.112,6.364-1.315,9.292c0,1.616,0.105,3.025,0.203,4.441c0.103,0.707,0.103,1.309,0.202,2.018
			c0.099,0.604,0.305,1.213,0.407,1.819c-0.208,0.1-0.407,0.301-0.707,0.399c-1.214,0.707-2.931,1.716-4.951,3.126
			c-1.008,0.713-2.017,1.52-3.129,2.428c-1.214,0.907-2.222,1.918-3.431,3.025c-2.325,2.327-4.744,4.944-6.965,7.979
			c-2.32,3.027-4.441,6.456-6.36,10.201c-1.816,3.728-3.633,7.864-4.844,12.112c-0.608,2.118-1.209,4.334-1.716,6.556
			c-0.405,2.322-0.806,4.546-1.112,6.871c-0.708,4.643-0.708,9.39-0.405,14.125c0.102,4.755,0.913,9.393,1.716,13.934
			c1.011,4.546,2.525,8.895,4.04,13.028c1.615,4.137,3.735,7.97,5.856,11.503c2.017,3.634,4.639,6.766,7.066,9.594
			c2.521,2.72,4.942,5.239,7.467,7.261c2.523,2.029,4.847,3.641,6.867,4.949c2.017,1.312,3.733,2.222,4.945,2.831
			c1.212,0.604,1.918,0.902,1.918,0.902s0.404-0.702,1.008-1.916c0.704-1.315,1.514-3.031,2.423-5.247
			c0.908-2.219,1.917-4.744,2.827-7.572c0.805-2.825,2.12-5.949,2.928-9.184c0.505-1.821,1.01-3.734,1.413-5.76
			c0.2,0.808,0.405,1.726,0.707,2.631c1.312,4.343,2.728,8.481,4.138,12.112c1.414,3.641,2.726,6.859,3.938,9.585
			c1.212,2.73,2.32,4.952,3.13,6.464c0.405,0.71,0.805,1.314,1.01,1.718c0.203,0.406,0.303,0.606,0.303,0.606
			s0.202-0.105,0.504-0.406c0.302-0.301,0.908-0.702,1.513-1.314c1.312-1.107,3.13-2.717,5.25-4.945
			c2.122-2.217,4.545-4.945,7.067-8.178c2.42-3.231,4.945-6.962,7.366-11.099c1.214-2.127,2.526-4.24,3.636-6.565
			c1.112-2.32,2.219-4.64,3.229-7.168c0.907-2.119,1.817-4.439,2.625-6.762c2.224,1.918,4.549,3.533,6.962,4.741
			c3.333,1.721,6.665,2.723,9.797,3.335c3.129,0.609,5.961,0.609,8.475,0.4c1.316-0.2,2.529-0.4,3.535-0.596
			c1.113-0.211,2.021-0.51,2.929-0.812c3.436-1.211,5.152-2.723,5.152-2.723C182.746,216.013,175.87,171.495,175.87,171.495z"/>
		<path fill="#33FFFF" d="M184.039,201.575"/>
		<path fill="#33FFFF" d="M66.031,132.228c0.708,0.812,1.719,2.124,2.827,3.84c1.011,1.716,2.322,3.837,3.434,6.258
			c1.211,2.422,2.322,5.253,3.331,8.379c0.912,3.132,1.818,6.562,2.424,10.197c0.202,1.817,0.505,3.628,0.707,5.549
			c0.202,1.918,0.202,3.836,0.303,5.856c0.201,3.935-0.102,7.974-0.506,12.116c-0.401,4.039-1.211,8.174-2.119,12.215
			c-1.109,4.035-2.319,7.974-3.737,11.807c-1.515,3.84-3.231,7.473-5.047,10.907c-2.017,3.33-4.039,6.564-6.158,9.487
			c-2.117,2.925-4.44,5.55-6.661,7.876c-2.224,2.319-4.241,4.438-6.462,6.056c-2.12,1.712-4.038,3.034-5.754,4.137
			c-3.331,2.222-5.551,3.229-5.551,3.229s-0.505-2.416-0.91-6.354c-0.201-2.021-0.303-4.341-0.401-6.866
			c0-2.624-0.203-5.45-0.103-8.481c0-3.026,0.303-6.161,0.504-9.488c0.203-3.326,0.604-6.661,1.112-10.091
			c0.401-3.438,0.909-6.969,1.715-10.398c0.605-3.532,1.413-7.062,2.321-10.498c0.811-3.433,1.917-6.867,2.828-10.298
			c0.908-3.429,2.12-6.765,3.228-9.991c0.608-1.625,1.212-3.227,1.82-4.747c0.604-1.614,1.211-3.131,1.815-4.643
			c1.212-3.028,2.423-5.854,3.734-8.581c1.211-2.725,2.525-5.25,3.634-7.472c1.213-2.217,2.222-4.233,3.233-5.952
			c0.908-1.716,1.816-3.133,2.321-4.041c0.604-1.009,0.906-1.513,0.906-1.513S65.324,131.119,66.031,132.228z"/>
		<g>
			<path fill="#FF3333" d="M90.562,101.845c-0.301,1.312-0.607,3.128-1.01,5.348c-0.303,2.222-0.706,4.847-0.91,7.874
				c-0.299,3.031-0.299,6.362-0.401,9.792c0.102,1.716,0.102,3.536,0.102,5.451c0.099,1.917,0.099,3.74,0.202,5.757
				c0.199,3.937,0.506,7.976,0.804,12.214c0.303,2.117,0.303,4.244,0.606,6.458c0.105,1.116,0.204,2.219,0.306,3.338l0.099,1.609
				l0.102,0.81l0.102,1.212c0.303,5.049,0.504,10.094,0.608,15.141c0,5.153-0.406,10.604-0.809,15.749
				c-0.202,1.315-0.302,2.63-0.407,3.934c-0.2,1.216-0.298,2.532-0.504,3.738c-0.398,2.525-0.806,4.944-1.208,7.366
				c-0.912,4.746-2.019,9.394-3.231,13.725c-1.109,4.352-2.522,8.385-3.937,12.124c-1.513,3.736-2.924,7.065-4.34,10.1
				c-1.413,3.026-2.824,5.546-4.04,7.67c-2.422,4.236-4.241,6.562-4.241,6.562s-1.211-2.631-2.624-7.269
				c-0.706-2.324-1.513-5.155-2.321-8.28c-0.807-3.129-1.614-6.653-2.323-10.5c-0.706-3.83-1.413-7.973-2.016-12.315
				c-0.607-4.341-1.009-8.881-1.417-13.525c-0.199-2.323-0.401-4.643-0.502-7.06c-0.104-2.33-0.202-4.749-0.301-7.168
				c-0.302-4.747-0.203-9.487-0.203-14.44c-0.099-5.045,0-10.192,0.302-15.144v-0.198v-0.098c0-0.304,0,0.401,0,0.296v-0.095v-0.505
				l0.097-1.013l0.104-2.021c0.102-1.314,0.203-2.72,0.303-4.034c0.304-2.622,0.806-5.351,1.211-7.973
				c0.909-5.248,2.421-10.296,4.14-14.945c0.909-2.317,1.916-4.542,2.926-6.662c1.112-2.121,2.221-4.135,3.332-5.953
				c2.422-3.636,4.846-6.868,7.372-9.389c2.421-2.624,4.946-4.544,7.065-5.957c2.119-1.411,3.936-2.321,5.25-2.823
				c0.603-0.303,1.211-0.403,1.513-0.508c0.302-0.102,0.507-0.102,0.507-0.102S90.663,100.835,90.562,101.845z"/>
		</g>
		<path fill="#FF3333" d="M170.718,105.682c0.197,0.909,0.606,2.221,0.804,3.733c0.407,1.512,0.708,3.231,1.117,5.047
			c0.3,1.716,0.701,3.637,1.107,5.754c0.507,1.918,0.911,3.836,1.412,5.552c0.398,1.717,1.11,3.231,1.617,4.442
			c0.507,1.213,1.113,2.123,1.614,2.829c0.404,0.707,0.811,1.315,1.211,2.123c0.404,0.809,0.811,1.815,1.414,3.027
			c0.604,1.208,1.314,2.723,2.122,4.34c0.905,1.815,1.817,3.634,2.726,5.249c0.904,1.817,1.917,3.734,2.831,5.651
			c1.002,1.919,1.81,3.731,2.619,5.544c0.805,1.823,1.515,3.438,2.017,4.955c0.503,1.411,0.909,2.723,1.218,3.538
			c0.101,0.398,0.199,0.797,0.307,1.006c0.093,0.306,0.093,0.403,0.093,0.403s-0.093,0.1-0.299,0.197
			c-0.304,0.103-0.612,0.206-1.013,0.403c-0.808,0.302-2.122,0.908-3.636,1.314c-1.512,0.504-3.433,1.005-5.451,1.311
			c-2.121,0.402-4.334,0.511-6.862,0.511c-2.525,0-5.15-0.305-7.973-1.014c-2.829-0.707-5.654-1.82-8.581-3.335
			c-2.925-1.507-5.858-3.631-8.581-6.355c-2.724-2.726-5.248-6.056-7.167-9.994c-1.919-3.938-3.132-8.375-3.533-12.717
			c-0.403-4.444,0.102-8.686,1.215-12.316c1.107-3.639,2.621-6.867,4.541-9.39c1.818-2.525,3.938-4.641,5.955-6.259
			c1.009-0.703,2.018-1.516,3.027-2.12c1.114-0.608,2.017-1.112,3.028-1.619c1.919-0.906,3.837-1.618,5.347-2.02
			c1.517-0.399,2.931-0.505,3.738-0.703c0.91-0.203,1.408-0.203,1.408-0.203S170.213,105.076,170.718,105.682z"/>
		<g>
			<path fill="#FFFFFF" d="M256.924,109.415c0,0-41.186,67.74-51.079,64.605c-6.662-2.116-16.45-7.979-27.762-14.938
				c-12.922-7.876-26.545-51.182-6.456-54.912c45.114-8.382,8.375-40.383,62.183-37.958c22.312,1.009,38.865,15.543,38.865,15.543
				L256.924,109.415z"/>
		</g>
		<path fill="#2B374A" d="M228.965,83.167c0,6.061-4.944,11.006-11.104,11.106c-6.161,0-11.104-4.944-11.104-11.106
			c0-6.159,4.943-11.104,11.104-11.104C224.018,72.063,228.965,77.008,228.965,83.167"/>
		<path fill="#2B374A" d="M223.714,96.8c0-0.103,0-0.202,0-0.103C223.714,96.697,223.714,96.697,223.714,96.8
			c0.106,0,0.201-0.103,0.106,0H223.714c0.106,0.197,0,0.403-0.203,0.903c-0.194,0.607-0.704,1.517-1.311,2.425
			c-1.312,1.916-3.736,3.835-6.459,4.845c-2.733,1.01-5.659,1.211-7.873,0.807c-1.112-0.202-2.023-0.506-2.63-0.807
			c-0.607-0.303-0.905-0.502-0.905-0.502s0.304-0.301,0.905-0.609c0.509-0.4,1.315-0.808,2.218-1.312
			c1.826-1.01,4.143-1.917,6.364-2.825c2.22-0.812,4.543-1.615,6.465-2.222c0.907-0.301,1.814-0.505,2.421-0.706
			c0.308-0.103,0.607-0.2,0.803-0.2h0.108c0,0,0.2-0.104,0.2,0c0,0.099,0,0.099,0,0.099C223.817,96.8,223.817,96.697,223.714,96.8
			C223.817,96.8,223.714,96.8,223.714,96.8L223.714,96.8z"/>
		<path fill="#2B374A" d="M245.417,157.969c-1.917,10.701-3.231,8.382-0.403,16.052c2.831,7.675,18.574,12.922,18.574,12.922
			c-54.718,21.203-70.056-17.563-70.056-17.563c-8.279-26.347,24.932-35.941,24.932-35.941
			C232.295,130.21,250.167,131.725,245.417,157.969z"/>
		<path fill="#2B374A" d="M277.321,208.646c2.219-15.339,3.329-34.826-4.346-48.857c-7.679-14.028-21.706-6.055-32.305-25.738
			c-15.545-28.775,14.938-66.225,34.223-55.326C280.244,81.753,355.248,135.059,277.321,208.646z"/>
	</g>
	<g>
		<g>
			<path fill="#FFFFFF" d="M48.474,52.349c-0.002,0-0.005,0-0.005,0H48.474 M48.474,46H48.5v12.5L48.474,46L48.474,46z"/>
		</g>
		<g>
			<path fill="#FFFFFF" d="M179.799,12.913c0,0,0.501,0.305,1.213,0.706c0.302,0.203,0.808,0.405,1.41,0.604
				c0.503,0.207,1.109,0.406,1.82,0.607c1.311,0.404,3.025,0.912,4.944,1.516c0.906,0.301,1.92,0.605,2.923,0.906
				c1.014,0.303,2.123,0.605,3.237,1.012c2.222,0.704,4.639,1.512,7.166,2.422c2.52,0.909,5.146,2.018,7.772,3.13
				c4.239,1.811,8.482,4.033,12.726,6.458c0-0.605-0.108-1.31-0.108-1.919c-0.096-2.22,0.105-4.338,0.408-6.055
				c0.098-0.807,0.304-1.613,0.504-2.217c0.203-0.607,0.396-1.112,0.602-1.621c0.507-0.803,0.71-1.209,0.71-1.209
				s0.298,0.406,0.808,1.111c0.203,0.307,0.604,0.707,1.008,1.113c0.403,0.399,0.904,0.803,1.411,1.312
				c1.111,0.907,2.425,2.021,3.937,3.229c0.704,0.605,1.515,1.314,2.423,1.917c0.809,0.706,1.717,1.413,2.622,2.223
				c1.718,1.513,3.74,3.232,5.656,5.044c1.915,1.818,3.939,3.839,5.957,5.86c4.243,3.936,8.076,8.683,11.707,13.63
				c3.638,5.045,6.87,10.292,9.596,15.54c1.411,2.628,2.62,5.255,3.73,7.776c0.428,0.928,0.788,1.925,1.189,2.883
				c7.19,4.395,78.967,57.222,2.151,129.758c2.219-15.339,3.329-34.826-4.346-48.857c-7.6-13.893-21.433-6.221-31.987-25.192
				l-0.672,0.667c-0.049,0.074-0.101,0.149-0.151,0.226c4.819,3.543,7.444,10.379,5.252,22.479
				c-1.917,10.701-3.231,8.382-0.403,16.052c2.831,7.675,18.574,12.922,18.574,12.922c-11.75,4.553-21.684,6.34-30.04,6.34
				c-29.298,0-39.199-21.974-39.965-23.783c-0.815,0.306-2.1,0.894-3.584,1.292c-1.512,0.504-3.433,1.005-5.451,1.311
				c-2.121,0.402-4.334,0.511-6.862,0.511c-0.544,0-1.087-0.022-1.637-0.052c1.203,6.881,8.719,45.668,28.891,67.789
				c0,0-1.717,1.512-5.152,2.723c-0.907,0.303-1.815,0.602-2.929,0.812c-1.006,0.195-2.219,0.396-3.535,0.596
				c-0.929,0.077-1.9,0.126-2.914,0.126c-1.731,0-3.587-0.142-5.561-0.526c-3.132-0.612-6.464-1.614-9.797-3.335
				c-2.413-1.208-4.738-2.823-6.962-4.741c-0.808,2.322-1.718,4.643-2.625,6.762c-1.011,2.528-2.117,4.848-3.229,7.168
				c-1.109,2.325-2.422,4.438-3.636,6.565c-2.421,4.137-4.946,7.867-7.366,11.099c-2.522,3.232-4.946,5.961-7.067,8.178
				c-2.12,2.229-3.938,3.838-5.25,4.945c-0.605,0.612-1.211,1.014-1.513,1.314c-0.302,0.301-0.504,0.406-0.504,0.406
				s-0.101-0.2-0.303-0.606c-0.205-0.403-0.604-1.008-1.01-1.718c-0.81-1.512-1.917-3.733-3.13-6.464
				c-1.212-2.726-2.524-5.944-3.938-9.585c-1.41-3.631-2.826-7.77-4.138-12.112c-0.302-0.905-0.507-1.823-0.707-2.631
				c-0.402,2.025-0.908,3.938-1.413,5.76c-0.808,3.234-2.123,6.358-2.928,9.184c-0.91,2.828-1.919,5.354-2.827,7.572
				c-0.909,2.216-1.719,3.932-2.423,5.247c-0.604,1.214-1.008,1.916-1.008,1.916s-0.706-0.298-1.918-0.902
				c-1.212-0.609-2.929-1.52-4.945-2.831c-2.02-1.309-4.343-2.92-6.867-4.949c-2.525-2.021-4.946-4.541-7.467-7.261
				c-2.427-2.828-5.049-5.96-7.066-9.594c-2.121-3.533-4.241-7.366-5.856-11.503c-0.222-0.606-0.441-1.229-0.662-1.848
				c-0.522,1.197-1.042,2.359-1.558,3.468c-1.413,3.026-2.824,5.546-4.04,7.67c-2.422,4.236-4.241,6.562-4.241,6.562
				s-1.211-2.631-2.624-7.269c-0.706-2.324-1.513-5.155-2.321-8.28c-0.807-3.129-1.614-6.653-2.323-10.5
				c-0.124-0.669-0.245-1.357-0.367-2.043c-1.935,2.568-4.001,4.907-5.992,6.992c-2.224,2.319-4.241,4.438-6.462,6.056
				c-2.12,1.712-4.038,3.034-5.754,4.137c-3.331,2.222-5.551,3.229-5.551,3.229s-0.505-2.416-0.91-6.354
				c-0.201-2.021-0.303-4.341-0.401-6.866c0-2.624-0.203-5.45-0.103-8.481c0-3.026,0.303-6.161,0.504-9.488
				c0.203-3.326,0.604-6.661,1.112-10.091c0.401-3.438,0.909-6.969,1.715-10.398c0.459-2.68,1.036-5.358,1.685-7.997
				c-0.227,0.345-0.448,0.693-0.678,1.026c-1.415,2.327-2.825,4.546-4.238,6.565c-1.514,2.021-2.93,3.938-4.141,5.659
				c-1.313,1.7-2.524,3.218-3.631,4.435c-2.121,2.522-3.739,3.934-3.739,3.934s-1.112-1.712-2.321-4.845
				c-0.607-1.515-1.313-3.432-2.017-5.656c-0.708-2.219-1.112-4.635-1.517-7.263c-0.402-2.628-0.705-5.554-0.705-8.678
				c0-3.029,0.204-6.27,0.607-9.597c0.504-3.231,1.209-6.662,2.117-9.999c1.011-3.322,2.323-6.653,3.639-9.884
				c1.513-3.234,3.127-6.365,5.045-9.289c0.909-1.413,1.818-2.729,2.828-4.037c-0.405,0.199-0.908,0.301-1.313,0.502
				c-2.522,0.91-4.944,1.515-7.168,1.916c-2.22,0.404-4.24,0.607-5.954,0.607c-0.81,0-1.616-0.099-2.321-0.203
				c-0.707-0.099-1.211-0.198-1.715-0.401c-0.909-0.304-1.312-0.606-1.312-0.606s0.405-0.303,0.909-0.905
				c0.302-0.305,0.607-0.706,0.911-1.211c0.302-0.502,0.705-1.008,1.109-1.618c0.807-1.207,1.613-2.721,2.625-4.436
				c0.501-0.812,1.008-1.723,1.514-2.729c0.606-0.913,1.11-1.922,1.715-2.93c1.211-2.018,2.624-4.143,4.142-6.361
				c1.51-2.219,3.128-4.437,4.944-6.761c3.533-4.539,7.571-9.186,12.01-13.526c4.442-4.343,9.087-8.376,13.832-11.912
				c0.1,0,0.1-0.098,0.202-0.098c-2.019-0.206-4.037-0.508-5.954-0.912c-2.627-0.608-5.05-1.215-7.169-2.018
				c-2.12-0.808-3.938-1.716-5.452-2.624c-0.706-0.406-1.31-0.913-1.916-1.315c-0.505-0.402-0.911-0.807-1.212-1.214
				c-0.607-0.703-0.806-1.107-0.806-1.107s0.504-0.104,1.312-0.307c0.405-0.103,0.91-0.3,1.413-0.503
				c0.503-0.202,1.11-0.505,1.715-0.81c1.312-0.604,2.827-1.512,4.543-2.424c0.806-0.502,1.715-1.005,2.723-1.513
				c0.909-0.505,1.919-1.012,3.032-1.618c2.119-1.008,4.338-2.219,6.763-3.327c2.423-1.112,5.046-2.227,7.671-3.232
				c1.011-0.405,2.119-0.807,3.129-1.211c-0.707-0.299-1.312-0.706-2.017-1.011c-2.827-1.513-5.252-3.229-7.27-4.842
				c-2.017-1.716-3.733-3.335-4.945-4.847c-1.212-1.514-2.119-2.826-2.524-3.736c-0.44-0.787-0.573-1.427-0.6-1.512
				c0.011,0.001,0.232,0.044,0.665,0.044c0.224,0,0.505-0.011,0.842-0.046c1.01,0,2.421-0.203,4.04-0.406
				c1.712-0.197,3.729-0.503,5.955-0.804c2.22-0.408,4.639-0.81,7.266-1.212c2.524-0.405,5.351-0.909,8.278-1.417
				c2.827-0.501,5.856-1.008,8.984-1.51c1.515-0.304,3.13-0.406,4.644-0.708c0.707-0.1,1.515-0.2,2.323-0.307
				c0.704-0.1,1.514-0.197,2.422-0.3c0.909-0.097,1.815-0.197,2.727-0.299l2.421-0.305c1.92-0.197,3.937-0.3,5.856-0.406
				c2.131-0.067,4.264-0.139,6.361-0.139c0.881,0,1.756,0.013,2.622,0.044c0.202-0.204,0.404-0.403,0.707-0.607
				c-0.608-0.304-1.212-0.702-1.717-1.003c-1.415-0.911-2.829-1.811-4.037-2.822c-2.522-1.919-4.747-3.924-6.563-5.849
				c-1.815-1.915-3.229-3.812-4.24-5.424c-1.006-1.615-1.615-2.982-2.018-3.994c-0.404-1.008-0.404-1.521-0.304-1.521
				c0,0,0.507,0.362,1.516,0.362C98.235,23.55,99.647,24,101.367,24c1.712,0,3.73,0,5.955,0c2.319,0,4.743-0.407,7.367-0.507
				c2.623-0.1,5.448-0.521,8.379-0.62c2.927-0.102,5.956-0.114,9.085-0.114c0.392-0.025,0.783,0.056,1.173,0.056
				c1.219,0,2.424,0.184,3.571,0.184c0.807,0,1.517,0,2.321,0c0.707,0,1.513,0,2.524,0c0.909,0,1.816,0,2.726,0l2.424-0.146
				c1.918,0.099,3.937,0.092,5.854,0.193c3.938,0.405,7.877,0.79,11.607,1.695c3.733,0.906,7.476,1.704,10.907,3.017
				c3.428,1.312,6.762,2.622,9.789,4.133c0.81,0.404,1.614,0.804,2.421,1.31c-0.704-0.909-1.312-1.815-1.918-2.727
				c-1.408-2.218-2.628-4.442-3.53-6.459c-0.912-2.017-1.617-4.037-2.021-5.654c-0.203-0.806-0.299-1.615-0.404-2.322
				c-0.1-0.705-0.1-1.211,0-1.714C179.703,13.417,179.799,12.913,179.799,12.913 M175.413,3.058l-1.656,8.708
				c-0.021,0.113-0.129,0.696-0.245,1.655c-0.184,1.092-0.184,2.207-0.004,3.481l0.06,0.409c0.101,0.706,0.227,1.584,0.471,2.555
				c0.087,0.348,0.184,0.705,0.289,1.07c-2.308-0.706-4.637-1.262-6.912-1.805c-0.536-0.128-1.074-0.256-1.611-0.387
				c-4.146-1.006-8.356-1.439-12.429-1.858l-0.151-0.015l-0.152-0.008c-1.017-0.054-2.06-0.09-3.104-0.127
				c-0.928-0.032-1.856-0.064-2.76-0.111l-0.232-0.012l-0.232,0.167L144.392,17h-2.65h-2.524h-2.321
				c-0.445,0-0.954-0.182-1.492-0.203c-0.628-0.025-1.34-0.134-2.079-0.134c-0.479,0-0.924-0.029-1.354-0.006
				c-2.917,0.001-6.032-0.003-9.117,0.104c-1.717,0.058-3.321,0.201-4.873,0.349c-1.261,0.12-2.453,0.229-3.527,0.27
				c-1.383,0.053-2.691,0.228-3.844,0.342c-1.199,0.12-2.331,0.277-3.288,0.277h-5.955c-0.491,0-1.075-0.165-1.693-0.29
				c-0.376-0.076-0.787-0.153-1.224-0.218L97.803,17h-2.095h-3.264l-1.858,2.691c-1.999,2.954-0.708,6.163-0.284,7.222
				c0.695,1.744,1.517,3.362,2.508,4.953c1.37,2.187,3.095,4.394,4.996,6.399c0.143,0.152,0.288,0.301,0.434,0.452l-2.345,0.295
				c-0.888,0.099-1.771,0.196-2.657,0.291c-0.837,0.095-1.764,0.203-2.598,0.321l-0.774,0.101c-0.553,0.072-1.09,0.141-1.582,0.211
				l-0.17,0.024l-0.168,0.034c-0.548,0.109-1.203,0.194-1.897,0.284c-0.801,0.104-1.703,0.22-2.629,0.401
				c-3.263,0.524-6.282,1.032-8.974,1.509l-1.964,0.342c-2.215,0.387-4.307,0.752-6.215,1.059c-2.648,0.405-5.038,0.803-7.258,1.209
				c-0.721,0.098-1.42,0.196-2.095,0.291c-1.309,0.184-2.545,0.358-3.595,0.479l-0.032,0.003l-0.032,0.004l-0.725,0.127
				C51.555,45.824,50.449,46,49.981,46h-0.312l-0.311-0.003c-0.061,0.006-0.109-0.007-0.145-0.005l-9.578-1.45l2.931,9.263
				c0.119,0.444,0.398,1.404,1.008,2.553c0.632,1.331,1.663,2.871,3.222,4.817c1.352,1.686,3.177,3.488,5.745,5.673
				c-0.026,0.012-0.052,0.024-0.078,0.036c-1.5,0.685-2.882,1.384-4.219,2.061c-0.921,0.466-1.791,0.906-2.62,1.301l-0.151,0.072
				l-0.147,0.08c-0.49,0.267-0.96,0.514-1.408,0.749c-0.547,0.288-1.067,0.562-1.561,0.833c-1.085,0.55-2.041,1.08-2.913,1.616
				c-0.585,0.313-1.148,0.625-1.689,0.924c-0.888,0.492-1.727,0.957-2.359,1.248L35.3,75.812l-0.095,0.048
				c-0.382,0.192-0.959,0.482-1.239,0.595c-0.417,0.168-0.597,0.234-0.677,0.26c-0.574,0.144-0.956,0.226-1.008,0.236l-7.768,1.624
				l3.502,7.119c0.237,0.48,0.693,1.253,1.534,2.25c0.591,0.759,1.319,1.485,2.169,2.162l0.208,0.166l0.221,0.147
				c0.155,0.103,0.308,0.217,0.466,0.333c0.458,0.334,1.027,0.749,1.731,1.159c1.959,1.17,4.106,2.204,6.383,3.071
				c0.496,0.188,1,0.365,1.51,0.533c-1.516,1.37-3.028,2.792-4.531,4.262c-4.312,4.216-8.539,8.975-12.563,14.146
				c-1.866,2.387-3.561,4.706-5.176,7.079c-1.269,1.854-2.917,4.299-4.331,6.656c-0.271,0.45-0.525,0.903-0.775,1.349
				c-0.284,0.506-0.552,0.985-0.79,1.343l-0.204,0.307l-0.166,0.329c-0.423,0.84-0.845,1.601-1.253,2.262l-0.033,0.054l-0.032,0.054
				c-0.358,0.607-0.692,1.189-1.009,1.744c-0.546,0.955-1.018,1.779-1.431,2.397c-0.143,0.215-0.274,0.397-0.398,0.571
				c-0.268,0.375-0.572,0.801-0.872,1.3c-0.033,0.054-0.058,0.092-0.074,0.116l-0.114,0.115l-0.167,0.2l-7.762,4.632l7.889,5.146
				c0.432,0.322,1.369,0.931,2.881,1.456c1.078,0.411,2.065,0.587,2.975,0.715c0.8,0.118,1.933,0.263,3.175,0.263
				c0.565,0,1.149-0.018,1.751-0.052c-0.251,0.518-0.504,1.049-0.76,1.597l-0.066,0.142l-0.059,0.145
				c-1.26,3.095-2.699,6.706-3.826,10.413l-0.027,0.088l-0.024,0.088c-0.927,3.408-1.687,6.996-2.259,10.666l-0.016,0.104
				l-0.013,0.104c-0.433,3.567-0.652,7.045-0.652,10.337c0,3.058,0.254,6.2,0.776,9.608c0.433,2.813,0.891,5.553,1.737,8.203
				c0.66,2.083,1.386,4.12,2.153,6.039c1.395,3.602,2.737,5.711,2.886,5.94l3.859,5.942l5.34-4.656
				c0.127-0.111,0.902-0.795,2.046-1.984c-0.133,1.331-0.236,2.602-0.311,3.842c-0.056,0.918-0.119,1.817-0.181,2.705
				c-0.162,2.309-0.33,4.695-0.334,7.054c-0.062,2.006-0.056,3.918-0.006,5.607c0.031,1.052,0.01,2.046,0.01,2.978v0.12l0.054,0.12
				c0.1,2.555,0.232,5.03,0.452,7.235c0.435,4.228,0.999,6.893,1.022,7.004l1.577,7.513l6.993-3.171
				c0.272-0.123,2.762-1.274,6.38-3.684c2.238-1.439,4.192-2.842,6.135-4.404c1.888-1.392,3.561-2.984,5.227-4.683
				c0.07,0.279,0.142,0.558,0.214,0.836c0.744,2.879,1.57,5.828,2.391,8.53c1.493,4.902,2.78,7.747,2.922,8.055l4.218,9.159
				l6.213-7.942c0.214-0.273,2.167-2.806,4.736-7.298c0.022-0.04,0.045-0.079,0.067-0.118c0.479,0.837,0.945,1.625,1.385,2.358
				c2.244,4.016,5.045,7.397,7.724,10.52l0.077,0.089l0.08,0.086c2.381,2.568,5.169,5.508,8.134,7.881
				c2.31,1.858,4.723,3.598,7.367,5.311c1.756,1.142,3.567,2.179,5.527,3.164c1.365,0.681,2.198,1.035,2.289,1.073l5.011,2.115
				l2.712-4.715c0.05-0.087,0.497-0.869,1.143-2.162c0.854-1.604,1.745-3.533,2.647-5.733c0.577-1.409,1.208-2.975,1.843-4.697
				c1.025,2.563,1.949,4.767,2.798,6.676c1.099,2.475,2.281,4.915,3.328,6.869l0.039,0.072l0.041,0.071
				c0.21,0.368,0.419,0.713,0.607,1.022c0.104,0.17,0.198,0.321,0.27,0.449l0.282,0.565l2.804,5.58l5.537-2.89
				c0.448-0.233,1.128-0.66,1.879-1.383c0.04-0.033,0.083-0.067,0.128-0.104c0.325-0.261,0.796-0.64,1.317-1.144
				c1.963-1.667,3.783-3.387,5.555-5.25c2.594-2.71,5.108-5.619,7.459-8.633l0.038-0.048l0.036-0.048
				c2.782-3.715,5.39-7.644,7.751-11.68l0.018-0.029l0.017-0.028c0.289-0.507,0.584-1.014,0.881-1.521
				c0.992-1.702,2.018-3.462,2.964-5.444c1.001-2.087,2.132-4.446,3.189-7.037c0.429,0.239,0.858,0.466,1.287,0.682
				c3.494,1.8,7.226,3.072,11.406,3.89c2.214,0.431,4.418,0.641,6.74,0.641c1.113,0,2.233-0.049,3.424-0.147l0.208-0.018
				l0.207-0.031c1.533-0.232,2.771-0.441,3.782-0.639c1.524-0.288,2.784-0.709,3.704-1.016l0.049-0.017l0.048-0.017
				c4.341-1.53,6.736-3.523,7.173-3.907l4.696-4.136l-4.216-4.624c-15.223-16.693-22.978-44.529-25.957-57.73
				c0.708-0.083,1.386-0.187,2.052-0.31c1.988-0.308,3.741-0.744,5.095-1.143c5.115,8.083,17.729,22.409,42.874,22.409
				c9.838,0,20.692-2.272,32.262-6.756l6.98-2.704c-0.097,5.373-0.616,11.296-1.556,17.793l-2.527,17.475l12.837-12.122
				c27.122-25.611,39.491-51.844,36.763-77.967c-1.561-14.945-8.323-29.858-19.557-43.125c-7.059-8.337-14.453-14.342-18.591-17.214
				c-0.174-0.428-0.363-0.878-0.57-1.331c-0.983-2.231-2.311-5.159-3.899-8.122c-2.884-5.547-6.264-11.02-10.047-16.267
				l-0.015-0.021l-0.016-0.021c-4.612-6.284-8.439-10.736-12.394-14.417c-2.063-2.066-4.074-4.071-5.994-5.894
				c-1.547-1.463-3.138-2.851-4.542-4.076c-0.441-0.385-0.871-0.76-1.283-1.123c-0.562-0.502-1.143-0.984-1.655-1.41
				c-0.341-0.282-0.673-0.557-0.987-0.831l-0.306-0.268l-0.339-0.225c-0.536-0.355-1.123-0.86-1.69-1.349l-0.123-0.106l-0.084-0.072
				l-0.086-0.069c-0.94-0.751-1.802-1.465-2.582-2.112c-0.379-0.314-0.74-0.614-1.084-0.895c-0.303-0.292-0.58-0.541-0.812-0.75
				c-0.136-0.122-0.266-0.234-0.381-0.349l-0.005-0.005c-0.131-0.132-0.264-0.26-0.375-0.381c-0.508-0.702-0.804-1.105-0.804-1.105
				l-6.115-8.34l-4.331,9.194c-0.046,0.084-0.181,0.323-0.425,0.709l-0.293,0.463l-0.205,0.508
				c-0.285,0.701-0.511,1.312-0.734,1.979c-0.183,0.55-0.403,1.306-0.578,2.188c-1.627-0.795-3.19-1.512-4.703-2.158
				c-2.531-1.072-5.379-2.278-8.102-3.26c-2.353-0.847-4.799-1.675-7.276-2.462c-1.007-0.362-1.957-0.64-2.799-0.887l-0.652-0.192
				c-0.891-0.267-1.905-0.571-2.748-0.851l-0.046-0.015l-0.045-0.015c-1.268-0.398-2.447-0.756-3.484-1.071
				c-0.542-0.165-1.043-0.316-1.495-0.456l-0.07-0.021l-0.07-0.02c-0.628-0.177-0.972-0.302-1.149-0.375l-0.203-0.083l-0.208-0.069
				c-0.123-0.041-0.21-0.072-0.269-0.093l-0.055-0.031c-0.584-0.329-1.003-0.582-1.037-0.603L175.413,3.058L175.413,3.058z
				 M272.688,183.493l-7.156-2.386c-6.123-2.057-13.691-6.35-14.748-9.216c-0.388-1.049-1.193-3.234-1.253-3.881
				c-0.018-0.199,0.226-1.176,0.441-2.037c0.386-1.546,0.915-3.663,1.498-6.921c0.361-1.991,0.611-3.898,0.751-5.722
				c1.737,0.787,3.423,1.421,5.015,2.019c4.775,1.795,7.931,2.979,10.344,7.391C270.544,168.16,272.243,175.032,272.688,183.493
				L272.688,183.493z"/>
		</g>
	</g>
</g>
</svg>
