<?xml version="1.0" encoding="utf-8"?>
<!-- Generator: Adobe Illustrator 16.0.0, SVG Export Plug-In . SVG Version: 6.00 Build 0)  -->
<!DOCTYPE svg PUBLIC "-//W3C//DTD SVG 1.1//EN" "http://www.w3.org/Graphics/SVG/1.1/DTD/svg11.dtd">
<svg version="1.1" id="Calque_1" xmlns="http://www.w3.org/2000/svg" xmlns:xlink="http://www.w3.org/1999/xlink" x="0px" y="0px"
	 width="115px" height="104px" viewBox="0 0 115 104" enable-background="new 0 0 115 104" xml:space="preserve">
<g>
	<g>
		<path fill="#2B374A" d="M4.126,50.398c0,0,0.146,0.109,0.473,0.218c0.182,0.073,0.363,0.109,0.618,0.145
			c0.254,0.038,0.545,0.073,0.837,0.073c0.618,0,1.346-0.073,2.146-0.219c0.802-0.145,1.675-0.362,2.584-0.69
			c0.146-0.073,0.327-0.109,0.473-0.181c-0.364,0.471-0.691,0.946-1.019,1.455c-0.691,1.054-1.273,2.183-1.819,3.349
			c-0.474,1.164-0.947,2.365-1.312,3.562c-0.327,1.203-0.582,2.439-0.763,3.604c-0.146,1.199-0.219,2.367-0.219,3.459
			c0,1.126,0.109,2.181,0.254,3.128c0.146,0.947,0.292,1.818,0.547,2.618c0.254,0.802,0.508,1.493,0.727,2.039
			c0.436,1.129,0.837,1.746,0.837,1.746s0.583-0.509,1.348-1.418c0.399-0.438,0.836-0.985,1.309-1.599
			c0.437-0.62,0.947-1.312,1.493-2.04c0.509-0.728,1.018-1.527,1.527-2.366c0.546-0.8,1.055-1.674,1.528-2.583
			c0.51-0.91,1.019-1.821,1.456-2.765c0.473-0.948,0.947-1.856,1.347-2.838c0.473-0.948,0.837-1.93,1.237-2.877
			c0.4-0.909,0.728-1.928,1.091-2.837c0.182-0.474,0.329-0.946,0.473-1.42c0.182-0.474,0.329-0.908,0.474-1.382
			c0.218-0.765,0.436-1.493,0.655-2.219c2.765,8.916,14.155,14.917,32.239,23.87c-0.437-15.064,8.696-12.081,9.242-13.572
			l1.893,0.145l7.642,1.128l25.946-25.906c0.909,0.327,1.492,0.472,1.492,0.472s-0.039-0.69-0.22-1.746l1.493-1.493l-3.132-4.366
			c-0.181-0.401-0.326-0.838-0.509-1.237c-0.4-0.909-0.836-1.855-1.345-2.803c-0.982-1.892-2.147-3.783-3.459-5.602
			c-1.309-1.783-2.69-3.495-4.22-4.913c-0.728-0.729-1.457-1.457-2.147-2.112c-0.69-0.653-1.42-1.273-2.039-1.818
			c-0.326-0.292-0.653-0.547-0.945-0.801c-0.327-0.217-0.619-0.473-0.873-0.691c-0.545-0.436-1.019-0.837-1.419-1.164
			c-0.183-0.183-0.363-0.329-0.509-0.473c-0.146-0.146-0.29-0.291-0.363-0.401c-0.184-0.254-0.291-0.4-0.291-0.4
			s-0.073,0.146-0.256,0.436c-0.074,0.183-0.144,0.365-0.217,0.584c-0.072,0.218-0.146,0.508-0.182,0.799
			c-0.109,0.619-0.182,1.382-0.147,2.183c0,0.22,0.039,0.474,0.039,0.692c-1.529-0.874-3.059-1.675-4.587-2.328
			c-0.946-0.401-1.894-0.801-2.802-1.128c-0.911-0.328-1.782-0.619-2.583-0.873c-0.401-0.146-0.802-0.255-1.167-0.365
			c-0.361-0.108-0.727-0.218-1.054-0.327c-0.691-0.218-1.31-0.401-1.782-0.546c-0.256-0.072-0.475-0.144-0.656-0.219
			c-0.217-0.072-0.399-0.145-0.508-0.218c-0.257-0.145-0.438-0.254-0.438-0.254s-0.034,0.182-0.072,0.51
			c-0.036,0.181-0.036,0.364,0,0.618c0.038,0.255,0.072,0.546,0.146,0.837c0.146,0.583,0.399,1.311,0.729,2.038
			c0.325,0.727,0.765,1.528,1.272,2.328c0.219,0.329,0.438,0.655,0.691,0.982c-0.291-0.183-0.581-0.328-0.873-0.473
			c-1.091-0.545-2.293-1.019-3.528-1.492c-1.237-0.474-2.586-0.765-3.932-1.092c-1.345-0.326-2.765-0.473-4.184-0.619
			c-0.691-0.037-1.419-0.108-2.11-0.145l-0.874-0.038c-0.328,0-0.655,0-0.982,0c-0.364,0-0.655,0-0.91,0c-0.29,0-0.546,0-0.837,0
			c-0.546,0.038-1.127,0-1.71,0.038c-1.128,0-2.22,0.037-3.275,0.074c-1.057,0.035-2.075,0.071-3.021,0.108
			c-0.946,0.037-1.819,0.037-2.655,0.074c-0.802,0-1.529,0-2.146,0c-0.62,0-1.129-0.039-1.493-0.074
			c-0.364,0-0.546-0.073-0.546-0.073c-0.036,0-0.036,0.22,0.109,0.583c0.146,0.364,0.365,0.875,0.728,1.455
			c0.364,0.583,0.874,1.273,1.528,1.965c0.655,0.693,1.457,1.421,2.366,2.112c0.436,0.364,0.945,0.69,1.455,1.02
			c0.182,0.108,0.4,0.253,0.619,0.362c-0.109,0.074-0.182,0.146-0.255,0.219c-1.055-0.038-2.147,0-3.238,0.035
			c-0.692,0.038-1.419,0.075-2.111,0.146l-0.873,0.11c-0.329,0.037-0.655,0.073-0.983,0.108c-0.327,0.037-0.619,0.072-0.873,0.108
			c-0.292,0.039-0.583,0.075-0.837,0.111c-0.545,0.108-1.128,0.146-1.674,0.255c-1.127,0.181-2.219,0.364-3.238,0.544
			c-1.055,0.183-2.074,0.365-2.984,0.511c-0.947,0.145-1.819,0.29-2.619,0.437c-0.802,0.108-1.529,0.219-2.146,0.29
			c-0.583,0.073-1.092,0.146-1.456,0.146c-0.364,0.037-0.545,0-0.545,0c0-0.037,0.036,0.219,0.218,0.545
			c0.146,0.328,0.473,0.801,0.91,1.347c0.437,0.545,1.056,1.128,1.783,1.747c0.728,0.582,1.602,1.2,2.621,1.746
			c0.254,0.11,0.472,0.256,0.727,0.364c-0.364,0.146-0.764,0.291-1.128,0.437c-0.946,0.362-1.892,0.764-2.765,1.165
			c-0.874,0.399-1.674,0.836-2.438,1.199c-0.401,0.218-0.765,0.401-1.093,0.583c-0.363,0.183-0.691,0.364-0.981,0.545
			c-0.619,0.329-1.165,0.656-1.638,0.874c-0.218,0.11-0.437,0.219-0.618,0.292c-0.181,0.073-0.363,0.144-0.509,0.181
			c-0.291,0.073-0.473,0.111-0.473,0.111s0.072,0.146,0.291,0.399c0.109,0.147,0.255,0.292,0.437,0.438
			c0.218,0.145,0.436,0.328,0.69,0.474c0.546,0.327,1.201,0.655,1.965,0.946c0.764,0.29,1.637,0.508,2.584,0.728
			c0.691,0.146,1.418,0.254,2.146,0.329c-0.037,0-0.037,0.035-0.073,0.035c-1.71,1.274-3.385,2.729-4.986,4.294
			c-1.6,1.564-3.056,3.239-4.329,4.875c-0.655,0.838-1.238,1.637-1.782,2.437c-0.547,0.8-1.057,1.565-1.493,2.293
			c-0.218,0.363-0.4,0.727-0.618,1.056c-0.183,0.362-0.365,0.691-0.546,0.983c-0.365,0.618-0.655,1.164-0.946,1.599
			c-0.146,0.22-0.291,0.402-0.4,0.583c-0.109,0.182-0.219,0.327-0.328,0.437C4.272,50.289,4.126,50.398,4.126,50.398z"/>
		<path fill="#33FFFF" d="M63.15,60.076c-0.072-0.437-0.184-0.837-0.256-1.237c-0.072-0.399-0.145-0.8-0.255-1.203
			c-0.108-0.798-0.326-1.563-0.437-2.291l-0.108-0.542c0-0.185-0.037-0.365-0.074-0.547c-0.035-0.366-0.143-0.729-0.182-1.092
			c-0.146-0.73-0.217-1.457-0.364-2.221c-0.071-0.764-0.219-1.528-0.29-2.294c-0.071-0.654-0.146-1.235-0.219-1.819
			c1.166-1.383,2.511-2.766,4.003-4.037c1.455-1.238,2.982-2.403,4.512-3.495c0.329,0.183,0.691,0.364,1.018,0.545
			c0.728,0.474,1.492,0.801,2.258,1.237c0.764,0.363,1.527,0.764,2.291,1.128c0.765,0.327,1.492,0.69,2.221,0.982
			c0.765,0.292,1.42,0.583,2.074,0.8c0.654,0.218,1.235,0.437,1.747,0.583c0.509,0.146,0.947,0.255,1.237,0.327
			c0.291,0.074,0.473,0.109,0.473,0.109s0-0.181,0-0.471c-0.036-0.292,0-0.729-0.073-1.274c-0.036-0.546-0.108-1.201-0.29-1.892
			s-0.365-1.492-0.693-2.292c-0.326-0.8-0.69-1.674-1.199-2.51c-0.472-0.837-1.054-1.71-1.746-2.547
			c-0.074-0.109-0.182-0.254-0.293-0.364c0.439-0.254,0.875-0.508,1.273-0.727c1.748-1.02,2.767-1.601,2.767-1.601
			s-0.29-0.146-0.802-0.364c-0.544-0.18-1.308-0.473-2.292-0.763c-1.017-0.254-2.217-0.583-3.638-0.801
			c-1.019-0.181-2.148-0.328-3.385-0.401c-0.727-0.328-1.455-0.655-2.183-0.911c-1.165-0.363-2.329-0.69-3.528-0.764
			c-1.131-0.183-2.331-0.073-3.386,0c-0.547,0.11-1.056,0.218-1.565,0.328c-0.254,0.072-0.51,0.109-0.727,0.18
			c-0.254,0.075-0.474,0.146-0.692,0.255c-0.436,0.183-0.873,0.364-1.237,0.547c-0.399,0.219-0.766,0.437-1.091,0.656
			c-0.691,0.438-1.202,0.838-1.528,1.237c-0.364,0.364-0.655,0.727-0.837,0.947c-0.182,0.218-0.291,0.364-0.291,0.364
			s-0.437,0.036-0.728,0.071c-0.728,0.037-1.527,0.145-2.365,0.328c-0.836,0.218-1.747,0.437-2.656,0.8
			c-0.909,0.364-1.856,0.765-2.766,1.346c-0.945,0.546-1.855,1.237-2.729,1.966c-0.437,0.364-0.873,0.763-1.273,1.2
			c-0.401,0.4-0.8,0.873-1.166,1.346c-0.764,0.946-1.381,2.001-1.964,3.057c-0.546,1.127-1.019,2.218-1.273,3.383
			c-0.328,1.092-0.401,2.294-0.474,3.35c0,0.583,0.038,1.09,0.073,1.601c0.037,0.255,0.037,0.472,0.073,0.728
			c0.036,0.218,0.11,0.438,0.146,0.656c-0.075,0.036-0.146,0.108-0.254,0.144c-0.438,0.255-1.057,0.619-1.785,1.127
			c-0.363,0.257-0.727,0.548-1.128,0.875c-0.438,0.327-0.801,0.691-1.237,1.091c-0.838,0.839-1.71,1.782-2.511,2.876
			c-0.836,1.091-1.601,2.327-2.292,3.677c-0.655,1.344-1.31,2.835-1.746,4.366c-0.219,0.764-0.436,1.562-0.619,2.363
			c-0.146,0.837-0.291,1.639-0.401,2.477c-0.255,1.674-0.255,3.385-0.146,5.092c0.037,1.714,0.329,3.386,0.619,5.022
			c0.364,1.639,0.91,3.206,1.456,4.696c0.582,1.491,1.346,2.873,2.111,4.146c0.727,1.31,1.672,2.438,2.547,3.458
			c0.909,0.98,1.781,1.889,2.691,2.617c0.91,0.731,1.747,1.312,2.475,1.784c0.727,0.473,1.346,0.801,1.783,1.021
			c0.437,0.218,0.691,0.325,0.691,0.325s0.146-0.253,0.363-0.69c0.254-0.475,0.546-1.093,0.874-1.892
			c0.327-0.8,0.691-1.71,1.019-2.729c0.29-1.019,0.764-2.145,1.055-3.311c0.182-0.656,0.364-1.346,0.509-2.076
			c0.072,0.291,0.146,0.622,0.255,0.948c0.473,1.565,0.983,3.058,1.492,4.366c0.51,1.312,0.982,2.473,1.419,3.455
			c0.437,0.984,0.836,1.785,1.128,2.33c0.146,0.256,0.29,0.474,0.364,0.619c0.073,0.146,0.109,0.219,0.109,0.219
			s0.073-0.038,0.182-0.146s0.327-0.253,0.545-0.474c0.473-0.399,1.128-0.979,1.893-1.783c0.765-0.799,1.638-1.782,2.547-2.947
			c0.873-1.165,1.783-2.51,2.655-4.001c0.438-0.767,0.911-1.528,1.311-2.366c0.401-0.837,0.8-1.673,1.164-2.584
			c0.327-0.764,0.655-1.601,0.946-2.438c0.802,0.691,1.64,1.273,2.51,1.709c1.201,0.62,2.402,0.981,3.531,1.202
			c1.128,0.22,2.148,0.22,3.055,0.145c0.475-0.072,0.912-0.145,1.274-0.215c0.401-0.076,0.729-0.184,1.056-0.293
			c1.238-0.437,1.857-0.981,1.857-0.981C65.629,76.123,63.15,60.076,63.15,60.076z"/>
		<path fill="#33FFFF" d="M66.095,70.919"/>
		<path fill="#33FFFF" d="M23.557,45.921c0.255,0.292,0.62,0.766,1.019,1.384c0.364,0.619,0.837,1.383,1.238,2.256
			c0.437,0.873,0.837,1.894,1.201,3.021c0.329,1.129,0.655,2.365,0.874,3.676c0.073,0.655,0.182,1.308,0.255,2
			c0.073,0.691,0.073,1.383,0.109,2.111c0.072,1.418-0.037,2.874-0.183,4.367c-0.145,1.456-0.437,2.946-0.764,4.403
			c-0.4,1.454-0.836,2.874-1.347,4.256c-0.546,1.384-1.165,2.693-1.819,3.932c-0.727,1.2-1.456,2.366-2.22,3.42
			c-0.763,1.054-1.601,2-2.401,2.839c-0.802,0.836-1.529,1.6-2.33,2.183c-0.764,0.617-1.456,1.094-2.074,1.491
			c-1.201,0.801-2.001,1.164-2.001,1.164s-0.182-0.871-0.328-2.291c-0.072-0.729-0.109-1.564-0.145-2.475
			c0-0.946-0.073-1.965-0.037-3.058c0-1.091,0.109-2.221,0.182-3.42c0.073-1.199,0.218-2.401,0.401-3.638
			c0.145-1.239,0.328-2.512,0.618-3.748c0.218-1.273,0.509-2.546,0.836-3.784c0.292-1.237,0.691-2.476,1.02-3.712
			c0.327-1.236,0.764-2.438,1.164-3.602c0.219-0.586,0.437-1.163,0.656-1.711c0.218-0.582,0.437-1.129,0.654-1.674
			c0.437-1.092,0.874-2.11,1.346-3.093c0.437-0.982,0.91-1.892,1.31-2.693c0.437-0.799,0.801-1.526,1.166-2.146
			c0.327-0.619,0.655-1.129,0.836-1.457c0.218-0.364,0.327-0.545,0.327-0.545S23.302,45.522,23.557,45.921z"/>
		<g>
			<path fill="#FF3333" d="M32.399,34.97c-0.108,0.473-0.219,1.127-0.364,1.928c-0.109,0.801-0.254,1.747-0.328,2.838
				c-0.108,1.093-0.108,2.293-0.145,3.53C31.6,43.884,31.6,44.54,31.6,45.23c0.036,0.691,0.036,1.348,0.073,2.075
				c0.072,1.419,0.183,2.875,0.29,4.403c0.109,0.763,0.109,1.53,0.218,2.328c0.038,0.402,0.074,0.8,0.11,1.203l0.036,0.58
				l0.037,0.292l0.037,0.437c0.109,1.82,0.182,3.639,0.219,5.458c0,1.857-0.146,3.822-0.292,5.677
				c-0.073,0.475-0.109,0.948-0.147,1.418c-0.072,0.438-0.107,0.913-0.182,1.348c-0.144,0.91-0.291,1.782-0.436,2.655
				c-0.329,1.711-0.728,3.386-1.165,4.947c-0.4,1.568-0.909,3.022-1.419,4.37c-0.545,1.347-1.054,2.547-1.564,3.641
				c-0.509,1.091-1.018,1.999-1.456,2.765c-0.873,1.527-1.529,2.365-1.529,2.365s-0.437-0.948-0.946-2.62
				c-0.254-0.838-0.545-1.858-0.836-2.984c-0.291-1.128-0.582-2.398-0.837-3.785c-0.254-1.381-0.509-2.874-0.727-4.439
				c-0.219-1.564-0.364-3.201-0.511-4.875c-0.072-0.838-0.145-1.674-0.181-2.545c-0.038-0.84-0.073-1.712-0.108-2.584
				c-0.109-1.711-0.073-3.42-0.073-5.205c-0.036-1.818,0-3.674,0.109-5.459v-0.071v-0.035c0-0.109,0,0.145,0,0.106V56.66v-0.182
				l0.035-0.365l0.038-0.729c0.037-0.474,0.073-0.98,0.109-1.454c0.109-0.945,0.291-1.929,0.437-2.874
				c0.328-1.892,0.873-3.711,1.492-5.387c0.328-0.835,0.69-1.637,1.055-2.401c0.401-0.765,0.801-1.491,1.201-2.146
				c0.873-1.311,1.747-2.476,2.657-3.384c0.873-0.946,1.783-1.638,2.547-2.147c0.764-0.508,1.418-0.836,1.892-1.018
				c0.217-0.109,0.437-0.145,0.545-0.183c0.109-0.037,0.183-0.037,0.183-0.037S32.436,34.605,32.399,34.97z"/>
		</g>
		<path fill="#FF3333" d="M61.293,36.353c0.071,0.328,0.219,0.801,0.29,1.346c0.146,0.545,0.255,1.165,0.402,1.819
			c0.108,0.619,0.253,1.311,0.399,2.074c0.183,0.691,0.328,1.383,0.509,2.001c0.144,0.619,0.4,1.165,0.583,1.601
			c0.183,0.438,0.401,0.765,0.582,1.02c0.146,0.255,0.292,0.474,0.437,0.765c0.146,0.292,0.292,0.654,0.51,1.091
			c0.218,0.436,0.474,0.981,0.765,1.564c0.326,0.654,0.655,1.31,0.982,1.892c0.326,0.655,0.691,1.346,1.021,2.038
			c0.361,0.691,0.652,1.345,0.944,1.998c0.29,0.657,0.546,1.239,0.727,1.786c0.182,0.509,0.328,0.981,0.439,1.275
			c0.036,0.144,0.071,0.287,0.11,0.362c0.033,0.11,0.033,0.146,0.033,0.146s-0.033,0.036-0.107,0.071
			c-0.109,0.037-0.221,0.074-0.365,0.146c-0.291,0.108-0.765,0.327-1.311,0.474c-0.545,0.182-1.237,0.362-1.965,0.473
			c-0.765,0.145-1.562,0.184-2.474,0.184c-0.91,0-1.856-0.109-2.874-0.365c-1.02-0.255-2.038-0.656-3.093-1.202
			c-1.054-0.543-2.111-1.309-3.093-2.291c-0.982-0.982-1.892-2.183-2.583-3.603c-0.692-1.419-1.129-3.019-1.273-4.584
			c-0.146-1.602,0.037-3.131,0.438-4.439c0.399-1.312,0.945-2.475,1.637-3.385c0.655-0.91,1.419-1.673,2.146-2.256
			c0.364-0.253,0.728-0.546,1.091-0.764c0.401-0.219,0.727-0.401,1.092-0.583c0.691-0.327,1.383-0.583,1.927-0.728
			c0.547-0.144,1.057-0.182,1.348-0.253c0.328-0.073,0.508-0.073,0.508-0.073S61.111,36.134,61.293,36.353z"/>
		<g>
			<path fill="#FFFFFF" d="M92.367,37.698c0,0-14.846,24.418-18.412,23.288c-2.401-0.763-5.93-2.876-10.007-5.385
				c-4.658-2.839-9.569-18.449-2.327-19.794c16.262-3.021,3.019-14.557,22.414-13.683c8.043,0.364,14.01,5.603,14.01,5.603
				L92.367,37.698z"/>
		</g>
		<path fill="#2B374A" d="M82.289,28.237c0,2.185-1.782,3.967-4.003,4.003c-2.221,0-4.003-1.782-4.003-4.003
			c0-2.22,1.782-4.002,4.003-4.002C80.506,24.234,82.289,26.017,82.289,28.237"/>
		<path fill="#2B374A" d="M80.396,33.151c0-0.037,0-0.073,0-0.037C80.396,33.114,80.396,33.114,80.396,33.151
			c0.038,0,0.072-0.037,0.038,0H80.396c0.038,0.071,0,0.146-0.073,0.326c-0.07,0.219-0.254,0.547-0.473,0.874
			c-0.473,0.69-1.347,1.382-2.328,1.747c-0.985,0.364-2.04,0.437-2.838,0.291c-0.401-0.073-0.729-0.183-0.948-0.291
			c-0.219-0.109-0.326-0.181-0.326-0.181s0.109-0.108,0.326-0.22c0.184-0.144,0.475-0.291,0.8-0.473
			c0.658-0.364,1.493-0.691,2.294-1.018c0.8-0.292,1.638-0.582,2.33-0.801c0.327-0.108,0.654-0.182,0.873-0.254
			c0.11-0.037,0.219-0.072,0.289-0.072h0.039c0,0,0.072-0.038,0.072,0c0,0.036,0,0.036,0,0.036
			C80.434,33.151,80.434,33.114,80.396,33.151C80.434,33.151,80.396,33.151,80.396,33.151L80.396,33.151z"/>
		<path fill="#2B374A" d="M88.22,55.2c-0.691,3.857-1.165,3.021-0.146,5.786c1.021,2.767,6.695,4.658,6.695,4.658
			c-19.724,7.643-25.253-6.331-25.253-6.331c-2.984-9.498,8.987-12.956,8.987-12.956C83.489,45.194,89.932,45.74,88.22,55.2z"/>
		<path fill="#2B374A" d="M99.72,73.468c0.8-5.529,1.2-12.554-1.566-17.611c-2.768-5.057-7.824-2.183-11.645-9.278
			c-5.604-10.373,5.385-23.872,12.336-19.943C100.773,27.727,127.81,46.942,99.72,73.468z"/>
	</g>
	<g>
		<g>
			<path fill="#FFFFFF" d="M17.229,17.128c-0.001,0-0.002,0-0.002,0H17.229 M17.229,14.5H17v4.845L17.229,14.5L17.229,14.5z"/>
		</g>
		<g>
			<path fill="#FFFFFF" d="M64.566,2.913c0,0,0.181,0.11,0.438,0.254c0.108,0.073,0.291,0.146,0.508,0.218
				c0.182,0.075,0.4,0.146,0.656,0.219c0.473,0.146,1.091,0.329,1.782,0.546c0.327,0.108,0.692,0.218,1.054,0.327
				c0.365,0.109,0.766,0.218,1.167,0.365c0.801,0.254,1.672,0.545,2.583,0.873c0.908,0.328,1.855,0.728,2.802,1.128
				c1.528,0.653,3.058,1.454,4.587,2.328c0-0.218-0.039-0.472-0.039-0.692c-0.034-0.8,0.038-1.564,0.147-2.183
				c0.035-0.291,0.109-0.582,0.182-0.799c0.073-0.219,0.143-0.401,0.217-0.584c0.183-0.29,0.256-0.436,0.256-0.436
				s0.107,0.146,0.291,0.4c0.073,0.111,0.218,0.255,0.363,0.401c0.146,0.144,0.326,0.29,0.509,0.473
				c0.4,0.327,0.874,0.729,1.419,1.164c0.254,0.218,0.546,0.474,0.873,0.691c0.292,0.254,0.619,0.509,0.945,0.801
				c0.619,0.545,1.349,1.165,2.039,1.818c0.69,0.655,1.42,1.384,2.147,2.112c1.529,1.418,2.911,3.13,4.22,4.913
				c1.312,1.818,2.477,3.71,3.459,5.602c0.509,0.947,0.944,1.894,1.345,2.803c0.154,0.334,0.284,0.694,0.429,1.039
				c2.592,1.584,28.465,20.626,0.775,46.773c0.8-5.529,1.2-12.554-1.566-17.611c-2.739-5.008-7.726-2.242-11.53-9.081l-0.242,0.24
				c-0.018,0.027-0.036,0.054-0.055,0.082c1.737,1.277,2.684,3.741,1.894,8.103c-0.691,3.857-1.165,3.021-0.146,5.786
				c1.021,2.767,6.695,4.658,6.695,4.658c-4.235,1.641-7.815,2.285-10.828,2.285c-10.561,0-14.131-7.921-14.406-8.573
				c-0.294,0.11-0.757,0.322-1.292,0.466c-0.545,0.182-1.237,0.362-1.965,0.473c-0.765,0.145-1.562,0.184-2.474,0.184
				c-0.196,0-0.392-0.008-0.59-0.019c0.434,2.48,3.143,16.462,10.414,24.436c0,0-0.619,0.545-1.857,0.981
				c-0.327,0.109-0.654,0.217-1.056,0.293c-0.362,0.07-0.8,0.143-1.274,0.215c-0.334,0.027-0.685,0.045-1.05,0.045
				c-0.624,0-1.293-0.051-2.005-0.189c-1.129-0.221-2.33-0.582-3.531-1.202c-0.87-0.436-1.708-1.018-2.51-1.709
				c-0.291,0.837-0.619,1.674-0.946,2.438c-0.364,0.911-0.763,1.747-1.164,2.584c-0.4,0.838-0.873,1.6-1.311,2.366
				c-0.873,1.491-1.783,2.836-2.655,4.001c-0.909,1.165-1.783,2.148-2.547,2.947c-0.764,0.804-1.419,1.384-1.893,1.783
				c-0.218,0.221-0.437,0.365-0.545,0.474s-0.182,0.146-0.182,0.146s-0.036-0.072-0.109-0.219c-0.074-0.146-0.218-0.363-0.364-0.619
				c-0.292-0.545-0.691-1.346-1.128-2.33c-0.437-0.982-0.91-2.143-1.419-3.455c-0.508-1.309-1.019-2.801-1.492-4.366
				c-0.109-0.326-0.183-0.657-0.255-0.948c-0.145,0.73-0.327,1.42-0.509,2.076c-0.291,1.166-0.765,2.292-1.055,3.311
				c-0.328,1.02-0.692,1.93-1.019,2.729c-0.328,0.799-0.62,1.417-0.874,1.892c-0.218,0.438-0.363,0.69-0.363,0.69
				s-0.254-0.107-0.691-0.325c-0.437-0.22-1.056-0.548-1.783-1.021c-0.728-0.472-1.565-1.053-2.475-1.784
				c-0.91-0.729-1.783-1.637-2.691-2.617c-0.875-1.02-1.82-2.148-2.547-3.458c-0.765-1.273-1.529-2.655-2.111-4.146
				c-0.08-0.219-0.159-0.443-0.239-0.666c-0.188,0.432-0.375,0.851-0.562,1.25c-0.509,1.091-1.018,1.999-1.456,2.765
				c-0.873,1.527-1.529,2.365-1.529,2.365s-0.437-0.948-0.946-2.62c-0.254-0.838-0.545-1.858-0.836-2.984
				c-0.291-1.128-0.582-2.398-0.837-3.785c-0.044-0.241-0.088-0.489-0.132-0.736c-0.697,0.926-1.442,1.769-2.16,2.521
				c-0.802,0.836-1.529,1.6-2.33,2.183c-0.764,0.617-1.456,1.094-2.074,1.491c-1.201,0.801-2.001,1.164-2.001,1.164
				s-0.182-0.871-0.328-2.291c-0.072-0.729-0.109-1.564-0.145-2.475c0-0.946-0.073-1.965-0.037-3.058
				c0-1.091,0.109-2.221,0.182-3.42c0.073-1.199,0.218-2.401,0.401-3.638c0.145-1.239,0.328-2.512,0.618-3.748
				c0.166-0.966,0.374-1.932,0.607-2.883c-0.082,0.124-0.162,0.25-0.245,0.37c-0.51,0.839-1.018,1.639-1.527,2.366
				c-0.546,0.729-1.056,1.42-1.493,2.04c-0.473,0.613-0.91,1.16-1.309,1.599c-0.764,0.909-1.348,1.418-1.348,1.418
				s-0.401-0.617-0.837-1.746c-0.219-0.546-0.473-1.237-0.727-2.039c-0.255-0.8-0.401-1.671-0.547-2.618
				c-0.145-0.947-0.254-2.002-0.254-3.128c0-1.092,0.073-2.26,0.219-3.459c0.182-1.165,0.436-2.401,0.763-3.604
				c0.364-1.197,0.837-2.398,1.312-3.562c0.545-1.166,1.127-2.295,1.819-3.349c0.328-0.509,0.655-0.984,1.019-1.455
				c-0.146,0.072-0.327,0.108-0.473,0.181c-0.909,0.328-1.782,0.546-2.584,0.69c-0.8,0.146-1.528,0.219-2.146,0.219
				c-0.292,0-0.583-0.036-0.837-0.073C4.963,50.726,4.781,50.69,4.6,50.617c-0.328-0.109-0.473-0.218-0.473-0.218
				s0.146-0.109,0.328-0.326c0.109-0.11,0.219-0.254,0.328-0.437c0.109-0.181,0.254-0.363,0.4-0.583
				c0.291-0.435,0.582-0.981,0.946-1.599c0.181-0.292,0.363-0.621,0.546-0.983c0.218-0.329,0.4-0.693,0.618-1.056
				c0.437-0.728,0.946-1.493,1.493-2.293c0.544-0.8,1.127-1.599,1.782-2.437c1.273-1.636,2.729-3.311,4.329-4.875
				c1.601-1.565,3.275-3.02,4.986-4.294c0.036,0,0.036-0.035,0.073-0.035c-0.728-0.074-1.455-0.183-2.146-0.329
				c-0.947-0.219-1.82-0.438-2.584-0.728c-0.764-0.291-1.419-0.619-1.965-0.946c-0.254-0.146-0.472-0.329-0.69-0.474
				c-0.182-0.145-0.328-0.291-0.437-0.438c-0.219-0.253-0.291-0.399-0.291-0.399s0.182-0.038,0.473-0.111
				c0.146-0.037,0.328-0.108,0.509-0.181c0.181-0.073,0.4-0.182,0.618-0.292c0.473-0.218,1.019-0.545,1.638-0.874
				c0.291-0.181,0.618-0.362,0.981-0.545c0.328-0.182,0.692-0.365,1.093-0.583c0.764-0.363,1.564-0.8,2.438-1.199
				c0.874-0.401,1.819-0.803,2.765-1.165c0.364-0.146,0.764-0.291,1.128-0.437c-0.255-0.108-0.473-0.254-0.727-0.364
				c-1.019-0.545-1.893-1.164-2.621-1.746c-0.727-0.619-1.346-1.202-1.783-1.747c-0.437-0.546-0.764-1.019-0.91-1.347
				c-0.159-0.284-0.207-0.514-0.216-0.545c0.004,0,0.083,0.016,0.24,0.016c0.081,0,0.182-0.004,0.304-0.017
				c0.364,0,0.873-0.073,1.456-0.146c0.617-0.071,1.344-0.181,2.146-0.29c0.8-0.147,1.672-0.292,2.619-0.437
				c0.91-0.146,1.929-0.328,2.984-0.511c1.019-0.181,2.111-0.363,3.238-0.544c0.546-0.109,1.128-0.146,1.674-0.255
				c0.255-0.036,0.546-0.072,0.837-0.111c0.254-0.036,0.546-0.071,0.873-0.108c0.328-0.035,0.654-0.071,0.983-0.108l0.873-0.11
				c0.692-0.071,1.419-0.108,2.111-0.146c0.768-0.024,1.537-0.05,2.292-0.05c0.318,0,0.634,0.005,0.946,0.016
				c0.073-0.074,0.146-0.146,0.255-0.219c-0.219-0.109-0.437-0.253-0.619-0.361c-0.51-0.329-1.02-0.653-1.455-1.017
				c-0.909-0.692-1.711-1.415-2.366-2.108c-0.654-0.69-1.164-1.374-1.528-1.956c-0.363-0.582-0.582-1.075-0.728-1.439
				c-0.146-0.363-0.146-0.548-0.109-0.548c0,0,0.183-0.074,0.546-0.074C35.166,6.542,35.675,6.5,36.294,6.5c0.617,0,1.345,0,2.146,0
				c0.836,0,1.709,0.058,2.655,0.022c0.945-0.036,1.964-0.085,3.021-0.121c1.055-0.037,2.147,0.01,3.275,0.01
				c0.142-0.009,0.283,0.021,0.424,0.021c0.439,0,0.873,0.067,1.286,0.067c0.291,0,0.547,0,0.837,0c0.255,0,0.545,0,0.91,0
				c0.328,0,0.655,0,0.982,0l0.874-0.028c0.691,0.036,1.419,0.045,2.11,0.082c1.419,0.146,2.839,0.291,4.184,0.617
				c1.346,0.327,2.694,0.617,3.932,1.091c1.235,0.473,2.438,0.946,3.528,1.491c0.292,0.146,0.582,0.29,0.873,0.473
				c-0.254-0.328-0.473-0.654-0.691-0.982c-0.508-0.8-0.947-1.601-1.272-2.328c-0.329-0.727-0.583-1.455-0.729-2.038
				c-0.073-0.291-0.107-0.582-0.146-0.837c-0.036-0.254-0.036-0.437,0-0.618C64.532,3.094,64.566,2.913,64.566,2.913 M63-0.631
				l-0.612,3.133c0,0-0.041,0.21-0.087,0.592c-0.066,0.395-0.067,0.797-0.002,1.258l0.022,0.148
				c0.036,0.253,0.081,0.569,0.169,0.918c0.031,0.125,0.065,0.254,0.104,0.386c-0.83-0.254-1.669-0.454-2.488-0.65l-0.583-0.14
				c-1.495-0.362-3.013-0.519-4.48-0.669l-0.055-0.006l-0.055-0.003c-0.366-0.02-0.742-0.033-1.117-0.045
				c-0.335-0.012-0.67-0.023-0.996-0.04l-0.084-0.004l-0.083,0.118L51.804,4.5h-0.956h-0.91h-0.837c-0.175,0-0.355-0.123-0.537-0.13
				c-0.247-0.01-0.497-0.077-0.749-0.077c-0.163,0-0.326-0.025-0.489-0.016c-1.052,0-2.175-0.008-3.286,0.03
				c-0.619,0.021-1.197,0.069-1.757,0.123c-0.455,0.043-0.884,0.081-1.271,0.095c-0.499,0.019-0.97-0.042-1.385,0
				C39.194,4.567,38.786,4.5,38.441,4.5h-2.146c-0.177,0-0.388,0.063-0.61,0.019c-0.136-0.027-0.284,0.063-0.441,0.04L35.01,4.5
				h-0.755h-1.177l-0.669,0.913c-0.721,1.064-0.255,2.193-0.103,2.575c0.251,0.629,0.547,1.199,0.904,1.771
				c0.494,0.788,1.116,1.576,1.8,2.299c0.052,0.055,0.104,0.105,0.157,0.16l-0.862,0.105l-0.943,0.103
				c-0.364,0.041-0.677,0.078-0.949,0.117l-0.264,0.034c-0.2,0.025-0.395,0.051-0.572,0.076l-0.061,0.008l-0.06,0.012
				c-0.223,0.044-0.454,0.072-0.684,0.102c-0.289,0.038-0.614,0.08-0.948,0.145c-1.126,0.181-2.217,0.364-3.235,0.544l-0.705,0.123
				c-0.79,0.138-1.549,0.271-2.243,0.382c-0.958,0.147-1.821,0.291-2.621,0.437l-0.75,0.104c-0.472,0.066-0.907,0.128-1.296,0.172
				l-0.284-0.121c-0.352,0.045-0.75-0.061-0.919-0.061h-0.113l-0.113,0.168c-0.014,0.001-0.027,0.082-0.039,0.082l-3.503-0.59
				l1.096,3.473c0.043,0.16,0.144,0.516,0.363,0.93c0.228,0.479,0.599,1.04,1.161,1.741c0.486,0.607,1.145,1.259,2.071,2.048
				c-0.009,0.004-0.019,0.01-0.028,0.015c-0.541,0.247-1.039,0.5-1.521,0.744c-0.323,0.163-0.637,0.322-0.944,0.469l-0.055,0.026
				l-0.053,0.029c-0.177,0.097-0.346,0.186-0.508,0.271c-0.197,0.104-0.384,0.202-0.562,0.3c-0.391,0.198-0.735,0.39-1.05,0.583
				c-0.211,0.113-0.414,0.225-0.608,0.333c-0.32,0.177-0.623,0.345-0.851,0.45l-0.036,0.017l-0.036,0.018
				c-0.158,0.08-0.315,0.162-0.446,0.214c-0.09,0.036-0.175,0.072-0.249,0.095c-0.196,0.049-0.339,0.08-0.359,0.083l-2.798,0.586
				l1.262,2.565c0.085,0.173,0.25,0.451,0.552,0.81c0.214,0.276,0.471,0.532,0.783,0.78l0.075,0.06l0.079,0.053
				c0.056,0.037,0.111,0.078,0.168,0.12c0.169,0.124,0.38,0.278,0.643,0.429c0.678,0.406,1.457,0.782,2.283,1.096
				c0.178,0.067,0.359,0.131,0.544,0.192c-0.546,0.494-1.091,1.006-1.633,1.536c-1.555,1.521-3.079,3.236-4.529,5.099
				c-0.671,0.859-1.282,1.695-1.865,2.551c-0.458,0.668-1.052,1.55-1.562,2.4c-0.098,0.163-0.19,0.326-0.28,0.487
				c-0.093,0.167-0.183,0.331-0.285,0.484l-0.073,0.109l-0.059,0.118c-0.153,0.303-0.305,0.577-0.453,0.816
				c-0.152,0.257-0.273,0.468-0.387,0.668C3.658,47.3,3.488,47.598,3.339,47.82c-0.051,0.077-0.098,0.142-0.143,0.205
				c-0.116,0.163-0.223,0.316-0.314,0.468c-0.012,0.02-0.023,0.038-0.035,0.053l-0.065,0.066l-0.027,0.036
				c0.011-0.005,0.039-0.022,0.042-0.024l-2.822,1.7l2.823,1.849c0.156,0.117,0.495,0.336,1.041,0.526
				c0.389,0.148,0.745,0.212,1.072,0.258C5.199,53,5.608,53.052,6.055,53.052c0.204,0,0.414-0.007,0.631-0.019
				c-0.09,0.187-0.182,0.378-0.274,0.575l-0.023,0.051l-0.021,0.053c-0.454,1.114-0.972,2.415-1.379,3.753l-0.009,0.032
				l-0.009,0.031c-0.334,1.229-0.608,2.523-0.814,3.845L4.149,61.41l-0.004,0.038c-0.156,1.284-0.235,2.538-0.235,3.726
				c0,1.103,0.091,2.235,0.279,3.464c0.156,1.015,0.322,2.002,0.626,2.956c0.24,0.759,0.503,1.497,0.781,2.189
				c0.494,1.281,0.981,2.047,1.035,2.13l1.392,2.142l1.925-1.679c0.046-0.04,0.325-0.287,0.737-0.716
				c-0.048,0.479-0.085,0.938-0.112,1.386c-0.02,0.333-0.043,0.658-0.065,0.979c-0.058,0.831-0.119,1.69-0.12,2.538
				c-0.022,0.724-0.215,1.412-0.197,2.021c0.011,0.368-0.19,0.726-0.19,1.073v0.043l0.214,0.044c0.036,0.921,0.182,1.813,0.26,2.606
				c0.157,1.524,0.409,2.485,0.417,2.526l0.593,2.709l2.533-1.145c0.099-0.045,1.008-0.463,2.321-1.338
				c0.782-0.502,1.494-1.011,2.199-1.578c0.68-0.501,1.285-1.075,1.886-1.688c0.025,0.101,0.052,0.201,0.078,0.302
				c0.269,1.039,0.567,2.103,0.862,3.075c0.538,1.767,1.002,2.792,1.054,2.902l1.52,3.302l2.24-2.862
				c0.078-0.099,0.782-1.011,1.708-2.631c0.008-0.015,0.016-0.028,0.024-0.043c0.173,0.303,0.341,0.587,0.5,0.851
				c0.808,1.447,1.818,2.666,2.784,3.791l0.027,0.032l0.029,0.031c0.858,0.926,1.863,1.985,2.932,2.841
				c0.833,0.671,1.704,1.298,2.655,1.914c0.633,0.412,1.286,0.786,1.992,1.141c0.524,0.261,0.825,0.387,0.825,0.387l1.797,0.751
				l0.987-1.688c0,0,0.165-0.285,0.412-0.78c0.308-0.579,0.629-1.274,0.954-2.066c0.208-0.509,0.436-1.073,0.664-1.693
				c0.37,0.925,0.703,1.719,1.009,2.407c0.395,0.89,0.821,1.77,1.2,2.476l0.014,0.026l0.015,0.025
				c0.076,0.133,0.15,0.257,0.218,0.368c0.039,0.064,0.075,0.121,0.101,0.169l0.097,0.193l1.01,2.021l2.001-1.048
				c0.16-0.083,0.403-0.236,0.672-0.495l0.048-0.039c0.117-0.094,0.287-0.23,0.475-0.412c0.709-0.603,1.365-1.223,2.002-1.894
				c0.935-0.977,1.841-2.024,2.688-3.11c1.03-1.375,1.97-2.791,2.821-4.246c0.117-0.203,0.224-0.386,0.33-0.569
				c0.357-0.613,0.728-1.247,1.068-1.961c0.359-0.75,0.766-1.598,1.149-2.538c0.159,0.089,0.318,0.173,0.478,0.253
				c1.238,0.64,2.587,1.1,4.098,1.396c0.799,0.155,1.594,0.23,2.431,0.23c0.401,0,0.805-0.017,1.233-0.053l0.075-0.006l0.075-0.012
				c0.508-0.077,0.976-0.154,1.363-0.229c0.553-0.105,1.005-0.257,1.336-0.367c1.598-0.563,2.462-1.281,2.619-1.42l1.693-1.49
				l-1.521-1.668c-5.487-6.017-8.282-16.051-9.356-20.81c0.256-0.029,0.5-0.066,0.74-0.111c0.717-0.11,1.349-0.268,1.837-0.412
				c1.844,2.914,6.392,8.078,15.454,8.078c3.546,0,7.459-0.819,11.629-2.435l2.517-0.975c-0.035,1.937-0.223,4.071-0.562,6.413
				l-0.911,6.299l4.628-4.369c9.776-9.232,14.234-18.688,13.252-28.104c-1.261-12.074-11.099-19.846-13.742-21.729
				c-0.072-0.176-0.146-0.351-0.224-0.521c-0.342-0.777-0.826-1.847-1.404-2.923c-1.027-1.979-2.248-3.956-3.614-5.85
				c-1.672-2.279-3.052-3.884-4.478-5.212c-0.777-0.777-1.477-1.475-2.161-2.125c-0.557-0.526-1.129-1.026-1.635-1.467l-0.465-0.407
				c-0.194-0.174-0.402-0.347-0.603-0.513c-0.122-0.101-0.24-0.199-0.353-0.296l-0.109-0.095l-0.12-0.08
				c-0.192-0.128-0.403-0.31-0.607-0.485l-0.047-0.041l-0.03-0.026l-0.031-0.025c-0.342-0.273-0.654-0.533-0.938-0.768l-0.379-0.313
				c-0.102-0.098-0.201-0.188-0.297-0.273c-0.049-0.044-0.096-0.084-0.138-0.126c-0.049-0.05-0.097-0.096-0.137-0.139l-0.289-0.398
				l-2.147-2.927l-1.623,3.247c-0.006,0.01-0.057,0.1-0.148,0.245l-0.105,0.167L78.595,4.08c-0.091,0.223-0.175,0.446-0.265,0.712
				c-0.065,0.198-0.146,0.471-0.208,0.79c-0.587-0.287-1.15-0.545-1.695-0.778c-0.909-0.385-1.934-0.819-2.921-1.175
				c-0.847-0.305-1.729-0.604-2.622-0.887c-0.361-0.13-0.703-0.23-1.006-0.319l-0.238-0.07c-0.34-0.102-0.684-0.206-0.992-0.308
				c-0.494-0.156-0.925-0.287-1.302-0.401l-0.525-0.16l-0.024-0.008L66.771,1.47c-0.227-0.064-0.352-0.109-0.416-0.136l-0.071-0.03
				L66.209,1.28c-0.034-0.011-0.066-0.022-0.096-0.033l-0.022-0.013c-0.21-0.118-0.361-0.209-0.374-0.217L63-0.631L63-0.631z
				 M98.05,64.401l-2.579-0.86c-2.207-0.741-4.936-2.289-5.316-3.322c-0.492-1.334-0.492-1.334-0.293-2.134
				c0.14-0.557,0.33-1.319,0.541-2.493c0.13-0.719,0.22-1.406,0.271-2.063c0.626,0.284,1.233,0.513,1.808,0.728
				c1.721,0.647,2.858,1.074,3.728,2.664C97.277,58.874,97.89,61.351,98.05,64.401L98.05,64.401z"/>
		</g>
	</g>
</g>
</svg>
