<?xml version="1.0" encoding="utf-8"?>
<!-- Generator: Adobe Illustrator 16.0.0, SVG Export Plug-In . SVG Version: 6.00 Build 0)  -->
<!DOCTYPE svg PUBLIC "-//W3C//DTD SVG 1.1//EN" "http://www.w3.org/Graphics/SVG/1.1/DTD/svg11.dtd">
<svg version="1.1" id="Calque_1" xmlns="http://www.w3.org/2000/svg" xmlns:xlink="http://www.w3.org/1999/xlink" x="0px" y="0px"
	 width="320px" height="548px" viewBox="0 0 320 548" enable-background="new 0 0 320 548" xml:space="preserve">
<g opacity="0.22">
	<path fill="none" d="M60.2,326.75c0.3,0.9,0.6,1.85,0.8,2.85c-0.2-1-0.5-1.999-0.8-2.899c-0.097-0.39-0.193-0.779-0.187-1.146
		C59.999,325.938,60.099,326.347,60.2,326.75z"/>
	<path fill="none" d="M50.1,339c-2.8,3.101-4.7,6.601-6.3,10.4c-0.9,2.2-1.9,4.399-3.7,6.1c-0.6,0.601-0.9,1.601-1.4,2.5
		c-0.3-0.2-0.6-0.399-1-0.8c-0.5,1.1-1.1,2.2-1.4,3.3c-1.8,5.601-4.3,11-6.7,16.3c2.4-5.3,4.9-10.698,6.7-16.299
		c0.3-1.1,0.9-2.199,1.4-3.299c0.4,0.4,0.7,0.601,1,0.801c0.5-0.899,0.8-1.896,1.4-2.497c1.8-1.7,2.8-3.893,3.7-6.093
		c1.6-3.8,3.5-7.287,6.3-10.388c2.8-3.2,5.8-6.176,7.7-9.976c0.3-0.5,0.7-0.95,1.2-1.649c-0.5,0.699-0.9,1.1-1.2,1.6
		C55.9,332.8,52.9,335.8,50.1,339z"/>
	<path fill="none" d="M40.4,404.699c-0.1-1.7-2.7-4.901-4.3-5.302c-7.1-1.899-13.1,2.897-15,8.997c-0.9,2.801-1.4,5.796-2.1,8.796
		c-0.3-1.9-1.5-5.509-3.7-7.909c-3.6-4.1-7.7-4.218-12.1-2.419c-0.363,0.183-0.721,0.904-0.711,1.336
		c0.028-0.444,0.369-1.127,0.711-1.299c4.4-1.799,8.5-1.699,12.1,2.4c2.2,2.4,3.4,6,3.7,7.9c0.7-3,1.2-6,2.1-8.801
		c1.9-6.1,7.9-10.899,15-9C37.7,399.8,40.3,403,40.4,404.699c0.012,0.113,0.014,0.218,0.005,0.314
		C40.414,404.916,40.413,404.812,40.4,404.699z"/>
	<path fill="none" d="M94.8,441.3c-0.8,1.101-1.5,2.301-2.3,3.301c-1.2,1.699-1.8,3.6-2.2,5.6c1.1-1.3,1.9-2.8,2.7-4.2
		c0.4-0.7,0.7-1.6,1.3-2c2.4-1.399,3.5-4,5.4-5.899c1.4-1.4,2.4-3.2,3.9-4.5c3-2.7,4.9-6.301,7.3-9.4c0.9-1.2,1.7-2.5,2.6-3.7
		c1.6-2,2.6-4.399,4-6.6c-0.2-0.101-0.4-0.3-0.5-0.4c-0.3,0.4-0.6,0.9-0.9,1.2c-2.8,3.1-5.6,6.1-8.3,9.2c-2.4,2.8-5.8,4.8-7.2,8.5
		c-0.5,1.2-1.4,2.3-2.1,3.399C97.3,437.7,96,439.5,94.8,441.3z"/>
	<path fill="none" d="M11.9,445.5c0.7-2.6,1.4-5,2.1-7.6c-0.8-0.5-1.5-1-2.3-1.3c-2.7-1-5.2-2.301-7.5-4.101
		c-1-0.8-1.9-1.899-3.1-2.6c-0.383-0.256-0.745-0.532-1.1-0.815v7.18c3.133,2.609,6.267,5.212,9.4,7.735
		C10.1,444.601,11,445,11.9,445.5z"/>
	<path fill="none" d="M7.2,432.2c2.3,1.4,4.8,2.7,7.6,4.2c-0.5-2.4-0.8-4.3-1.3-6.2c-0.1-0.6-0.6-1.2-1.1-1.5
		c-1.2-0.8-2.5-1.3-3.8-2c-1.4-0.8-2.8-1.5-4-2.4c-1.581-1.186-3.078-2.495-4.6-3.741v6.153c0.509,0.53,1.052,1.032,1.6,1.488
		C3.4,429.7,5.3,431,7.2,432.2z"/>
	<path fill="none" d="M95.7,433.601c1.1-2,2.1-4.101,3.4-6c2.1-3.4,4.1-6.801,5.3-10.7c-0.4,0.7-0.7,1.399-1.1,2.1
		c-0.4,0.601-0.7,1.4-1.3,1.601c-1,0.399-1.4,1.199-1.9,2c-0.4,0.6-0.8,1.199-1.2,1.8c-1.8,2.1-3.6,4.1-5.4,6.2
		c-0.1,0.199-0.1,0.5-0.2,0.699c-1.1,2.2-2.1,4.5-3.4,6.601c-2.5,4.1-5.6,7.899-7.6,12.399c-1.3,2.7-2.8,5.301-4.3,8
		c-0.7,1.301-1.7,2.5-2.2,3.9c-0.7,1.9-1,3.9-1.5,5.9c0.2,0.1,0.3,0.1,0.5,0.199c0.4-0.8,0.9-1.6,1.2-2.5c1-2.199,2.3-4.199,4.1-5.8
		c1.1-1,2.1-1.899,2.1-3.5c0-0.6,0.3-1.3,0.8-1.7c3.7-3.8,5.5-8.899,8.5-13.199C93.2,439.2,94.3,436.3,95.7,433.601z"/>
	<path fill="none" d="M9,424.9c2.1,1.1,4.5,1.6,6.3,3.3c0.3,0.2,0.7,0.3,1.3,0.5c0.4-1.4,0.7-2.8,1.1-4.2c0.3-0.1,0.6-0.3,1.3-0.6
		c-0.7-0.2-1.1-0.2-1.4-0.3c-1-3-0.3-6.301-1.8-9.301c-1.4-2.8-3.1-5.1-5.8-6.6c-0.5,0.5-1,0.9-1.5,1.3c-1.4,1.3-1.4,2-0.2,3.4
		c3.2,3.899,5.6,8.2,8,12.7c0.4,0.8,0.7,1.6-0.4,2.6c-1.5-2.8-2.9-5.4-4.4-7.9c-1.5-2.6-3.2-5-5.1-7.899c-0.5,1.3-0.8,2.1-1.1,2.899
		c-0.9-0.199-1.8-0.399-2.7-0.5c-0.857-0.039-1.729-0.064-2.6-0.097v4.298c1.022,0.694,2.012,1.494,3,2.199
		C5,422.101,6.8,423.8,9,424.9z"/>
	<path fill="none" d="M3.945,496.646c0.136-0.389,0.229-0.595,0.154-0.745c-0.1-1.5-0.2-3-0.4-4.5c-0.2-2.101,0-4.101,0.9-6.2
		c1.1-2.8,1.3-6,1.9-9.1C7.3,471.8,7.2,467.3,8.4,463c0.8-3,1.6-6,2.3-9c0.5-2.1,0.9-4.2,1.3-6.1c-0.9-0.601-1.6-0.9-2.2-1.4
		c-2-1.5-3.9-3-5.8-4.5c-0.7-0.6-1.5-1.1-2.2-1.8c-0.617-0.617-1.208-1.287-1.8-1.956v1.999c1.651,2.405,3.24,4.745,4.7,7.157
		c1.1,1.7,1.7,3.7,2,6.2c-2.274-3.659-4.499-7.219-6.7-10.742v8.881c1.941,1.802,4.614,5.043,5.2,6.361c0.2,0.199,0,0.6-0.1,1.1
		c-1.725-2.25-3.403-4.425-5.1-6.562v9.204c0.483,0.566,0.979,1.122,1.5,1.658c0.3,0.3,0.2,0.8-0.2,1.5
		c-0.433-0.586-0.867-1.156-1.3-1.733v19.504c0.286,0.523,0.63,0.989,0.9,1.529c-0.2,0.101-0.5,0.2-0.7,0.4
		c-0.067-0.104-0.132-0.207-0.2-0.311v6.963c1.134,1.614,2.229,3.27,3.4,4.848C3.543,496.379,3.735,496.516,3.945,496.646z"/>
	<path fill="none" d="M90,410.4c0.5,0.899,1.1,1.6,1.9,2.5c0.7-1,1.7-1.9,2.1-3.101c1-3.6,4.1-5.899,5.8-9c0.7-1.3,2.3-1.6,3.3-2.5
		c2.3-2,4.3-4.5,6.6-6.899c-1.9,0.1-3,0.3-4,1.7c-1.5,2-3.5,3.3-5.4,4.6c-1.5,1-2.7,2.1-3.7,3.6c-0.7,1-1.6,1.9-2.7,2.301
		c-1.8,0.8-2.9,2.199-4,3.6C91.3,408.4,90.4,409.4,90,410.4z"/>
	<path fill="none" d="M4.2,413c0,0,0.1-0.449,0-0.65c-0.6-1.398-1.2-2.55-1.7-3.95c-0.014-0.058-0.016-0.127-0.011-0.201
		c-0.01-0.432,0.348-1.153,0.711-1.336c4.4-1.799,8.5-1.681,12.1,2.419c2.2,2.4,3.4,6.009,3.7,7.909c0.7-3,1.2-5.995,2.1-8.796
		c1.9-6.1,7.9-10.896,15-8.997c1.6,0.4,4.2,3.602,4.3,5.302c0.013,0.112,0.014,0.217,0.005,0.314
		c-0.062,0.677-0.643,0.961-1.605,0.786c-1.2-0.199-2.4-0.4-3.5-0.699c-1.1-0.301-2.2-0.701-3.5-1.101c-0.7,2.5-2.5,4.399-2.6,7.101
		c0,1-1,1.899-1.6,2.899c-0.3,0.5-0.5,1-0.5,1.7c0.3-0.301,0.6-0.9,0.8-0.9c2,0.2,2.9-1.699,4.5-2.3c0.7-0.3,1.4-0.601,2.1-1
		c0.4-0.3,0.9-0.601,1.1-1.101c0.5-0.799,1-1.399,2.1-0.799c0.2,0.1,0.6,0.299,0.9,0.199c1.7-0.5,3.4-1.199,5.1-1.699
		c0.9-0.201,2,0,3.3,0c-0.3-0.801-0.5-1.801-0.9-2.5c-1.2-1.9-1.8-3.9-2.1-6c-0.2-1.701-0.6-3.301-0.8-5
		c-0.2-3.301-0.3-6.701-0.5-10c-0.1-2.201-0.4-4.4-0.4-6.701c0-3.299,0.1-6.699,0.3-10c0-0.757,0.708-1.43,0.613-2.349
		c-0.038,0.049-0.075,0.101-0.113,0.149c-0.025,0.024-0.037,0.037-0.042,0.042c0.005-0.005,0.017-0.018,0.042-0.042
		c-2.1,1.5-3.8,3.2-5,5.5c-0.6,1.2-1.5,2.2-2.2,3.4c-1.1,1.899-2.1,3.899-3.2,5.8c-0.1,0.3-0.2,0.6-0.3,0.899
		c-0.5,1.801-1,3.7-1.4,5.5c-0.7,2.7-1.3,5.4-2,8.301c-0.1-0.5-0.4-0.801-0.3-1.2c0-0.9,0.1-1.9,0.3-2.8
		c0.5-2.601,1.2-5.301,1.7-7.9c0.7-3.1,2.5-5.7,3.7-8.7c0.8-2,1.9-4,3.2-5.8c0.9-1.3,2.3-2.4,3.4-3.6c0.6-0.7,1.3-1.4,1.9-2.101
		c0.7-0.8,1.4-1.5,1.9-2.399c0.5-0.801,0.9-1.601,1.3-2.5c0.4-1,0.5-2,1.7-2.4c0.1,0,0.3-0.2,0.4-0.3c0.8-2,1.8-4,3.2-5.8
		c0.7-0.9,1-2.101,1.9-2.9c0.6-0.5,0.9-1.5,1.2-2.3c0.4-1,0.9-1.8,1.8-2.4c0.6-0.399,1.1-1.1,1.6-1.7c1.2-1.3,2.3-2.6,3.4-3.899
		c0.7-0.9,1.3-1.8,2-2.7c1.3-1.7,2.5-3.5,3.9-5.1c2.5-2.601,4.5-5.601,6.6-8.5c0.6-0.9,1.5-1.601,2.3-2.4c0.6-0.6,1.2-1.1,1.6-1.7
		c2.1-3,4.2-6,6.4-9c0.6-0.8,1.3-1.399,2-2c1-1,2.1-1.899,3.2-2.899c2-1.9,3.9-3.801,5.9-5.601c0.5-0.5,1.2-0.7,1.9-0.899
		c1-0.4,2.1-0.801,2.8-2.4c-3.1,0.8-5.8,1.7-8.2,3.4c-1.5,1.1-3,2.399-4.7,3.3c-2.4,1.3-4.3,3.3-6.1,5.3
		c-0.7,0.8-1.8,1.201-2.6,1.901c-1.4,1.3-2.8,2.501-3.9,4.001s-2.2,2.801-3.8,3.801c-1.5,0.899-2.5,2.603-3.8,3.902
		c-0.9,0.9-1.9,1.808-2.9,2.707c-1.1,1-2.3,2.013-3.4,3.013c-0.347,0.298-0.473,0.651-0.487,1.029
		c-0.006,0.366,0.089,0.756,0.187,1.146c0.3,0.9,0.6,1.899,0.8,2.899c0.1,0.4-0.3,0.4-0.4,1.4c-0.2,0-0.3,0-0.5,0
		c-0.3-1-0.7-2.299-1.1-3.6c-0.5,0.699-0.9,1.149-1.2,1.649c-1.9,3.8-4.9,6.775-7.7,9.976c-2.8,3.101-4.7,6.588-6.3,10.388
		c-0.9,2.2-1.9,4.393-3.7,6.093c-0.6,0.601-0.9,1.598-1.4,2.497c-0.3-0.2-0.6-0.4-1-0.801c-0.5,1.1-1.1,2.199-1.4,3.299
		c-1.8,5.601-4.3,10.999-6.7,16.299c-0.1,0.101-0.3,0.301-0.3,0.4c-0.1,3.9-2.8,7.2-3,11.1c-0.1,1.301-0.6,2.601-0.9,3.9
		c-0.2,1.2-0.4,2.3-0.6,3.5c-0.1,0.5-0.1,1.1-0.4,1.3c-1.3,0.899-1.3,2.3-1.5,3.601c-0.3,1.699-0.8,3.299-1.2,5
		c-0.2,0-0.5-0.101-0.7-0.101c0-0.8,0-1.601,0.1-2.399c0.6-3.701,1.1-7.4,1.8-11.101c0.2-0.899,0.6-1.8,0.9-2.7
		c0.2-0.5,0.5-1.1,0.5-1.6c0.1-2.9,1-5.6,2.1-8.301c1-2.5,1.4-5,1.1-7.699c0-0.301,0-0.7,0.1-0.9c0.8-1.6,0.2-3-0.4-4.5
		c-1.7-4-2.7-8.3-3.8-12.5c-0.7-2.699-1-5.5-2.3-8c-0.5-1.1-0.9-2.4-1.2-3.6c-1.5-5.7-3.8-11.1-6.2-16.5
		c-1.5-3.301-2.7-6.801-4.2-10.2c-0.4-0.899-1.1-1.7-1.6-2.5c-0.4-0.5-0.8-1-1.1-1.601c-1.1-2.6-2.1-5.199-3.1-7.799
		c-0.1,0-0.3,0.1-0.4,0.1c0.3,2.1,0.6,4.1,0.8,6.199c-2.4-2-1.3-5.1-2.9-7.899c-0.1,4.601,1.4,8.7-0.3,12.899
		c-0.3-1.6-0.5-3.199-0.8-4.699c-0.032-0.255-0.067-0.522-0.1-0.781v5.799c0.635,0.901,1.261,1.812,1.8,2.782
		c1.4,2.601,2.6,5.3,3.8,8c0.6,1.3,0.9,2.7,1.4,4c1.4,3.5,2.8,6.9,4.2,10.3c1.8,4.601,3.5,9.2,5.2,13.801c0-0.101,0.2-0.2,0.4-0.601
		c0.2,0.4,0.6,0.8,0.6,1.101c0.4,2.8,1.6,5.3,2.8,7.8c0.9,1.8,1.5,3.7,2.3,5.5c0.5,1.3,1,2.5,1.4,3.8c0.1,0.4,0.2,0.9,0.2,1.3
		c-1.1-1-1.7-2.3-2.1-3.7c-0.7-3-1.9-5.699-3.8-8.199c0.6,2.199,1.3,4.399,2,6.5c0.6,2.199,1.3,4.299,2.1,7
		c-0.6-0.701-1-1-1.1-1.301c-0.7-1.8-1.5-3.5-2.1-5.3c-1.2-3.7-2.3-7.399-3.6-11.101c-0.7-2-1.5-3.799-2.3-5.799
		c-1.6-4.201-3.1-8.5-4.8-12.701c-1-2.5-2.5-4.799-3.2-7.399c-0.6-2.2-1.7-4.2-2.6-6.399C2,323.2,1.5,321.8,1,320.399
		c-0.312-0.812-0.508-1.7-1-2.425v10.693c0.505,1.773,1.02,3.546,1.5,5.332c-0.417-0.417-0.941-1.473-1.5-2.934v9.2
		c0.404,2.479,0.758,4.955,1.1,7.434c0.1,0.5,0.2,0.9,0.4,1.4c1.6,3.8,1.9,7.899,3,11.8c1.3,4.5,1.9,9.2,4,13.5
		c0.7,1.5,0.8,3.399,1.1,5.1c0.1,0.5,0,1,0.1,1.4c0.4,2,1.4,3.899,1.1,6.2c-0.2,1.899,0.8,4,1.2,6c0.2,0.699,0.3,1.5,0.4,2.199
		c-0.2,0-0.3,0.101-0.5,0.101c-0.1-0.3-0.3-0.5-0.4-0.8c-0.6-2.101-0.7-4.4-2-6.4c-0.3-0.4-0.3-1.1-0.3-1.6
		c0.2-1.7-0.1-3.301-0.7-4.9c-0.2-0.5-0.3-1.1-0.3-1.6c-0.2-2.4-0.5-4.7-1.7-6.9c-0.6-1-1.1-2.2-1.1-3.4C5.3,366.4,4,363.3,3.3,360
		c-0.6-3-1.2-6.1-2.3-9c-0.394-1.041-0.719-2.092-1-3.148v9.165c0.775,4.128,1.632,8.256,2.4,12.384c0.3,1.5,0.3,3,0.6,4.5
		c0.4,2.3,1.1,4.5,1.4,6.8c0.6,3.4,0.9,6.8,1.4,10.2c0.2,1.5,0.5,3,0.9,4.399c0.5,2.2,1.1,4.301,1.6,6.5
		c0.1,0.301-0.1,0.801-0.2,1.301c-0.6-0.2-1.1-0.2-1.3-0.5C6.5,402.3,6.3,401.8,6.2,401.3c-0.8-3.699-1.6-7.399-2.3-11.199
		c-0.5-2.9-0.8-5.801-1.3-8.7c-0.841-4.512-1.731-9.072-2.6-13.61v34.614C0.9,406.004,1.8,410,2.7,413C3.2,413,3.6,413,4.2,413z
		 M6.1,351.4c-0.7-1.3-1.3-2.601-1.9-4C5.9,348.2,6.3,349.7,6.1,351.4z M9.6,363.2c-2.1-2.6-3.2-7.1-2.8-11c0.7,1.9,1.3,3.4,1.7,5
		c0.6,2.2,1.5,4.2,3,5.9c1.3,1.5,1.9,3.199,2.3,5.199c0.5,2.301,1.5,4.5,2.1,6.801c0.5,1.899,1.1,3.6,2.6,5
		c0.4,0.399,0.8,0.8,1.1,1.3c1.1,2.1,2.1,4.2,3.2,6.399c-1.4-0.199-2.2-0.899-2.9-2.199c-1-2.101-1.8-4.2-3.7-5.801
		c-0.8-0.699-1-2.1-1.4-3.199c-0.5-1.4-0.8-2.9-1.3-4.301c-0.2-0.8-0.7-1.6-0.8-2.5C12.4,367.2,11.1,365.2,9.6,363.2z"/>
	<path fill="none" d="M139.6,426.601c-1,0.899-2.1,1.8-3.1,2.699c1.9,0.101,2.9-0.8,3.5-2.3C139.9,426.9,139.8,426.7,139.6,426.601z
		"/>
	<path fill="none" d="M3.7,511.3c0.6-5.1,1.1-9.6,1.6-13.899c-0.514-0.321-0.976-0.522-1.354-0.755
		c-0.045,0.13-0.095,0.28-0.146,0.455C2.7,495.7,1.9,494.5,1,493.3c-0.334-0.441-0.666-0.874-1-1.313v15.01
		c0.302,0.365,0.603,0.732,0.9,1.104C1.7,509,2.5,510,3.7,511.3z"/>
	<path fill="none" d="M161.1,405c0.2,0.101,0.3,0.101,0.5,0.2c0-0.5,0.2-1,0.4-1.5c-0.101-0.1-0.3-0.1-0.4-0.2
		C161.399,404,161.2,404.5,161.1,405z"/>
	<path fill="none" d="M0.1,410.3c-0.032-0.087-0.067-0.175-0.1-0.262v3.062C0.36,413.063,0.775,413,1.3,413
		C0.8,412,0.4,411.101,0.1,410.3z"/>
	<path fill="none" d="M20.9,421.601c1.6-2.9,2.9-5.9,4.8-8.5c2-2.801,1.9-6.301,4-9c-1.7-0.9-2.9-0.9-4.1,0.5
		c-1.5,1.8-2.9,3.6-3.3,6.1c-0.2,1.2-0.8,2.4-1,3.6c-0.4,2.4-1.1,4.801-0.9,7.2C20.6,421.5,20.7,421.5,20.9,421.601z"/>
	<path fill="none" d="M30.4,371c1.2-2.8,2.5-5.5,3.6-8.3c0.3-0.6,0.3-1.4,0.4-2.1c0.1-0.5,0.1-1,0.3-1.4c1.5-3.5,3.2-6.9,5.3-10.1
		c1.6-2.4,2.9-5.101,4.2-7.801c1.3-2.8,2.3-5.8,4.7-8c1.7-1.5,2.4-3.5,3.2-5.5c0.4-1.1,0.3-2.1-0.8-3c-1.2,2.2-2.7,4.301-3.6,6.5
		c-0.8,1.9-1.7,3.601-2.9,5.101c-1.6,2-3.3,3.899-4.3,6.2c-2.8,6.1-5.3,12.3-7.8,18.399c-1,2.4-1.8,4.9-2.7,7.4
		C29.8,369.3,29.3,370.2,30.4,371z"/>
	<path fill="none" d="M49.6,333.7c-2.2,3.1-3.6,6.7-5,10.5c2.1-2.6,4-4.8,5.7-7.1c2.2-2.801,4.1-5.801,6.3-8.601
		c1.5-1.8,1.9-3.5,0.5-5.8c-1.2,1.4-2.4,2.6-3.3,3.9c-0.7,1-1.1,2.3-1.7,3.399C51.3,331.3,50.5,332.5,49.6,333.7z"/>
	<path fill="none" d="M4.4,411.5c0.2,0,0.3,0,0.5,0.101c0.8-1.4,1.5-2.801,2.4-4.601c-1.4,0.4-2.8,0.8-4.1,1.2
		C3.7,409.4,4.1,410.5,4.4,411.5z"/>
	<path fill="none" d="M56.4,322.3c-0.2-1.6-0.4-2.8-0.6-4.1c-1.4,2.4-3,4.5-3.1,7.3c0.2,0.101,0.3,0.101,0.5,0.2
		C54.3,324.5,55.4,323.3,56.4,322.3z"/>
	<path fill="none" d="M39.1,354.5c2.5-1.7,2.9-4.7,4.4-7.1c-0.2-0.101-0.4-0.2-0.4-0.2C41.7,349.601,39.9,351.8,39.1,354.5z"/>
	<path fill="none" d="M59.4,323.9c1.8-1.4,3.6-2.7,5.4-4c0.2-0.2,0.4-0.5,0.6-0.8c0.7-1.101,1.5-2.301,2-3.101
		c-0.6-2.2-1.1-4.2-1.7-6.1c-1.9,1.6-1.7,3.8-1.7,5.899c0,0.2-0.2,0.301-0.4,0.5c-0.4-0.6-0.7-1.1-1.2-2.1c-1.1,1.8-2,3.3-3,4.7
		C58.1,320.601,58.4,322.3,59.4,323.9z"/>
	<path fill="none" d="M64.6,309c-0.1,0-0.2-0.1-0.3-0.1c-0.2,0.5-0.4,1-0.7,1.5c0.1,0.1,0.3,0.2,0.4,0.2
		C64.2,310.101,64.4,309.5,64.6,309z"/>
	<path fill="none" d="M57.9,316.601c0,0.5,0.1,1,0.1,1.6c1.4-1.8,2.6-3.4,3.8-5c0.4-0.5,0.8-1,0.2-1.6c-0.8,0.699-1.6,1.1-2.3,1.5
		c-0.1-0.101-0.2-0.2-0.3-0.4c0.5-0.5,1.1-1,1.6-1.5c0.7-0.7,1.2-1.5,1-2.5c-0.4-2-0.7-3.9-1.1-5.9c-0.9-4.3-1.9-8.5-2.7-12.8
		c-0.5-2.5-0.8-5-1.2-7.5c0-0.3,0-0.6,0-1c-0.3-3.5-0.6-7-0.9-10.5c-0.1-0.8-0.1-1.6-0.2-2.4c-0.1-0.699-0.3-1.399-0.5-2.199
		c-1.6,3.8-1.8,7.6-1.7,11.4c0.1,4.1,0.1,8.1,0.4,12.199c0.3,5.2-0.4,10.5,1.4,15.601c0.7,2.1,0.9,4.399,1.6,6.399
		C57.6,313.5,58,315,57.9,316.601z"/>
	<path fill="none" d="M19.8,431c0.3-0.7,0.5-1.6,1.1-2c2.3-1.7,4.4-3.6,6.9-5c1.4-0.8,2.8-1.8,4-2.899c1.8-1.7,4.5-2,6.3-3.601
		c1.5,0.2,2.3-1.2,3.5-1.6c1.7-0.5,3.3-1.101,4.9-1.9c1.2-0.7,2.4-1.1,3.8-1.2c1.7-0.199,3.5-0.3,5.1-1c1.2-0.5,2.2-0.699,3.4-0.699
		C59.6,411,60.2,411,60.9,411c0-0.1,0.1-0.3,0.1-0.399c-0.5-0.2-0.9-0.5-1.4-0.5c-3-0.5-6.1,0.199-9-0.9c-0.4-0.2-1.2,0-1.6,0.3
		c-1.2,0.9-2.4,0.5-3.7,0.601c-1.7,0.1-3.4,0.3-5.1,0.699c-1.7,0.5-3.2,1.601-4.9,2.101c-1.5,0.5-2.6,1.3-3.7,2.399
		c-0.7,0.601-1.9,0.7-2.6,1.301c-0.8,0.6-1.3,1.6-1.9,2.3c0,0.1-0.2,0-0.2,0.1c-0.6,0.5-1.4,0.9-1.7,1.5c-0.9,1.9-3.4,2.7-3.8,4.9
		c0,0.1-0.1,0.1-0.2,0.2c-2.8,1.5-2.9,4.3-3.6,6.899C19.3,433,19.4,431.8,19.8,431z"/>
	<path fill="none" d="M131.8,354.3c-0.1,0.5-0.1,0.9-0.2,1.601c3.1-1.5,5.2-3.4,5.6-6.8c0.1-1.101,0.4-2.101,1.5-2.801
		c0.5-0.3,0.7-1,1-1.6c1.1-2.7,2.9-5.1,3.3-8.1c0.1-0.4,0.4-0.9,0.6-1.301c1.8-2.5,2.6-5.399,3.6-8.3c1.3-3.8,2.3-7.8,3.5-11.6
		c0.8-2.601,2-5.2,2.8-7.9c0.4-1.5,0.6-3.2,1-4.8c-0.1,0-0.3-0.1-0.4-0.1c-0.2,0.199-0.4,0.5-0.5,0.699c-1.9,3.9-3.7,7.7-5.5,11.601
		c-0.4,0.899-1,1.7-1.1,2.6c-0.3,4.2-3.1,7.4-4.1,11.3c-0.7,2.9-3,5.2-3.6,8.2c-0.2,0.9-0.8,1.7-1.3,2.5c-0.3,0.5-0.7,0.9-0.8,1.4
		c-0.9,4.399-2.5,8.5-4.9,12.3C132.1,353.5,131.9,353.9,131.8,354.3z"/>
	<path fill="none" d="M31.7,401.2c1.5,1.7,3.5,1.9,5.6,2.5C35.6,400.4,34.9,400.101,31.7,401.2z"/>
	<path fill="none" d="M80.1,400.9c-1.4-1.9-1.8-3.8-1.7-6c0.1-1.9,0-3.7,0-6.101c-1.2,2.5-2.1,13.7-1.5,16.2
		C78,403.5,79.1,402.2,80.1,400.9z"/>
	<path fill="none" d="M16,442.5c0.2-1.399,1-2.3,2.1-3c0.3-0.2,0.6-0.6,0.8-0.899c1-1.9,2.4-3.4,4.3-4.5
		c1.4-0.801,2.7-1.9,4.1-2.801c0.3-0.199,0.5-0.6,0.8-0.899c0.4-0.399,0.8-0.7,1.1-1c1.2-1.3,2.4-2.601,4.3-2.8
		c0.2,0,0.3-0.4,0.5-0.5c3.6-2.6,6.7-5.9,10.7-8c1-0.601,1.9-1.301,2.9-1.9c-0.1-0.1-0.1-0.2-0.2-0.3c-0.2,0-0.5,0-0.7,0.1
		c-2.6,1.101-5.3,2-7.8,3.2c-1.5,0.7-2.8,2-4.6,2.2c-0.2,0-0.3,0.3-0.5,0.5c-2.8,1.7-5.1,4.1-8.1,5.7c-1.5,0.8-3.3,2-4.1,3.8
		c-0.7,1.6-1.7,2.7-3.8,2.5c-0.3,3.3-3.2,5.7-2.8,9.5C15.5,442.9,16,442.7,16,442.5z"/>
	<path fill="none" d="M129.5,357c0.2-0.2,0.2-0.6,0.2-0.899c-0.3-2.801,1.1-5,2.6-7c1.8-2.601,2-5.601,2.8-8.5
		c0-0.101-0.1-0.2-0.3-0.4c-1,0.6-1.4,1.6-1.8,2.7c-0.3,1-0.9,2-1.4,3c-0.3,0.6-0.8,1.1-0.9,1.7c-0.3,2.6-2,4.6-3.2,6.899
		c-0.7,1.3-1.5,2.601-2,4c-0.2,0.7-0.3,1.7-0.6,2.9C126.7,360,128.2,358.601,129.5,357z"/>
	<path fill="none" d="M132.3,452c-1.8,0-3.3,0-5.3,0C129,452.101,130.5,453,132.3,452z"/>
	<path fill="none" d="M150.7,448.101c-1.5,0.1-2.9,0.699-4.9,1.199c3.4-0.199,6.3-0.3,9.3-0.399
		C153.6,448.5,152.2,448.101,150.7,448.101z"/>
	<path fill="none" d="M103.6,445.5c-1.6,1.8-4.2,2.7-4.2,5.8c1.6-1.8,3.1-3.6,4.7-5.399C103.9,445.8,103.8,445.601,103.6,445.5z"/>
	<path fill="none" d="M113.1,456.101c-0.1,0.199-0.6,0.399-0.9,0.3c-1.4-0.601-2.6,0.5-3.9,0.6c-1.2,0.101-2.3,1-3.5,1.601
		c2.5-0.301,4.7-1.2,7.2-1c0.4,0,0.8-0.2,1.2-0.301c1-0.199,2-0.399,2.9-0.6c0.6-0.1,1.3-0.1,1.9-0.3c2.8-1,5.6-1.101,8.5-0.5
		c1.1,0.1,2,0.3,3-0.4c-0.3-0.2-0.5-0.399-0.7-0.399c-2.8-0.2-5.5-0.301-8.3-0.4c-1,0-2,0.2-3.1,0.2
		C115.9,455,114.2,454.4,113.1,456.101z"/>
	<path fill="none" d="M134.1,432.101c1.4,0,1.3-1,1.7-1.7C135,430.7,134.2,431,134.1,432.101z"/>
	<path fill="none" d="M143.4,267c2.8,0,5.4,0,8.6,0C148.4,265,145,265,143.4,267z"/>
	<path fill="none" d="M111.8,439.7c2.5-3.4,6.2-5.5,8.5-9c0.5-0.8,1.5-1.4,2.5-1.8c1.3-0.5,2.1-1.3,2.8-2.5c0.8-1.4,1.7-2.9,3.5-3.5
		c0.4-0.101,0.7-0.601,1-1c0.9-0.9,1.7-1.9,2.5-2.8c1.7-1.801,3.4-3.601,5.1-5.4c0.3-0.3,0.3-0.8,0.5-1.5c-1.8,0.7-3.1,1.5-4.2,2.7
		c-0.7,0.8-1.6,1.3-2.4,1.899c-1.3,0.9-2.7,1.7-3.8,2.801c-2,2-3.6,4.3-5.5,6.3c-1.7,1.8-3.4,3.7-5.4,5c-1.8,1.2-3.2,2.5-4.4,4.3
		c-0.7,1-1.4,1.9-2.2,2.8c-1.2,1.5-2.5,2.9-3.7,4.3c0.2,0.2,0.4,0.4,0.6,0.601C108.8,441.9,110.8,441.101,111.8,439.7z"/>
	<path fill="none" d="M96,352.2c0-0.4,0.1-1,0.4-1.4c0.8-1.199,0.9-2.5,0.9-3.899c0-2.601-0.5-5.4,0.1-7.9
		c0.9-4.3,0.6-8.6,0.1-12.899c-0.3,0.8-0.6,1.6-0.8,2.399c-0.6,2.8-0.9,5.7-1.8,8.3c-0.7,2.2-0.2,4.7-1.9,6.5
		c-0.1,0.101,0,0.301,0,0.5c-0.1,2.5-0.2,5-0.6,7.601c-0.7,4.5-1.1,9.2-1.3,13.8c-0.2,5.4-0.4,10.9,0.8,16.3c0.5-1.7,0.9-3.3,1.1-5
		c0.4-4.1,0.7-8.2,1-12.399c0-0.601,0.2-1.101,0.3-1.601C94.7,359,96.2,355.7,96,352.2z"/>
	<path fill="none" d="M155.3,413c0.7,0,1.5-0.1,2.2-0.2C155.8,411.8,155.8,411.8,155.3,413z"/>
	<path fill="none" d="M204.5,340.7c-1-0.1-2-0.2-3.5-0.3C202.899,341.5,202.899,341.5,204.5,340.7z"/>
	<path fill="none" d="M167,243c-1,0-2.2,0-3.101,0c0.301,0,0.7,0.101,1.001,0.101C165.6,243.2,166,243,167,243z"/>
	<path fill="none" d="M208.899,407.3c0,0.101,0.101,0.2,0.101,0.301c0.6-0.101,1.1-0.2,1.7-0.4c-0.101-0.2-0.101-0.4-0.2-0.5
		C210,406.9,209.399,407.101,208.899,407.3z"/>
	<path fill="none" d="M215.6,407.2c0.4,0.1,0.8,0.1,1.2,0.2c0-0.101,0-0.2,0.1-0.3c-0.399-0.101-0.8-0.2-1.199-0.301
		C215.7,406.9,215.6,407.101,215.6,407.2z"/>
	<path fill="#2B374A" d="M2.6,545.2c-0.3-0.3-0.5-0.6-0.8-0.8c-0.6-0.418-1.202-0.836-1.8-1.258v1.732
		c0.842,0.262,1.689,0.534,2.5,0.925C2.6,545.4,2.6,545.2,2.6,545.2z"/>
	<path fill="#2B374A" d="M237.8,409.8c-0.699-0.5-1.4-1.199-2.199-1.399c-4.201-0.8-8.101-3.101-12.601-2.8
		c-3.3,0.199-6.5-1.4-9.899-0.4c-2,0.5-4.201-0.5-6.301,0.6c-0.699,0.4-2-0.399-3-0.6c-0.8-0.1-1.4-0.4-2.199,0.301
		c-1.5,1.399-3.201,1.6-5.801,0.699c2.9-0.199,4.7-2.5,7.5-2.199c0.2,0,0.6-0.201,0.801-0.4c1-0.801,2.199-1,3.399-1
		c0.7,0,1.601-0.2,2.3-0.5c2.7-1.1,5.5-0.9,8.2-1.6c2.5-0.701,5-1.301,7.601-1.5c1.1-0.101,2.1-0.4,3.1,0.199c0.1,0.1,0.4,0,0.8-0.1
		c-0.101-0.6-0.101-1.1-0.2-1.5c-2.4-0.301-4.6-0.5-6.8-0.7c-0.601-0.101-1.399-0.2-1.899,0.101c-2.801,1.399-5.801,0.899-8.701,0.6
		c-2.199-0.301-4.199-0.1-6.399,0.4c-2.601,0.6-5.2,0.699-7.8,1.699c-2.5,1-5.301,1.301-7.801,2.2c-3,1-5.699,3-9.1,3.101
		c-0.5,0-1.199,0.5-1.6,0.899c-1.6,1.7-4.1,2-5.9,3.399c-0.3,0.201-0.699,0.201-1.1,0.301c-1.1,0.4-2.1,0.9-3.2,1.4
		c-0.601,0.399-1.3,0.799-2,1.1c-0.601,0.199-1.2,0.4-1.7,0.8c-2.4,1.601-4.8,3.2-7.1,4.8c-2.4,1.7-5,3-7,5.301
		c-2.7,3.199-5.4,6.299-8.1,9.399c-0.5,0.601-0.9,1.3-0.8,2.3c0.3-0.1,0.5-0.1,0.6-0.199c3.5-4.701,8.2-8.301,12.201-12.5
		c0.299-0.301,0.699-0.5,1-0.701c1.899-1,3.699-2.299,5.5-3.6c3.299-2.4,7-4.4,10.5-6.5c0.199-0.1,0.399-0.199,0.6-0.3
		c2.6-0.601,4.9-1.899,7.1-3.2c1.5-0.9,2.9-2,4.801-1.699c0.399,0.1,1-0.301,1.5-0.5c0.799-0.301,1.5-0.701,2.199-1
		c4.4-2.101,9.6-2.201,13.9-4.701c0.699-0.299,1.6-0.1,2.4-0.199c0.899-0.1,1.899-0.1,2.799-0.4c2.5-1,4.9,0,7.4,0.301
		c-2.5,0.799-5.1,1.399-7.6,2c-2.301,0.6-4.7,1-7,1.799c-2.2,0.801-4.301,1.9-6.5,2.9c-0.301,0.2-0.7,0.301-1.1,0.4
		c-1.101,0.4-2.301,0.8-3.5,1.199c-0.801,0.4-1.701,0.701-2.601,1.101s-1.899,0.8-2.8,1.3c-0.6,0.301-1.1,0.9-1.801,1.1
		c-2.699,0.701-5.1,2.101-7.5,3.601c-4.6,2.7-9.299,5.101-14,7.7c-0.399,0.3-0.699,0.6-1.1,0.9c-1.6,1.399-3.199,2.799-4.8,4.199
		c-0.5,0.5-1.1,0.9-0.7,2c2.2-1.9,4.2-3.699,6.301-5.5c0.5-0.4,1.199-0.8,1.799-1.1c3.4-1.801,6.9-3.6,10.301-5.5
		c2.199-1.2,4.3-2.7,6.6-3.801c2.2-1,4.6-1.299,6.4-3.1c0.4-0.4,1.1-0.4,1.6-0.5c2.2-0.3,4.1-2.199,6.5-1.6c0.1,0,0.301-0.1,0.4-0.2
		c1.199-0.8,2.4-0.5,3.699-0.5c2,0,4.301,0.7,5.701-1.399c0.899,0.299,1.6,0.6,2.5,0.899c-2.101,1.5-4.301,1.601-6.601,1.5
		c-1.399,0-2.601,0.2-3.899,0.899c-1.4,0.701-3,1.201-4.5,1.4c-1.4,0.1-2.5,0.5-3.301,1.6c-0.7,0.9-1.5,1.201-2.6,1.4
		c-1.5,0.2-2.7,1.301-3.601,3.1c1.5-0.1,2.7-0.1,3.8-0.299c3.301-0.4,6.601-1.201,9.9-0.201c0.2,0.101,0.6,0.101,0.7,0
		c1.6-1.199,3.399-0.399,5.1-0.699c0.9-0.2,1.8,0,2.7,0.1c-1.3,0.4-2.6,0.5-3.8,0.7c-3.101,0.5-5.8,2.5-9,2
		c-0.2-0.101-0.4,0-0.5,0.101c-1.3,0.799-2.9,0.6-4.101,1.1c-2.199,0.8-4.399,1.199-6.699,1.6c-2,0.4-3.801,1.6-5.601,2.6
		c-0.5,0.201-0.7,0.9-1.399,1.9c1.399-0.1,2.199-0.199,3-0.199c1.3,0,2.6-0.201,3.8,0c2.6,0.399,5.1,1,7.7,1.399
		c0.5,0.101,1-0.101,1.6-0.2c0.5-0.1,0.9-0.1,1.4-0.1c2.1,0.1,4.199,0.3,6.199,0.5c1,0.1,1.9,0.3,2.9,0.5c0,0.1-0.1,0.3-0.1,0.5
		c-1.2-0.1-2.4-0.1-3.5-0.301c-1.2-0.199-2.5-0.699-3.5,0.5c0.399,0.9,0.699,1.701,1.1,2.801c-3.2-0.9-6-2-9.1-1.4
		c-0.301,0.1-0.7-0.199-1.101-0.3c-2.1-0.601-4.2-0.8-6.3,0.101c-1.5,0.699-3.2,0.899-4.8,1.399c-1.101,0.399-2.3,0.7-3.4,1
		c-1.6,0.399-3.3,1-4.899,1c-5.301,0-9.8,2.601-14.601,4.101c-0.8,0.199-1.5,0.8-2.4,0.699c-1.4-0.1-2.6,0.2-3.3,1.4
		c-2.5-0.601-2.4-0.5-3.9,1.3c-0.4,0.5-1.1,0.9-1.7,1c-0.8,0.1-1.6,0-2.4,0c-0.9-0.1-1.7,0.1-2.2,1c-0.5,1-1.4,1.1-2.4,1.1
		c-0.9,0-2.1,0-2.7,0.5c-1.3,1.2-2.7,1.601-4.3,1.801c-0.7,0.1-1.4,0.399-2,0.699c-2.4,1.5-4.8,2.9-7.2,4.4c1.1,1.8,3,0.9,4.7,1.6
		c-2.8,0.101-5.3-0.5-7.4,1.301c-0.1,0.1-0.5,0-0.7,0.1c-3.2,0.7-6.6,1.2-8.6,4.3c-0.3,0.601-1.1,0.9-1.8,1.101
		c-1.3,0.399-2.2,1-2.8,2.3c-0.4,1-1.1,1.6-2.3,1.8c-0.8,0.1-1.5,0.8-2.4,1.3c1.2,1.3,1.3,1.5,1.8,1.101c1.5-1,3.2-0.601,4.9-0.4
		c-1-0.1-1.8,0.2-2.2,1.2c-0.1,0.399-0.7,0.6-1.1,0.8c-2.1,1.1-4.2,2.3-6.3,3.4c-1.9,1-3.7,2.199-5.7,3c-1.6,0.6-3.1,1.5-4.4,2.699
		c-2.2,1.9-4.4,3.7-6.6,5.5c-1.7,1.4-3.3,2.9-5,4.4c-1.9,1.7-3.2,4-5.3,5.5c-1.7,1.2-3.9,1.8-4.8,3.9c-0.1,0.1-0.4,0.199-0.6,0.3
		c-1.3,1.199-2.6,2.3-3.9,3.399c-0.4,0.4-0.9,0.801-1.4,1.101c-0.4,0.3-0.9,0.5-1.2,0.8c-1,1.1-1.6,2.5-3.3,2.8
		c-0.2,0-0.4,0.4-0.5,0.7c-0.9,3.3-4,5.5-4.9,8.8c-2,1.3-2.4,3.6-3.3,5.6c-0.6,1.301-0.8,2.801-1.5,4.101
		c-1.6,3-3.5,5.899-5.2,8.899c-0.7,1.301-1.3,2.7-1.8,4.101c-0.7,2.3-1.3,4.7-2.1,7c-0.5,1.1-0.5,2.6-2.1,3.2
		c-0.257,0.103-0.382,0.471-0.498,0.899h2.322c0.357-0.375,0.71-0.745,0.876-1.199c0.8-2.2,1.7-4.5,2-6.801
		c0.5-3.5,2.7-6.199,4.3-9.199c1.2-2.2,2.7-4.301,3.6-6.601c1.5-3.899,3.6-7.3,5.6-10.8c0.5-0.9,0.9-2,1.5-2.9
		c1-1.399,1.9-3.1,3.2-3.699c1.8-0.7,2.1-2.4,3.4-3.4c0.2-0.2,0.5-0.4,0.8-0.4c1.1,0,1.4-0.899,1.9-1.6c0.4-0.5,0.8-1.1,1.2-1.5
		c1.4-1.4,3.6-1.8,4.5-3.8c0-0.101,0.3-0.101,0.4-0.2c2.3-0.9,4.1-2.6,5.4-4.3C69.9,487.4,74,484.2,78,481c2.6-2.1,5.2-4.3,8.5-5.6
		c4.1-1.6,7.6-4.1,11.5-6.3c2.6-1.4,5-2.8,8-3.601c0-0.5,0-1,0-1.699c-1-0.101-2.101-0.2-3.2-0.301c-1.1,0-2.1,1-3.1,0.101
		c1.4-0.8,2.55-1.8,3.95-2.2c2.9-0.8,5.925-1.2,8.825-1.8c0.7-0.2,1.412-0.101,1.912-0.4c2.5-1.399,5.506-1.3,8.206-2.2
		c0.6-0.1,1.104,0,1.704,0c1.8,0.101,3.702,0.4,5.501,0.301c4.5-0.301,8.9,0.1,13.201,1.399c1.4,0.4,2.9,0.601,4.4,0.8
		c0.6,0,1.4-0.3,1.601-0.699c0.3-0.7-0.2-1.2-0.9-1.7c-1.6-1.101-3.4-1-5.2-1.4c-3-0.7-6-1.7-9.3-2.6c1-0.101,1.9,0.1,2.5-0.3
		c1.4-0.9,2.9-0.801,4.4-0.801c0.5,0,1.1-0.199,1.6-0.3c2.4-0.3,4.6-1.399,7-1.1c3.9,0.5,8-0.2,11.8,1.3c0.9,0.4,1.801-0.7,1.2-1.6
		c-0.6-1-1.399-2.101-2.399-2.601c-2.9-1.4-6-1.5-9.101-1.7c-0.5,0-1.1,0.2-1.6,0.4c-1.9,0.6-3.7,1.3-5.6,1.7
		c-3.2,0.6-6.5,1-9.7,1.399c-1.2,0.101-2.4,0.2-3.6,0.3c-2.9,0.301-5.9,0.5-8.8,0.7c-0.5,0.101-1.1,0-2.2-0.1c2.2-1.5,4-2.4,6.1-2.7
		c1-0.2,2-0.5,2.8-1.1c1-0.801,2.1-1.101,3.3-1.101c0.8,0,1.9-0.1,2.2-0.6c1.1-1.601,2.6-1.7,4.2-1.5c1.7,0.2,3.1-0.4,3.7-1.9
		c1.2-0.2,2.5-0.2,3.3-0.8c1-0.8,1.9-0.9,2.9-0.9c0.5,0,1,0,1.4-0.199c2-0.801,3.9-1.7,5.8-2.5c3-1.301,6.2-2,9.5-2.2
		c1.7-0.2,3.4-0.8,5.1-1.2c1-0.199,2-0.5,3-0.8c1.801-0.5,3.601-0.8,5.301-1.5c1.3-0.601,2.399-0.4,3.699-0.2
		c1.4,0.2,2.801,0.4,4.2,0.6c0.601,0.101,1.3,0.101,1.9,0.201c2.8,0.5,5.5,1.6,8.399,1.299c0.5-0.1,1.301,0.301,1.601,0.701
		c0.5,0.6,0.7,1.199,1.5,0.799c0.899-0.5,0.8-1.399,0.399-2.1c-0.3-0.5-1-0.9-1.6-1.3c-0.4-0.3-0.9-0.5-1.6-0.8
		c1.5-0.1,2.8-0.1,4-0.2c0.199,0,0.399,0,0.5,0.101c1.5,1.6,3.199,1,4.899,0.6c1.2-0.301,1.9,0.199,2.8,0.9
		c1.801,1.5,4.101,1.1,6.301,1.1c0.3,0,0.5-0.301,0.8-0.6c-1.601-2.201-3.4-3.5-6-3.701c-2.601-0.199-5.2-0.399-7.4-2.199
		c-0.3-0.301-1-0.5-1.5-0.5c-1.8-0.101-3.7,0-5.5-0.101c-1.3-0.1-2.5-0.3-3.8-0.5c-0.7-0.1-1.3-0.3-1.9-0.2
		c-2.199,0.5-4.3,0-6.399-0.1c-1.9,0-3.7-0.5-6.101-0.9c2.2-1,3.801-1.899,5.7-1.5c0.3,0.101,0.9-0.199,1.2-0.5
		c0.9-0.899,1.9-1.3,3.2-1.1c0.3,0.1,0.8,0,1.1-0.2c1.4-1.1,3.101-1,4.8-1c0.5,0,1,0,1.4-0.2c1.5-0.899,3.1-1.199,4.7-1.5
		c2.8-0.5,5.399-0.699,8.1-0.1c0.601,0.2,1.3,0.1,1.9,0.1c3.2-0.199,6.5-0.8,9.7,0.2c0.199,0.101,0.5-0.1,0.699-0.1
		c0.301-1.8,0-2.3-1.5-2.4c-2.1-0.1-4.3-0.2-6.399-0.3c-2.3-0.2-4.601-0.4-6.9-0.6c-1.5-0.101-3-0.2-4.5-0.301
		c-0.7,0-1.3,0.2-1.899,0c-0.801-0.199-1.5-0.3-2.2,0.301c-0.3,0.199-0.7,0.3-1.101,0.3c-1.3,0-2.699-0.101-4-0.101
		c-1.1-0.1-2.1-0.1-3.399-0.1c0.899-1.8,1.8-2.7,3.5-2.6c0.8,0,1.7-0.301,2.5-0.601c2.6-1,5.1-2.2,8-1.8
		c0.899,0.1,1.899-0.3,2.8-0.5c1.3-0.2,2.6-0.8,3.9-0.8c5.5-0.101,11-0.2,16.5-0.2c0.3,0,0.699,0.1,0.8,0.3
		c0.7,1.101,1.899,0.9,3,1.101c2.3,0.399,4.5,0.8,6.7,1.5c1,0.3,1.8,0.3,2.699-0.101C237.899,411,237.899,410.5,237.8,409.8z
		 M150.7,448.101c1.5,0,2.9,0.399,4.4,0.8c-3,0.1-5.9,0.2-9.3,0.399C147.8,448.8,149.2,448.2,150.7,448.101z M127,451.916
		c0-0.028,0,0.084,0,0.084c2,0,3.5,0,5.3,0c-1.8,1-3.3,0.101-5.3,0C127,452,127,451.888,127,451.916z M120.5,454.7
		c2.8,0.1,5.5,0.2,8.3,0.4c0.2,0,0.4,0.199,0.7,0.399c-1,0.7-1.9,0.5-3,0.4c-2.9-0.601-5.7-0.5-8.5,0.5c-0.6,0.2-1.3,0.2-1.9,0.3
		c-0.9,0.2-1.9,0.4-2.9,0.6c-0.4,0.101-0.8,0.301-1.2,0.301c-2.5-0.2-4.7,0.699-7.2,1c1.2-0.601,2.3-1.5,3.5-1.601
		c1.3-0.1,2.5-1.2,3.9-0.6c0.3,0.1,0.8-0.101,0.9-0.3c1.1-1.7,2.8-1.101,4.3-1.2C118.5,454.9,119.5,454.7,120.5,454.7z M209,407.601
		c0-0.101-0.101-0.2-0.101-0.301c0.5-0.199,1.101-0.399,1.601-0.6c0.1,0.1,0.1,0.3,0.2,0.5C210.1,407.4,209.6,407.5,209,407.601z
		 M216.8,407.4c-0.4-0.101-0.8-0.101-1.2-0.2c0-0.1,0.101-0.3,0.101-0.4c0.399,0.101,0.8,0.2,1.199,0.301
		C216.8,407.2,216.8,407.3,216.8,407.4z"/>
	<path fill="#2B374A" d="M115.6,248.6c0.4-1.5,0.6-2.5,1-3.4c0.4-0.9,0.6-2,1.3-2.5c1.6-1.2,2.2-3,2.9-4.8c0.3-0.7,0.7-1.5,1.2-2
		c2-2.1,3.8-4.4,5.8-6.6c2.2-2.4,4.5-4.7,6.9-6.9c0.3-0.3,0.7-0.5,1.3-0.8c-0.6,1.9-1.3,3.5-2.7,4.6c-0.3,0.3-0.6,0.8-0.8,1.2
		c-1.4,2.6-2.7,5.3-4,7.9c-0.9,1.7-1.7,3.4-2.7,5c-1.5,2.4-3,4.8-4.5,7.2c-0.2,0.3-0.3,0.6-0.4,0.9c-0.2,0.4-0.5,0.8-0.7,1.2
		c-1.6,2.6-3.2,5.3-4.8,7.9c-0.5,0.9-0.9,1.9-1.5,2.7c-0.9,1.2-0.8,2.3,0,3.399c0.3-0.899,0.5-1.899,0.9-2.699
		c0.5-1,1.1-2.1,1.7-3.1c0.3-0.5,0.4-1.301,0.9-1.601c2.2-1.5,2.5-4.2,4.2-6.2c1.9-2.2,2.9-5,4.3-7.6c0.8-1.6,1.6-3.3,2.5-4.9
		c1.6-3,3.4-6,5.1-8.9c0.3-0.5,0.6-1.2,1.1-1.5c1.8-1.1,2.3-3,3.4-4.6c0.4-0.7,0.3-1.7,0.5-2.5c-1,0-1.9,0-2.8,0
		c-1.6,1.4-3.3,2.8-5,4.3c-1,0.8-1.9,1.6-2.8,2.5c-1,1-2.2,2-3.1,3.2c-1.8,2.3-3.6,4.6-5,7.1c-1,1.7-1.6,3.4-2.9,4.9
		C115.7,243.4,115.1,246.1,115.6,248.6z"/>
	<path fill="#2B374A" d="M3,512.3c0.4,0.3,0.6,1.101,0.6,1.7c0.1,3.3,0.3,6.5,0.1,9.8c-0.4,6.3,0.3,12.5,0.5,18.7
		c0,0.601,0.3,1.101,1.3,0.7c0-1.4,0.1-2.8,0-4.2c-0.2-2.899-0.7-5.7-0.7-8.6c0-5.301,0.2-10.5,0.4-15.801c0.1-1.1-0.1-2.3,0.1-3.5
		c0.1-1,0.7-1.899,0.8-2.899c0.3-2.101,0.4-4.101,0.5-6.2c0.1-1.1,0.3-2.1,1.3-2.7c4.6-3.1,7.2-8.2,11.6-11.6
		c0.1-0.101,0.2-0.101,0.2-0.2c1.8-3.4,3.7-6.8,5.5-10.3c0.4-0.9,0.7-1.9,1-2.8c-0.1-0.101-0.3-0.2-0.4-0.301
		c-0.5,0.601-1.1,1.2-1.5,1.9c-1.4,2.4-2.6,4.9-3.9,7.4c-0.9,1.699-1.6,3.5-3.2,4.699c-1,0.7-2,1.601-2.7,2.601
		c-2,2.8-4.3,5.1-7.1,6.899c-0.183-2.559-0.451-5.203-0.725-7.853c-0.149,0.178-0.302,0.358-0.475,0.553
		c-0.128-0.961,0.018-1.653,0.382-2.175c0.007-0.207,0.032-0.396,0.118-0.525c1.5-1.5,1.2-3.6,1.6-5.399c0.5-2.6,0.8-5.2,1.1-7.8
		c0.2-1.4,0.4-2.601,1.8-3.3c0.4-0.2,0.7-0.801,1.1-1.2c1.9-2.2,3.7-4.601,5.6-6.8c1.2-1.4,2.6-2.7,4-4c2.1-2,3-4.5,3.8-7.2
		c-1.1-0.5-1.7-0.3-2.1,0.7c-1,2.8-2.4,5.199-5,6.8c-0.5,0.399-0.9,1.149-1.3,1.649c-2.2,2.9-4.4,5.95-6.6,8.95c-0.1,0-0.3,0-0.6,0
		c0.4-2-0.2-3.649,0.9-5.25c0.7-1,1.1-2.625,1.1-3.925c0.1-2.1,1-3.463,2.6-4.763c1.4-1.2,3.8-1.631,4.1-4.031
		c0.1-0.1,0.7-0.216,1.1-0.315c0.1,0,0.1-0.208,0.4-0.508c-0.8-0.2-1.4-0.304-2.1-0.404c-0.4,2.801-3.2,2.198-4.3,3.898
		c-0.1-0.4-0.2-0.801,0-1.001c1.6-1.8,3-3.9,4.9-5.301c1.2-0.9,2.2-1.7,2.7-3.101c0.4-1.1,1-1.8,2.1-2.399c2-1,3.6-2.5,5-4.3
		c1-1.4,2-3,3.1-4.701c-0.5,0.201-0.9,0.201-1.1,0.4c-1.1,1.2-2.1,2.301-3.1,3.6c-1.3,1.601-2.7,3.001-4.6,3.701
		c-1.7,0.6-2.6,1.6-2.9,3.399c-0.1,0.8-0.3,1.7-1.3,1.8c-1.6,0.2-2.2,1.4-2.9,2.601c-0.3,0.5-0.7,1-1,1.5c-0.2,0-0.3-0.101-0.5-0.2
		c0.4-1.4,0.6-3.1,1.4-4.2c2.3-3.1,4.8-6.1,7.3-9.2c0.4-0.6,0.7-1.3,1.3-1.699c3.4-2.201,6.6-4.5,9.3-7.5c0.2-0.201,0.4-0.4,0.6-0.4
		c2.5-0.1,3.6-2.801,5.8-3.5c2.1-2.6,5.1-3.9,7.8-5.7c0.4-0.3,1-0.3,1.8-0.5c-0.4,1-0.6,1.8-1,2.3c-2.4,3-4.1,6.6-7,9.301
		c-1.1,1.1-1.5,2.699-3,3.5c-0.1,0-0.1,0.299-0.2,0.399c-0.9,2-2.6,3.3-4.1,4.8c-1.6,1.601-2.8,3.601-4.9,4.8
		c-0.5,0.301-0.6,1.101-1,1.601s-1,1.399-1.5,1.399c-2.9,0.101-3.8,3-6.1,3.9c0,0.1,0.1,0.2,0.2,0.5c1.4-0.9,3.3-1,4-2.9
		c0.1-0.199,0.7-0.5,1-0.5c1.8,0.101,2.7-1,3.5-2.399c0.8-1.3,2.1-1.7,3.9-1.2c0.1,0.5,0.2,1.1,0.3,1.6s0.1,1,0.3,2
		c1.1-3.8,1.1-3.8,0-5.8c1.6-1.399,3.3-2.8,4.9-4.3c0.4-0.3,0.7-0.8,1-1.2c0.6-0.699,1.1-1.3,1.6-2c0.3-0.5,1-1,1.1-1.5
		c0.3-1.4,1.2-2.199,2.1-3.1c0.6-0.7,1.2-1.301,1.7-2c0.841-1.223,1.633-2.433,2.447-3.611c0.183-0.388,0.337-0.74,0.453-1.089
		c0,0,0.006-0.006,0.014-0.014c0.023-0.023,0.028-0.028,0.025-0.025c0.003-0.003-0.002,0.002-0.025,0.025
		c-0.008,0.008-0.014,0.014-0.014,0.014c0.097,0.005,0.193,0.01,0.29,0.015c0.003-0.005,0.007-0.01,0.01-0.015
		c0.092-0.184,0.435-0.201,0.723-0.28c0.276-0.896,0.294-2.136,0.877-2.72c1.6-1.7,2.6-3.601,3-5.601c2.1-0.5,3.9-1.1,5.8-1.299
		c3.4-0.301,6.9-0.301,10.3-0.4c0.6,0,1.3,0.3,2.2,0.5c-0.7,1.4-1.2,2.6-1.8,3.699c0.7-0.1,1.2-0.5,1.6-0.899
		c0.7-0.899,0.7-2.5,2.4-2.601c0.1,0,0.3-0.699,0.3-1c-0.3-2.399-0.1-2.699,2-3.699c0.8-0.4,1.6-1.2,2.3-1.9
		c0.7-0.8,1.3-1.6,1.8-2.5c2-3.199,5.4-5.1,7.3-8.4c0.3-0.399,0.9-0.899,1.3-0.899c1.7,0.2,2.2-1,3-2c0.7-0.8,1.3-2,2.2-2.399
		c2.2-0.9,3.2-2.601,4.2-4.4c0.4-0.801,1-1.801,1.8-2.1c1.7-0.701,2.7-1.9,3.6-3.301c0.8-1.5,2-2.4,3.6-3c1.1-0.4,2.2-1,3.1-1.699
		c1.6-1.201,3-2.801,4.6-4.101c2.2-1.8,4.6-3.3,6.8-5.2c2.6-2.199,4.9-4.5,7.4-6.8c1-1,2-1.899,3.1-3c0.4,0.8,0.6,1.3,0.9,2
		c0.4-0.399,0.7-0.601,0.8-0.899c1.1-2,2.5-3.601,4.8-4.4c0.702-0.264,1.48-0.604,2.066-1.561c-0.007-0.117-0.011-0.233-0.006-0.346
		c-1.182,0.456-2.138,0.839-3.259,1.307c0.3-1.601,0.3-2.9,0.8-4c1-2.201,2.4-4.301,3.4-6.5c1.7-3.801,3-7.701,4.9-11.4
		c2.1-3.9,3.2-8.2,4.6-12.301c2.2-6.399,4.101-13,6-19.6c0.3-1.3,0.8-2.9-0.899-4.1c-1.101,1.8-2.4,3.4-3.3,5.199
		c-1.7,3.4-3.2,6.801-4.8,10.201c-0.7,1.6-1.6,3.199-2.5,4.799c-0.1,0.301-0.7,0.4-1.1,0.601c0.7,1.899,0,3.601-0.7,5.3
		c-0.5,1.2-1.2,2.4-1.8,3.6c-0.2,0.301-0.4,0.601-0.4,0.9c0.2,2.801-1.6,4.801-2.8,7c-0.4,0.7-0.7,1.4-0.8,2.2
		c-0.2,1.7-1.1,2.899-2.2,4.8c-0.1-0.9-0.3-1.199-0.2-1.5c1-2.5,1.1-5.4,2.9-7.5c0.1-0.199,0.2-0.4,0.3-0.6
		c1.8-4.301,3.6-8.6,5.4-12.9c0.1-0.4,0.1-0.8,0.2-1.199c0.4-1.101,0.8-2.201,1.2-3.301c0.8-2.1,1.6-4.3,2.3-6.5
		c1.1-3.4,0.9-7.199,2.5-10.5c0.3-0.699,0.2-1.5,0.3-2.199c-1.1-0.601-1.8-0.201-2,0.699c-0.6,2.5-2.5,4.2-3.7,6.301
		c-0.7,1.199-1.8,2.299-2.9,3.399c-3.3,3.399-5.7,7.3-7.8,11.399c-1,2.101-1.7,4.5-2.9,6.5c-2.4,4-3.9,8.4-5.5,12.701
		c-0.6,1.699-0.9,3.5-1.4,5.299c-0.5,1.601-1.1,3.201-1.6,4.801c0.2-2.9,0.6-5.7,1.3-8.5c1.4-5.2,1.9-10.5,2.6-15.801
		c0.3-2,0.3-4.1,0.8-6.1c0.6-2.199,0.8-4.5,0.8-6.8c0-1.2,0.5-2.3,0.6-3.5c0.1-1.3,0.3-2.7,0.2-4c-0.1-1.101-0.9-1.101-1.8-0.5
		c0,0.7,0.1,1.399,0.1,1.601c-0.9,1.199-1.7,2-2.3,3c-0.7,1.399-1.2,3-2,4.299c-2.1,3.5-2.8,7.601-4.6,11.201
		c-0.1,0.399-0.2,0.799-0.2,1.199c-0.1,3-1.3,5.5-2.8,8c-0.9,1.5-1.2,3.2-1.3,5c-0.1,2.6-0.3,5.301-1,7.801
		c-0.5,2-0.9,3.899-0.8,5.899c0.1,4.7-0.3,9.399-2.2,13.8c-0.2,0.4-0.2,0.9-0.2,1.4c0.1,1.6,0.1,3.3,0.2,5c0,0.5,0.3,0.9,0.5,1.4
		c0.5-1.101,0.7-2.201,0.8-3.301c0.3-1.6,0.4-3.199,0.7-4.699c0.7-3.301,1.5-6.601,1.4-10.101c-0.1-1.601-0.1-3.2,0-4.8
		c0-1,0.2-2.1,0.6-3c1.2-2.6,1.8-5.301,1.7-8.1c0-2.101,0.6-3.9,1.6-5.701c0.8-1.399,1.4-2.899,1.8-4.399
		c0.9-3.399,1.6-6.8,3.4-9.899c0.2-0.301,0.2-0.601,0.3-0.9c0.5-1.4,1-2.801,1.6-4.2c0.3-0.8,0.7-1.601,1.1-2.399
		c0.2-0.301,0.5-0.701,0.7-1c0.2,3.299,0,6.5-0.2,9.6c-0.2,3.6-0.3,7.199-1.3,10.699c-0.2,0.601-0.1,1.301-0.1,1.9
		c-0.1,0.7-0.2,1.4-0.3,2.1c-0.7,3.301-1.2,6.701-2.1,10c-0.8,3.301-0.1,6.801-1.2,10c-0.1,0.5,0,1.101,0,1.701
		c-0.1,0.699,0,1.299-0.3,1.899c-1.2,2.5-0.9,5.2-0.7,7.8c0,0.4-0.05,0.7,0.05,1.1c0.4-3.299,0.65-6.5,1.65-9.6c0-0.199,0-0.3,0-0.5
		c1-1.699,0.85-3.4,1.25-5.1c0.3-1.1,0.925-2.1,1.325-3.1c1.4-3.9,2.163-8.101,4.163-11.9c0.3-0.6,0.631-1.301,0.731-2
		c0.1-2.2,1.115-4.1,2.315-5.9c1.9-3,2.408-6.5,4.608-9.4c2.2-2.899,3.604-6.299,6.104-9c1.7-1.799,3.202-3.799,4.702-5.699
		c0.3-0.4,0.701-0.7,1.001-1.1c-0.3,2.5-0.899,4.899-1.5,7.299c0,0.301-0.3,0.701-0.5,1c-0.399,0.701-0.799,1.4-1.199,2.201
		c-0.5,1.1-1,2.199-1.4,3.299c-1.4,3.4-3.5,6.601-4.3,10.301c-0.4,2-1.1,3.9-2.1,5.6c-1,1.6-1.7,3.301-2.2,5.2
		c-0.4,1.5-0.8,3.101-1.6,4.399c-0.9,1.4-1.8,2.701-2.1,4.301c-0.1,0.6-0.6,1.199-0.9,1.699c-0.4,0.601-1.1,1.201-1.1,1.801
		c-0.2,2.199-1.6,3.699-2.5,5.6c-0.9,2.1-2.5,3.801-2.8,6.2c-0.1,0.3-0.4,0.5-0.5,0.8c-0.6,1.2-1.8,2.301-1.8,3.5
		c0,2.1-1.3,2.6-2.6,3.5c-2.2,1.5-4.6,2.9-6.4,4.9c-2.5,2.699-5.4,4.6-8.9,5.699c0.4-3.699,0.8-7.299,1.2-10.799
		c0.2-1.801,0.3-3.5,0.7-5.201c0.4-2.1,1.1-4.1,0.9-6.299c-0.1-0.601,0-1.4,0.4-2c1-1.5,1.2-3.301,1.5-5
		c0.5-3.301,0.6-6.601,1.4-9.701c0.9-3.299,1-6.6,1.3-9.899c0.3-4,0-8.101,0.2-12.2c0.1-2,0.2-4,1-5.8c0.7-1.7,0.6-3.3,0.6-4.899
		c0-0.301-0.5-0.701-0.8-1c-0.3,0.399-0.7,0.699-0.9,1.1c-0.4,1.199-0.6,2.4-1.1,3.6c-1.2,3-2.3,6.1-2.9,9.301
		c-0.3,1.199-1.2,2.399-1.7,3.6c-0.6,1.3-1.4,2.699-1.7,4.1c-0.7,2.801-0.8,5.9-1.8,8.6c-1.6,4-1.7,8.101-1.9,12.201
		c-0.2,3,0,6-0.8,9c-0.2,0.799-0.2,1.6-0.2,2.399c0.1,4.3,0.5,8.5,0.4,12.7c0,2.4,1.3,4.199,2.1,6.199c0.1-1.199,0-2.199-0.1-3.299
		c-0.2-3.101-0.5-6.101-0.5-9.101c0-3.2,0.1-6.399,0.3-9.601c0.1-1.699,0.4-3.5,0.5-5.199c0.2-3.301,0.4-6.7,0.7-10
		c0.1-0.7,0.2-1.4,0.5-2.1c1.4-3.801,2.3-7.701,2.7-11.801c0.2-1.1,0.7-2.4,1.4-3.199c1.4-1.5,1.8-3.201,2-5
		c0-0.601,0.2-1.101,0.4-1.601c0.3,3.7,0.4,7.2,0.2,10.8c-0.3,3.6-0.6,7.2-1.5,10.801c-0.7,3.199-0.7,6.6-1.1,9.899
		c-0.2,1.601-0.3,3.3-1.4,4.7c-0.3,0.4-0.5,0.9-0.5,1.3c-0.1,2.8-0.7,5.5-1.2,8.2c-0.8,4-1,8.199-1.2,12.3c-0.1,2.7-0.8,5-2.7,6.8
		c-0.4,0.301-0.7,0.801-1.1,0.9c-1.9,0.5-2.8,2-3.7,3.5c-0.6,1-1.3,2.199-2.2,2.699c-1.8,0.801-3,2-4,3.601
		c-0.2,0.399-0.6,0.899-1.1,1.101c-0.9,0.399-1.9,0.699-2.8,1c0.1-0.601,0.3-1.301,0.3-2c0-2.201-0.1-4.301-0.1-6.5
		c0-2.9-0.2-5.9,0.3-8.801c0.6-3.3,1-6.5,1-9.9c0-1.699,0.1-3.5,0-5.199c-0.1-3.7-0.3-7.301-0.5-11c-0.3-4.1-1.4-8.1-1.3-12.301
		c0-2.399-0.5-4.799-0.9-7.6c-0.8,0.4-1.5,0.5-1.7,0.9c-0.5,1.1-1,2.3-1.3,3.5c-0.6,1.9-0.6,4-2.5,5.4c-0.9,0.6-1.3,1.899-1.7,3
		c-0.7,1.799-0.9,3.899-1.8,5.6c-2.1,4.4-2.4,9.199-4.3,13.6c-0.2,0.4-0.1,0.9-0.2,1.4c-0.5,3.699-1,7.4-1.4,11.1
		c-0.4,3.7-0.8,7.4-1.1,11.1c-0.6,6.201,0.9,12.4,1.1,18.601c0,1.101,0.2,2.2,0.4,3.3c0.1,1.1,0.7,1.5,1.9,1
		c-0.1-1.199-0.3-2.3-0.4-3.5c-0.2-2.699-0.1-5.5-0.7-8.1c-1-4.4-0.8-8.801-0.5-13.1c0.2-3.301,1.101-6.5,1.101-9.701
		C72,374,72,373.5,72,373c0-1.101,0.45-2.399,0.75-3.5c0.9-3.101,0.25-6.5,2.25-9.5c0,0,0-0.101,0-0.2c0-1.8,0.15-3.5,1.25-5
		c0.3-0.5-0.025-1.199,0.175-1.8c0.4-1.3,0.575-2.601,1.575-4c0,4.8,0,9.3,0,13.7c1-0.301,0.95-0.6,0.95-1
		c0.2-2.1,0.525-4.1,0.625-6.2c0.1-1.7,0.163-3.3,0.163-5c-0.1-2.8,0.231-5.601,1.131-8.2c0.8-2.4,2.016-4.699,3.116-7.4
		c0.2,2.201,0.308,4.101,0.408,6c0.1,1.101,0.104,2.201,0.204,3.301c0.4,4,0.802,8.1,1.202,12.1c0.2,1.801,0.101,3.6,0.301,5.301
		c0.5,4.699,0.901,9.299-0.599,13.899c-0.1,0.399-0.1,0.8-0.1,1.2c-0.1,3.1-0.2,6.199-0.3,9.3c0,1.899,0.3,4-0.4,5.7
		c-0.7,1.6-0.4,2.5,0.6,3.5c-1,1.6-1.9,3.4-3.9,4c-0.9-2-1.4-4-0.9-6.2c0.3-1.399,0.2-3,0-4.5c-0.2-1.3-0.2-2.5,0.4-3.7
		c0.4-0.8,0.65-1.6-0.45-2.4c-0.4,0.4-1.45,0.801-1.45,1.4c0-5.1,0-10,0-14.9c-1,0.301-0.75,0.5-0.75,0.801c-0.2,2-0.325,4-0.425,6
		c-0.3,5.199-0.712,10.3-1.112,15.5c-0.1,0.199-0.006,0.4-0.106,0.5c-1.2,2-0.803,4.3-0.903,6.5c0,0.5-0.102,0.9-0.201,1.4
		c-0.2,1-0.401,1.899-0.5,2.799c-0.1,1.201-0.101,2.5-0.201,3.801c0,0.5-0.201,1.1-0.5,1.5c-0.7,0.9-1.4,1.9-2.1,2.8
		c-1.8-0.2-3.5,0.2-5.1-1c-0.5-0.399-1.3-0.2-1.9-0.3c-0.7-0.1-1.5,0-2.1-0.301c-2.3-0.899-4.7-1-7.1-1c-2.6,0-5.2-0.199-7.8-0.299
		c-3-5.9-4-12.201-4.2-18.601c-0.1-3.601,0.2-7.101-0.1-10.601C43.5,374.7,44,371,44.1,367.3c0-0.766,0.17-1.614-0.867-1.774
		c-0.006,0.008-0.013,0.017-0.02,0.025c0.095,0.919-0.613,1.592-0.613,2.349c-0.2,3.301-0.3,6.701-0.3,10c0,2.301,0.3,4.5,0.4,6.701
		c0.2,3.299,0.3,6.699,0.5,10c0.2,1.699,0.6,3.299,0.8,5c0.3,2.1,0.9,4.1,2.1,6c0.4,0.699,0.6,1.699,0.9,2.5c-1.3,0-2.4-0.201-3.3,0
		c-1.7,0.5-3.4,1.199-5.1,1.699c-0.3,0.1-0.7-0.1-0.9-0.199c-1.1-0.601-1.6,0-2.1,0.799c-0.2,0.5-0.7,0.801-1.1,1.101
		c-0.7,0.399-1.4,0.7-2.1,1c-1.6,0.601-2.5,2.5-4.5,2.3c-0.2,0-0.5,0.6-0.8,0.9c0-0.7,0.2-1.2,0.5-1.7c0.6-1,1.6-1.899,1.6-2.899
		c0.1-2.701,1.9-4.601,2.6-7.101c1.3,0.399,2.4,0.8,3.5,1.101c1.1,0.299,2.3,0.499,3.5,0.698c0.962,0.175,1.542-0.108,1.605-0.785
		c0.009-0.097,0.007-0.201-0.005-0.313c-0.1-1.7-2.7-4.9-4.3-5.301c-7.1-1.899-13.1,2.9-15,9c-0.9,2.801-1.4,5.801-2.1,8.801
		c-0.3-1.9-1.5-5.5-3.7-7.9c-3.6-4.1-7.7-4.199-12.1-2.4c-0.342,0.172-0.683,0.854-0.711,1.299c0.001,0.044,0.002,0.089,0.011,0.126
		c0.5,1.4,1.1,2.627,1.7,4.025c0.1,0.201,0,0.65,0,0.65c-0.6,0-1,0-1.5,0c-0.9-3-1.8-6.996-2.7-10.596v7.634
		c0.033,0.087,0.068,0.175,0.1,0.262c0.3,0.801,0.7,1.7,1.2,2.7c-0.524,0-0.939,0.063-1.3,0.101v1.103
		c0.87,0.032,1.742,0.058,2.6,0.097c0.9,0.101,1.8,0.301,2.7,0.5c0.3-0.8,0.6-1.6,1.1-2.899c1.9,2.899,3.6,5.3,5.1,7.899
		c1.5,2.5,2.9,5.101,4.4,7.9c1.1-1,0.8-1.8,0.4-2.6c-2.4-4.5-4.8-8.801-8-12.7C7.1,411,7.1,410.3,8.5,409c0.5-0.399,1-0.8,1.5-1.3
		c2.7,1.5,4.4,3.8,5.8,6.6c1.5,3,0.8,6.301,1.8,9.301c0.3,0.1,0.7,0.1,1.4,0.3c-0.7,0.3-1,0.5-1.3,0.6c-0.4,1.4-0.7,2.8-1.1,4.2
		c-0.6-0.2-1-0.3-1.3-0.5c-1.8-1.7-4.2-2.2-6.3-3.3c-2.2-1.101-4-2.8-6-4.2c-0.988-0.705-1.978-1.505-3-2.199v2.058
		c1.522,1.246,3.019,2.556,4.6,3.741c1.2,0.9,2.6,1.601,4,2.4c1.3,0.7,2.6,1.2,3.8,2c0.5,0.3,1,0.9,1.1,1.5c0.5,1.9,0.8,3.8,1.3,6.2
		c-2.8-1.5-5.3-2.8-7.6-4.2c-1.9-1.2-3.8-2.5-5.6-4c-0.547-0.456-1.09-0.958-1.6-1.488v2.373c0.355,0.283,0.717,0.56,1.1,0.815
		c1.2,0.7,2.1,1.8,3.1,2.6c2.3,1.8,4.8,3.101,7.5,4.101c0.8,0.3,1.5,0.8,2.3,1.3c-0.7,2.6-1.4,5-2.1,7.6c-0.9-0.5-1.8-0.899-2.5-1.5
		c-3.133-2.523-6.267-5.126-9.4-7.735v1.979c0.591,0.669,1.183,1.339,1.8,1.956c0.7,0.7,1.5,1.2,2.2,1.8c1.9,1.5,3.8,3,5.8,4.5
		c0.6,0.5,1.3,0.8,2.2,1.4c-0.4,1.899-0.8,4-1.3,6.1c-0.7,3-1.5,6-2.3,9c-1.2,4.3-1.1,8.8-1.9,13.101c-0.6,3.1-0.8,6.3-1.9,9.1
		c-0.9,2.1-1.1,4.1-0.9,6.2c0.2,1.5,0.3,3,0.4,4.5c0.075,0.15-0.019,0.356-0.154,0.745c0.378,0.232,0.841,0.434,1.354,0.755
		c-0.5,4.3-1,8.8-1.6,13.899c-1.2-1.3-2-2.3-2.8-3.2c-0.297-0.371-0.598-0.738-0.9-1.104v2.377C0.894,510.455,1.814,511.51,3,512.3z
		 M137.2,340.9c0.1-0.5,0.5-0.9,0.8-1.4c0.5-0.8,1.1-1.6,1.3-2.5c0.6-3,2.9-5.3,3.6-8.2c1-3.899,3.8-7.1,4.1-11.3
		c0.1-0.899,0.7-1.7,1.1-2.6c1.8-3.9,3.6-7.7,5.5-11.601c0.1-0.199,0.3-0.5,0.5-0.699c0.1,0,0.3,0.1,0.4,0.1c-0.4,1.6-0.6,3.3-1,4.8
		c-0.8,2.7-2,5.3-2.8,7.9c-1.2,3.8-2.2,7.8-3.5,11.6c-1,2.9-1.8,5.8-3.6,8.3c-0.2,0.4-0.5,0.9-0.6,1.301c-0.4,3-2.2,5.399-3.3,8.1
		c-0.3,0.6-0.5,1.3-1,1.6c-1.1,0.7-1.4,1.7-1.5,2.801c-0.4,3.399-2.5,5.3-5.6,6.8c0.1-0.7,0.1-1.101,0.2-1.601
		c0.1-0.399,0.3-0.8,0.5-1.1C134.7,349.4,136.3,345.3,137.2,340.9z M125.5,358.5c0.5-1.399,1.3-2.7,2-4c1.2-2.3,2.9-4.3,3.2-6.899
		c0.1-0.601,0.6-1.101,0.9-1.7c0.5-1,1.1-2,1.4-3c0.4-1.101,0.8-2.101,1.8-2.7c0.2,0.2,0.3,0.3,0.3,0.4c-0.8,2.899-1,5.899-2.8,8.5
		c-1.5,2-2.9,4.199-2.6,7c0,0.3,0,0.699-0.2,0.899c-1.3,1.601-2.8,3-4.6,4.4C125.2,360.2,125.3,359.2,125.5,358.5z M78.4,388.8
		c0,2.4,0.1,4.2,0,6.101c-0.1,2.2,0.3,4.1,1.7,6c-1,1.3-2.1,2.6-3.2,4.1C76.3,402.5,77.2,391.3,78.4,388.8z M4.9,411.601
		C4.7,411.5,4.6,411.5,4.4,411.5c-0.3-1-0.7-2.1-1.2-3.3c1.3-0.4,2.7-0.8,4.1-1.2C6.4,408.8,5.7,410.2,4.9,411.601z M37.3,403.7
		c-2.1-0.6-4.1-0.8-5.6-2.5C34.9,400.101,35.6,400.4,37.3,403.7z M21.3,414.3c0.2-1.199,0.8-2.399,1-3.6c0.4-2.5,1.8-4.3,3.3-6.1
		c1.2-1.4,2.4-1.4,4.1-0.5c-2.1,2.699-2,6.199-4,9c-1.9,2.6-3.2,5.6-4.8,8.5c-0.2-0.101-0.3-0.101-0.5-0.101
		C20.2,419.101,20.9,416.7,21.3,414.3z M21.2,425.601c0.1-0.101,0.2-0.101,0.2-0.2c0.4-2.2,2.9-3,3.8-4.9c0.3-0.6,1.1-1,1.7-1.5
		c0-0.1,0.2,0,0.2-0.1c0.6-0.7,1.1-1.7,1.9-2.3c0.7-0.601,1.9-0.7,2.6-1.301c1.1-1.1,2.2-1.899,3.7-2.399
		c1.7-0.5,3.2-1.601,4.9-2.101c1.7-0.399,3.4-0.6,5.1-0.699c1.3-0.101,2.5,0.3,3.7-0.601c0.4-0.3,1.2-0.5,1.6-0.3
		c2.9,1.1,6,0.4,9,0.9c0.5,0,0.9,0.3,1.4,0.5c0,0.1-0.1,0.3-0.1,0.399c-0.7,0-1.3,0-2.1,0.101c-1.2,0-2.2,0.199-3.4,0.699
		c-1.6,0.7-3.4,0.801-5.1,1c-1.4,0.101-2.6,0.5-3.8,1.2c-1.6,0.8-3.2,1.4-4.9,1.9c-1.2,0.399-2,1.8-3.5,1.6
		c-1.8,1.601-4.5,1.9-6.3,3.601c-1.2,1.1-2.6,2.1-4,2.899c-2.5,1.4-4.6,3.3-6.9,5c-0.6,0.4-0.8,1.3-1.1,2c-0.4,0.8-0.5,2-2.2,1.5
		C18.3,429.9,18.4,427.101,21.2,425.601z M17.8,433.9c2.1,0.2,3.1-0.9,3.8-2.5c0.8-1.8,2.6-3,4.1-3.8c3-1.601,5.3-4,8.1-5.7
		c0.2-0.2,0.3-0.5,0.5-0.5c1.8-0.2,3.1-1.5,4.6-2.2c2.5-1.2,5.2-2.1,7.8-3.2c0.2-0.1,0.5-0.1,0.7-0.1c0.1,0.1,0.1,0.2,0.2,0.3
		c-1,0.6-1.9,1.3-2.9,1.9c-4,2.1-7.1,5.4-10.7,8c-0.2,0.1-0.3,0.5-0.5,0.5c-1.9,0.199-3.1,1.5-4.3,2.8c-0.3,0.3-0.7,0.601-1.1,1
		c-0.3,0.3-0.5,0.7-0.8,0.899c-1.4,0.9-2.7,2-4.1,2.801c-1.9,1.1-3.3,2.6-4.3,4.5c-0.2,0.3-0.5,0.699-0.8,0.899
		c-1.1,0.7-1.9,1.601-2.1,3c0,0.2-0.5,0.4-1,0.9C14.6,439.601,17.5,437.2,17.8,433.9z"/>
	<path fill="#2B374A" d="M2.5,408.399c0.5,1.4,1.1,2.552,1.7,3.95c-0.6-1.398-1.2-2.625-1.7-4.025
		c-0.009-0.037-0.01-0.082-0.011-0.126C2.484,408.272,2.486,408.342,2.5,408.399z"/>
	<path fill="#2B374A" d="M40.405,405.014c-0.063,0.677-0.643,0.96-1.605,0.785c-1.2-0.199-2.4-0.399-3.5-0.698
		c1.1,0.299,2.3,0.5,3.5,0.699C39.763,405.975,40.343,405.69,40.405,405.014z"/>
	<path fill="#2B374A" d="M4.7,447.4c-1.46-2.412-3.049-4.752-4.7-7.157v2.615c2.201,3.523,4.425,7.083,6.7,10.742
		C6.4,451.101,5.8,449.101,4.7,447.4z"/>
	<path fill="#2B374A" d="M50.4,422.2c-0.024,0.008-0.052,0.013-0.078,0.02c-0.008,0.026-0.014,0.055-0.022,0.08L50.4,422.2z"/>
	<path fill="#2B374A" d="M3.8,497.101c0.05-0.175,0.1-0.325,0.146-0.455c-0.21-0.13-0.402-0.267-0.545-0.445
		c-1.171-1.578-2.266-3.233-3.4-4.848v0.634c0.334,0.439,0.666,0.872,1,1.313C1.9,494.5,2.7,495.7,3.8,497.101z"/>
	<path fill="#2B374A" d="M0.9,314.899C2.6,310.7,1.1,306.601,1.2,302c1.6,2.8,0.5,5.899,2.9,7.899c-0.2-2.1-0.5-4.1-0.8-6.199
		c0.1,0,0.3-0.1,0.4-0.1c1,2.6,2,5.199,3.1,7.799C7.1,312,7.5,312.5,7.9,313c0.5,0.8,1.2,1.601,1.6,2.5
		c1.5,3.399,2.7,6.899,4.2,10.2c2.4,5.4,4.7,10.8,6.2,16.5c0.3,1.199,0.7,2.5,1.2,3.6c1.3,2.5,1.6,5.301,2.3,8
		c1.1,4.2,2.1,8.5,3.8,12.5c0.6,1.5,1.2,2.9,0.4,4.5c-0.1,0.2-0.1,0.6-0.1,0.9c0.3,2.699-0.1,5.199-1.1,7.699
		c-1.1,2.701-2,5.4-2.1,8.301c0,0.5-0.3,1.1-0.5,1.6c-0.3,0.9-0.7,1.801-0.9,2.7c-0.7,3.7-1.2,7.399-1.8,11.101
		c-0.1,0.799-0.1,1.6-0.1,2.399c0.2,0,0.5,0.101,0.7,0.101c0.4-1.701,0.9-3.301,1.2-5c0.2-1.301,0.2-2.701,1.5-3.601
		c0.3-0.2,0.3-0.8,0.4-1.3c0.2-1.2,0.4-2.3,0.6-3.5c0.3-1.3,0.8-2.6,0.9-3.9c0.2-3.899,2.9-7.199,3-11.1c0-0.1,0.2-0.3,0.3-0.4
		c2.4-5.3,4.9-10.699,6.7-16.3c0.3-1.1,0.9-2.2,1.4-3.3c0.4,0.4,0.7,0.6,1,0.8c0.5-0.899,0.8-1.899,1.4-2.5
		c1.8-1.7,2.8-3.899,3.7-6.1c1.6-3.8,3.5-7.3,6.3-10.4c2.8-3.2,5.8-6.2,7.7-10c0.3-0.5,0.7-0.9,1.2-1.6c0.4,1.301,0.8,2.6,1.1,3.6
		c0.2,0,0.3,0,0.5,0c0.1-1,0.5-1,0.4-1.4c-0.2-1-0.5-1.949-0.8-2.85c-0.101-0.403-0.201-0.812-0.187-1.195
		c0.007-0.386,0.128-0.747,0.487-1.055c1.1-1,2.3-2,3.4-3c1-0.899,2-1.8,2.9-2.7c1.3-1.3,2.3-3,3.8-3.899c1.6-1,2.7-2.3,3.8-3.8
		s2.5-2.7,3.9-4c0.8-0.7,1.9-1.101,2.6-1.9c1.8-2,3.7-4,6.1-5.3c1.7-0.9,3.2-2.2,4.7-3.3c2.4-1.7,5.1-2.601,8.2-3.4
		c-0.7,1.6-1.8,2-2.8,2.4c-0.7,0.199-1.4,0.399-1.9,0.899c-2,1.8-3.9,3.7-5.9,5.601c-1.1,1-2.2,1.899-3.2,2.899
		c-0.7,0.601-1.4,1.2-2,2c-2.2,3-4.3,6-6.4,9c-0.4,0.601-1,1.101-1.6,1.7c-0.8,0.8-1.7,1.5-2.3,2.4c-2.1,2.899-4.1,5.899-6.6,8.5
		c-1.4,1.6-2.6,3.399-3.9,5.1c-0.7,0.9-1.3,1.8-2,2.7c-1.1,1.3-2.2,2.6-3.4,3.899c-0.5,0.601-1,1.301-1.6,1.7
		c-0.9,0.601-1.4,1.4-1.8,2.4c-0.3,0.8-0.6,1.8-1.2,2.3c-0.9,0.8-1.2,2-1.9,2.9c-1.4,1.8-2.4,3.8-3.2,5.8c-0.1,0.1-0.3,0.3-0.4,0.3
		c-1.2,0.4-1.3,1.4-1.7,2.4c-0.4,0.899-0.8,1.699-1.3,2.5c-0.5,0.899-1.2,1.6-1.9,2.399c-0.6,0.7-1.3,1.4-1.9,2.101
		c-1.1,1.199-2.5,2.3-3.4,3.6c-1.3,1.8-2.4,3.8-3.2,5.8c-1.2,3-3,5.601-3.7,8.7c-0.5,2.6-1.2,5.3-1.7,7.9
		c-0.2,0.899-0.3,1.899-0.3,2.8c-0.1,0.399,0.2,0.7,0.3,1.2c0.7-2.9,1.3-5.601,2-8.301c0.4-1.8,0.9-3.699,1.4-5.5
		c0.1-0.3,0.2-0.6,0.3-0.899c1.1-1.9,2.1-3.9,3.2-5.8c0.7-1.2,1.6-2.2,2.2-3.4c1.2-2.3,2.9-4,5-5.5
		c0.038-0.049,0.076-0.101,0.113-0.149c-0.001-0.01-0.001-0.02-0.002-0.029c-0.04-0.006-0.068-0.018-0.111-0.021l0.1-0.101
		c0.008,0.042,0.005,0.081,0.011,0.122c0.008,0.001,0.014,0.003,0.022,0.004c1.049-1.368,2.04-3.022,3.768-5.325
		c1.3-1.301,1.6-3.5,2.7-5.2c2.5-3.7,4.4-7.8,6.6-11.8c0.2-0.4,0.4-0.801,0.7-1c2.5-1.801,3.4-5,6.2-6.5c0.3-0.2,0.4-0.7,0.6-1
		c1-1.5,2-3.1,3.1-4.5c1.5-1.801,3.1-3.6,4.8-5.301c2.3-2.399,3.8-5.699,6.8-7.6c0.3-0.199,0.4-0.5,0.6-0.8
		c1.8-2.601,3.5-5.101,5.3-7.7c1.1-1.5,2.2-3.1,3.9-4.1c0.8-0.5,1.4-1.2,2.1-1.9c2.8-2.699,5.1-5.9,9-7.199
		c0.2-0.101,0.4-0.201,0.6-0.4c2.3-2.301,4.7-4.5,7-6.801c1.1-1.1,2.2-2.299,3.4-3.299c2.5-2.101,5.2-4,7.6-6.101
		c1.7-1.5,3.2-3.3,5.7-3.7c0.3,0,0.6-0.5,0.9-0.7c1.3-0.899,2.5-1.899,3.8-2.8c0.6-0.399,1.2-0.7,1.2-1.5c-0.3-0.1-0.5-0.2-0.6-0.2
		c-0.3,0.101-0.5,0.301-0.8,0.4c-2.9,1.4-5,4.1-8.2,5.2c-1.9,0.6-3.3,2.5-5,3.9c-4.2,3.299-8.2,6.799-12.4,10.1
		c-1,0.9-2.2,1.699-3.5,2c-5.9,1.4-10.3,5.3-15,8.699c-1.5,1.101-2.6,2.601-3.9,3.9c-0.8,0.801-1.6,1.5-2.9,1
		c-2.5-6.4-0.7-13.1-1.8-19.5c-0.3,0.7-0.5,1.301-0.5,2c0,3.4,0,6.7,0,10.1c0,2,0.2,4,0.9,5.9c0.3,0.9,0.75,1.9,0.05,3
		c-2,2.9-3.475,6.301-7.375,7.5c-0.3-2.699-0.688-5.4-0.988-8c1.2-0.9,2.106-1.6,3.106-2.4c0.9,2.101,0.304,4.601,2.404,6.601
		c0-1.101,0.251-1.7,0.151-2.3C72.148,304,72,299.8,72,295.5c0-0.399,0-0.7,0-1c-1-3.8-1.25-7.7-1.35-11.601
		c-0.2-6.699-0.075-13.399-0.675-20.1c-0.4-4.2-0.337-8.5-0.438-12.7c0-1.1-0.219-2.2-0.319-3.5c-0.9,0-1.609,0.1-2.609,0.1
		c0.1,4.4-2.004,8.2-1.905,12.399c0,0.7-0.402,1.4-0.602,2.101c-0.8,3.3-1.902,6.6-2.202,10c-0.4,4-0.101,8-0.101,12
		c0,1.5,0.7,2.699,1.8,4.1c0.1-0.9,0.299-1.4,0.099-1.8c-0.8-1.7-0.3-3.5-0.4-5.2c-0.3-6.5,0.7-12.899,2.6-19.1
		c0.1-0.4,0.1-1.05,0.2-1.55c0.4-2.801,0.8-5.65,1.3-8.65c0,0,0.1,0,0.2,0c0.1,1,0.3,0.45,0.3,0.55c0.2,6.6-0.9,13.549,1.1,20.15
		c0,0.2,0,0.3,0,0.5c-1,9.6,1,19,1,28.5c0,0.199,0,0.5,0,0.699c0,0.601,0,1.301,0,1.9c-1,0-1.65-0.1-2.351-0.1
		c-0.8-4.9-1.625-9.7-2.425-14.6c-0.1-0.801-0.312-1.601-0.412-2.4c-0.4,0.3-0.406,0.5-0.406,0.699
		c0.5,5.5,0.997,11.101,1.696,16.601c0.3,2-0.301,3-2.101,4c-0.2-0.899-0.301-1.5-0.401-2.2c-0.2-1.3-0.3-2.699-0.6-4
		c-0.4-2-0.701-4.1-1.401-6c-1.5-4.6-1.1-9.5-2.3-14.1c-0.1-0.4-0.1-0.801-0.1-1.2c0.1-4.7-0.7-9.2-1.4-13.8
		c-0.4-2.5-0.8-4.9-1.2-7.3c-0.2-1.2-0.8-1.5-2.5-1.301c-0.1,0.301-0.2,0.5-0.2,0.7c0.1,3.601-0.2,7.2-1.1,10.7
		c-0.2,0.9-0.4,1.7-0.4,2.6c0.1,9.3,0.3,18.7,0.6,28.001c0.1,2.399,0.6,4.799,1.7,7.1c0.3,0.5,0.5,1.3,0.4,1.8
		c-0.5,1.601,0,3,0.6,4.399c0.6,1.4,0.5,2.5-0.7,3.601c-0.5,0.5-0.7,1.2-1.1,1.8c-0.3,0.301-0.7,0.7-1.3,1.2
		c-1.4-4.601-2.3-8.899-2.5-13.399c-0.1-2.301,0.3-4.601,0.2-6.9c-0.2-3.2-0.8-6.5-1.1-9.7c-0.2-3-0.4-6.101-0.5-9.101
		c-0.1-2.499,0-4.899-0.1-7.399c0-0.5-0.6-1.1-1.1-1.3c-0.8-0.3-1.8,0-1.9,0.899c-0.2,2.301-1.7,4.301-1.3,6.7
		c0.2,1,0.2,2.1,0.1,3.1c0,0.5-0.2,1.201-0.5,1.5c-0.8,0.701-0.9,1.601-0.9,2.601c0.1,2.3-1,4.2-2.2,6.399
		c-1.3-3.799-1.9-7.299-1.4-11.6c-0.8,0.7-1.4,0.9-1.5,1.2c-0.3,1.601-0.5,3.3-0.7,4.899c-0.2,0.9,0.05,1.9-0.35,2.601
		c-0.8,1.8-0.85,3.5-0.85,5.399c0,2.301,0,4.601,0,6.9c0,1.9-0.15,3.801,0.95,5.6c0.3,0.601,0.274,1.4,0.274,2.101
		c-0.1,4.7,0.688,9.2,1.188,13.8c0.1,0.7,0.193,1.4,0.494,2.1c0.9,2.201,1.796,4.4,2.696,6.601c0.1,0.3,0.499,0.5,0.999,1
		c0-0.899,0.1-1.5,0-2c-0.4-1.3-0.7-2.601-1.4-3.8c-2.1-3.6-1.9-7.6-2.4-11.4c-0.5-3.6,0-7.3-1.7-10.699c-0.2-0.4-0.2-0.9-0.2-1.4
		c0-3.7,0.1-7.301,0.3-11c0.1-0.6,0.5-1.301,0.7-2c0.9,1.3,1.8,2.5,1.8,3.8c0.1,4.899,2,9.399,3.4,14.101
		c0.1-0.801,0.2-1.701,0.1-2.601c-0.2-1.601-0.6-3.101-0.7-4.7c-0.1-2.199,0-4.4,0.1-6.6c0.1-0.9,0.2-2.1,0.7-2.7
		c1.3-1.601,1.6-3.3,1.7-5.3c0-0.9,0.5-1.5,1.5-1.5c0.6,3,1.3,5.9,1.6,8.9c0.3,4.1,0.3,8.1,0.5,12.199c0,0.7,0,1.4,0.1,2.1
		c0.6,2.801,1.2,5.701,2,8.4c0.8,2.6,0.5,4.801-1.1,7.1c-1.2,1.701-2.4,3.701-3.1,5.801c-0.7,1.9-1.6,3.5-2.8,5
		c-1.7,2.3-3.3,4.6-5,6.9c-0.1-0.201-0.3-0.4-0.4-0.701c-0.7-3.799-1.8-7.5-2.1-11.5c-0.3-4.5-1.4-9-2.3-13.399
		c-0.6-3.2-1.5-6.3-2.2-9.5c-0.3-1.3,0-2.7-0.4-4c-0.6-2.101-1.5-4.101-2.5-6.101c-0.6-1.199-1.5-2.299-2.4-3.699
		c-0.6,0.9-1.4,1.5-1.5,2.199c-0.4,2.201-0.5,4.5-0.5,6.701c0,5.299-0.4,10.699,0.6,16c0,1.1,0,2.1,0,3.199l0.1-0.1
		c0.4-8.1,0.7-16.1,1.2-24.7c0.5,0.8,0.75,1.101,0.85,1.399c0.7,3.201,2.775,6,2.375,9.4c-0.1,0.4,0.087,0.9,0.188,1.4
		c1,4.1,2.094,8.3,2.994,12.5c0.6,3.199,1.297,6.4,1.597,9.6c0.4,4,1.199,8,2.599,11.801c0.5,1.299,0.399,2.6-0.101,3.899
		c-0.9,2.2-1.601,4.5-2.5,6.7c-0.3,0.9-0.8,1.6-1.3,2.699c-0.9-2.199-1.4-4.1-2.3-5.699c-2-3.6-2.3-7.6-3-11.4
		c-0.5-2.6-1.1-5.1-2-7.6c-0.1,1.199,0.2,2.4,0.4,3.5c0.3,1.199,0.9,2.5,0.8,3.699c-0.2,1.601,0.3,2.9,0.5,4.4
		c0.6,4,2.1,7.6,3.5,11.301c0.9,2.299,1.4,4.6,0,7c-0.8,1.299-1.1,2.799-1.8,4.6c-0.4-0.801-0.6-1-0.7-1.301
		c-0.6-2.299-1.3-4.699-1.9-7.1c-0.6-2.199-1.1-4.3-1.6-6.5c-0.3-1.3-0.5-2.6-1-3.9c-1.8-5.299-3.8-10.5-5.7-15.699
		c-0.7-1.801-1.2-3.5-1.9-5.2c-1-2.5-2-5-3.2-7.399c-1.2-2.5-1.6-5.5-3.9-7.5c-0.4-0.4-0.5-1.201-0.8-1.9c-0.2-0.7-0.4-1.301-0.7-2
		c-0.6-1.5-1.2-3.1-2-4.5c-1-1.801-2.1-3.5-3.5-5.801c-0.5,1.9-0.8,3.201-1.3,5.101c-0.356-1.513-0.632-2.706-0.9-3.866v11.285
		c0.032,0.259,0.068,0.526,0.1,0.781C0.4,311.7,0.6,313.3,0.9,314.899z M39.1,354.5c0.8-2.7,2.6-4.899,4-7.3c0,0,0.2,0.1,0.4,0.2
		C42,349.8,41.6,352.8,39.1,354.5z M64.3,308.9c0.1,0,0.2,0.1,0.3,0.1c-0.2,0.5-0.4,1.101-0.6,1.601c-0.1,0-0.3-0.101-0.4-0.2
		C63.9,309.9,64.1,309.4,64.3,308.9z M63.6,316.3c0.2-0.199,0.4-0.3,0.4-0.5c0-2.1-0.2-4.3,1.7-5.899c0.6,1.899,1.1,3.899,1.7,6.1
		c-0.5,0.8-1.3,2-2,3.101c-0.2,0.3-0.4,0.6-0.6,0.8c-1.8,1.3-3.6,2.6-5.4,4c-1-1.601-1.3-3.3,0-5c1-1.4,1.9-2.9,3-4.7
		C62.9,315.2,63.2,315.7,63.6,316.3z M55.5,305.601c-1.8-5.101-1.1-10.4-1.4-15.601c-0.3-4.1-0.3-8.1-0.4-12.199
		c-0.1-3.801,0.1-7.601,1.7-11.4c0.2,0.8,0.4,1.5,0.5,2.199C56,269.4,56,270.2,56.1,271c0.3,3.5,0.6,7,0.9,10.5c0,0.4,0,0.7,0,1
		c0.4,2.5,0.7,5,1.2,7.5c0.8,4.3,1.8,8.5,2.7,12.8c0.4,2,0.7,3.9,1.1,5.9c0.2,1-0.3,1.8-1,2.5c-0.5,0.5-1.1,1-1.6,1.5
		c0.1,0.2,0.2,0.3,0.3,0.4c0.7-0.4,1.5-0.801,2.3-1.5c0.6,0.6,0.2,1.1-0.2,1.6c-1.2,1.6-2.4,3.2-3.8,5c0-0.6-0.1-1.1-0.1-1.6
		C58,315,57.6,313.5,57.1,312C56.4,310,56.2,307.7,55.5,305.601z M55.8,318.2c0.2,1.3,0.4,2.5,0.6,4.1c-1,1-2.1,2.2-3.2,3.4
		c-0.2-0.1-0.3-0.1-0.5-0.2C52.8,322.7,54.4,320.601,55.8,318.2z M53.8,326.601c0.9-1.301,2.1-2.5,3.3-3.9c1.4,2.3,1,4-0.5,5.8
		c-2.2,2.8-4.1,5.8-6.3,8.601c-1.7,2.3-3.6,4.5-5.7,7.1c1.4-3.8,2.8-7.4,5-10.5c0.9-1.2,1.7-2.4,2.5-3.7
		C52.7,328.9,53.1,327.601,53.8,326.601z M30,368.4c0.9-2.5,1.7-5,2.7-7.4c2.5-6.1,5-12.3,7.8-18.399c1-2.301,2.7-4.2,4.3-6.2
		c1.2-1.5,2.1-3.2,2.9-5.101c0.9-2.199,2.4-4.3,3.6-6.5c1.1,0.9,1.2,1.9,0.8,3c-0.8,2-1.5,4-3.2,5.5c-2.4,2.2-3.4,5.2-4.7,8
		c-1.3,2.7-2.6,5.4-4.2,7.801c-2.1,3.199-3.8,6.6-5.3,10.1c-0.2,0.4-0.2,0.9-0.3,1.4c-0.1,0.699-0.1,1.5-0.4,2.1
		c-1.1,2.8-2.4,5.5-3.6,8.3C29.3,370.2,29.8,369.3,30,368.4z"/>
	<path fill="#2B374A" d="M74.4,311.101c-1.1,1.5-2.2,2.8-3.8,3.8c-1.5,0.899-2.5,2.6-3.8,3.899c-0.9,0.9-1.9,1.801-2.9,2.7
		c-1.1,1-2.3,2-3.4,3c-0.359,0.308-0.479,0.669-0.487,1.055c0.014-0.378,0.14-0.731,0.487-1.029c1.1-1,2.3-2.013,3.4-3.013
		c1-0.899,2-1.807,2.9-2.707c1.3-1.3,2.3-3.003,3.8-3.902c1.6-1,2.7-2.301,3.8-3.801s2.5-2.701,3.9-4.001
		c0.8-0.7,1.9-1.102,2.6-1.901c-0.7,0.8-1.8,1.2-2.6,1.9C76.9,308.4,75.5,309.601,74.4,311.101z"/>
	<path fill="#2B374A" d="M43.1,365.5c0.043,0.004,0.071,0.016,0.111,0.021c-0.005-0.041-0.002-0.08-0.011-0.122L43.1,365.5z"/>
	<path fill="#2B374A" d="M43.213,365.551c0.007-0.009,0.013-0.018,0.02-0.025c-0.008-0.001-0.014-0.003-0.022-0.004
		C43.211,365.531,43.212,365.541,43.213,365.551z"/>
	<path fill="#2B374A" d="M70.7,452.101c1.8-5.101,4.1-9.9,6.8-14.5c0.5-0.9,0.9-1.801,1.1-2.801c0.3-1.3,1-2.3,2.1-3.199
		c-0.1,3.699-2.6,6.699-2.2,10.5c0.4-0.2,0.7-0.4,0.7-0.5c0.2-2.601,1.7-4.801,2.4-7.2c0.3-1.3,1.1-2.5,1.4-3.8
		c0.3-1.4,0.5-2.9,0.4-4.4c-0.1-0.6-1.1-1.1-1.6-1.7c0.5-0.6,1.5-1.2,1.6-1.899c0.5-3,3.2-4,4.7-6c-0.9,3.3-4,5.699-4,9.5
		C85.5,426,85.5,426,85.8,425.5c1.3-2.5,2.6-5,4.1-7.5c1.4-2.2,3-4.2,5-6.2c-0.2,1.5-0.2,2.7-0.5,3.7c-0.3,1-0.9,1.9-1.4,2.8
		c0.1,0.101,0.2,0.2,0.3,0.301c0.5-0.301,1-0.7,1.3-0.9c0.5,0.4,1,0.7,1.5,1c0.5-1.2,0.8-2.3,1.2-3.3c0.8-1.8,1.4-3.7,2.2-5.5
		c0.6-1.3,1.2-2.5,1.9-3.8c0.5-1.101,1.3-2,1.7-3.101c1-2.6,2.5-4.7,4.9-6.5c-0.1,0.601-0.1,1-0.2,1.3c-1.6,3.801-3.3,7.601-5,11.4
		c-0.8,1.7-0.7,3.5-0.8,5.3c1.4-2.2,2.5-4.5,3.7-6.7c1.2-2.199,2.6-4.399,4-6.5c1.4-2.199,2.7-4.399,4.3-6.399
		c1.5-1.9,3.3-3.601,4.9-5.4c-0.1,1-0.5,1.9-0.9,2.7c-1.2,2.2-2.8,4.4-3.4,6.8c-0.6,2.8-1.9,5.101-3.2,7.601
		c-0.2,0.399-0.3,0.8-0.4,1.3c-0.1,1.1-0.2,2.2-0.4,3.5c0.5-0.4,1.1-0.7,1.4-1.2c0.8-1.3,1.5-2.7,2.3-4.1
		c2.6-4.301,5.2-8.5,7.8-12.801c2.1-3.399,4.3-6.699,6.5-10c1.7-2.6,3.5-5.1,5.3-7.699c0.8-1.2,1.9-1.7,3.5-1
		c-0.8,0.699-1.7,1.199-2.3,2c-1.8,2.699-3.7,5.399-5.3,8.199c-2.9,5-5.5,10.2-8.5,15.2c-1.2,2-1.8,4-1.8,6.3
		c1.8,0.5,2.2,0.4,2.2-0.899c0-2.101,1.1-3.5,2.4-5c3.1-3.601,5.6-7.5,6.8-12.2c0.3-1.3,0.9-2.6,1.7-3.7c2.5-3.7,5.4-7.2,7.9-10.899
		c1.2-1.7,2.5-3.4,4.5-4.301c0,0,0-0.199,0-0.6c-2,0.5-3.6,1.5-4.8,2.6c-0.8-0.3-1.6-0.8-2-0.6c-1.3,0.6-2.75,1.2-3.75,2.1
		c-1.7,1.5-3.226,3.101-4.525,4.9c-1.9,2.6-3.412,5.5-5.212,8.3c-0.9,1.5-2.106,2.9-3.206,4.3c-0.2-0.1-0.304-0.199-0.503-0.3
		c1.3-2.399,2.598-4.8,3.798-7.2c0.7-1.4,0.7-1.5-0.8-2.699c-2.4,1.199-3.901,3.399-5.301,5.6c-1.9,2.9-3.601,5.8-6.7,8
		c1.5-4.2,1.6-4.9,0.5-7.1c-0.7,0.6-1.3,1.6-2.1,1.799c-1.8,0.4-3.6,0.601-5.4,0.701c-0.5,0-1-0.301-1.6-0.5
		c1.1-2.101,2.3-3.5,4.7-3.301c1.2,0.1,1.9-0.4,2.7-1.199c1.2-1.201,2.6-2.101,3.9-3.101c0.7-0.5,1.6-0.7,2.3-1.3
		c1.4-1.3,2.8-2.6,5-2.3c0.2,0.1,0.5-0.101,0.7-0.2c1.6-0.9,3.3-1.8,4.9-2.8c0,0-0.1-0.3-0.1-0.5c-1.8,0.399-3.5,0.6-5,1.899
		c-0.4,0.4-1.2,0.5-1.8,0.4c-1.3-0.2-2.2,0.2-3.1,1c-1,0.9-2.1,2-3.3,2.3c-2.1,0.4-3.5,1.7-4.8,3.2c-0.6,0.6-1.2,1.1-2.1,0.9
		c-1.4-0.301-2.5,0.299-3.4,1.299c-1.5,1.5-3,3.101-4.4,4.701c-0.4,0.5-0.3,1.299-0.4,1.899c2.2,1.3,3.7-0.399,5.5-0.601
		c-1.9,2-3.9,3.801-6.1,5.301c-1.6,1-2.8,2.3-4,3.699c-0.9,1.101-2.2,1.801-3.3,2.701c-0.8,0.699-1.7,1.3-2.3,2.1
		c-1,1.4-2.1,2.7-3.6,3.7c-1.2,0.8-2.4,1.899-2.3,3.899c2.9-3.5,2.4-3.1,4.5-2.8c-1.1,1.7-2.3,3.4-3.5,5.2c0.3,0.5,0.7,1,1,1.4
		c-1.1,1.6-2.3,3.1-3,4.699c-0.6,1.5-0.9,3.2-2,4.5c-0.5,0.7-0.4,1.4,0.5,1.7c0.4,0.101,0.7,0.2,1.1,0.3
		c-0.2,1.4-0.9,2.301-1.8,3.101c-1.4,1.2-2.6,2.6-2.7,4.6c-0.1,0.601-0.5,1.101-0.8,1.7c-1,2.2-2.6,4.2-3.3,6.6
		c-0.6,2.101-1.5,4.101-2.7,6c-0.8,1.301-1.6,2.801-2.1,4.2c-1.1,3.3-2,6.7-3.4,9.9c-0.6,1.6-0.8,3.5-1.2,5.3
		c-0.8,3.1-1.8,6.2-2.4,9.4c-0.6,3.199-2.2,6.3-1.7,9.8c0.1,0.2-0.3,0.399-1,1c0.2-5.2,0.5-9.8,0.7-14.5c0.1-0.3,0.2-0.601,0.4-0.9
		c1.2-2.1,1.5-4.3,1.5-6.7c0-1.5,0.3-2.899,0.4-4.3c0-0.7-0.1-1.399-0.1-2c-1.3,1.9-1.2,4-1.1,6c0,2.3-0.3,4.5-1.4,6.5
		c-0.3,0.601-0.5,1.3-0.5,2c-0.2,4.101-0.3,8.3-0.5,12.4c0,0.399,0.1,0.7,0,1c-0.1,0.399-0.3,0.8-0.6,1c-1.1,0.899-2.2,1.7-3.5,2.7
		c1.1,0.5,2,1,2.5-0.5c0.3-0.7,0.8-0.9,1.7-0.801c1,0.101,3.1-2.399,3-3.5c-0.4-3,0.7-5.699,1.3-8.5c0.7-3.5,1.9-6.8,2.6-10.199
		c0.9-4.301,2.1-8.5,3.9-12.5C69.5,454.8,70.2,453.5,70.7,452.101z M93.9,403.601c1.1-0.4,2-1.301,2.7-2.301c1-1.5,2.2-2.6,3.7-3.6
		c1.9-1.3,3.9-2.6,5.4-4.6c1-1.4,2.1-1.601,4-1.7c-2.3,2.399-4.3,4.899-6.6,6.899c-1,0.9-2.6,1.2-3.3,2.5c-1.7,3.101-4.8,5.4-5.8,9
		c-0.4,1.2-1.4,2.101-2.1,3.101c-0.8-0.9-1.4-1.601-1.9-2.5c0.4-1,1.3-2-0.1-3.2C91,405.8,92.1,404.4,93.9,403.601z"/>
	<path fill="#2B374A" d="M210.8,363.8c-1.7,0.301-3,1-4.3,2c-1.2,0.9-2.601,1.6-3.9,2.2s-2.7,1.101-3.7,2.399
		c-0.699,0.801-1.699,1.4-2.6,2.101c0.9-1.5,1.9-2.601,2.9-3.899c1-1.201,2-2.4,2.6-3.701c0.6-1.299,2.8-1.699,2.6-3.699
		c-0.6,0.199-1.1,0.4-1.6,0.699c-1,0.601-2,1.201-3,1.801c0.5,1.5-1,1.8-1.5,2.699c-2.4,3.801-5.4,6.701-9.1,9.101
		c-0.5,0.399-1,1-1.5,1.5c-1.2,1.101-2.4,2.3-3.601,3.399c-1.5,1.4-3,2.801-4.5,4.301c-1.899,1.9-3.6,4-5.7,5.699
		c-1.5,1.201-2.699,2.4-3.5,4.101c-0.899,1.899-2.399,3.2-4,4.399C166,399.2,165.5,399.2,164.5,399.5c1.2-1.3,2-2.101,2.8-3
		c2.2-2.601,4.4-5.3,6.6-7.899c0.5-0.601,0.9-1.2,1.301-1.9c1-1.7,1.6-3.7,2.899-4.9c1.2-1.1,2.3-2.3,3.5-3.5
		c0.5-0.5,1-1,1.601-1.399c3.5-2.5,7-4.9,10.5-7.4c0.199-0.2,0.399-0.5,0.6-0.8c-0.6-0.1-1,0.1-1.4,0.3c-2.1,1.3-4.199,2.7-6.1,4.2
		c-2.4,1.9-5.4,3.2-7.2,5.9c-0.3,0.3-0.8,0.6-1.2,0.699c-1.199,0.2-1.8,1-2.3,2.101c-0.899,2.1-2.2,4-3.899,5.6
		c-2.5,2.4-5,4.9-6.7,8c-0.2,0.3-0.5,0.7-0.8,0.8c-1.9,0.4-2.4,2.101-3.101,3.601c-0.5,1.2-1,2.399-1.6,3.5
		c-0.7,1.2-1.601,2.2-2.3,3.3c-1.301,2.1-3.2,4-4.2,6.4c-0.5,1.3-1.5,2.699-2.6,3.699c-2.7,2.301-5.8,4.4-8.6,6.7
		c-1.1,0.9-1.6,2.601-3.5,2.2c-0.1,0-0.3,0.2-0.4,0.3c-2.2,1.9-4.4,3.9-6.6,5.8c-0.6,0.5-1.3,0.9-2,1.101
		c-1.1,0.3-1.9,0.899-2.7,1.8c-2.2,2.4-3.3,5.5-4.6,8.6c0.4-0.199,0.8-0.5,1.1-0.899c1.5-2.3,3.1-4.601,4.6-6.9
		c0.7-1.2,1.7-1.5,3.3-1.3c-1.4,2.4-4.2,3.3-5.5,5.6c0.4,0.9,1,0.801,1.5,0.301c1.7-1.5,3.3-3.2,4.9-4.801
		c0.5-0.5,1-1.399,1.5-1.399c1.4,0,1.9-0.9,2.6-1.8c0.4-0.7,1.2-1,1.8-1.5c0.5-0.4,1.2-0.7,1.6-1.101c2.2-2.1,4.3-4.2,6.5-6.3
		c0.4-0.4,1-1,1.5-1c2.1-0.2,3.4-1.4,4.4-3.2c0.3-0.6,0.7-1.1,1.2-1.5c1.899-1.399,3.7-2.7,5.6-4.1c0.5-0.3,1-0.601,1.5-0.8
		c2.7-1.101,5.5-2.101,7.7-4.101c2.6-2.399,5.6-3.899,8.7-5.399c4.8-2.301,9.899-3.801,15.1-5.2c2.101-0.5,4-1.4,6.101-2
		c1.3-0.3,2.5-0.4,3.8-0.601c0.399-0.1,0.7-0.1,1.1-0.199c-0.3-0.601-0.8-0.9-1.2-0.9c-1.5,0.1-3,0.3-4.5,0.7
		c-1.199,0.3-2.399,0.899-3.6,1.2c-6.3,1.5-12.5,3-18.3,6.1c-0.2,0.1-0.5,0-0.8,0c0.5-0.5,0.899-1,1.199-1.4
		c-0.3-0.899-0.8-1.1-1.5-0.699c-1.3,0.8-2.6,1.5-3.399,2.899c-0.8,1.4-1.8,2.7-3.8,2.8c-0.5,0.101-1,0.7-1.5,1.101
		c-2,1.7-3.7,3.7-6.4,4.5c-0.7,0.2-1.2,0.899-1.8,1.399c-0.7,0.101-1.5,0.2-2.2,0.2c0.5-1.2,0.5-1.2,2.2-0.2c0-0.5-0.3-1.5-0.4-1.3
		c2.2-1.3,2.601-4.2,5.101-5.2c0.3-1.3,1.699-0.4,2.199-1.199c0.5-0.801,0.9-1.701,1.4-2.5c0.5-0.701,1.2-1.301,1.8-1.9
		c2.3-2.1,4.7-4.301,7-6.5c0.4-0.4,0.7-0.801,1.2-1.1c2.8-1.4,4.5-3.701,5.9-6.4c0.5-0.9,1.199-1.7,2-2.301
		c1.3-1.199,2.899-2.199,4.3-3.299c1.899-1.4,3.8-2.9,5.7-4.301c2.199-1.6,4.6-3.199,6.6-5.1c1.2-1.2,2.5-1.9,4-2.5
		c1.3-0.5,2.5-1.1,3.5-2c1.3-1.301,2.8-2.2,4.6-2.801c1.4-0.5,2.7-1.1,4.101-1.699c-1-0.6-1.8-0.1-2.7,0.199
		C212.8,363.2,211.8,363.601,210.8,363.8z M134.1,432.101c0.1-1.101,0.9-1.4,1.7-1.7C135.4,431.101,135.5,432.101,134.1,432.101z
		 M136.5,429.3c1-0.899,2.1-1.8,3.1-2.699c0.2,0.1,0.3,0.3,0.4,0.399C139.4,428.5,138.4,429.4,136.5,429.3z M161.6,405.2
		c-0.2-0.1-0.3-0.1-0.5-0.2c0.101-0.5,0.3-1,0.5-1.5c0.101,0.101,0.3,0.101,0.4,0.2C161.8,404.2,161.6,404.7,161.6,405.2z"/>
	<path fill="#2B374A" d="M85.2,469.1c1.7-1.399,2.2-3.8,4.5-4.6c3.5-4.8,7.4-9.3,12.2-13c0.6-0.5,1.1-1.2,1.6-1.8
		c2.3-2.8,4.3-5.8,7.9-7.2c0.8-0.4,1.6-1.1,2.2-1.8c2.9-3.1,5.7-6.2,8.6-9.301c0.5-0.6,1.1-1.1,1.7-1.399c1.6-0.7,2.5-1.899,3.4-3.3
		c0.6-1,1.4-1.7,2.2-2.5c0.6-0.6,1.5-1,2.2-1.7c3.1-3,6.1-6,9-9c0.7-0.8,1.2-1.899,1.8-2.8c0.4-0.6,0.7-1.4,1.3-1.9
		c1.6-1.4,3.3-2.6,4.9-4c1-0.8,1.8-1.9,1.6-3.8c-1.6,1-2.9,1.899-4.3,2.8c0.2-2.1,0.7-4.199,1.5-6c2.5-5.8,5.2-11.5,8-17.1
		c2-4,3.6-8.4,7.1-11.5c0.2-0.2,0.4-0.5,0.5-0.801c0.4-1,1.2-1.299,2.3-1.199c1.601,0.1,3.101-0.301,4.601-1
		c1.6-0.7,3.3-1.301,5-1.4c2.5-0.199,4.8-0.5,6.6-2.6c-0.8-1-1.899-1.2-2.7-0.4c-1.3,1.301-2.8,1.1-4.399,1.1
		c-0.601,0-1.3,0.201-2,0.4c-2,0.7-4,1.5-6,2.1c-0.601,0.201-1.3,0-2.5,0c0.899-1.899,1.7-3.299,2.3-4.799s1-3.101-0.5-4.801
		c-0.9,1.2-1.6,2.1-2.4,3.1c-0.699,0.9-1.5,1.801-2.399,2.9c1.899-0.1,2.2-1.9,3.7-2.699c-1.2,2.6-2.101,4.899-3.101,7.1
		c-0.6,1.199-1.399,2.3-2.1,3.4c-1.101,1.699-2.4,3.299-3.3,5c-2.2,4.1-4.2,8.399-6.3,12.6c-1.2,2.6-2.7,5.1-3.8,7.699
		c-1,2.301-1.7,4.801-2.5,7.201c-0.4,1.399-0.6,2.899-1.4,4c-0.9,1.299-2.3,2.299-3.6,3.399c-2.3,1.9-5.3,2.601-7.1,5.2
		c-0.1,0.3-0.5,0.3-0.8,0.5c-1.6,1.2-3.4,2.3-4.9,3.7c-1.9,1.8-3.4,4-5.2,5.899c-1.5,1.5-2.9,3.301-4.7,4.301
		c-2,1.199-3.5,2.699-4.9,4.5c-2.2,2.799-4.4,5.6-6.8,8.3c-1.5,1.7-3.5,3-5,4.7c-1.7,1.899-3.1,4.1-4.5,6.199
		c-1.2,1.801-2.1,3.801-3.3,5.601c-1,1.5-2.1,2.899-3.5,4.1c-0.7,0.7-1.5,1.2-2,2.2c-0.4,1-1.2,1.8-1.9,2.7
		c-0.4,0.6-0.8,1.1-1.2,1.7c0.1,0.199,0.2,0.3,0.4,0.499C83.9,469.5,84.7,469.5,85.2,469.1z M110.3,438c0.8-0.899,1.5-1.8,2.2-2.8
		c1.2-1.8,2.6-3.1,4.4-4.3c2-1.3,3.7-3.2,5.4-5c1.9-2,3.5-4.3,5.5-6.3c1.1-1.101,2.5-1.9,3.8-2.801c0.8-0.6,1.7-1.1,2.4-1.899
		c1.1-1.2,2.4-2,4.2-2.7c-0.2,0.7-0.2,1.2-0.5,1.5c-1.7,1.8-3.4,3.6-5.1,5.4c-0.8,0.899-1.6,1.899-2.5,2.8c-0.3,0.399-0.6,0.899-1,1
		c-1.8,0.6-2.7,2.1-3.5,3.5c-0.7,1.2-1.5,2-2.8,2.5c-1,0.399-2,1-2.5,1.8c-2.3,3.5-6,5.6-8.5,9c-1,1.4-3,2.2-4.6,3.2
		c-0.2-0.2-0.4-0.4-0.6-0.601C107.8,440.9,109.1,439.5,110.3,438z M103.6,445.5c0.2,0.101,0.3,0.3,0.5,0.4
		c-1.6,1.8-3.1,3.6-4.7,5.399C99.4,448.2,102,447.3,103.6,445.5z"/>
	<path fill="#2B374A" d="M77.064,474.492c-0.021,0.036-0.046,0.072-0.064,0.108C77.077,474.562,77.083,474.525,77.064,474.492z"/>
	<path fill="#2B374A" d="M82.6,463.5c1.8-3,4.8-5.2,6-8.7c0.1-0.5,0.6-0.899,1-1.3c2-1.8,3.3-4,4.5-6.399c0.3-0.7,0.8-1.2,1.3-1.7
		c1.2-1.4,2.4-2.8,3.5-4.2c1.4-1.8,2.4-4.1,4.2-5.4c3.6-2.699,5.6-6.5,8.2-9.899c2.6-3.4,4.6-7.2,6.8-10.9c1.1-1.8,2.1-3.7,3.1-5.6
		c0.2-0.4,0.1-1,0.1-1.5c-0.5,0-1-0.101-1.5,0c-0.2,0.1-0.4,0.5-0.6,0.7c-3.3,3.3-6.6,6.699-9.8,10.1c-2.1,2.2-3.9,4.6-6,6.8
		c-0.8,0.8-1.9,1.5-2.8,2.2c-0.1-0.1-0.2-0.199-0.3-0.3c2.7-4.9,5.3-9.7,8-14.7c-0.1-0.4-0.2-1-0.4-1.9
		c-1.2,1.4-2.2,2.601-3.2,3.801c-0.9,1.199-1.8,2.399-2.7,3.6c-0.2,0.301-0.4,1.1-0.7,1.1c-1.4,0.2-1.6,1.4-2.1,2.301
		c-0.3,0.6-0.6,1.5-1.1,1.8c-2.6,1.399-3.2,4.7-5.6,6.3c-0.3,0.1-0.4,0.5-0.5,0.8c-1,2-2,4-3.1,5.9c-2.3,3.8-4.7,7.399-6.9,11.2
		c-2.2,3.8-4.1,7.699-6.1,11.6c-0.2,0.5-0.6,1-0.8,1.5c-0.4,0.8-0.9,1.6-1.2,2.5c-0.4,1.4-0.6,2.9-1.2,4.3
		c-1.4,3.3-3.2,6.4-3.5,10.101c0,0.5-0.5,1-0.6,1.5c-0.1,0.399-0.1,1.199,0.2,1.399c0.7,0.5,1.1-0.1,1.2-0.7c0.2-1,0.2-2,0.6-2.8
		c1.4-2.399,2.8-4.8,4.3-7.1c1.6-2.5,3.4-4.9,4.8-7.601c1.2-2.199,3.4-3.899,3.8-6.699c0.1-0.5,0.9-0.9,1.3-1.4
		c0.6-0.7,1-1.4,1.5-2.1c0.6-1,1.1-1.9,1.7-2.9c0.2,0.1,0.3,0.2,0.5,0.3c-1.3,2.3-2.5,4.601-3.7,6.9c-0.5,1-1.1,1.899-1.6,2.899
		c-1.3,2.301-2.5,4.7-3.8,7.101c-0.1,0.2-0.3,0.3-0.5,0.5c-1,1.2-2,2.3-3.2,3.7c0.8,0.3,1.3,0.5,1.7,0.699
		c-0.2,1.101-0.4,2.101-0.6,3.101c0.123,0,0.235,0.039,0.265,0.092c0.211-0.365,0.544-0.737,0.635-1.192
		C78.6,469.601,80.8,466.601,82.6,463.5z M100.6,432.4c1.4-3.7,4.8-5.7,7.2-8.5c2.7-3.101,5.5-6.101,8.3-9.2
		c0.3-0.3,0.6-0.8,0.9-1.2c0.1,0.101,0.3,0.3,0.5,0.4c-1.4,2.2-2.4,4.6-4,6.6c-0.9,1.2-1.7,2.5-2.6,3.7c-2.4,3.1-4.3,6.7-7.3,9.4
		c-1.5,1.3-2.5,3.1-3.9,4.5c-1.9,1.899-3,4.5-5.4,5.899c-0.6,0.4-0.9,1.3-1.3,2c-0.8,1.4-1.6,2.9-2.7,4.2c0.4-2,1-3.9,2.2-5.6
		c0.8-1,1.5-2.2,2.3-3.301c1.2-1.8,2.5-3.6,3.7-5.5C99.2,434.7,100.1,433.601,100.6,432.4z M83,454.8c-0.5,0.4-0.8,1.101-0.8,1.7
		c0,1.601-1,2.5-2.1,3.5c-1.8,1.601-3.1,3.601-4.1,5.8c-0.3,0.9-0.8,1.7-1.2,2.5c-0.2-0.1-0.3-0.1-0.5-0.199c0.5-2,0.8-4,1.5-5.9
		c0.5-1.4,1.5-2.6,2.2-3.9c1.5-2.699,3-5.3,4.3-8c2-4.5,5.1-8.3,7.6-12.399c1.3-2.101,2.3-4.4,3.4-6.601
		c0.1-0.199,0.1-0.5,0.2-0.699c1.8-2.101,3.6-4.101,5.4-6.2c0.4-0.601,0.8-1.2,1.2-1.8c0.5-0.801,0.9-1.601,1.9-2
		c0.6-0.2,0.9-1,1.3-1.601c0.4-0.7,0.7-1.399,1.1-2.1c-1.2,3.899-3.2,7.3-5.3,10.7c-1.3,1.899-2.3,4-3.4,6c-1.4,2.699-2.5,5.6-4.2,8
		C88.5,445.9,86.7,451,83,454.8z"/>
	<path fill="#2B374A" d="M164.8,343.101c-1.1,0.699-2.2,1.3-3.2,2.1c-0.2,0.2-0.2,0.7-0.399,1.3c-1.601,0-2.2,1.5-3.2,2.8
		c0.7,0.101,1.7,0.101,1.899-0.3c0.601-1,1.5-1.1,2.4-1.3c0.8-0.3,1.6-0.7,2.4-1.1c1.399-0.601,2.8-1.2,4.1-1.9
		c0.9-0.5,1.7-1.1,2.5-1.7c0.5-0.399,0.7-1,1.1-1.5c1.2,0.5,2.2,0.9,2.801,0.601c1.8-0.9,3.6-1,5.5-1.4c5.8-1.1,11.699-1.4,17.6-1.3
		c0.5,0,1.1,0.399,1.7,0.6c0,0.2-0.101,0.3-0.101,0.5c-1.1,0.2-2.3,0.601-3.399,0.601c-4.4,0.1-8.7,0.3-13,1.699
		c-3.101,1.101-6.5,1.301-9.601,2.7c-0.399,0.2-0.8,0.101-1.199,0.2c-1.7,0.4-3.5,0.9-5.301,1.3c-1.3,0.3-2.699,0.5-3.899,1
		s-2.3,1.3-3.4,2c-0.1,0.101,0.101,0.601,0.101,1.101c4.199,0.199,8.399,0.5,12.5,0.699c2.1,0.101,4.1-0.1,6.199,0.101
		c1.7,0.2,3.601-0.101,5.301,1c0.6,0.399,1.5,0.3,2.3,0.399c2.3,0.301,4.6,0.5,6.899,0.801c0,0.5,0.101,1,0.101,1.6
		c1.8,0.3,3.3,0.8,4.6,1.8c-1.7,1.8-4,0.5-5.7,1.4c-0.3,1.1,0.4,1.1,1.2,1.3c3.2,0.7,5.9-1.4,9-1.6c0.101,0,0.2,0,0.2-0.101
		c0.5-2,1.9-1,3.1-1c1,0,2.101,0.4,2.9-0.6c-0.3-1.3-1.3-1.8-2.3-2.3c-3.8-1.801-8-2.301-12.2-2.801c-1-0.1-2-0.1-2.9-0.199
		c-2.8-0.301-5.699,0.1-8.399-1.2c-0.2-0.101-0.5,0-0.7,0c-4.3-0.101-8.6-0.2-12.9-0.3c-0.8,0-1.5-0.101-2.3-0.2
		c0-0.2-0.1-0.4,0-0.8c0.3-0.2,0.601-0.5,1-0.601c3.3-0.899,6.601-1.8,9.9-2.6c2.399-0.601,4.899-1.2,7.399-1.601
		c3.7-0.6,7.301-1.699,11.101-1.699c2.5,0,4.899,0.399,7.3,0.399c1.1,0,2.2,0.2,3.3,0.3c1.5,0.2,3.101,0.301,4.9,0.4
		c-0.3-0.7-0.3-1.1-0.5-1.2c-1.3-0.899-2.7-2.2-4.2-2.5c-1.8-0.399-3.4-1.899-5.4-1.399c-0.199,0.1-0.6-0.2-0.8-0.4
		c-0.7-0.9-1.7-0.8-2.6-0.7c-5.2,0.3-10.5,0.5-15.7,1c-2.8,0.2-5.5,0.9-8.5,1.5c-0.2,0-0.8-0.6-1.3-0.5
		c-1.3,0.2-2.5,0.601-3.601,1.101C167.8,341.3,166.3,342.2,164.8,343.101z M204.5,340.7c-1.601,0.8-1.601,0.8-3.5-0.3
		C202.5,340.5,203.5,340.601,204.5,340.7z"/>
	<path fill="#2B374A" d="M176.2,304.4c-2,3.7-4.7,6.899-7.5,10.1c-0.7,0.8-1.7,1.601-1.601,3.3c2.3-2.6,4.4-5,6.4-7.399
		c1.8-2.2,3.5-4.5,5.3-6.7c0.5-0.6,1.2-1,1.8-1.5c0.5-0.5,1-0.9,1.5-1.4c-0.2,0.801-0.6,1.4-1,2c-2.8,4.601-5.6,9.301-8.399,13.9
		c-0.7,1.1-1.2,2.4-1.801,3.6c-0.6,1.2-1.1,2.5-1.8,3.601c-1.399,2.2-3.1,4.399-4.6,6.6c-1.5,2.3-3,4.601-4.601,6.9
		c-0.199,0.2-0.399,0.5-0.699,0.6c-2.2,1-3,3.101-4,5.101c-1,1.899-1.7,4-2.601,6c1.1,0.699,1.7,0.3,2.2-0.801
		c0.8-1.6,1.3-3.399,2.9-4.3c1.5-0.8,2.5-2,3.6-3.3c0.5-0.6,1.1-1.1,1.7-1.6c1.8-1.4,3.5-2.801,5.3-4.101c1.3-1,2.5-2.1,3.9-2.7
		c1.8-0.8,3.3-1.899,4.8-3.1c1.3-1.1,2.399-2.6,4.5-2.3c1.6,0.3,2.8-0.4,3.899-1.7c0.9-1,2.2-1.5,3.4-2.2
		c0.7-0.399,1.5-0.5,2.2-0.899c2.5-1.301,5-2.101,7.8-2.2c0.5,0,1,0,1.4-0.2c2.899-1.6,5.899-0.9,9-0.4
		c-0.601,0.4-1.301,0.7-1.9,0.601c-2.4-0.2-4.3,1.1-6.2,2.3c-2,1.2-3.899,2.5-6.2,3.2c-1.399,0.399-2.8,0.899-3.5,2.5
		c4-1.5,8.101-2.7,11.2-5.3c0.2-0.2,0.601-0.2,0.9-0.301c1.6-0.5,3.1-1.399,5-1.1c0.7,0.1,1.7-0.6,2.3-1.2c1.4-1.3,2.7-2,4.6-0.899
		c-0.1-2.301-0.699-2.9-2.5-2.5c-0.3,0-0.5,0.1-0.699,0.199c-1.4,0.801-3,0.801-4.601,0.7c-2.2-0.1-4.5-0.8-6.6,0.2
		c-1.8,0.9-3.8,1-5.8,1.2c-0.601,0.1-1.2,0.3-1.801,0.5c-1.899,0.8-3.8,1.7-5.699,2.399c-1.801,0.601-3.5,1.301-4.601,2.9
		c-0.6,0.8-1.5,1.3-2.5,0.7c-1.5-0.9-2.3-0.2-3.399,0.7c-1.801,1.399-3.601,2.899-5.601,4c-1.8,1-3.5,1.8-4.899,3.3
		c-1.301,1.399-3,2.399-4.601,3.6c1.3-2.7,2.5-5.5,4.4-7.6c2.6-2.9,4.399-6.2,6.5-9.4c3-4.6,5.7-9.399,8.5-14.1
		c1.6-2.7,3.2-5.3,4.8-8c0.3-0.5,0.3-1.2,0.6-2.2c-2.3,0.4-4,0.8-5.199,2.6c-0.7,1-1.301,2.301-2.301,2.7
		C177.8,301.8,176.899,303,176.2,304.4z"/>
	<path fill="#2B374A" d="M137.1,386.601c-1,1.699-2,3.5-3.1,5.1c-1.2,1.8-2.6,3.5-4,5.3c-0.7,1-1.4,2.101-2.3,3
		c-0.8,0.8-1.1,1.601-1,2.601c0.1,1.5,0.2,3-1.5,3.899c-0.2,0.2-0.1,1-0.1,1.5c0.5,0,1.2,0.101,1.4-0.2c0.6-0.6,1-1.5,1.2-2.3
		c0.3-1.6,1.2-2.7,2.2-3.899c2.1-2.5,4.1-5,6-7.7c0.9-1.4,1.5-3,2.2-4.5c1.5-2.9,2.7-5.8,4.8-8.3c1.2-1.5,2.2-3.2,3.3-4.7
		c0.9-1.2,1.8-2.4,2.7-3.601c0.7-1,1.2-2.3,2.8-3.3c-0.7,1.7-1.1,2.9-1.6,4c-1.2,2.601-2.4,5.101-3.7,7.7c-1.1,2.2-2,4.5-3.3,6.6
		c-2.1,3.601-5,6.601-6.5,10.601c-0.2,0.5-0.7,0.8-1.1,1.2c-0.9,0.8-1.1,1.6-0.3,3.1c0.6-0.7,0.9-1.6,1.5-1.8c1.8-0.7,2.5-2.2,3-3.8
		c1.2-3.9,3.9-6.9,6.1-10.2c1.4-2.2,2.9-4.4,4.3-6.601c0.9-1.5,1.6-3.1,2.5-4.6c1.7-2.6,3.5-5.1,5.2-7.7c0.5-0.7,0.7-1.5,1.1-2.2
		c-2.1,0.9-3.1,2.5-4,4.301c-0.6,1.199-1.2,2.399-1.899,3.6c-0.3,0.5-0.8,1-1.5,0.7c0.9-4.9,3.7-9.101,4.3-14
		c-0.2-0.101-0.3-0.101-0.5-0.2c-0.8,1.7-1.6,3.4-2.4,5.2c-2.7,0.399-3.6,3.3-5.7,5c0.9-4.5,0.9-4.5-0.2-5.5
		c-0.9,5.3-3.8,11.5-6.3,15.5C139.4,382.4,138.3,384.5,137.1,386.601z"/>
	<path fill="#2B374A" d="M95.5,368.9c0.3-3.101,0.3-6.2,1-9.2c1.1-4.6,1.5-9.1,1.5-13.7c0-1.399,0-2.7,0-4.1
		c0-1,0.3-2.101,0.399-3.101c0.2-2,0.6-3.899,0.8-5.899c0.1-1.101-0.05-2.2,0.15-3.3c0.7-3.5,0.75-7,0.65-10.5
		c-0.1-0.7-0.4-1.4-0.6-2.101c-0.1,0.101-0.2,0.101-0.2,0.101c-0.6,1.399-1.3,2.699-1.7,4.1c-1,3.6-1.8,7.3-2.9,10.8
		c-1,3.2-1.2,6.8-3.1,9.8c-0.2,0.2-0.2,0.601-0.2,0.9c-0.3,3.2-0.5,6.5-0.7,9.7c-0.2,3.399-0.5,6.8-0.8,10.2
		c-0.2,2.8-0.5,5.5-0.4,8.3c0.1,3.5,0.7,7,0.9,10.5c0.1,2.3,0.9,4.3,1.6,6.6c0.4-0.2,0.9-0.3,0.9-0.5c0-0.8-0.1-1.5,0.9-1.8
		c0.1,0,0.3-0.4,0.2-0.6c-0.8-1.7,0.3-3.101,0.5-4.601C94.8,376.601,95.1,372.8,95.5,368.9z M94,364.101
		c-0.3,4.199-0.6,8.3-1,12.399c-0.2,1.7-0.6,3.3-1.1,5c-1.2-5.399-1-10.899-0.8-16.3c0.2-4.6,0.6-9.3,1.3-13.8
		c0.4-2.601,0.5-5.101,0.6-7.601c0-0.199-0.1-0.399,0-0.5c1.7-1.8,1.2-4.3,1.9-6.5c0.9-2.6,1.2-5.5,1.8-8.3
		c0.2-0.8,0.5-1.6,0.8-2.399c0.5,4.3,0.8,8.6-0.1,12.899c-0.6,2.5-0.1,5.3-0.1,7.9c0,1.399-0.1,2.7-0.9,3.899
		c-0.3,0.4-0.4,1-0.4,1.4c0.2,3.5-1.3,6.8-1.7,10.3C94.2,363,94,363.5,94,364.101z"/>
	<path fill="#2B374A" d="M3.9,390.101c0.7,3.8,1.5,7.5,2.3,11.199c0.1,0.5,0.3,1,0.6,1.301c0.2,0.3,0.7,0.3,1.3,0.5
		c0.1-0.5,0.3-1,0.2-1.301c-0.5-2.199-1.1-4.3-1.6-6.5C6.3,393.9,6,392.4,5.8,390.9c-0.5-3.4-0.8-6.8-1.4-10.2
		c-0.3-2.3-1-4.5-1.4-6.8c-0.3-1.5-0.3-3-0.6-4.5c-0.768-4.128-1.625-8.256-2.4-12.384v10.773c0.869,4.538,1.759,9.099,2.6,13.61
		C3.1,384.3,3.4,387.2,3.9,390.101z"/>
	<path fill="#2B374A" d="M3.3,360c0.7,3.3,2,6.4,2.1,9.8c0,1.2,0.5,2.4,1.1,3.4c1.2,2.2,1.5,4.5,1.7,6.9c0,0.5,0.1,1.1,0.3,1.6
		c0.6,1.6,0.9,3.2,0.7,4.9c0,0.5,0,1.199,0.3,1.6c1.3,2,1.4,4.3,2,6.4c0.1,0.3,0.3,0.5,0.4,0.8c0.2,0,0.3-0.101,0.5-0.101
		c-0.1-0.699-0.2-1.5-0.4-2.199c-0.4-2-1.4-4.101-1.2-6c0.3-2.301-0.7-4.2-1.1-6.2c-0.1-0.4,0-0.9-0.1-1.4c-0.3-1.7-0.4-3.6-1.1-5.1
		c-2.1-4.3-2.7-9-4-13.5c-1.1-3.9-1.4-8-3-11.8c-0.2-0.5-0.3-0.9-0.4-1.4c-0.342-2.479-0.695-4.955-1.1-7.434v7.585
		c0.281,1.057,0.606,2.107,1,3.148C2.1,353.9,2.7,357,3.3,360z"/>
	<path fill="#2B374A" d="M66.1,383.6c-0.2-3.6-0.7-7.3-0.4-10.899c0.3-3.9-0.4-7.55-1.3-11.15c-1-4-0.4-8.124-0.9-12.124
		c0.9-1.7-0.6-2.312-1.6-3.613c-0.2,1.7-0.3,2.993-0.5,4.294c-0.6,4.5-2.2,8.896-1.9,13.497c0,0.5-0.15,1.099-0.351,1.599
		C58.25,367.202,58,369.2,58,371.3c0,3.601,0,7.101,0,10.601c0,1-0.351,2-0.45,3c-1.4-4.5-2.625-8.9-2.425-13.601
		c0-0.8-0.312-1.6-0.612-2.3c-1-2.8-2.307-5.399-2.606-8.399c-0.1-1.301-0.704-2.5-1.104-3.801c-0.2,0-0.301,0-0.401-0.1
		c0,0.1-0.101,0.3-0.101,0.4c1.3,4.199,1.2,8.8,3.2,12.899c0.3,0.7,0.5,1.4,0.5,2.101c0.2,6.5,1.15,13,2.85,19.3
		c0.2,0.8,0.15,1.6,0.15,2.399c0,2.4,0,4.9,0,7.4c0,1.2,0,2.3,1,3.3c0-1.5,0-2.5,0-3.5c1,0,0.7,0,0.8,0c0.3,1,0.5,1.95,0.8,3.05
		c0.6-3.199,0.6-6.524-0.2-9.625c-0.8-3.1-1.1-6.362,0-9.462c0.2-0.5,0.2-1.132,0.2-1.731c0.1-4,0.1-8.016,0.3-12.016
		c0-1.2,0.1-2.408,0.5-3.508c0.9-2.2,1.1-4.504,0.9-6.804c-0.2-1.3,0-1.302,1.1-2.603c0.5,1.7,1,3.3,1.3,4.899
		c1.2,7,1.4,14.299,1.6,21.399C65.3,385,65.4,385,65.4,386c0.1,0,0.3,0,0.5,0C66,385,66.1,384.301,66.1,383.6z"/>
	<path fill="#2B374A" d="M127.1,251.7c-1.5,1.9-3.2,3.5-5.4,4.7c-1.3,0.699-2.4,2-3.6,3c-0.6,0.4-1.35,0.9-1.65,1.5
		c-1,2.1-2.45,3.8-4.45,4.8c0,1.3,0,2.399,0,3.5c0,0.101,0.55,0.101,0.65,0.101c-0.3-2.301,0.875-3.801,2.675-4.801
		c0.199-0.1,0.437-0.3,0.537-0.5c3-3.9,4.819-5.4,9.219-7.8c0.2-0.101,0.509-0.2,0.609-0.399c1.4-1.801,3.205-3,5.305-3.801
		c0.5-0.2,0.902-0.6,1.402-0.9c0.5-0.3,1.102-0.6,1.701-0.8c0.8-0.3,1.601-0.6,2.401-0.9c1.4-0.6,2.8-1.1,4.2-1.6
		c0.8-0.3,1.601-0.3,2.301-0.7c2.6-1.4,5.4-2,8.3-1.9c0.6,0.1,1.2-0.1,1.8-0.4c1.8-0.9,3.7-0.8,5.601-0.6c3.3,0.4,6.6,0.6,10,0.4
		c2.6-0.2,5.3-0.3,7.8,0.7c0.7,0.3,1.399,0.2,1.7-1.1c-0.9-0.5-1.9-1.3-3-1.5c-3-0.6-6-1-9.101-1.3c-2.5-0.2-4.899-0.2-7.399-0.3
		c-1.5,0-3.2-0.4-4.5,0.2c-3.6,1.7-7.8,1.1-11.2,3.2c-0.6,0.3-1.4,0.2-2.1,0.4c-0.7,0.1-1.4,0.3-2.1,0.5c-3.4,1-6,3.5-9.2,4.9
		C128.7,250.7,127.7,251,127.1,251.7z M167,243c0-0.025,0-0.037,0-0.042C167,242.963,167,242.975,167,243c-1,0-1.4,0.2-2.1,0.101
		c-0.301,0-0.7-0.101-1.001-0.101C164.8,243,166,243,167,243z"/>
	<path fill="#2B374A" d="M50.2,490.8c-0.3,0.9-0.5,1.801,0.2,2.7c0.3-0.2,0.7-0.2,0.7-0.399c0.6-1.9,1.3-3.9,1.7-5.9
		c0.7-3.6,1.4-7.3,1.9-11c0.4-2.3,0.3-4.7,0.6-7.1c0.3-2.601,0.9-5.101,1.3-7.7c0.2-1.601,0.5-3.101,1.5-4.4
		c0.4-0.5,0.7-1.2,0.7-1.8c0.1-3.2,1.4-6.1,3.1-8.8c0.2-0.3,0.1-0.601,0.2-0.9c-1.8-0.1-2.6,0.3-3.1,1.9c-0.7,2.399-2.2,4.5-2,7.1
		c0,0.2-0.1,0.5-0.2,0.7c-1.5,1.8-1.8,4-2.2,6.2c-0.1,0.399-0.3,0.8-0.5,1.399c-1-2.1-1.3-2.199-2.7-0.899
		c-0.7,0.6-1.4,0.899-2.4,0.5c-1.3-0.601-2.9-0.4-3.6,0.6c-1.7,2.5-4.9,2.8-6.9,4.9c-0.4,0.5-1.6,0.6-1,1.5
		c0.2,0.399,1.3,0.399,1.9,0.3c0.4,0,0.8-0.6,1.3-0.9c0.6-0.399,1.2-0.8,1.8-1.199c1.4-0.9,2.7-1.801,4.1-2.7c0.6-0.4,1.2-1,2.2-0.4
		c-0.9,1-1.8,1.8-2.5,2.7c-2.4,3-4.7,6.1-7.1,9.2c-0.2,0.3,0,0.7,0,1.1c2,0,2,0,2.9-1.3c1.8-2.8,3.8-5.3,6.1-7.6
		C49.9,467,51.7,465.5,53.5,464c0.1,0.101,0.3,0.2,0.7,0c-0.6,5-1.3,10-1.8,15.101C52,483.101,51.4,487,50.2,490.8z"/>
	<path fill="#2B374A" d="M152.1,264.4c-2.2-0.9-4.4-0.7-6.6-0.7c-0.9,0-1.8,0.399-2.7,0.601c-0.8,0.199-1.7,0.5-2.5,0.6
		c-3.2,0.4-6.5,0.8-9.7,1.199c-0.3,0.101-0.6,0.201-0.9,0.301c-2.6,0.699-4.6,2.9-7.5,2.699c-0.3-0.1-0.7,0.301-1,0.5
		c-2.3,1.301-4.7,2.701-7.1,4.101c-1.3,0.7-2.7,1.399-4,2.101c-2.2,1.399-3.4,3.8-5.1,5.499c-1.2,1.301-1.2,2.601-0.6,4.2
		c1.9-4.399,4.8-7.8,9.1-9.8c0.1,0.3,0.4,0.5,0.7,0.899c0.9-0.899,1.8-1.699,2.7-2.5c0.5-0.399,1.1-1,1.6-1
		c1.9-0.1,3.3-1.199,4.7-2.199c0.5-0.301,1.1-0.6,1.7-0.801c5.4-1.6,11-1.799,16.5-2.199c4.7-0.301,9.5,0.6,14.3-0.2
		c1-0.101,2,0.3,3,0.5c0.699,0.101,1.399,0.3,1.6-0.5c0.1-0.5-0.1-1.3-0.5-1.601c-0.6-0.5-1.5-0.899-2.3-1
		C155.7,264.801,153.7,265.1,152.1,264.4z M143.4,267c1.6-2,5-2,8.6,0C148.8,267,146.2,267,143.4,267z"/>
	<path fill="#2B374A" d="M74.7,279.4c0.5-1.9,0.7-3.7,0.8-5.5c0.2-2.4-0.3-5,0.9-7.301c0.3-0.5,0.1-1.299,0.2-1.899
		c0.3-2.8,0.6-5.7,0.9-8.5c0-0.399,0.3-0.7,0.4-1.101c1.2-3.899,2.6-7.699,3.6-11.6c0.7-2.5,2.1-4.4,3.2-6.6
		c0.1-0.2,0.5-0.2,0.8-0.4c0,0.6,0.2,1.2,0,1.5c-0.9,1.4-0.7,3-0.8,4.6c-0.1,1.5-0.2,3-0.3,4.5c-0.2,2.1-0.5,4.1-0.7,6.2
		c-0.1,1.3,0.3,2.6-1,3.5c-0.3,0.299-0.4,1.1-0.4,1.6c-0.2,4.9-0.4,9.699-0.5,14.6c-0.1,2.1,0.3,4.2-0.1,6.2
		c-1,5.6,0.1,11.1,0.3,16.7c0,1.2,0.7,2.5,1.1,3.7c0.2-0.101,0.4-0.101,0.4-0.101c0-0.899,0.2-1.7,0-2.5
		c-1-3.899-0.9-7.899-0.9-11.899c0-2,0.5-3.9,0.6-5.9c0.2-5.5,0.3-10.899,0.5-16.3c0.1-1.7-0.1-3.6,0.7-4.9c0.7-1.4,0.8-2.8,1-4.1
		c0.4-2.2,0.5-4.4,0.7-6.6c0-0.7,0.2-1.3,0.2-1.9c0.1-2.1-0.4-4.2,0.9-6.2c0.2-0.4,0.1-0.85,0.1-1.35c-0.1-1.3-0.3-2.85-0.5-3.85
		c-0.7,0-1.4,0-1.9,0c-0.5,1-1,1.75-1.4,2.65c-0.9,1.9-2,3.675-2.6,5.675c-0.6,1.8-0.8,3.538-2.1,4.938
		c-0.3,0.3-0.4,0.669-0.4,1.069c0.1,2.4-1.1,4.484-1.7,6.684c-0.2,0.7-0.2,1.393-0.3,2.092c-0.3,2.9-0.6,5.797-0.9,8.697
		c0,0.199,0,0.397-0.1,0.498c-1,1.899-0.9,3.999-0.9,6.099c0,1.5-0.2,2.999-0.2,4.499C74.3,277.801,74.6,278.6,74.7,279.4z"/>
	<path fill="#2B374A" d="M141.666,351.64c0.038,0.626,0.222,1.302,0.534,2.061c0.6-1.4,0.9-2.6,1.6-3.4c1.3-1.5,1.8-3.399,2.4-5.3
		c0.6-2.2,1.4-4.6,2.7-6.5c0.9-1.2,1.6-2.3,2.1-3.6c0.4-1,0.9-1.9,1.5-2.7c0.8-1.3,2-2.3,2.6-3.7c1-2.3,2.4-4.3,3.9-6.2
		c0.399-0.5,0.7-1.199,1.1-1.8c0.9-1.399,1.7-2.899,2.601-4.399c0.5-0.801,1.1-1.5,1.6-2.301c1.3-1.899,2.6-3.8,3.9-5.699
		c0.8-1,1.699-2.101,2.5-3.101c0.699-0.8,1.3-1.6,2-2.399c0.1,0.1,0.3,0.199,0.5,0.3c-0.7,1.399-1.4,2.8-2.101,4.2
		c0.2,0.1,0.3,0.199,0.5,0.3c2.4-3.3,3.7-7.101,5.8-10.5c0.5-0.7,0.4-1.8,0.601-2.7c-0.2-0.1-0.4-0.2-0.7-0.2c-1,1-2.2,2-3.1,3.2
		c-3,3.7-5.301,7.9-8.801,11.2c-0.199,0.3-0.399,0.7-0.6,1c-0.9,1.7-1.7,3.5-2.9,4.899c-2.8,3.101-4.3,7-7,10.101
		c-0.1,0-0.1,0.1-0.1,0.2c-1.1,1.8-2,3.699-3.2,5.3c-1.2,1.6-2.4,3.1-2.9,5.1c-0.1,0.4-0.3,0.9-0.6,1.2c-2.3,2.1-3.2,5-3.8,7.8
		c-0.4,1.9-0.9,3.8-2,5.5c-0.423,0.564-0.619,1.153-0.641,1.794c0.082-0.032,0.156-0.062,0.241-0.094
		C141.826,351.36,141.748,351.506,141.666,351.64z"/>
	<path fill="#2B374A" d="M141.9,351.2c-0.084,0.032-0.159,0.062-0.241,0.094c-0.004,0.112,0,0.229,0.006,0.346
		C141.748,351.506,141.826,351.36,141.9,351.2z"/>
	<path fill="#2B374A" d="M2.6,324.601c0.9,2.199,2,4.199,2.6,6.399c0.7,2.601,2.2,4.899,3.2,7.399c1.7,4.201,3.2,8.5,4.8,12.701
		c0.8,2,1.6,3.799,2.3,5.799c1.3,3.701,2.4,7.4,3.6,11.101c0.6,1.8,1.4,3.5,2.1,5.3c0.1,0.301,0.5,0.6,1.1,1.301
		c-0.8-2.701-1.5-4.801-2.1-7c-0.7-2.101-1.4-4.301-2-6.5c1.9,2.5,3.1,5.199,3.8,8.199c0.4,1.4,1,2.7,2.1,3.7
		c0-0.399-0.1-0.899-0.2-1.3c-0.4-1.3-0.9-2.5-1.4-3.8c-0.8-1.8-1.4-3.7-2.3-5.5c-1.2-2.5-2.4-5-2.8-7.8c0-0.301-0.4-0.7-0.6-1.101
		c-0.2,0.4-0.4,0.5-0.4,0.601c-1.7-4.601-3.4-9.2-5.2-13.801C9.8,336.9,8.4,333.5,7,330c-0.5-1.3-0.8-2.7-1.4-4
		c-1.2-2.7-2.4-5.399-3.8-8c-0.539-0.97-1.165-1.881-1.8-2.782v2.757c0.492,0.725,0.688,1.613,1,2.425
		C1.5,321.8,2,323.2,2.6,324.601z"/>
	<path fill="#2B374A" d="M0,328.668v2.398c0.559,1.461,1.083,2.517,1.5,2.934C1.02,332.214,0.505,330.441,0,328.668z"/>
	<path fill="#2B374A" d="M173,252.1c-0.101-1.6-1.101-1.8-2.101-2c-4-0.9-7.899,0.1-11.8,0.7c-2.7,0.5-5.5,0.8-8.2,1.3
		c-1,0.2-2.1,0.5-3.2,0.7c-0.8,0.2-1.7,0.5-2.5,0.5c-1.5-0.1-2.8,0.2-4,1.1c-1.1,0.8-2.3,1-3.6,1.1c-1,0.1-2.2,0.5-3,1.1
		c-0.9,0.701-1.8,1.301-2.9,1.5c-0.4,0.101-0.9,0.201-1.1,0.5c-1.4,1.601-3.4,2-5.2,2.801c-1.2,0.5-2.1,1.699-3.2,2.5
		c-1.3,1.1-2.6,2.1-3.9,3.1c-0.6,0.5-1.3,0.9-1.9,1.4c-2.6,2-4.4,5.1-7.4,6.699c0,0,0,0.201,0,0.4c0.3,0,0.7,0.1,1.1,0.2
		c1.5-1.399,3.1-2.8,4.5-4.3c1.4-1.4,2.9-2.7,4.8-3.5c1.1-0.5,2.3-1.2,2.9-2.1c2.4-3.5,6.7-4,9.9-6.301c1-0.699,2.4-0.9,3.5-1.8
		c0.6-0.601,1.7-0.899,2.6-0.899c1.5,0,2.8-0.4,4-1.301c1.5-1.1,3.1-1.2,5.3-0.8c-3.7,1.899-6.9,3.399-10.4,4.101
		c-2.3,0.5-3.7,2-5.2,4c2.3-1,4.1-1.9,6-2.601c1.6-0.601,3.3-1,5-1.601c2.6-0.899,5.2-1.899,7.8-2.899c0.3-0.101,0.7-0.2,0.9-0.399
		c1.8-2.101,4.4-2.101,6.8-2.4c3.899-0.5,7.899-0.4,11.899-0.6C171.2,252.2,172,252.2,173,252.1z"/>
	<path fill="#2B374A" d="M102.3,242.9c1.7-4.2,2.6-8.2,5.1-11.7c0.8,2.3-1,4.4,0.1,6.6c0.5-0.1,0.8-0.1,1-0.3c1-1.2,2-2.3,2.7-3.6
		c1.1-1.8,2.5-3.2,4.6-4c-0.5,1.5-1.3,2.8-1.4,4.1c-0.1,2.7-0.9,5.2-1.6,7.7c-0.1,0.5-0.2,1.1-0.4,1.6c-0.4,1.3-0.7,2.5-1.2,3.8
		c-0.8,2.2-1.9,4.4-2.5,6.7c-0.9,3.5-1.4,7.1-2.2,10.7c-0.4,1.6-0.2,3.1,0.4,5c0.7-3.5,1.3-6.6,2-9.8c0.6-2.8,1.1-5.6,2-8.3
		c0.9-2.9,2.4-5.7,2.9-8.8c0.4-2.7,1.7-5.3,1.7-8.1c0-0.3,0.1-0.6,0.2-0.9c1.2-2.6,2.3-5.2,3.5-7.8c0.4-0.8,0.3-1.5-0.7-2
		c-1,0.5-2,0.7-2.7,2c-0.8,1.4-2.1,2.5-3.2,3.7c-0.9,1-1.9,1.8-2.8,2.8c-0.4,0.4-0.7,0.9-1,1.3c0-1.3-0.2-2.5,0-3.7
		c0.1-1.1,0.7-2.2,0.9-3.4c0-0.3-0.3-0.8-0.5-1.4c-0.6,0.5-1,0.7-0.9,1.1c-1.3,2.9-2.7,5.8-3.9,8.7c-0.9,2.1-1.6,4.3-2.3,6.5
		C102,241.7,102.2,242.1,102.3,242.9z"/>
	<path fill="#2B374A" d="M182.1,371h0.2c2.8-4,5.5-8.1,8.2-12c0.7-1,0.2-2.7-0.7-3.5c-0.8,1.8-0.9,1.75-3,3.35
		c-1.1,0.801-2.2,1.476-2.5,2.976c0,0.4-0.4,0.688-0.6,0.987c-1.4,2-2.801,3.894-4.2,5.794c-0.5,0.699-1.101,1.396-1.7,1.997
		c-2.3,2.3-4.6,4.499-6,7.599c-0.8,1.6-1.7,3.199-3.1,4.499c-1.9,1.7-3.601,3.599-5.301,5.499c-0.6,0.6-0.899,1.6-1.3,2.4
		c0.2,0.199,0.4,0.3,0.4,0.6c0.7-0.6,1.399-1.2,2-1.9c1.6-1.699,3.2-3.5,4.8-5.3c1.4-1.7,3-3.2,4-5c1.5-2.8,3.5-5.1,5.8-7.2
		c0.9-0.699,1.5-1.699,2.101-2.6c1.8-2.5,3.5-5,5.3-7.5c0,1.9-1.101,3.499-2.101,4.899C182.2,369.5,182.1,369,182.1,371z"/>
	<path fill="#2B374A" d="M48.4,425c2.6,0,5,0,7.4,0c-0.6,0-1.3,0.95-2,1.45c-0.6,0.5-1.3,0.675-1.8,1.275
		c-0.8,0.899-1.3,1.837-2.6,2.237c-0.4,0.2-0.7,0.568-1,0.969c-0.9,1.399-1.8,2.784-2.6,4.284c-0.5,1-1.2,1.893-2.4,1.992
		c-2.2,0.2-3.7,1.596-5,3.096c-1.4,1.5-2.6,3.198-3.8,4.799c0.7,0.1,1.4-0.001,1.9-0.401c1.1-0.9,2.1-2,3.1-3
		c1.3-1.4,2.6-2.601,4.6-2.801c1.4-0.101,2.4-1.101,3-2.4c1.1-2.2,2.1-4.5,4.6-5.5c0.4-0.1,0.5-0.6,0.8-0.899
		c2.3-2.601,5-4.301,8.7-3.7c1,0.1,2.1,0,3.4,0c-0.2-0.8-0.1-1.3-0.3-1.5c-1-1-2.1-1.9-3.7-1.9c-3.703-0.097-7.407-0.29-11.11-0.485
		c-0.255,0.349-0.496,0.966-0.743,1.324C48.714,424.119,48.568,424,48.4,425z"/>
	<path fill="#2B374A" d="M48.847,423.589c0.247-0.358,0.487-0.726,0.743-1.074c-0.096-0.005-0.193-0.01-0.29-0.015
		C49.184,422.849,49.03,423.201,48.847,423.589z"/>
	<path fill="#2B374A" d="M93.6,257.1c1.9-4.299,3.101-8.899,4-13.5c0.5-2.6,1.4-5.2,3.4-7.6c0,1.2,0,2.5,0,3.7c0,0,0.1,0.1,0.3-0.1
		c0-1.5-0.2-3.1-0.1-4.7c0.1-0.7,0.05-1.6,0.35-2.3c0.6-1.7,1.475-3.3,2.075-5c0.2-0.4,0.088-1.3-0.212-1.4
		c-0.4-0.2-1.106,0-1.506,0.2c-0.3,0.2-0.704,0.7-0.804,1.1c-2.2,6.3-5.301,12.3-5.901,19.1c-0.1,0.5-0.3,0.9-0.4,1.4
		c-0.7,2.7-1.4,5.4-2,8.1c-0.4,1.701-0.601,3.4-0.8,5.101c0.2,0,0.4,0.101,0.6,0.101C92.9,259.9,93,258.4,93.6,257.1z"/>
	<path fill="#2B374A" d="M160.2,392.7c-4.101,2.9-6.3,7.3-9.3,11.1c-0.4,0.5-0.7,1-0.8,1.5c-0.9,3.801-3.3,6.9-4.8,10.4
		c-0.6,1.3-0.7,2.5-0.1,4.3c0.4-0.3,0.9-0.5,1-1.1c0.3-0.601,0.3-1.4,0.6-2c1.7-3.7,4.1-7.2,5.2-11.2c0-0.2,0.2-0.4,0.3-0.6
		c2.3-3,4.6-6.101,6.9-9.101c1.1-1.399,2.3-2.8,2.399-4.8C161,391.601,160.7,392.3,160.2,392.7z"/>
	<path fill="#2B374A" d="M13.5,372.3c0.5,1.4,0.8,2.9,1.3,4.301c0.4,1.1,0.6,2.5,1.4,3.199c1.9,1.601,2.7,3.7,3.7,5.801
		c0.7,1.3,1.5,2,2.9,2.199c-1.1-2.199-2.1-4.3-3.2-6.399c-0.3-0.5-0.7-0.9-1.1-1.3c-1.5-1.4-2.1-3.101-2.6-5
		c-0.6-2.301-1.6-4.5-2.1-6.801c-0.4-2-1-3.699-2.3-5.199c-1.5-1.7-2.4-3.7-3-5.9c-0.4-1.6-1-3.1-1.7-5c-0.4,3.9,0.7,8.4,2.8,11
		c1.5,2,2.8,4,3.1,6.6C12.8,370.7,13.3,371.5,13.5,372.3z"/>
	<path fill="#2B374A" d="M35,494.8c0.2,0.101,0.4,0.101,0.5-0.1c0.7-1.4,1.7-2.8,1.9-4.3c0.2-1.7-0.1-3.5-0.4-5.2
		c-0.3-1.6-1-3.1-1.2-4.7c-0.4-2.7-0.6-5.5-0.9-8.2c-0.1-0.6-0.1-1.3-0.1-1.899c-0.1-2.101,0-4.2-0.4-6.3c-0.3-2.101-1.3-4-1.2-6.2
		c0-0.5-0.3-1.101-0.7-2.2c-0.1,0.9-0.3,1.2-0.2,1.5c0.3,1.7,0.1,3.4,0.8,5.1c0.8,1.9,0.7,4.101,0.8,6.101
		c0.1,1.899-0.1,3.8,0.1,5.7c0.4,2.8,0.9,5.6,0.5,8.5c0,0.199,0,0.5,0.1,0.699c1,3.5,1,6.2,0.2,10C34.7,493.8,34.9,494.3,35,494.8z"
		/>
	<path fill="#2B374A" d="M1.5,527.9c-0.476-1.004-0.981-1.98-1.5-2.946v1.81c0.134,0.211,0.265,0.428,0.4,0.637
		C0.5,527.7,1,527.7,1.5,527.9z"/>
	<path fill="#2B374A" d="M54.3,403.601c0.9-3.2,0.6-4.801-0.5-7.4c-0.5-1.2-1-2.5-1.3-3.8c-1.2-5.8-1.6-11.7-1.5-17.601
		c0-0.8,0.2-1.699-0.1-2.399c-0.9-2-0.6-3.95-0.8-6.05C49.9,363.75,49.6,361,49.3,359c-0.2,0-0.4,0-0.6,0c0,1-0.1,2.351,0,3.65
		c0.1,0.899,0.4,1.774,0.5,2.675c0.3,5,1.3,9.938,1.1,14.938c-0.1,2.5,0.2,4.969,0.6,7.369c0.4,2.6,0.8,5.184,1.7,7.584
		c0.9,2.5,1.9,4.893,1.6,7.592C54.1,403.008,54.2,403.3,54.3,403.601z"/>
	<path fill="#2B374A" d="M6.675,489.747c0.541-0.646,0.955-1.198,1.425-1.747c0.7-0.7,1.7-1.2,2.3-2c2.1-2.8,4.1-5.7,6.2-8.5
		c0.5-0.7,1.1-1.5,1.9-2c3.9-2.3,5.4-6.6,8.1-10c-0.4-0.1-0.6-0.3-0.7-0.2c-1.6,1.4-3.2,2.801-4.3,4.7c-0.5,1-1.2,1.8-2,2.601
		c-1.1,1.1-2.4,1.899-3.3,3.1c-2.1,2.8-4.1,5.7-6,8.6c-0.8,1.2-1.5,2.4-2.9,3.101c-0.359,0.18-0.614,0.433-0.818,0.725
		C6.573,488.401,6.6,488.715,6.6,489C6.625,489.25,6.649,489.497,6.675,489.747z"/>
	<path fill="#2B374A" d="M6.2,490.3c0.173-0.194,0.326-0.375,0.475-0.553C6.649,489.497,6.625,489.25,6.6,489
		c0-0.285-0.027-0.599-0.018-0.875C6.218,488.646,6.072,489.339,6.2,490.3z"/>
	<path fill="#2B374A" d="M34,499.7c-0.8,0.3-1.3,0.4-1.4,0.5c-1.1,2.1-2.8,4.2-3.2,6.5c-0.4,1.9-1,3.7-1.9,5.3
		c-1.2,2.2-2.5,4.5-4.2,6.3c-1,1.2-2.2,2.301-3.1,3.7c-1.1,1.601-2.3,3.2-3.3,4.9c-0.2,0.399-0.1,0.899-0.2,1.399
		c1.8-2,3.5-4,4.6-6.3c0.7-1.399,1.9-1.899,2.8-2.899c2.9-2.9,4-6.801,6.2-10.101c0.1-0.2,0.2-0.5,0.2-0.7
		c-0.2-1.199,0.6-1.8,1.2-2.699C32.8,503.9,33.7,502.101,34,499.7z"/>
	<path fill="#2B374A" d="M211.399,368.2c-1,1.2-2.3,2.1-3.5,3.1c-1.1,0.9-2.1,1.9-3.199,2.801c-1.4,1.199-2.7,2.3-4.101,3.5
		c1.9,0,3.2-1,4.601-2.301c2.6-2.399,5.3-4.8,8-7.1c0.6-0.5,1.3-1.1,2-1.3c2.899-1,4.1-3.5,5.699-5.8c0.101-0.2,0-0.601,0-0.9
		c-1.5-0.1-2,0-2.6,1.2C216.7,364.5,213.5,365.8,211.399,368.2z"/>
	<path fill="#2B374A" d="M26.3,458.101c-2.3,2.6-5.2,4.699-6.8,7.899c-0.2,0.4-0.5,1-0.9,1.101c-1.4,0.5-2.2,1.8-3,2.899
		c-1.3,1.7-2.5,3.5-3.8,5.2c-0.2,0.3-0.3,0.7-0.5,1c0.1,0.1,0.3,0.3,0.4,0.5c0.5-0.5,1.1-0.8,1.5-1.3c0.9-1.101,1.7-2.3,2.5-3.5
		c1-1.5,2.1-2.9,3.8-3.9c1.1-0.7,2-1.8,2.8-2.899c1.6-2.101,3-4.2,4.5-6.4c0.1-0.1,0-0.4,0-0.6C26.6,458.101,26.4,458,26.3,458.101z
		"/>
	<path fill="#2B374A" d="M19.4,491.101c-0.2-0.101-0.3-0.301-0.5-0.4c-2.1,2.3-4.3,4.5-6.3,6.9c-2,2.399-3.7,5.1-5.8,8
		c0.7,0,1.2,0.199,1.5,0c0.5-0.301,0.9-0.801,1.3-1.301c2.4-3.1,4.8-6.199,7.1-9.3C17.6,493.8,18.5,492.4,19.4,491.101z"/>
	<path fill="#2B374A" d="M155,336.9c-1.1-0.8-1.6-0.101-2.1,0.399c-0.8,1.2-1.2,2.801-2.3,3.5c-2,1.4-2.5,3.601-3.7,5.4
		c-0.6,1-1.4,2.3-0.2,3.9C148.7,345.101,151.7,340.9,155,336.9z"/>
	<path fill="#2B374A" d="M7.4,515c2.1-4.1,5.3-7,7.2-10.7C11.2,507.101,7.4,512.8,7.4,515z"/>
	<path fill="#2B374A" d="M63.3,482.601c-0.2,0.199-0.1,0.899-0.1,1.5c0.5-0.101,0.9,0,1.1-0.2c0.4-0.8,0.9-1.601,1.2-2.5
		c0.4-1,0.6-2,0.9-3.101c0.2-0.6,0.7-1.199,0.2-1.899c-0.3,0.1-0.4,0.1-0.4,0.1C64.7,478.3,65.3,481,63.3,482.601z"/>
	<path fill="#2B374A" d="M181.1,332.5c-1.6,1.4-2.8,2.5-4.1,3.601c-1.3,1-3.4,0.699-4.5,2.399C176.7,337.9,179.8,335.8,181.1,332.5z
		"/>
	<path fill="#2B374A" d="M63,450.7c0-2.8,0-5.5,0-8.2C62,445.7,63,449.5,63,450.7z"/>
	<path fill="#2B374A" d="M77.5,444.4c-1.4,1.8-2.9,6.8-2.7,9.399C75.8,450.4,77.2,447.7,77.5,444.4z"/>
	<path fill="#2B374A" d="M87.3,281c-0.6,2.8-1.2,5.5-1.8,8.3c0.2,0.101,0.4,0.2,0.6,0.301c1.3-2.7,1.2-5.601,1.9-8.4
		C87.7,281.101,87.5,281.101,87.3,281z"/>
	<path fill="#2B374A" d="M65.4,398c-0.1,0-0.3,0-0.4,0c-0.2,2-0.5,3.7-0.8,5.8c1.9-0.399,1.1-1.8,1.2-2.601
		C65.5,400.199,65.4,399,65.4,398z"/>
	<path fill="#2B374A" d="M162,324.3c-0.101-0.1-0.3-0.199-0.5-0.3c-1.101,1.3-1.5,3.101-2.2,4.601c0.3,0.1,0.5,0.199,0.6,0.3
		C160.6,327.4,161.3,325.9,162,324.3z"/>
	<path fill="#2B374A" d="M12.5,534.101c-0.9,1-1.9,1.899-2.8,2.899C11.8,536.9,12.7,536,12.5,534.101z"/>
	<path fill="#2B374A" d="M4.2,347.4c0.6,1.399,1.2,2.7,1.9,4C6.3,349.7,5.9,348.2,4.2,347.4z"/>
	<path fill="#2B374A" d="M61.7,457.101c0.2,0,0.4,0,0.6,0.1c0.3-1.2,0.6-2.5,0.9-3.7c-0.3-0.1-0.5-0.1-0.7-0.1
		C62.3,454.601,62,455.9,61.7,457.101z"/>
	<path fill="#2B374A" d="M157.399,329.8c-0.6,1.101-1.1,2.101-1.6,3.101c0.2,0.1,0.4,0.2,0.7,0.2c0.5-1,1-2,1.5-3
		C157.8,330,157.6,329.9,157.399,329.8z"/>
	<path fill="#2B374A" d="M93,420.7c0,0.7,0,1.3,0,2.3c0-0.1,0.85-0.1,1.65-0.3c-0.5-0.9-0.826-1.5-1.226-2.2
		C93.225,420.601,93,420.601,93,420.7z"/>
	<path fill="#2B374A" d="M179,374.8c0.2,0.101,0.399,0.301,0.6,0.4c0.7-0.9,1.3-1.9,2-2.8c-0.2-0.101-0.399-0.3-0.7-0.4
		C180.3,372.9,179.6,373.9,179,374.8z"/>
	<path fill="#2B374A" d="M186.2,330.7c0.1,0.2,0.199,0.3,0.3,0.5c1-0.6,2.1-1.1,3.2-1.7C188.2,329.101,187.2,329.8,186.2,330.7z"/>
	<path fill="#2B374A" d="M89.7,268.9c-0.3,1.6-0.6,2.9-0.9,4.699C90.2,271.7,90.3,271.1,89.7,268.9z"/>
	<path fill="#2B374A" d="M86,295.7c0.6-2.1,0.6-2.1-0.9-2.1C85.4,294.4,85.7,295,86,295.7z"/>
	<path fill="#2B374A" d="M195.6,383.101c1-0.601,1.8-1.4,1.9-2.9c-0.7,0.9-1.5,1.7-2.3,2.5C195.399,382.8,195.5,383,195.6,383.101z"
		/>
	<path fill="#2B374A" d="M181.899,394.7c-0.5,0.4-1.199,1-2,1.6C181.7,396.101,181.899,395.8,181.899,394.7z"/>
	<path fill="#2B374A" d="M78.9,365c-0.2,0-0.4-0.1-0.6-0.1c-0.1,0.7-0.2,1.3-0.3,2c0.3,0,0.5,0,0.7,0
		C78.8,366.3,78.8,365.601,78.9,365z"/>
	<path fill="#2B374A" d="M131.2,363c0.3-0.7,0.5-1.5,0.7-2.2C130.8,361.2,130.6,362,131.2,363z"/>
	<path fill="#2B374A" d="M145.4,351c0.1,0.3,0.4,0.601,0.6,0.601c0.2,0,0.5-0.301,0.7-0.5c-0.3-0.2-0.5-0.5-0.9-0.9
		C145.5,350.601,145.2,350.9,145.4,351z"/>
	<path fill="#2B374A" d="M167.1,313.2c-0.2,0.3-0.399,0.7-0.6,1.1c0.1,0,0.3,0.101,0.399,0.2c0.2-0.399,0.5-0.7,0.7-1.1
		C167.399,313.3,167.2,313.2,167.1,313.2z"/>
	<path fill="#2B374A" d="M117.8,360.2c0,0.4-0.1,0.8-0.2,1.2c0.2,0,0.4,0,0.5,0.1c0.1-0.399,0.1-0.8,0.1-1.2
		C118.1,360.2,117.9,360.2,117.8,360.2z"/>
	<path fill="#2B374A" d="M1.5,463.5c-0.521-0.536-1.017-1.092-1.5-1.658v1.425c0.433,0.577,0.867,1.147,1.3,1.733
		C1.7,464.3,1.8,463.8,1.5,463.5z"/>
	<path fill="#2B374A" d="M0.9,484.3c-0.27-0.54-0.614-1.006-0.9-1.529v1.619c0.067,0.104,0.132,0.207,0.2,0.311
		C0.4,484.5,0.7,484.4,0.9,484.3z"/>
	<path fill="#2B374A" d="M5.2,458.101c-0.585-1.318-3.259-4.56-5.2-6.361v0.898c1.697,2.138,3.375,4.312,5.1,6.562
		C5.2,458.7,5.4,458.3,5.2,458.101z"/>
</g>
</svg>
