<?xml version="1.0" encoding="utf-8"?>
<!-- Generator: Adobe Illustrator 16.0.0, SVG Export Plug-In . SVG Version: 6.00 Build 0)  -->
<!DOCTYPE svg PUBLIC "-//W3C//DTD SVG 1.1//EN" "http://www.w3.org/Graphics/SVG/1.1/DTD/svg11.dtd">
<svg version="1.1" id="Calque_1" xmlns="http://www.w3.org/2000/svg" xmlns:xlink="http://www.w3.org/1999/xlink" x="0px" y="0px"
	 width="300px" height="300px" viewBox="0 0 300 300" enable-background="new 0 0 300 300" xml:space="preserve">
<path fill="#2B374A" d="M6.935,147.115c0,0,0.385,0.289,1.25,0.576c0.48,0.195,0.96,0.291,1.633,0.385
	c0.674,0.098,1.442,0.191,2.212,0.191c1.634,0,3.557-0.191,5.672-0.576c2.118-0.383,4.425-0.957,6.829-1.826
	c0.385-0.191,0.865-0.287,1.25-0.48c-0.962,1.248-1.828,2.502-2.692,3.847c-1.827,2.785-3.365,5.768-4.808,8.847
	c-1.252,3.077-2.5,6.249-3.463,9.419c-0.865,3.176-1.538,6.443-2.017,9.521c-0.385,3.171-0.577,6.253-0.577,9.14
	c0,2.978,0.289,5.768,0.672,8.265c0.384,2.503,0.768,4.808,1.443,6.924c0.672,2.117,1.345,3.943,1.922,5.384
	c1.153,2.98,2.213,4.617,2.213,4.617s1.538-1.344,3.558-3.753c1.057-1.153,2.21-2.594,3.459-4.228
	c1.154-1.634,2.502-3.461,3.942-5.384c1.347-1.924,2.692-4.038,4.039-6.251c1.443-2.116,2.788-4.421,4.038-6.83
	c1.346-2.403,2.692-4.81,3.847-7.308c1.25-2.499,2.501-4.903,3.559-7.497c1.25-2.503,2.213-5.1,3.269-7.6
	c1.058-2.401,1.925-5.095,2.885-7.498c0.48-1.251,0.867-2.5,1.25-3.75c0.481-1.25,0.866-2.403,1.25-3.653
	c0.577-2.018,1.153-3.944,1.731-5.865c7.306,23.559,37.404,39.421,85.192,63.078c-1.154-39.812,22.981-31.928,24.424-35.868
	l5.001,0.384l20.193,2.982l68.559-68.462c2.403,0.864,3.941,1.25,3.941,1.25s-0.094-1.826-0.577-4.614l3.943-3.943l-8.271-11.54
	c-0.48-1.06-0.864-2.213-1.349-3.27c-1.055-2.401-2.208-4.901-3.555-7.404c-2.598-4.998-5.674-9.998-9.135-14.805
	c-3.46-4.712-7.114-9.231-11.154-12.981c-1.923-1.924-3.847-3.85-5.673-5.58c-1.827-1.728-3.753-3.363-5.388-4.807
	c-0.865-0.771-1.729-1.443-2.497-2.114c-0.866-0.577-1.637-1.25-2.309-1.829c-1.441-1.151-2.691-2.211-3.75-3.074
	c-0.48-0.483-0.961-0.869-1.345-1.251c-0.387-0.386-0.768-0.77-0.961-1.059c-0.484-0.671-0.771-1.057-0.771-1.057
	s-0.19,0.386-0.674,1.152c-0.193,0.483-0.381,0.963-0.574,1.543c-0.193,0.574-0.387,1.344-0.48,2.111
	c-0.287,1.634-0.48,3.653-0.386,5.771c0,0.576,0.099,1.25,0.099,1.826c-4.04-2.31-8.08-4.426-12.119-6.151
	c-2.501-1.059-5.001-2.116-7.403-2.982c-2.404-0.867-4.711-1.634-6.826-2.308c-1.059-0.386-2.118-0.673-3.079-0.962
	c-0.959-0.288-1.923-0.577-2.79-0.864c-1.823-0.577-3.459-1.06-4.709-1.443c-0.673-0.193-1.25-0.384-1.731-0.58
	c-0.575-0.188-1.059-0.381-1.345-0.573c-0.676-0.384-1.153-0.674-1.153-0.674s-0.097,0.48-0.193,1.347
	c-0.096,0.48-0.096,0.961,0,1.634c0.097,0.674,0.193,1.443,0.384,2.211c0.385,1.539,1.058,3.463,1.924,5.384
	c0.865,1.923,2.02,4.04,3.365,6.153c0.577,0.869,1.155,1.73,1.828,2.597c-0.77-0.479-1.539-0.866-2.31-1.25
	c-2.884-1.44-6.059-2.69-9.325-3.94c-3.269-1.25-6.828-2.022-10.387-2.887c-3.555-0.861-7.306-1.247-11.057-1.633
	c-1.828-0.097-3.749-0.287-5.577-0.384l-2.309-0.1c-0.865,0-1.731,0-2.595,0c-0.962,0-1.731,0-2.406,0c-0.766,0-1.442,0-2.209,0
	c-1.444,0.1-2.98,0-4.52,0.1c-2.98,0-5.865,0.097-8.653,0.192c-2.791,0.095-5.483,0.191-7.982,0.287
	c-2.5,0.095-4.808,0.095-7.018,0.193c-2.119,0-4.039,0-5.674,0c-1.635,0-2.98-0.099-3.943-0.193c-0.962,0-1.443-0.192-1.443-0.192
	c-0.097,0-0.097,0.579,0.289,1.539c0.386,0.96,0.964,2.31,1.924,3.845c0.962,1.539,2.309,3.366,4.037,5.193
	c1.732,1.829,3.847,3.753,6.25,5.58c1.154,0.962,2.503,1.823,3.847,2.692c0.482,0.287,1.057,0.671,1.636,0.958
	c-0.289,0.195-0.48,0.386-0.675,0.579c-2.787-0.097-5.671,0-8.556,0.094c-1.826,0.1-3.75,0.196-5.577,0.387l-2.309,0.29
	c-0.866,0.097-1.73,0.193-2.596,0.287c-0.864,0.097-1.634,0.19-2.307,0.287c-0.771,0.099-1.539,0.195-2.212,0.289
	c-1.442,0.287-2.98,0.387-4.422,0.674c-2.981,0.48-5.866,0.962-8.56,1.44c-2.787,0.482-5.48,0.963-7.885,1.349
	c-2.5,0.384-4.806,0.768-6.921,1.154c-2.118,0.287-4.04,0.576-5.672,0.767c-1.541,0.193-2.886,0.387-3.847,0.387
	c-0.962,0.097-1.443,0-1.443,0c0-0.1,0.097,0.577,0.578,1.44c0.384,0.869,1.25,2.116,2.404,3.56c1.153,1.441,2.788,2.98,4.71,4.614
	c1.923,1.537,4.23,3.174,6.924,4.613c0.672,0.29,1.249,0.677,1.922,0.964c-0.962,0.384-2.018,0.767-2.981,1.153
	c-2.499,0.958-4.999,2.018-7.307,3.077c-2.308,1.057-4.422,2.21-6.443,3.171c-1.058,0.577-2.02,1.06-2.886,1.54
	c-0.96,0.482-1.826,0.962-2.594,1.44c-1.635,0.868-3.077,1.732-4.327,2.31c-0.575,0.29-1.155,0.576-1.634,0.77
	c-0.482,0.193-0.961,0.384-1.348,0.48c-0.769,0.193-1.249,0.29-1.249,0.29s0.192,0.386,0.768,1.057
	c0.289,0.386,0.673,0.77,1.155,1.155c0.576,0.384,1.152,0.864,1.827,1.251c1.442,0.866,3.172,1.73,5.191,2.5
	c2.02,0.768,4.328,1.344,6.828,1.923c1.827,0.384,3.752,0.671,5.672,0.867c-0.095,0-0.095,0.094-0.192,0.094
	c-4.519,3.366-8.943,7.211-13.174,11.347c-4.229,4.134-8.075,8.558-11.441,12.883c-1.731,2.213-3.269,4.326-4.71,6.44
	c-1.445,2.114-2.791,4.137-3.945,6.058c-0.576,0.963-1.057,1.923-1.632,2.792c-0.482,0.96-0.964,1.827-1.443,2.597
	c-0.963,1.636-1.731,3.077-2.502,4.23c-0.383,0.577-0.768,1.057-1.057,1.537c-0.288,0.483-0.577,0.866-0.865,1.157
	C7.32,146.828,6.935,147.115,6.935,147.115z"/>
<path fill="#33FFFF" d="M65.109,214.134c0.095,4.521,0.866,8.94,1.634,13.271c0.961,4.327,2.403,8.464,3.847,12.404
	c1.539,3.943,3.557,7.598,5.577,10.961c1.922,3.464,4.421,6.443,6.731,9.134c2.402,2.595,4.71,4.998,7.116,6.924
	c2.403,1.924,4.617,3.46,6.539,4.714c1.923,1.245,3.557,2.113,4.711,2.69c1.154,0.576,1.828,0.863,1.828,0.863
	s0.384-0.671,0.962-1.827c0.671-1.249,1.442-2.886,2.307-4.999c0.865-2.112,1.826-4.521,2.693-7.211
	c0.768-2.693,2.02-5.669,2.79-8.751c0.48-1.729,0.962-3.558,1.344-5.48c0.192,0.771,0.385,1.639,0.674,2.5
	c1.25,4.134,2.596,8.08,3.942,11.541c1.347,3.46,2.595,6.534,3.75,9.131c1.155,2.598,2.211,4.716,2.98,6.157
	c0.385,0.672,0.769,1.249,0.962,1.636c0.193,0.387,0.289,0.577,0.289,0.577s0.193-0.097,0.481-0.387
	c0.286-0.287,0.864-0.674,1.44-1.249c1.25-1.058,2.982-2.596,5-4.714c2.021-2.114,4.329-4.711,6.733-7.79
	c2.305-3.074,4.709-6.632,7.016-10.572c1.155-2.022,2.406-4.04,3.463-6.25c1.058-2.214,2.117-4.424,3.078-6.826
	c0.865-2.021,1.73-4.231,2.5-6.443c2.118,1.828,4.328,3.361,6.633,4.516c3.175,1.637,6.349,2.599,9.328,3.176
	c2.982,0.577,5.676,0.577,8.077,0.384c1.253-0.19,2.405-0.384,3.366-0.574c1.06-0.196,1.924-0.483,2.787-0.772
	c3.272-1.153,4.906-2.594,4.906-2.594s-1.443-1.539-3.366-3.943c-0.48-0.577-1.058-1.155-1.54-1.923
	c-0.574-0.674-1.055-1.441-1.633-2.212c-1.058-1.539-2.212-3.176-3.174-4.905c-2.021-3.461-3.653-7.021-5.095-10.577
	c-0.771-1.729-5.195-13.556-5.195-13.556v-0.1c0.194,0.677,0.097,0.29,0.097,0.29s-1.441-4.327-1.826-5.574
	c-0.384-1.25-0.865-2.503-1.345-3.753c-0.388-1.247-0.865-2.403-1.347-3.653c-0.482-1.055-0.866-2.114-1.251-3.174
	c-0.191-1.921-0.481-3.943-0.864-5.961c-0.194-2.213-0.771-4.423-1.153-6.54c-0.192-1.153-0.48-2.213-0.674-3.267
	c-0.192-1.058-0.384-2.117-0.673-3.177c-0.288-2.111-0.866-4.134-1.155-6.055l-0.287-1.44c0-0.482-0.097-0.966-0.194-1.445
	c-0.094-0.961-0.382-1.922-0.478-2.882c-0.385-1.926-0.577-3.85-0.963-5.866c-0.191-2.021-0.577-4.038-0.77-6.061
	c-0.191-1.728-0.384-3.268-0.577-4.808c3.077-3.655,6.636-7.31,10.576-10.671c3.847-3.271,7.883-6.35,11.923-9.233
	c0.87,0.482,1.829,0.963,2.693,1.44c1.924,1.253,3.94,2.117,5.962,3.271c2.02,0.963,4.038,2.02,6.057,2.982
	c2.02,0.864,3.943,1.827,5.866,2.595c2.021,0.77,3.75,1.539,5.481,2.116c1.729,0.576,3.267,1.153,4.615,1.537
	c1.345,0.387,2.501,0.676,3.271,0.866c0.768,0.193,1.247,0.287,1.247,0.287s0-0.478,0-1.247c-0.094-0.771,0-1.926-0.192-3.366
	c-0.095-1.443-0.287-3.174-0.768-5.001c-0.479-1.826-0.962-3.94-1.826-6.057c-0.867-2.114-1.828-4.422-3.174-6.634
	c-1.248-2.214-2.787-4.521-4.614-6.731c-0.193-0.29-0.48-0.671-0.771-0.963c1.157-0.671,2.311-1.345,3.364-1.921
	c4.617-2.693,7.308-4.23,7.308-4.23s-0.767-0.387-2.113-0.963c-1.441-0.478-3.461-1.25-6.06-2.018
	c-2.689-0.673-5.862-1.539-9.615-2.116c-2.69-0.48-5.674-0.867-8.94-1.058c-1.924-0.868-3.847-1.732-5.769-2.408
	c-3.079-0.958-6.156-1.827-9.329-2.018c-2.981-0.482-6.153-0.193-8.943,0c-1.441,0.29-2.785,0.577-4.133,0.867
	c-0.672,0.192-1.347,0.287-1.923,0.478c-0.675,0.195-1.252,0.386-1.828,0.673c-1.154,0.483-2.309,0.963-3.271,1.445
	c-1.058,0.577-2.021,1.153-2.884,1.733c-1.826,1.153-3.173,2.211-4.039,3.268c-0.96,0.963-1.731,1.923-2.211,2.503
	c-0.482,0.576-0.771,0.96-0.771,0.96s-1.152,0.094-1.921,0.19c-1.924,0.097-4.039,0.384-6.25,0.867
	c-2.211,0.576-4.617,1.153-7.02,2.113c-2.403,0.963-4.903,2.021-7.308,3.558c-2.5,1.442-4.903,3.27-7.21,5.193
	c-1.154,0.963-2.31,2.018-3.367,3.173c-1.059,1.057-2.116,2.308-3.08,3.558c-2.018,2.497-3.652,5.287-5.19,8.077
	c-1.442,2.98-2.69,5.863-3.364,8.941c-0.867,2.886-1.059,6.06-1.252,8.85c0,1.537,0.098,2.881,0.193,4.23
	c0.095,0.674,0.095,1.248,0.192,1.924c0.097,0.576,0.29,1.153,0.386,1.729c-0.194,0.094-0.386,0.287-0.673,0.381
	c-1.155,0.677-2.79,1.637-4.713,2.981c-0.96,0.676-1.92,1.442-2.98,2.309c-1.155,0.867-2.115,1.827-3.27,2.885
	c-2.213,2.212-4.519,4.713-6.634,7.599c-2.212,2.885-4.23,6.151-6.059,9.711c-1.729,3.555-3.46,7.501-4.613,11.54
	c-0.577,2.018-1.154,4.132-1.634,6.248c-0.387,2.214-0.771,4.327-1.059,6.537C64.821,205.096,64.821,209.616,65.109,214.134z"/>
<path fill="#33FFFF" d="M58.28,135.285c0.674,0.771,1.636,2.024,2.694,3.659c0.96,1.633,2.21,3.653,3.269,5.96
	c1.155,2.307,2.212,5.001,3.175,7.98c0.867,2.98,1.729,6.248,2.307,9.711c0.192,1.731,0.48,3.461,0.672,5.288
	c0.193,1.824,0.193,3.653,0.291,5.576c0.19,3.751-0.098,7.598-0.482,11.544c-0.384,3.844-1.154,7.785-2.019,11.632
	c-1.058,3.846-2.211,7.597-3.559,11.247c-1.443,3.654-3.077,7.118-4.807,10.385c-1.923,3.174-3.848,6.25-5.867,9.037
	c-2.018,2.792-4.231,5.294-6.346,7.503c-2.115,2.215-4.037,4.231-6.155,5.771c-2.017,1.633-3.846,2.886-5.48,3.939
	c-3.172,2.117-5.289,3.078-5.289,3.078s-0.479-2.306-0.864-6.059c-0.193-1.923-0.289-4.134-0.385-6.537
	c0-2.499-0.191-5.191-0.096-8.077c0-2.887,0.288-5.866,0.481-9.037c0.192-3.176,0.576-6.35,1.058-9.617
	c0.383-3.27,0.866-6.631,1.635-9.903c0.576-3.367,1.345-6.731,2.21-10.001c0.771-3.268,1.827-6.538,2.693-9.808
	s2.021-6.444,3.076-9.521c0.578-1.54,1.157-3.074,1.733-4.52c0.577-1.535,1.155-2.981,1.731-4.422
	c1.154-2.884,2.307-5.576,3.556-8.174c1.155-2.594,2.405-5,3.461-7.117c1.154-2.113,2.117-4.034,3.079-5.67
	c0.865-1.635,1.73-2.983,2.211-3.85c0.576-0.961,0.865-1.44,0.865-1.44S57.608,134.23,58.28,135.285z"/>
<g>
	<path fill="#FF3333" d="M81.646,106.345c-0.288,1.25-0.578,2.98-0.961,5.095c-0.289,2.116-0.673,4.616-0.866,7.5
		c-0.287,2.887-0.287,6.058-0.383,9.328c0.096,1.633,0.096,3.366,0.096,5.19c0.096,1.827,0.096,3.562,0.192,5.486
		c0.191,3.747,0.481,7.594,0.769,11.631c0.288,2.021,0.288,4.04,0.577,6.154c0.098,1.057,0.193,2.116,0.29,3.173l0.095,1.537
		l0.096,0.773l0.097,1.15c0.289,4.808,0.48,9.614,0.577,14.427c0,4.903-0.385,10.097-0.77,14.999
		c-0.192,1.252-0.287,2.499-0.385,3.75c-0.193,1.153-0.287,2.403-0.481,3.557c-0.382,2.403-0.769,4.713-1.152,7.021
		c-0.867,4.518-1.924,8.943-3.079,13.071c-1.055,4.137-2.402,7.984-3.749,11.544c-1.441,3.56-2.787,6.73-4.133,9.616
		c-1.346,2.884-2.692,5.288-3.847,7.305c-2.309,4.04-4.039,6.253-4.039,6.253s-1.154-2.502-2.5-6.925
		c-0.674-2.211-1.444-4.901-2.21-7.885c-0.771-2.979-1.539-6.345-2.213-9.999c-0.674-3.654-1.345-7.599-1.922-11.732
		c-0.577-4.137-0.961-8.461-1.348-12.885c-0.19-2.21-0.384-4.424-0.479-6.728c-0.098-2.213-0.193-4.521-0.289-6.827
		c-0.289-4.521-0.193-9.038-0.193-13.754c-0.095-4.807,0-9.711,0.289-14.421v-0.193v-0.094c0-0.29,0,0.381,0,0.287v-0.097v-0.48
		l0.095-0.96l0.098-1.927c0.095-1.249,0.193-2.594,0.289-3.844c0.289-2.497,0.768-5.097,1.154-7.597
		c0.864-4.998,2.306-9.806,3.942-14.234c0.865-2.208,1.826-4.324,2.788-6.344c1.058-2.021,2.115-3.941,3.173-5.671
		c2.307-3.464,4.615-6.541,7.021-8.944c2.306-2.5,4.71-4.327,6.729-5.674c2.019-1.347,3.749-2.21,4.999-2.69
		c0.576-0.287,1.155-0.384,1.442-0.482c0.288-0.097,0.481-0.097,0.481-0.097S81.742,105.382,81.646,106.345z"/>
</g>
<path fill="#FF3333" d="M157.995,109.999c0.191,0.866,0.578,2.116,0.769,3.557c0.387,1.44,0.675,3.077,1.059,4.808
	c0.288,1.636,0.672,3.463,1.056,5.48c0.483,1.826,0.867,3.653,1.348,5.29c0.384,1.633,1.056,3.074,1.539,4.23
	c0.48,1.153,1.059,2.02,1.537,2.692c0.384,0.674,0.771,1.253,1.154,2.021c0.384,0.772,0.769,1.73,1.347,2.886
	c0.575,1.151,1.25,2.595,2.019,4.132c0.864,1.733,1.73,3.464,2.597,5.001c0.866,1.73,1.826,3.559,2.692,5.383
	c0.961,1.828,1.729,3.559,2.499,5.288c0.769,1.73,1.442,3.272,1.923,4.713c0.479,1.344,0.866,2.597,1.156,3.367
	c0.097,0.384,0.19,0.768,0.288,0.96c0.096,0.29,0.096,0.387,0.096,0.387s-0.096,0.094-0.287,0.19
	c-0.287,0.094-0.58,0.195-0.964,0.384c-0.77,0.287-2.021,0.866-3.463,1.252c-1.441,0.48-3.269,0.958-5.191,1.248
	c-2.02,0.386-4.134,0.482-6.538,0.482c-2.403,0-4.903-0.29-7.595-0.963c-2.694-0.674-5.385-1.732-8.175-3.173
	c-2.788-1.443-5.578-3.461-8.173-6.058c-2.596-2.597-5.001-5.771-6.827-9.518c-1.829-3.753-2.981-7.979-3.365-12.115
	c-0.386-4.233,0.096-8.272,1.154-11.733c1.056-3.463,2.5-6.537,4.327-8.94c1.731-2.404,3.75-4.422,5.672-5.964
	c0.96-0.671,1.922-1.443,2.885-2.018c1.057-0.577,1.921-1.057,2.885-1.539c1.825-0.864,3.652-1.54,5.095-1.924
	c1.443-0.384,2.791-0.48,3.559-0.671c0.866-0.193,1.346-0.193,1.346-0.193S157.515,109.422,157.995,109.999z"/>
<g>
	<path fill="#FFFFFF" d="M240.109,113.556c0,0-39.229,64.521-48.653,61.539c-6.345-2.018-15.672-7.598-26.442-14.229
		c-12.31-7.5-25.288-48.75-6.152-52.308c42.979-7.982,7.979-38.465,59.229-36.155c21.251,0.96,37.02,14.808,37.02,14.808
		L240.109,113.556z"/>
</g>
<path fill="#2B374A" d="M213.477,88.555c0,5.772-4.71,10.483-10.577,10.58c-5.866,0-10.578-4.711-10.578-10.58
	c0-5.867,4.712-10.577,10.578-10.577C208.767,77.978,213.477,82.688,213.477,88.555"/>
<path fill="#2B374A" d="M208.477,101.537c0-0.096,0-0.19,0-0.096C208.477,101.441,208.477,101.441,208.477,101.537
	c0.097,0,0.19-0.096,0.097,0H208.477c0.097,0.191,0,0.387-0.193,0.864c-0.19,0.577-0.671,1.443-1.25,2.308
	c-1.247,1.827-3.558,3.653-6.153,4.616c-2.597,0.964-5.386,1.154-7.501,0.768c-1.058-0.19-1.923-0.48-2.5-0.768
	c-0.576-0.29-0.866-0.48-0.866-0.48s0.29-0.287,0.866-0.576c0.483-0.384,1.25-0.771,2.113-1.251
	c1.734-0.962,3.941-1.826,6.062-2.689c2.113-0.773,4.325-1.54,6.153-2.117c0.866-0.287,1.732-0.482,2.307-0.674
	c0.292-0.096,0.579-0.19,0.77-0.19h0.097c0,0,0.193-0.099,0.193,0c0,0.095,0,0.095,0,0.095
	C208.573,101.537,208.573,101.441,208.477,101.537C208.573,101.537,208.477,101.537,208.477,101.537L208.477,101.537z"/>
<path fill="#2B374A" d="M229.148,159.807c-1.826,10.19-3.077,7.983-0.387,15.288c2.696,7.31,17.694,12.31,17.694,12.31
	c-52.116,20.189-66.731-16.731-66.731-16.731c-7.886-25.095,23.751-34.234,23.751-34.234
	C216.648,133.364,233.669,134.807,229.148,159.807z"/>
<path fill="#2B374A" d="M259.534,208.076c2.116-14.614,3.174-33.172-4.137-46.54c-7.307-13.362-20.671-5.765-30.77-24.516
	c-14.807-27.408,14.23-63.078,32.599-52.697C262.324,87.21,333.767,137.98,259.534,208.076z"/>
</svg>
