<?xml version="1.0" encoding="utf-8"?>
<!-- Generator: Adobe Illustrator 16.0.0, SVG Export Plug-In . SVG Version: 6.00 Build 0)  -->
<!DOCTYPE svg PUBLIC "-//W3C//DTD SVG 1.1//EN" "http://www.w3.org/Graphics/SVG/1.1/DTD/svg11.dtd">
<svg version="1.1" id="Calque_1" xmlns="http://www.w3.org/2000/svg" xmlns:xlink="http://www.w3.org/1999/xlink" x="0px" y="0px"
	 width="64.292px" height="32.168px" viewBox="0 0 64.292 32.168" enable-background="new 0 0 64.292 32.168" xml:space="preserve">
<g>
	<g>
		<path fill="#FA373A" d="M54.323,16.165c0,0.361-0.119,0.676-0.358,0.945s-0.54,0.403-0.901,0.403c-0.117,0-0.293-0.02-0.527-0.059
			s-0.414-0.059-0.541-0.059l-1.465,0.029c-0.596,0.02-1.084,0.02-1.465,0v3.442c0,0.879-0.436,1.318-1.305,1.318
			c-0.43,0-0.754-0.11-0.974-0.33s-0.329-0.549-0.329-0.989l-0.016-1.685l-0.014-1.699c-1.182,0.068-2.018,0.103-2.506,0.103
			c-1.514,0-2.27-0.449-2.27-1.348c0-0.635,0.268-1.03,0.805-1.187c0.186-0.049,0.674-0.073,1.465-0.073
			c0.488,0,1.324-0.034,2.506-0.103l-0.016-1.714c0-0.889,0.045-1.504,0.133-1.846c0.098-0.352,0.248-0.615,0.453-0.791
			s0.469-0.264,0.791-0.264c0.371,0,0.687,0.12,0.945,0.359s0.389,0.544,0.389,0.916c0,0.166-0.018,0.43-0.052,0.791
			s-0.052,0.635-0.052,0.82l0.016,1.67l1.098,0.044c0.195,0,0.494-0.012,0.895-0.037s0.697-0.037,0.893-0.037
			C53.522,14.788,54.323,15.247,54.323,16.165z"/>
	</g>
	<circle fill="none" stroke="#FA373A" stroke-miterlimit="10" cx="48.167" cy="16.084" r="15.5"/>
</g>
<g>
	<circle fill="none" stroke="#FA373A" stroke-miterlimit="10" cx="16.167" cy="16.084" r="15.5"/>
	<g>
		<path fill="#FA373A" d="M19.749,17.124c-1.328,0.137-3.692,0.205-7.09,0.205c-0.82,0-1.23-0.381-1.23-1.143s0.41-1.143,1.23-1.143
			c0.771,0,1.929-0.034,3.472-0.103c1.542-0.068,2.701-0.103,3.472-0.103c0.869,0,1.303,0.381,1.303,1.143
			C20.905,16.655,20.52,17.036,19.749,17.124z"/>
	</g>
</g>
</svg>
