<?xml version="1.0" encoding="utf-8"?>
<!-- Generator: Adobe Illustrator 16.0.0, SVG Export Plug-In . SVG Version: 6.00 Build 0)  -->
<!DOCTYPE svg PUBLIC "-//W3C//DTD SVG 1.1//EN" "http://www.w3.org/Graphics/SVG/1.1/DTD/svg11.dtd">
<svg version="1.1" id="Layer_1" xmlns="http://www.w3.org/2000/svg" xmlns:xlink="http://www.w3.org/1999/xlink" x="0px" y="0px"
	 width="53.333px" height="49.167px" viewBox="0 0 53.333 49.167" enable-background="new 0 0 53.333 49.167" xml:space="preserve">
<path display="none" fill="#CDCDCA" d="M19.488,98.753c-0.065-0.195-0.131-0.455-0.131-0.652c0-0.458,0.196-0.915,0.653-1.371
	l23.776-21.229c0.326-0.262,0.653-0.394,0.916-0.394l0.914,0.394L69.327,96.73c0.457,0.393,0.651,0.85,0.651,1.371
	c0,0.197-0.063,0.457-0.131,0.652c-0.261,0.72-0.915,1.111-1.827,1.111h-3.788v21.358H50.058v-12.868
	c0-0.721-0.589-1.238-1.243-1.238h-8.164c-0.719,0-1.242,0.586-1.242,1.238v12.868H25.105V99.865h-3.789
	C20.402,99.865,19.814,99.473,19.488,98.753z"/>
<path display="none" fill="none" stroke="#CDCDCA" stroke-width="0.6498" stroke-miterlimit="10" d="M19.488,98.753
	c-0.065-0.194-0.131-0.455-0.131-0.651c0-0.459,0.196-0.915,0.653-1.372l23.776-21.229c0.326-0.262,0.653-0.394,0.916-0.394
	l0.914,0.394L69.327,96.73c0.457,0.393,0.651,0.85,0.651,1.372c0,0.196-0.063,0.457-0.131,0.651
	c-0.261,0.72-0.915,1.111-1.827,1.111h-3.788v21.358H50.058v-12.867c0-0.722-0.589-1.241-1.243-1.241h-8.164
	c-0.719,0-1.242,0.588-1.242,1.241v12.867H25.105V99.865h-3.789C20.402,99.865,19.814,99.473,19.488,98.753z"/>
<g id="Your_Icon" display="none">
	<path display="inline" fill="none" stroke="#CDCDCA" stroke-width="0.6498" stroke-miterlimit="10" d="M61.477,110.791
		c0,0-4.061,0.281-8.361,0.521c-1.6-1.793-1.382-6.299-1.18-8.412c1.676-1.846,3.156-4.189,4.034-6.848
		c0.091,0.146,0.192,0.275,0.329,0.348c1.5,0.826,1.127-2.552,1.199-3.977c0.072-1.426,1.127-3.301,0-3.301
		c-0.306,0-0.526,0.045-0.699,0.107c-0.207-8.146-2.155-14.49-11.98-14.49c-10.463,0-11.867,6.432-11.994,14.654
		c-0.164-0.145-0.455-0.271-0.986-0.271c-1.127,0-0.074,1.875,0,3.301c0.074,1.425-0.299,4.803,1.201,3.977
		c0.222-0.122,0.371-0.361,0.476-0.67c0.802,2.715,2.221,5.116,3.866,7.016c0.209,2.031,0.48,6.713-1.15,8.555
		c-4.322-0.234-8.368-0.51-8.368-0.51c-3.979,0-7.204,3.225-7.204,7.201v3.602H68.68v-3.602
		C68.68,114.016,65.454,110.791,61.477,110.791z"/>
</g>
<g id="Your_Icon_1_" display="none">
	<path display="inline" fill="#CDCDCA" d="M61.477,110.791c0,0-4.061,0.281-8.361,0.521c-1.6-1.793-1.382-6.299-1.18-8.412
		c1.676-1.844,3.156-4.189,4.034-6.85c0.091,0.148,0.192,0.277,0.329,0.35c1.5,0.826,1.127-2.553,1.199-3.977
		c0.072-1.426,1.127-3.301,0-3.301c-0.306,0-0.526,0.045-0.699,0.107c-0.207-8.146-2.155-14.49-11.98-14.49
		c-10.463,0-11.867,6.432-11.994,14.654c-0.164-0.145-0.455-0.271-0.986-0.271c-1.127,0-0.074,1.875,0,3.301
		c0.074,1.424-0.299,4.803,1.201,3.977c0.222-0.121,0.371-0.361,0.476-0.67c0.802,2.715,2.221,5.115,3.866,7.016
		c0.209,2.031,0.48,6.713-1.15,8.555c-4.322-0.234-8.368-0.512-8.368-0.512c-3.979,0-7.204,3.227-7.204,7.203v3.602H68.68v-3.602
		C68.68,114.016,65.454,110.791,61.477,110.791z"/>
</g>
<path fill="none" stroke="#EE929F" stroke-width="0.6498" stroke-miterlimit="10" d="M45.099,21.097H30.154V6.152
	c0-2.192-1.567-3.985-3.486-3.985c-1.918,0-3.488,1.792-3.488,3.985v14.945H8.234c-2.192,0-3.985,1.569-3.985,3.487
	c0,1.917,1.793,3.486,3.985,3.486h14.945v14.944c0,2.192,1.568,3.985,3.486,3.985c1.917,0,3.487-1.793,3.487-3.985V28.071h14.946
	c2.191,0,3.984-1.567,3.984-3.486C49.083,22.667,47.292,21.097,45.099,21.097z"/>
<path display="none" fill="#CDCDCA" d="M37.599-35.652H22.654v-14.944c0-2.193-1.568-3.986-3.486-3.986s-3.487,1.793-3.487,3.986
	v14.944H0.734c-2.192,0-3.985,1.569-3.985,3.485c0,1.92,1.793,3.488,3.985,3.488h14.945v14.947c0,2.189,1.568,3.982,3.486,3.982
	s3.487-1.793,3.487-3.982v-14.945h14.946c2.191,0,3.984-1.567,3.984-3.488C41.583-34.083,39.792-35.652,37.599-35.652z"/>
<g display="none">
	<path display="inline" fill="none" stroke="#CDCDCA" stroke-width="0.6498" stroke-miterlimit="10" d="M-32.227,3.33
		c0-1.345-1.356-2.492-1.688-3.73c-0.342-1.282,0.248-2.952-0.4-4.075c-0.658-1.14-2.406-1.457-3.33-2.382
		c-0.925-0.924-1.243-2.672-2.383-3.33c-1.124-0.65-2.794-0.061-4.075-0.402c-1.239-0.33-2.387-1.688-3.729-1.688
		c-1.344,0-2.49,1.357-3.73,1.688c-1.281,0.344-2.952-0.248-4.075,0.401c-1.139,0.657-1.458,2.405-2.382,3.331
		c-0.924,0.924-2.672,1.242-3.332,2.382c-0.648,1.122-0.059,2.793-0.4,4.074c-0.33,1.239-1.688,2.388-1.688,3.729
		c0,1.344,1.355,2.491,1.688,3.73c0.344,1.281-0.248,2.951,0.4,4.074c0.66,1.14,2.408,1.457,3.332,2.382
		c0.896,0.896,2.04,2.842,2.04,2.842c0.136,0.229,0.319,0.213,0.411-0.037l0.58-1.595l0.58-1.594
		c0.062-0.176,0.045-0.408-0.034-0.602c-2.86-2.062-4.731-5.414-4.731-9.201c0-6.256,5.088-11.344,11.342-11.344
		c6.256,0,11.345,5.088,11.345,11.344c0,3.787-1.872,7.141-4.733,9.201c-0.078,0.192-0.099,0.424-0.033,0.602l0.58,1.594l0.58,1.595
		c0.09,0.25,0.275,0.267,0.411,0.037c0,0,1.144-1.944,2.04-2.841c0.924-0.924,2.672-1.243,3.33-2.383
		c0.648-1.123,0.059-2.793,0.4-4.074C-33.583,5.819-32.227,4.673-32.227,3.33z"/>
	<path display="inline" fill="none" stroke="#CDCDCA" stroke-width="0.6498" stroke-miterlimit="10" d="M-41.667,15.201
		l-0.539-1.482c-0.08-0.221-0.303-0.327-0.521-0.277c-0.912,0.461-1.895,0.796-2.927,0.997c-0.228,0.097-0.456,0.312-0.536,0.53
		l-0.448,1.232l-0.448,1.233c-0.092,0.249-0.096,0.646-0.01,0.884c0.088,0.237,0.232,0.635,0.323,0.887l5.112,14.048
		c0.092,0.25,0.259,0.256,0.371,0.017l3.279-7.026c0.111-0.242,0.129-0.646,0.038-0.896l-2.823-7.758
		c-0.045-0.123-0.105-0.289-0.166-0.453l0,0L-41.667,15.201z"/>
	<path display="inline" fill="none" stroke="#CDCDCA" stroke-width="0.6498" stroke-miterlimit="10" d="M-48.27,17.488
		c0.032-0.09,0.074-0.203,0.118-0.32l0.027-0.076l0.021-0.065c0.045-0.12,0.089-0.239,0.122-0.334
		c0.081-0.219,0.222-0.604,0.312-0.854l0.271-0.783c0.062-0.17,0.028-0.316-0.062-0.398c-0.123,0.01-0.248,0.018-0.373,0.018
		c-0.203,0-0.4-0.021-0.601-0.03c-0.198-0.013-0.399-0.015-0.593-0.035c-0.208-0.021-0.41-0.062-0.615-0.094
		c-1.176-0.188-2.288-0.56-3.314-1.081c-0.211-0.04-0.424,0.066-0.502,0.279l-1.246,3.425h-0.002
		c-0.06,0.163-0.119,0.329-0.164,0.452l-2.823,7.758c-0.091,0.25-0.073,0.651,0.039,0.896l3.278,7.027
		c0.112,0.239,0.279,0.232,0.369-0.018l5.113-14.048c0.092-0.25,0.236-0.648,0.323-0.887l0.086-0.234
		C-48.41,17.876-48.326,17.645-48.27,17.488z"/>
	<path display="inline" fill="none" stroke="#CDCDCA" stroke-width="0.6498" stroke-miterlimit="10" d="M-50.074,13.326
		c0.203,0.047,0.412,0.08,0.621,0.113c0.203,0.032,0.406,0.068,0.613,0.09c0.33,0.031,0.666,0.051,1.006,0.051
		c0.338,0,0.674-0.02,1.006-0.051c0.207-0.021,0.408-0.058,0.613-0.09c0.209-0.033,0.416-0.066,0.621-0.113
		c1.012-0.228,1.967-0.604,2.842-1.105c0.162-0.094,0.319-0.188,0.476-0.29c0.157-0.103,0.312-0.212,0.464-0.322
		c2.557-1.866,4.229-4.877,4.229-8.278c0-5.654-4.599-10.252-10.252-10.252c-5.651,0-10.25,4.598-10.25,10.252
		c0,3.401,1.672,6.412,4.229,8.278c0.151,0.11,0.306,0.222,0.464,0.322c0.154,0.103,0.312,0.196,0.475,0.29
		C-52.041,12.722-51.087,13.1-50.074,13.326z"/>
</g>
<g display="none">
	<path display="inline" fill="#CDCDCA" d="M-33.477,60.578c0-1.344-1.356-2.49-1.688-3.729c-0.342-1.283,0.248-2.953-0.4-4.076
		c-0.658-1.139-2.406-1.457-3.33-2.381c-0.925-0.924-1.243-2.672-2.383-3.332c-1.124-0.648-2.794-0.059-4.075-0.4
		c-1.239-0.332-2.387-1.688-3.729-1.688c-1.344,0-2.49,1.355-3.73,1.688c-1.281,0.344-2.952-0.248-4.075,0.4
		c-1.139,0.658-1.458,2.408-2.382,3.332c-0.924,0.922-2.672,1.242-3.332,2.381c-0.648,1.123-0.059,2.793-0.4,4.076
		c-0.33,1.238-1.688,2.385-1.688,3.729s1.355,2.49,1.688,3.729c0.344,1.282-0.248,2.952,0.4,4.075
		c0.66,1.141,2.408,1.457,3.332,2.382c0.896,0.896,2.04,2.843,2.04,2.843c0.136,0.229,0.319,0.212,0.411-0.038l0.58-1.594
		l0.58-1.595c0.062-0.176,0.045-0.408-0.034-0.602c-2.86-2.062-4.731-5.414-4.731-9.201c0-6.256,5.088-11.344,11.342-11.344
		c6.256,0,11.345,5.088,11.345,11.344c0,3.787-1.872,7.141-4.733,9.201c-0.078,0.191-0.099,0.424-0.033,0.602l0.58,1.595l0.58,1.594
		c0.09,0.25,0.275,0.271,0.411,0.038c0,0,1.144-1.943,2.04-2.842c0.924-0.926,2.672-1.243,3.33-2.383
		c0.648-1.123,0.059-2.795,0.4-4.075C-34.833,63.068-33.477,61.921-33.477,60.578z"/>
	<path display="inline" fill="#CDCDCA" d="M-42.917,72.449l-0.539-1.48c-0.08-0.223-0.303-0.326-0.521-0.276
		c-0.912,0.46-1.895,0.795-2.927,0.997c-0.228,0.098-0.456,0.312-0.536,0.529l-0.448,1.232l-0.448,1.233
		c-0.092,0.249-0.096,0.646-0.01,0.884c0.088,0.237,0.232,0.635,0.323,0.887l5.112,14.049c0.092,0.25,0.259,0.256,0.371,0.017
		l3.279-7.026c0.111-0.242,0.129-0.646,0.038-0.896l-2.823-7.759c-0.045-0.125-0.105-0.289-0.166-0.453l0,0L-42.917,72.449z"/>
	<path display="inline" fill="#CDCDCA" d="M-49.52,74.738c0.032-0.09,0.074-0.203,0.118-0.32l0.027-0.078l0.021-0.062
		c0.045-0.122,0.089-0.24,0.122-0.334c0.081-0.219,0.222-0.604,0.312-0.854l0.271-0.785c0.062-0.168,0.028-0.314-0.062-0.395
		c-0.123,0.006-0.248,0.014-0.373,0.014c-0.203,0-0.4-0.021-0.601-0.029c-0.198-0.012-0.399-0.014-0.593-0.034
		c-0.208-0.021-0.41-0.062-0.615-0.094c-1.176-0.19-2.288-0.56-3.314-1.082c-0.211-0.04-0.424,0.067-0.502,0.28l-1.246,3.425h-0.002
		c-0.06,0.163-0.119,0.329-0.164,0.452l-2.823,7.758c-0.091,0.25-0.073,0.652,0.039,0.895l3.278,7.028
		c0.112,0.241,0.279,0.233,0.369-0.017l5.113-14.049c0.092-0.25,0.236-0.648,0.323-0.888l0.086-0.233
		C-49.66,75.126-49.576,74.895-49.52,74.738z"/>
	<path display="inline" fill="#CDCDCA" d="M-51.324,70.576c0.203,0.047,0.412,0.08,0.621,0.112c0.203,0.032,0.406,0.069,0.613,0.091
		c0.33,0.031,0.666,0.051,1.006,0.051c0.338,0,0.674-0.02,1.006-0.051c0.207-0.021,0.408-0.059,0.613-0.091
		c0.209-0.032,0.416-0.065,0.621-0.112c1.012-0.228,1.967-0.604,2.842-1.104c0.162-0.095,0.319-0.188,0.476-0.29
		c0.157-0.104,0.312-0.213,0.464-0.323c2.557-1.864,4.229-4.877,4.229-8.276c0-5.654-4.599-10.252-10.252-10.252
		c-5.651,0-10.25,4.598-10.25,10.252c0,3.399,1.672,6.412,4.229,8.276c0.151,0.11,0.306,0.222,0.464,0.323
		c0.154,0.104,0.312,0.195,0.475,0.29C-53.291,69.972-52.337,70.349-51.324,70.576z"/>
</g>
</svg>
