<?xml version="1.0" encoding="utf-8"?>
<!-- Generator: Adobe Illustrator 16.0.0, SVG Export Plug-In . SVG Version: 6.00 Build 0)  -->
<!DOCTYPE svg PUBLIC "-//W3C//DTD SVG 1.1//EN" "http://www.w3.org/Graphics/SVG/1.1/DTD/svg11.dtd">
<svg version="1.1" id="Layer_1" xmlns="http://www.w3.org/2000/svg" xmlns:xlink="http://www.w3.org/1999/xlink" x="0px" y="0px"
	 width="41px" height="41.333px" viewBox="24.5 16.5 41 41.333" enable-background="new 24.5 16.5 41 41.333" xml:space="preserve">
<rect x="26.5" y="17.667" fill="#FFFFFF" width="37.5" height="29.5"/>
<g>
	<circle fill="#2B374A" cx="51.756" cy="32.024" r="5.386"/>
	<path fill="#2B374A" d="M63.327,17.111H26.894c-0.947,0-1.746,0.798-1.746,1.746v36.51c0,0.947,0.798,1.745,1.746,1.745h36.434
		c0.948,0,1.746-0.798,1.746-1.745v-36.51C65.073,17.859,64.275,17.111,63.327,17.111z M63.428,45.44
		c0,0.499-0.399,0.897-0.898,0.897h-5.387v-2.494c0-2.942-2.394-5.336-5.336-5.336h-0.1c-2.942,0-5.337,2.394-5.337,5.336v2.494
		h-1.595v-5.187c0-2.942-2.395-5.336-5.337-5.336h-0.1c-2.942,0-5.336,2.394-5.336,5.336v5.138h-6.31
		c-0.499,0-0.897-0.399-0.897-0.898V19.306c0-0.499,0.399-0.898,0.897-0.898h34.888c0.499,0,0.898,0.399,0.898,0.898V45.44H63.428z"
		/>
	<circle fill="#2B374A" cx="39.388" cy="28.632" r="5.386"/>
</g>
</svg>
