<?xml version="1.0" encoding="utf-8"?>
<!-- Generator: Adobe Illustrator 16.0.0, SVG Export Plug-In . SVG Version: 6.00 Build 0)  -->
<!DOCTYPE svg PUBLIC "-//W3C//DTD SVG 1.1//EN" "http://www.w3.org/Graphics/SVG/1.1/DTD/svg11.dtd">
<svg version="1.1" id="Calque_1" xmlns="http://www.w3.org/2000/svg" xmlns:xlink="http://www.w3.org/1999/xlink" x="0px" y="0px"
	 width="96px" height="32px" viewBox="0 0 96 32" enable-background="new 0 0 96 32" xml:space="preserve">
<g>
	<path fill="#5EAADE" d="M48,0.001c-8.837,0-16,7.165-16,15.999c0,8.837,7.163,15.999,16,15.999c8.838,0,16-7.162,16-15.999
		C64,7.166,56.837,0.001,48,0.001z"/>
	<path fill="#FFFFFF" d="M56.06,12.774c0.011,0.172,0.013,0.347,0.013,0.521c0,5.329-4.055,11.472-11.473,11.472
		c-2.275,0-4.396-0.667-6.181-1.811c0.314,0.036,0.636,0.057,0.961,0.057c1.891,0,3.629-0.646,5.009-1.727
		c-1.766-0.033-3.254-1.199-3.767-2.801c0.245,0.049,0.498,0.071,0.758,0.071c0.369,0,0.725-0.048,1.062-0.141
		c-1.845-0.37-3.235-2.002-3.235-3.953c0-0.017,0-0.034,0.001-0.053c0.543,0.303,1.165,0.483,1.827,0.506
		c-1.083-0.725-1.795-1.957-1.795-3.356c0-0.739,0.199-1.433,0.546-2.027c1.99,2.438,4.96,4.045,8.312,4.212
		c-0.068-0.293-0.104-0.604-0.104-0.919c0-2.226,1.806-4.03,4.032-4.03c1.161,0,2.208,0.489,2.944,1.271
		c0.918-0.18,1.78-0.517,2.56-0.977c-0.304,0.94-0.94,1.73-1.773,2.229c0.816-0.096,1.593-0.313,2.316-0.634
		C57.532,11.496,56.848,12.206,56.06,12.774z"/>
</g>
<g>
	<path fill="#3B5999" d="M16,0C7.164,0,0,7.166,0,16.001C0,24.837,7.164,32,16,32c8.836,0,16-7.163,16-15.999
		C32,7.166,24.836,0,16,0z"/>
	<path fill="#FFFFFF" d="M20.234,15.934h-2.771c0,4.427,0,9.88,0,9.88h-4.107c0,0,0-5.396,0-9.88h-1.953v-3.487h1.953v-2.262
		c0-1.618,0.768-4.144,4.146-4.144l3.04,0.013v3.389c0,0-1.849,0-2.207,0c-0.36,0-0.87,0.179-0.87,0.949v2.056h3.128L20.234,15.934z
		"/>
</g>
<g>
	<path fill="#FFFDFD" d="M93,16.2C93,22.717,87.717,28,81.2,28h-2.4C72.283,28,67,22.717,67,16.2v-0.4C67,9.283,72.283,4,78.8,4h2.4
		C87.717,4,93,9.283,93,15.8V16.2z"/>
	<g>
		<polygon fill="#5085A5" points="86.604,12.498 86.604,9.933 86.604,9.55 86.221,9.551 83.656,9.561 83.666,12.507 		"/>
		<path fill="#5085A5" d="M79.92,19.305c1.688,0,3.062-1.374,3.062-3.061c0-0.667-0.217-1.283-0.58-1.786
			c-0.555-0.771-1.46-1.276-2.482-1.276c-1.021,0-1.924,0.506-2.481,1.276c-0.363,0.503-0.578,1.12-0.578,1.786
			C76.86,17.931,78.232,19.305,79.92,19.305z"/>
		<path fill="#5085A5" d="M80.001,0C71.164,0,64,7.163,64,15.999C64,24.836,71.164,32,80.001,32C88.836,32,96,24.836,96,15.999
			C96,7.163,88.835,0,80.001,0z M88.618,14.458v7.122c0,1.854-1.509,3.361-3.361,3.361H74.584c-1.854,0-3.361-1.508-3.361-3.361
			v-7.122v-3.55c0-1.854,1.507-3.361,3.361-3.361h10.673c1.853,0,3.361,1.506,3.361,3.361V14.458z"/>
		<path fill="#5085A5" d="M84.677,16.244c0,2.621-2.133,4.756-4.757,4.756c-2.622,0-4.755-2.135-4.755-4.756
			c0-0.632,0.126-1.234,0.35-1.786h-2.597v7.122c0,0.919,0.747,1.666,1.666,1.666h10.673c0.919,0,1.666-0.747,1.666-1.666v-7.122
			h-2.599C84.551,15.01,84.677,15.612,84.677,16.244z"/>
	</g>
</g>
</svg>
