<?xml version="1.0" encoding="utf-8"?>
<!-- Generator: Adobe Illustrator 16.0.0, SVG Export Plug-In . SVG Version: 6.00 Build 0)  -->
<!DOCTYPE svg PUBLIC "-//W3C//DTD SVG 1.1//EN" "http://www.w3.org/Graphics/SVG/1.1/DTD/svg11.dtd">
<svg version="1.1" id="Layer_1" xmlns="http://www.w3.org/2000/svg" xmlns:xlink="http://www.w3.org/1999/xlink" x="0px" y="0px"
	 width="200px" height="15px" viewBox="60 189 200 15" enable-background="new 60 189 200 15" xml:space="preserve">
<polygon fill="#77C8D9" points="60,189 60,201.999 70.856,189 "/>
<polygon fill="#2C374B" points="84.204,204 96.731,189 70.624,189 58.096,204 "/>
<polygon fill="#77C8D9" points="110.079,204 122.606,189 96.499,189 83.971,204 "/>
<polygon fill="#2C374B" points="135.954,204 148.481,189 122.374,189 109.846,204 "/>
<polygon fill="#77C8D9" points="161.829,204 174.356,189 148.249,189 135.721,204 "/>
<polygon fill="#2C374B" points="187.704,204 200.231,189 174.124,189 161.597,204 "/>
<polygon fill="#77C8D9" points="213.579,204 226.106,189 199.999,189 187.472,204 "/>
<polygon fill="#2C374B" points="239.454,204 251.981,189 225.874,189 213.347,204 "/>
<polygon fill="#77C8D9" points="260,204 260,189 251.749,189 239.222,204 "/>
</svg>
