<?xml version="1.0" encoding="utf-8"?>
<!-- Generator: Adobe Illustrator 16.0.0, SVG Export Plug-In . SVG Version: 6.00 Build 0)  -->
<!DOCTYPE svg PUBLIC "-//W3C//DTD SVG 1.1//EN" "http://www.w3.org/Graphics/SVG/1.1/DTD/svg11.dtd">
<svg version="1.1" id="Layer_1" xmlns="http://www.w3.org/2000/svg" xmlns:xlink="http://www.w3.org/1999/xlink" x="0px" y="0px"
	 width="320px" height="297px" viewBox="0 125.5 320 297" enable-background="new 0 125.5 320 297" xml:space="preserve">
<g>
	<path fill="none" stroke="#FFFFFF" stroke-width="14" stroke-miterlimit="10" d="M275.076,204.778
		c-0.401-0.961-0.764-1.96-1.194-2.899c-1.108-2.526-2.323-5.155-3.738-7.789c-2.735-5.257-5.97-10.516-9.609-15.574
		c-3.643-4.955-7.485-9.709-11.733-13.654c-2.025-2.023-4.046-4.05-5.968-5.87c-1.925-1.817-3.948-3.538-5.666-5.057
		c-0.911-0.81-1.823-1.518-2.63-2.223c-0.911-0.607-1.721-1.315-2.427-1.925c-1.519-1.21-2.832-2.325-3.948-3.234
		c-0.504-0.508-1.01-0.914-1.41-1.314c-0.406-0.407-0.81-0.811-1.013-1.115c-0.509-0.706-0.811-1.111-0.811-1.111
		s-0.202,0.406-0.708,1.213c-0.203,0.508-0.404,1.014-0.607,1.623c-0.202,0.604-0.402,1.414-0.502,2.221
		c-0.305,1.718-0.508,3.843-0.406,6.069c0,0.607,0.102,1.315,0.102,1.922c-4.249-2.429-8.499-4.656-12.746-6.47
		c-2.63-1.114-5.261-2.227-7.79-3.138c-2.525-0.911-4.955-1.718-7.18-2.427c-1.112-0.406-2.227-0.708-3.236-1.013
		c-1.01-0.302-2.025-0.607-2.938-0.909c-1.916-0.606-3.637-1.114-4.952-1.518c-0.709-0.203-1.314-0.403-1.823-0.609
		c-0.604-0.197-1.111-0.401-1.411-0.604c-0.714-0.403-1.217-0.708-1.217-0.708s-0.101,0.504-0.202,1.416
		c-0.102,0.505-0.102,1.011,0,1.719s0.202,1.518,0.404,2.325c0.406,1.62,1.114,3.643,2.026,5.664
		c0.908,2.023,2.124,4.25,3.538,6.473c0.605,0.915,1.215,1.82,1.921,2.731c-0.81-0.505-1.616-0.911-2.43-1.315
		c-3.029-1.515-6.372-2.83-9.809-4.145c-3.439-1.315-18.611-4.349-22.559-4.754c-1.921-0.102-18.813-0.003-20.432,0.102
		c-3.135,0-34.185,4.213-35.197,4.115c-1.011,0-2.588-0.777,0.81,1.858c1.509,1.171,2.429,3.287,4.247,5.208
		c1.823,1.924,4.046,3.819,6.575,5.74c1.214,1.013,2.633,1.854,4.046,2.767c0.508,0.302,1.112,0.676,1.721,0.978
		c-0.304,0.206-0.504,0.39-0.71,0.593c-2.932-0.102-5.965-0.015-9.001,0.084c-1.922,0.104-3.942,0.205-5.864,0.405l-2.43,0.305
		c-0.912,0.102-1.82,0.203-2.731,0.302c-0.909,0.102-1.718,0.2-2.426,0.302c-0.81,0.104-1.62,0.206-2.328,0.306
		c-1.516,0.301-3.136,0.406-4.651,0.708c-3.135,0.505-6.171,1.013-9.004,1.516c-2.932,0.508-5.765,1.013-8.293,1.419
		c-2.63,0.404-5.054,0.808-7.281,1.213c-2.226,0.302-16.536-2.955-16.03-2.046c0.403,0.914,6.422,7.001,7.635,8.52
		c1.213,1.515,2.932,3.135,4.955,4.854c2.023,1.617,4.45,3.338,7.284,4.854c0.706,0.304,1.314,0.711,2.023,1.013
		c-1.013,0.404-2.125,0.808-3.135,1.213c-2.629,1.007-5.26,2.122-7.687,3.237c-2.429,1.112-4.653,2.325-6.78,3.335
		c-1.112,0.607-11.53,6.171-12.035,6.375c-0.505,0.203-2.729,0.81-2.729,0.81s0.2,0.406,0.808,1.112
		c0.301,0.406,0.708,0.81,1.213,1.216c0.609,0.403,1.213,0.909,1.922,1.315c1.518,0.911,3.338,1.82,5.463,2.63
		c2.125,0.807,4.551,1.414,7.181,2.023c1.922,0.403,3.948,0.706,5.969,0.912c-0.102,0-0.102,0.098-0.204,0.098
		c-4.754,3.542-9.408,7.585-13.857,11.937c-4.448,4.348-8.494,9.001-12.036,13.55c-1.823,2.328-3.437,4.552-4.955,6.775
		c-1.518,2.224-2.935,4.352-4.147,6.372c-0.61,1.013-1.115,2.023-1.719,2.937c-0.508,1.011-1.016,1.922-1.519,2.731
		c-1.013,1.722-1.82,3.237-2.632,4.45c-0.401,0.607-0.807,1.112-1.109,1.617c-0.305,0.508-0.61,0.912-0.912,1.216
		c-0.505,0.607-0.912,0.909-0.912,0.909s0.406,0.304,1.318,0.606c0.505,0.206,1.01,0.305,1.719,0.404
		c0.708,0.104,1.515,0.203,2.325,0.203c1.719,0,3.742-0.203,5.966-0.606c2.229-0.403,4.656-1.008,7.184-1.922
		c0.403-0.2,0.909-0.302,1.315-0.504c-1.01,1.312-1.922,2.632-2.833,4.046c-1.922,2.93-3.539,6.065-5.057,9.304
		c-1.318,3.24-2.63,6.573-3.643,9.91c-0.909,3.34-1.617,6.776-2.123,10.016c-0.406,3.332-0.607,6.577-0.607,9.613
		c0,3.13,0.305,6.066,0.706,8.692c0.407,2.635,0.81,5.056,1.521,7.286c0.706,2.223,1.414,4.144,2.021,5.659
		c1.213,3.137,2.328,4.859,2.328,4.859s1.62-1.416,3.745-3.948c1.109-1.212,2.323-2.729,3.638-4.446
		c1.216-1.719,2.633-3.641,4.148-5.666c1.417-2.021,2.833-4.244,4.25-6.573c0.25-0.367,0.483-0.773,0.728-1.151
		c-0.662,2.684-1.274,5.396-1.741,8.13c-0.81,3.443-1.314,6.979-1.721,10.416c-0.505,3.438-0.908,6.774-1.109,10.119
		c-0.203,3.333-0.508,6.468-0.508,9.504c-0.101,3.036,0.102,5.869,0.102,8.5c0.102,2.524,0.203,4.853,0.406,6.873
		c0.403,3.948,0.906,6.375,0.906,6.375s2.229-1.012,5.564-3.24c1.722-1.108,3.644-2.427,5.765-4.146
		c2.227-1.619,4.25-3.738,6.477-6.065c1.998-2.094,4.062-4.465,6.003-7.046c0.123,0.688,0.242,1.417,0.365,2.086
		c0.711,3.845,1.521,7.386,2.328,10.521c0.808,3.134,1.62,5.967,2.329,8.289c1.414,4.656,2.629,7.287,2.629,7.287
		s1.818-2.328,4.248-6.578c1.215-2.12,2.632-4.649,4.046-7.681c0.515-1.104,1.035-2.301,1.553-3.492
		c0.225,0.626,0.448,1.257,0.673,1.871c1.617,4.146,3.738,7.989,5.864,11.53c2.023,3.641,4.65,6.776,7.082,9.609
		c2.526,2.728,4.953,5.254,7.484,7.279c2.528,2.026,4.857,3.641,6.88,4.959c2.021,1.312,3.739,2.223,4.952,2.833
		c1.216,0.604,1.924,0.906,1.924,0.906s0.404-0.703,1.014-1.923c0.703-1.312,1.515-3.035,2.427-5.259
		c0.908-2.219,1.918-4.755,2.83-7.583c0.81-2.833,2.125-5.962,2.934-9.208c0.505-1.816,1.014-3.738,1.417-5.764
		c0.201,0.812,0.403,1.724,0.708,2.63c1.312,4.349,2.729,8.498,4.146,12.139c1.416,3.64,2.729,6.874,3.945,9.609
		c1.216,2.728,2.325,4.956,3.135,6.473c0.404,0.708,0.81,1.317,1.013,1.724s0.302,0.604,0.302,0.604s0.204-0.099,0.505-0.406
		c0.303-0.301,0.912-0.709,1.516-1.312c1.318-1.115,3.138-2.729,5.259-4.958c2.128-2.224,4.555-4.958,7.083-8.198
		c2.427-3.232,4.955-6.973,7.381-11.117c1.217-2.13,2.529-4.25,3.644-6.578c1.111-2.327,2.225-4.65,3.237-7.175
		c0.909-2.131,1.82-4.454,2.627-6.781c2.23,1.921,4.558,3.535,6.979,4.749c3.341,1.724,6.678,2.733,9.813,3.344
		c3.138,0.604,5.968,0.604,8.496,0.4c1.316-0.197,2.531-0.4,3.542-0.603c1.114-0.204,2.021-0.506,2.933-0.813
		c3.441-1.214,5.157-2.729,5.157-2.729s-1.518-1.619-3.539-4.145c-0.504-0.609-1.114-1.22-1.618-2.026
		c-0.604-0.708-1.112-1.516-1.72-2.322c-1.115-1.62-2.327-3.344-3.338-5.16c-2.125-3.642-8.926-7.386-10.441-11.131
		c-0.812-1.817-10.543-14.259-10.543-14.259v-0.103c0,0.713,5.178,0.308,5.178,0.308s1.026-4.552,0.62-5.865
		c-0.404-1.317,0.359-2.636-0.144-3.947c-0.408-1.312-0.273-2.531-0.782-3.844c-0.505-1.108-0.593-2.223-0.997-3.337
		c-0.202-2.021-0.35-4.152-0.753-6.271c-0.173-1.982-0.541-3.947-0.927-5.87c0.536,0.028,1.128,0.104,1.654,0.104
		c2.528,0,4.771-0.104,6.896-0.511c2.022-0.301,3.955-0.807,5.475-1.312c1.488-0.395,2.789-0.987,3.6-1.295
		c0.979,2.307,17.078,38.037,70.146,17.481c0,0-15.779-5.26-18.611-12.952c-2.834-7.681-1.516-5.358,0.405-16.082
		c2.194-12.124-0.46-18.94-5.287-22.492c0.058-0.085,0.115-0.17,0.172-0.258l0.672-0.669c10.582,19.006,24.442,11.321,32.056,25.243
		c7.686,14.062,6.574,33.58,4.348,48.953C354.157,262.137,282.332,209.223,275.076,204.778z"/>
	<g>
		<path fill="#2C374B" d="M14.196,272.827c0,0,0.401,0.3,1.3,0.599c0.5,0.204,0.999,0.301,1.699,0.4c0.7,0.103,1.5,0.2,2.3,0.2
			c1.7,0,3.699-0.2,5.899-0.6c2.203-0.399,4.603-0.996,7.102-1.899c0.401-0.2,0.899-0.299,1.3-0.5
			c-1.001,1.297-1.9,2.603-2.801,4.001c-1.899,2.897-3.5,6-5,9.2c-1.301,3.201-2.601,6.502-3.602,9.795
			c-0.9,3.305-1.599,6.705-2.099,9.905c-0.399,3.295-0.6,6.501-0.6,9.505c0,3.097,0.3,5.994,0.698,8.598
			c0.401,2.603,0.801,4.996,1.502,7.198c0.698,2.201,1.398,4.101,1.998,5.601c1.2,3.101,2.302,4.798,2.302,4.798
			s1.601-1.395,3.702-3.898c1.098-1.202,2.298-2.702,3.597-4.397c1.201-1.702,2.603-3.603,4.102-5.601c1.4-1.999,2.799-4.2,4.2-6.5
			c1.5-2.202,2.899-4.602,4.199-7.104c1.4-2.499,2.8-5.003,4.001-7.601c1.3-2.602,2.601-5.1,3.7-7.796
			c1.3-2.607,2.302-5.304,3.4-7.906c1.1-2.497,2.001-5.298,3.001-7.796c0.499-1.302,0.9-2.603,1.299-3.903
			c0.501-1.302,0.901-2.497,1.3-3.798c0.6-2.099,1.2-4.102,1.801-6.1c7.599,24.503,38.903,41.001,88.604,65.604
			c-1.2-41.404,23.901-33.206,25.401-37.303l5.201,0.396l21.004,3.103l71.306-71.202c2.498,0.898,4.098,1.3,4.098,1.3
			s-0.1-1.9-0.601-4.799l4.101-4.102l-8.601-12.001c-0.5-1.103-0.9-2.302-1.402-3.402c-1.099-2.497-2.298-5.098-3.698-7.7
			c-2.701-5.199-5.902-10.399-9.502-15.398c-3.598-4.9-7.397-9.602-11.599-13.501c-2-2.001-4.001-4.004-5.901-5.804
			c-1.899-1.796-3.903-3.499-5.603-4.999c-0.9-0.802-1.799-1.502-2.598-2.2c-0.9-0.599-1.702-1.299-2.401-1.902
			c-1.5-1.197-2.797-2.298-3.901-3.198c-0.499-0.502-0.999-0.903-1.397-1.299c-0.401-0.402-0.799-0.8-0.999-1.103
			c-0.506-0.697-0.802-1.099-0.802-1.099s-0.201,0.402-0.703,1.199c-0.2,0.502-0.396,1.002-0.595,1.604
			c-0.2,0.598-0.402,1.397-0.5,2.197c-0.3,1.699-0.5,3.799-0.401,6c0,0.601,0.102,1.3,0.102,1.9
			c-4.201-2.402-8.402-4.604-12.603-6.397c-2.603-1.103-5.203-2.2-7.701-3.102c-2.501-0.901-4.899-1.7-7.099-2.4
			c-1.102-0.402-2.204-0.7-3.204-1.001c-0.995-0.298-1.998-0.6-2.901-0.897c-1.897-0.6-3.597-1.103-4.897-1.502
			c-0.701-0.201-1.302-0.398-1.802-0.603c-0.599-0.195-1.097-0.396-1.396-0.597c-0.703-0.398-1.203-0.7-1.203-0.7
			s-0.098,0.5-0.2,1.4c-0.099,0.5-0.099,0.999,0,1.699c0.103,0.7,0.2,1.502,0.401,2.299c0.4,1.602,1.098,3.602,2.001,5.6
			c0.897,2,2.101,4.202,3.5,6.401c0.599,0.903,1.199,1.798,1.9,2.699c-0.799-0.5-1.601-0.901-2.402-1.3
			c-2.998-1.499-6.301-2.799-9.698-4.099c-3.399-1.3-7.104-2.104-10.804-3.002c-3.697-0.896-7.598-1.297-11.499-1.699
			c-1.9-0.101-3.9-0.299-5.8-0.399l-2.401-0.103c-0.9,0-1.8,0-2.7,0c-1,0-1.8,0-2.501,0c-0.797,0-1.5,0-2.299,0
			c-1.5,0.103-3.099,0-4.7,0.103c-3.099,0-6.1,0.1-9,0.202c-2.902,0.097-5.703,0.198-8.301,0.298
			c-2.599,0.098-5.001,0.098-7.298,0.2c-2.203,0-4.202,0-5.901,0c-1.701,0-3.101-0.103-4.102-0.2c-1,0-1.501-0.201-1.501-0.201
			c-0.1,0-0.1,0.603,0.3,1.601c0.4,0.999,1.002,2.402,2,3.999c1.002,1.601,2.402,3.501,4.2,5.401c1.8,1.904,4.001,3.904,6.5,5.804
			c1.2,1.002,2.601,1.896,4.001,2.801c0.5,0.298,1.1,0.697,1.701,0.996c-0.3,0.204-0.5,0.401-0.701,0.603
			c-2.899-0.102-5.9,0-8.9,0.097c-1.9,0.103-3.9,0.204-5.799,0.402l-2.401,0.3c-0.902,0.101-1.8,0.201-2.702,0.298
			c-0.898,0.102-1.699,0.199-2.398,0.299c-0.8,0.103-1.602,0.203-2.302,0.302c-1.499,0.297-3.099,0.4-4.599,0.7
			c-3.1,0.499-6.1,1-8.901,1.498c-2.899,0.502-5.7,1.002-8.201,1.404c-2.6,0.398-4.998,0.797-7.198,1.2
			c-2.203,0.298-4.202,0.6-5.899,0.797c-1.602,0.201-3.001,0.402-4.001,0.402c-0.999,0.101-1.5,0-1.5,0c0-0.103,0.1,0.6,0.601,1.498
			c0.399,0.904,1.3,2.202,2.5,3.702c1.2,1.499,2.899,3.101,4.899,4.8c2.001,1.598,4.401,3.3,7.202,4.799
			c0.698,0.3,1.298,0.703,1.998,1c-1,0.399-2.098,0.799-3.099,1.2c-2.6,0.997-5.2,2.099-7.6,3.201c-2.401,1.1-4.6,2.299-6.701,3.297
			c-1.101,0.601-2.102,1.102-3.003,1.602c-0.998,0.503-1.898,1.002-2.697,1.499c-1.701,0.903-3.201,1.802-4.5,2.402
			c-0.599,0.301-1.202,0.6-1.699,0.8c-0.5,0.201-1,0.399-1.401,0.5c-0.799,0.2-1.299,0.302-1.299,0.302s0.199,0.401,0.799,1.098
			c0.3,0.402,0.7,0.802,1.201,1.203c0.6,0.399,1.198,0.899,1.899,1.301c1.5,0.901,3.3,1.8,5.4,2.6c2.1,0.797,4.501,1.397,7.102,2
			c1.899,0.399,3.901,0.698,5.899,0.902c-0.1,0-0.1,0.097-0.2,0.097c-4.7,3.502-9.302,7.5-13.702,11.802
			c-4.398,4.299-8.399,8.9-11.899,13.398c-1.8,2.302-3.4,4.5-4.898,6.698c-1.503,2.199-2.903,4.302-4.103,6.3
			c-0.6,1-1.1,2-1.698,2.905c-0.502,0.998-1.004,1.899-1.501,2.7c-1.001,1.702-1.801,3.201-2.602,4.4
			c-0.399,0.6-0.799,1.1-1.099,1.598c-0.301,0.502-0.6,0.901-0.9,1.202C14.597,272.527,14.196,272.827,14.196,272.827z"/>
		<path fill="#77C8D9" d="M74.699,342.526c0.1,4.706,0.902,9.301,1.7,13.804c1,4.502,2.5,8.807,4.001,12.902
			c1.601,4.102,3.7,7.901,5.801,11.398c1.998,3.601,4.598,6.703,7,9.503c2.498,2.696,4.899,5.194,7.399,7.198
			c2.5,2.005,4.802,3.602,6.801,4.902c1.999,1.297,3.7,2.197,4.899,2.801c1.201,0.599,1.901,0.896,1.901,0.896s0.4-0.697,1-1.899
			c0.697-1.302,1.499-3.003,2.4-5.2c0.899-2.195,1.897-4.7,2.8-7.5c0.799-2.799,2.1-5.896,2.901-9.098
			c0.499-1.801,1-3.699,1.399-5.705c0.198,0.802,0.4,1.709,0.7,2.604c1.3,4.299,2.701,8.405,4.101,12.001
			c1.401,3.603,2.699,6.799,3.901,9.499c1.2,2.702,2.298,4.903,3.099,6.402c0.401,0.703,0.799,1.301,1,1.702
			c0.202,0.4,0.3,0.599,0.3,0.599s0.2-0.1,0.501-0.402c0.298-0.296,0.898-0.696,1.499-1.3c1.3-1.098,3.101-2.696,5.2-4.903
			c2.103-2.196,4.502-4.898,7.002-8.099c2.397-3.201,4.899-6.896,7.298-10.997c1.202-2.104,2.501-4.2,3.602-6.5
			c1.101-2.302,2.201-4.602,3.2-7.101c0.9-2.103,1.801-4.403,2.599-6.698c2.205,1.9,4.504,3.497,6.899,4.695
			c3.303,1.702,6.605,2.701,9.704,3.306c3.1,0.598,5.902,0.598,8.397,0.395c1.305-0.198,2.505-0.395,3.503-0.593
			c1.102-0.209,2.001-0.505,2.9-0.808c3.403-1.196,5.103-2.695,5.103-2.695s-1.501-1.604-3.503-4.102
			c-0.499-0.599-1.099-1.202-1.6-1.999c-0.6-0.702-1.099-1.498-1.7-2.3c-1.101-1.604-2.301-3.306-3.3-5.107
			c-2.103-3.596-3.802-7.296-5.299-10.996c-0.8-1.802-5.402-14.1-5.402-14.1v-0.104c0.201,0.702,0.099,0.302,0.099,0.302
			s-1.498-4.503-1.899-5.798c-0.397-1.303-0.9-2.604-1.397-3.903c-0.403-1.297-0.903-2.499-1.403-3.801
			c-0.502-1.098-0.899-2.196-1.3-3.3c-0.197-1.998-0.5-4.102-0.898-6.198c-0.202-2.301-0.802-4.601-1.199-6.803
			c-0.2-1.202-0.5-2.301-0.702-3.398c-0.198-1.098-0.398-2.201-0.698-3.306c-0.299-2.195-0.899-4.299-1.202-6.297l-0.297-1.493
			c0-0.506-0.102-1.006-0.203-1.505c-0.098-0.999-0.398-1.999-0.499-2.998c-0.398-2.004-0.599-4.002-1-6.104
			c-0.199-2.099-0.602-4.198-0.801-6.301c-0.198-1.797-0.398-3.398-0.599-5c3.201-3.802,6.901-7.603,11-11.098
			c4-3.401,8.197-6.605,12.4-9.604c0.903,0.503,1.902,1.002,2.8,1.499c2.001,1.303,4.099,2.202,6.201,3.401
			c2.101,1,4.2,2.1,6.298,3.102c2.104,0.897,4.102,1.899,6.103,2.697c2.101,0.802,3.9,1.602,5.7,2.202s3.397,1.2,4.801,1.599
			c1.399,0.402,2.602,0.704,3.4,0.901c0.8,0.202,1.3,0.299,1.3,0.299s0-0.496,0-1.296c-0.1-0.802,0-2.004-0.201-3.501
			c-0.099-1.502-0.299-3.301-0.799-5.201c-0.499-1.9-1.002-4.099-1.9-6.3c-0.9-2.198-1.899-4.599-3.299-6.899
			c-1.299-2.302-2.899-4.701-4.8-7c-0.202-0.302-0.5-0.697-0.801-1.002c1.202-0.697,2.401-1.397,3.498-1.997
			c4.804-2.802,7.601-4.4,7.601-4.4s-0.798-0.401-2.199-1c-1.498-0.497-3.598-1.302-6.303-2.099c-2.794-0.7-6.094-1.602-9.997-2.201
			c-2.8-0.5-5.903-0.901-9.302-1.1c-1.998-0.904-3.999-1.802-5.998-2.505c-3.201-0.997-6.402-1.899-9.701-2.098
			c-3.103-0.501-6.403-0.201-9.304,0c-1.5,0.301-2.897,0.601-4.3,0.901c-0.697,0.2-1.4,0.299-1.998,0.497
			c-0.699,0.203-1.301,0.402-1.903,0.7c-1.199,0.502-2.397,1.002-3.4,1.504c-1.098,0.6-2.102,1.2-2.998,1.802
			c-1.9,1.2-3.301,2.3-4.201,3.399c-1,1.001-1.802,2-2.3,2.603c-0.5,0.599-0.802,0.999-0.802,0.999s-1.199,0.098-1.999,0.197
			c-2,0.1-4.2,0.399-6.5,0.901c-2.298,0.6-4.801,1.2-7.301,2.199c-2.5,1.001-5.099,2.101-7.6,3.699
			c-2.599,1.501-5.099,3.401-7.5,5.402c-1.2,1.001-2.401,2.098-3.502,3.3c-1.101,1.099-2.2,2.399-3.201,3.699
			c-2.1,2.598-3.798,5.5-5.399,8.402c-1.5,3.099-2.797,6.098-3.498,9.298c-0.902,3.001-1.102,6.303-1.303,9.205
			c0,1.599,0.103,2.997,0.201,4.399c0.1,0.702,0.1,1.299,0.199,2.001c0.1,0.599,0.303,1.202,0.402,1.8
			c-0.203,0.1-0.402,0.297-0.7,0.396c-1.202,0.703-2.902,1.702-4.903,3.102c-0.998,0.703-1.998,1.5-3.1,2.4
			c-1.2,0.9-2.2,1.899-3.4,2.998c-2.302,2.306-4.7,4.902-6.899,7.905c-2.3,2.998-4.4,6.396-6.301,10.103
			c-1.799,3.695-3.599,7.796-4.799,12.002c-0.6,2.098-1.199,4.295-1.699,6.496c-0.402,2.3-0.8,4.502-1.102,6.802
			C74.4,333.128,74.4,337.833,74.699,342.526z"/>
		<path fill="#77C8D9" d="M67.598,260.523c0.701,0.803,1.701,2.107,2.801,3.805c1,1.699,2.299,3.801,3.4,6.2
			c1.201,2.4,2.3,5.203,3.301,8.299c0.902,3.103,1.799,6.501,2.4,10.103c0.2,1.802,0.5,3.596,0.7,5.496c0.2,1.9,0.2,3.8,0.302,5.804
			c0.197,3.897-0.102,7.9-0.503,12.002c-0.398,4.003-1.2,8.098-2.099,12.102c-1.099,3.996-2.299,7.899-3.702,11.693
			c-1.5,3.806-3.2,7.407-5,10.806c-1.999,3.3-4.002,6.502-6.101,9.399c-2.098,2.9-4.4,5.502-6.599,7.802
			c-2.201,2.301-4.201,4.398-6.402,6.001c-2.099,1.697-4,3.004-5.701,4.097c-3.299,2.201-5.5,3.2-5.5,3.2s-0.498-2.394-0.899-6.297
			c-0.2-2.004-0.299-4.299-0.399-6.803c0-2.597-0.2-5.397-0.102-8.399c0-2.998,0.301-6.101,0.501-9.4s0.598-6.6,1.1-9.998
			c0.399-3.405,0.901-6.902,1.7-10.301c0.599-3.503,1.399-7,2.299-10.404c0.802-3.397,1.899-6.798,2.802-10.201
			c0.898-3.397,2.1-6.698,3.198-9.899c0.601-1.604,1.202-3.194,1.802-4.7c0.6-1.597,1.201-3.101,1.8-4.6
			c1.2-2.998,2.4-5.799,3.699-8.5c1.2-2.7,2.502-5.201,3.6-7.402c1.2-2.199,2.202-4.196,3.203-5.898
			c0.898-1.699,1.8-3.102,2.298-4.003c0.6-1,0.9-1.498,0.9-1.498S66.898,259.426,67.598,260.523z"/>
		<g>
			<path fill="#E43B3C" d="M91.899,230.424c-0.298,1.3-0.601,3.099-0.999,5.298c-0.3,2.202-0.7,4.802-0.902,7.801
				c-0.297,3.001-0.297,6.3-0.398,9.702c0.101,1.699,0.101,3.501,0.101,5.398c0.098,1.9,0.098,3.705,0.2,5.705
				c0.198,3.898,0.5,7.899,0.798,12.1c0.301,2.098,0.301,4.2,0.6,6.396c0.103,1.104,0.202,2.202,0.302,3.306l0.099,1.598l0.1,0.802
				l0.1,1.196c0.301,5.003,0.5,9.998,0.602,15.005c0,5.102-0.4,10.504-0.801,15.599c-0.199,1.302-0.298,2.604-0.401,3.899
				c-0.2,1.202-0.297,2.504-0.5,3.7c-0.397,2.503-0.8,4.903-1.198,7.302c-0.902,4.699-2,9.302-3.202,13.595
				c-1.098,4.305-2.498,8.307-3.898,12.008c-1.5,3.7-2.899,7-4.301,10.004c-1.398,2.998-2.798,5.495-4.001,7.593
				c-2.399,4.205-4.2,6.507-4.2,6.507s-1.201-2.604-2.6-7.204c-0.7-2.301-1.501-5.102-2.298-8.202
				c-0.8-3.097-1.601-6.595-2.302-10.398c-0.7-3.8-1.399-7.901-1.998-12.201c-0.6-4.304-1.001-8.801-1.403-13.402
				c-0.198-2.3-0.398-4.6-0.497-6.994c-0.103-2.306-0.202-4.705-0.3-7.105c-0.299-4.7-0.201-9.399-0.201-14.302
				c-0.098-4.996,0-10.098,0.299-15v-0.198v-0.099c0-0.302,0,0.396,0,0.297v-0.099v-0.5l0.099-0.999l0.103-2.005
				c0.099-1.3,0.2-2.694,0.299-3.997c0.301-2.596,0.799-5.298,1.202-7.898c0.898-5.199,2.397-10.198,4.1-14.805
				c0.9-2.296,1.898-4.498,2.898-6.598c1.101-2.102,2.201-4.099,3.301-5.898c2.399-3.602,4.8-6.803,7.303-9.302
				c2.398-2.6,4.898-4.501,6.999-5.901c2.099-1.4,3.898-2.299,5.2-2.798c0.598-0.298,1.2-0.398,1.499-0.502
				c0.301-0.1,0.501-0.1,0.501-0.1S92,229.422,91.899,230.424z"/>
		</g>
		<path fill="#E43B3C" d="M171.307,234.225c0.197,0.901,0.601,2.201,0.799,3.699c0.401,1.498,0.7,3.2,1.102,4.999
			c0.301,1.702,0.699,3.602,1.097,5.701c0.503,1.899,0.904,3.8,1.401,5.501c0.399,1.699,1.1,3.198,1.603,4.401
			c0.5,1.2,1.101,2.1,1.598,2.8c0.397,0.702,0.802,1.305,1.199,2.102c0.401,0.803,0.802,1.799,1.403,3.002
			c0.596,1.197,1.298,2.698,2.098,4.296c0.899,1.802,1.801,3.601,2.701,5.202c0.899,1.801,1.899,3.701,2.803,5.6
			c0.996,1.9,1.795,3.696,2.597,5.496c0.799,1.801,1.499,3.404,1.998,4.903c0.5,1.4,0.903,2.701,1.203,3.504
			c0.102,0.395,0.2,0.794,0.303,0.998c0.098,0.302,0.098,0.401,0.098,0.401s-0.098,0.099-0.299,0.197
			c-0.299,0.099-0.602,0.203-1.002,0.401c-0.802,0.296-2.103,0.899-3.602,1.301c-1.499,0.499-3.399,0.993-5.397,1.296
			c-2.104,0.4-4.299,0.505-6.803,0.505c-2.5,0-5.098-0.302-7.898-1.005c-2.803-0.697-5.6-1.801-8.503-3.301
			c-2.898-1.497-5.8-3.595-8.5-6.297c-2.699-2.701-5.199-6.001-7.1-9.899c-1.901-3.903-3.101-8.298-3.5-12.6
			c-0.4-4.403,0.1-8.604,1.203-12.204c1.097-3.602,2.598-6.799,4.499-9.299c1.8-2.5,3.901-4.597,5.9-6.202
			c1-0.698,1.998-1.501,2.999-2.099c1.102-0.6,2-1.1,3-1.601c1.899-0.899,3.8-1.602,5.299-2.001c1.5-0.398,2.904-0.5,3.703-0.697
			c0.9-0.201,1.399-0.201,1.399-0.201S170.807,233.625,171.307,234.225z"/>
		<g>
			<path fill="#FFFFFF" d="M256.71,237.924c0,0-40.802,67.103-50.603,64.001c-6.6-2.098-16.299-7.901-27.502-14.797
				c-12.8-7.803-26.3-50.703-6.398-54.402c44.7-8.303,8.299-40.006,61.603-37.604c22.103,0.999,38.502,15.4,38.502,15.4
				L256.71,237.924z"/>
		</g>
		<path fill="#2C374B" d="M229.012,211.921c0,6.004-4.901,10.902-11.004,11.003c-6.1,0-11-4.898-11-11.003
			c0-6.103,4.9-11.001,11-11.001C224.11,200.92,229.012,205.818,229.012,211.921"/>
		<path fill="#2C374B" d="M223.809,225.425c0-0.102,0-0.199,0-0.102C223.809,225.324,223.809,225.324,223.809,225.425
			c0.103,0,0.2-0.102,0.103,0H223.809c0.103,0.197,0,0.401-0.2,0.897c-0.197,0.601-0.697,1.502-1.298,2.4
			c-1.3,1.899-3.701,3.8-6.402,4.801c-2.701,1.002-5.603,1.2-7.8,0.799c-1.101-0.199-2.001-0.5-2.603-0.799
			c-0.598-0.3-0.899-0.498-0.899-0.498s0.302-0.299,0.899-0.601c0.503-0.398,1.303-0.801,2.2-1.301c1.804-1,4.098-1.9,6.303-2.797
			c2.199-0.804,4.499-1.602,6.401-2.202c0.9-0.299,1.801-0.502,2.4-0.7c0.301-0.102,0.601-0.199,0.798-0.199h0.103
			c0,0,0.2-0.103,0.2,0c0,0.097,0,0.097,0,0.097C223.911,225.425,223.911,225.324,223.809,225.425
			C223.911,225.425,223.809,225.425,223.809,225.425L223.809,225.425z"/>
		<path fill="#2C374B" d="M245.31,286.024c-1.899,10.602-3.201,8.307-0.401,15.9c2.803,7.605,18.402,12.803,18.402,12.803
			c-54.205,21.002-69.403-17.399-69.403-17.399c-8.201-26.1,24.702-35.605,24.702-35.605
			C232.309,258.526,250.013,260.026,245.31,286.024z"/>
		<path fill="#2C374B" d="M276.913,336.229c2.201-15.198,3.3-34.502-4.303-48.403c-7.602-13.897-21.5-5.996-32-25.499
			c-15.401-28.505,14.799-65.604,33.902-54.807C279.813,210.522,354.115,263.327,276.913,336.229z"/>
	</g>
</g>
</svg>
